<svg width="16" height="16" viewBox="0 0 24 24" fill="none" xmlns="http://www.w3.org/2000/svg">
<path d="M8 12H6C4.89543 12 4 12.8954 4 14C4 15.1046 4.89543 16 6 16H16C17.1046 16 18 16.8954 18 18C18 19.1046 17.1046 20 16 20H12M12 12H14.1716C14.702 12 15.2107 11.7893 15.5858 11.4142L19.5858 7.41413C20.3668 6.63307 20.3668 5.36674 19.5858 4.5857L19.4142 4.41414C18.6332 3.63311 17.3668 3.63311 16.5858 4.41416L12.5858 8.41417C12.2107 8.78924 12 9.29795 12 9.82838V12Z" stroke="currentColor" stroke-width="2" stroke-linecap="round" stroke-linejoin="round"/>
</svg>
