<svg width="24" height="24" viewBox="0 0 24 24" fill="none" xmlns="http://www.w3.org/2000/svg">
<path d="M19 11.7324V18C19 19.1046 18.1046 20 17 20H7C5.89543 20 5 19.1046 5 18V11.7324M19 11.7324V11.5M19 11.7324C19.5978 11.3866 20 10.7403 20 10C20 8.89543 19.1046 8 18 8H6C4.89543 8 4 8.89543 4 10C4 10.7403 4.4022 11.3866 5 11.7324M19 11.7324C18.7058 11.9026 18.3643 12 18 12H6C5.63571 12 5.29417 11.9026 5 11.7324M5 11.5V11.7324M12 8V6.33333M12 8H10.3333C8.49238 8 7 6.50762 7 4.66667C7 3.74619 7.74619 3 8.66667 3C10.5076 3 12 4.49238 12 6.33333M12 8H13.6667C15.5076 8 17 6.50762 17 4.66667C17 3.74619 16.2538 3 15.3333 3C13.4924 3 12 4.49238 12 6.33333M12 8V20" stroke="currentColor" stroke-width="2"/>
</svg>
