<svg width="24" height="24" viewBox="0 0 24 24" fill="none" xmlns="http://www.w3.org/2000/svg">
<path d="M12 7.5V5.83333M12 7.5H10.3333C8.49238 7.5 7 6.00762 7 4.16667C7 3.24619 7.74619 2.5 8.66667 2.5C10.5076 2.5 12 3.99238 12 5.83333M12 7.5H13.6667C15.5076 7.5 17 6.00762 17 4.16667C17 3.24619 16.2538 2.5 15.3333 2.5C13.4924 2.5 12 3.99238 12 5.83333M12 7.5H5.5C4.39543 7.5 3.5 8.39543 3.5 9.5C3.5 10.2403 3.9022 10.8866 4.5 11.2324M12 7.5H18.5C19.6046 7.5 20.5 8.39543 20.5 9.5C20.5 10.2403 20.0978 10.8866 19.5 11.2324M12 7.5V11.5M19.5 11.2324V18.5C19.5 19.6046 18.6046 20.5 17.5 20.5H12M19.5 11.2324V11M19.5 11.2324C19.2058 11.4026 18.8643 11.5 18.5 11.5H12M4.5 11.2324V18.5C4.5 19.6046 5.39543 20.5 6.5 20.5H12M4.5 11.2324V11M4.5 11.2324C4.79417 11.4026 5.13571 11.5 5.5 11.5H12M12 20.5V11.5" stroke="currentColor" stroke-linejoin="round"/>
</svg>
