<svg width="16" height="16" viewBox="0 0 24 24" fill="none" xmlns="http://www.w3.org/2000/svg">
<path d="M11.3238 1.92468C11.5954 1.35844 12.4046 1.35844 12.6762 1.92468L15.1275 7.03542C15.2368 7.26334 15.4544 7.42074 15.7059 7.45371L21.3475 8.19359C21.9727 8.27558 22.223 9.04311 21.7654 9.47527L17.6394 13.3719C17.4552 13.5459 17.3719 13.801 17.4182 14.0496L18.4541 19.6157C18.569 20.233 17.9142 20.7072 17.3601 20.408L12.3572 17.7066C12.1344 17.5863 11.8656 17.5863 11.6428 17.7066L6.63991 20.408C6.08583 20.7072 5.43098 20.233 5.54586 19.6157L6.58183 14.0496C6.62811 13.801 6.54485 13.5459 6.36062 13.3719L2.23463 9.47526C1.77704 9.0431 2.02725 8.27558 2.65246 8.19359L8.29412 7.45371C8.54556 7.42074 8.7632 7.26334 8.87252 7.03542L11.3238 1.92468Z" stroke="currentColor" stroke-linecap="round" stroke-linejoin="round"/>
</svg>
