<svg width="16" height="16" viewBox="0 0 24 24" fill="none" xmlns="http://www.w3.org/2000/svg">
<path d="M11.6127 15.5778C9.3917 14.9627 7.3185 14.4622 5 15.485V21.4997C5 21.7759 4.77614 21.9997 4.5 21.9997C4.22386 21.9997 4 21.7759 4 21.4997V4.17863C4 3.61478 4.32117 3.0616 4.88668 2.8374C7.37795 1.84971 9.62231 2.38205 11.7094 2.95595C11.8433 2.99278 11.9765 3.02972 12.109 3.06647C14.0761 3.61209 15.8959 4.11683 17.876 3.62342C18.8334 3.38487 20 4.02007 20 5.15955V14.5431C20 15.1069 19.6788 15.6601 19.1133 15.8843C16.4728 16.9311 14.099 16.27 11.9009 15.6579L11.6127 15.5778Z" fill="currentColor"/>
</svg>
