<svg width="16" height="16" viewBox="0 0 24 24" fill="none" xmlns="http://www.w3.org/2000/svg">
<path d="M11.5497 2.03292C11.7307 1.65569 12.2693 1.65569 12.4503 2.03292L15.0189 7.38732C15.0918 7.53919 15.2367 7.64404 15.4041 7.66599L21.3154 8.44106C21.732 8.49569 21.8986 9.0078 21.5935 9.29588L17.2708 13.3775C17.1479 13.4935 17.0924 13.6637 17.1232 13.8297L18.2087 19.6603C18.2853 20.0717 17.8494 20.388 17.4803 20.1888L12.2376 17.3585C12.0894 17.2785 11.9106 17.2785 11.7624 17.3585L6.51969 20.1888C6.15063 20.388 5.71473 20.0717 5.79132 19.6603L6.87675 13.8297C6.90764 13.6637 6.8521 13.4935 6.7292 13.3775L2.40651 9.29588C2.10142 9.0078 2.26803 8.49569 2.68463 8.44106L8.5959 7.66599C8.7633 7.64404 8.90823 7.53919 8.98108 7.38732L11.5497 2.03292Z" stroke="currentColor" stroke-width="1.5" stroke-linecap="round" stroke-linejoin="round"/>
</svg>
