<svg width="16" height="16" viewBox="0 0 24 24" fill="none" xmlns="http://www.w3.org/2000/svg">
<path d="M10.5 18.4999C10.5 20.1568 8.933 21.4999 7 21.4999C5.067 21.4999 3.5 20.1568 3.5 18.4999C3.5 16.8431 5.067 15.4999 7 15.4999C8.933 15.4999 10.5 16.8431 10.5 18.4999ZM10.5 18.4999V7.41891C10.5 6.56902 11.0371 5.81195 11.8393 5.53119L17.8393 3.43119C19.1397 2.97607 20.5 3.94121 20.5 5.31891V15.4999M20.5 15.4999C20.5 17.1568 18.933 18.4999 17 18.4999C15.067 18.4999 13.5 17.1568 13.5 15.4999C13.5 13.8431 15.067 12.4999 17 12.4999C18.933 12.4999 20.5 13.8431 20.5 15.4999Z" stroke="currentColor" stroke-linejoin="round"/>
</svg>
