<svg width="24" height="24" viewBox="0 0 24 24" fill="none" xmlns="http://www.w3.org/2000/svg">
<path d="M21.5 12C21.5 17.2467 17.2467 21.5 12 21.5C6.75329 21.5 2.5 17.2467 2.5 12C2.5 6.75329 6.75329 2.5 12 2.5C17.2467 2.5 21.5 6.75329 21.5 12Z" stroke="currentColor" stroke-linejoin="round"/>
<path d="M17 12C17 14.7614 14.7614 17 12 17C9.23858 17 7 14.7614 7 12C7 9.23858 9.23858 7 12 7C14.7614 7 17 9.23858 17 12Z" stroke="currentColor" stroke-linejoin="round"/>
<path d="M12.5 12C12.5 12.2761 12.2761 12.5 12 12.5C11.7239 12.5 11.5 12.2761 11.5 12C11.5 11.7239 11.7239 11.5 12 11.5C12.2761 11.5 12.5 11.7239 12.5 12Z" stroke="currentColor" stroke-linejoin="round"/>
</svg>
