<svg width="16" height="16" viewBox="0 0 24 24" fill="none" xmlns="http://www.w3.org/2000/svg">
<path d="M6.86111 13.25H4.93454C4.17548 13.25 3.69317 12.4375 4.05665 11.7711L5.68148 8.7923C6.03194 8.14977 6.70538 7.75 7.43727 7.75H11.2292M6.86111 13.25L10.75 17.1389M6.86111 13.25L11.2292 7.75M10.75 17.1389V19.0655C10.75 19.8245 11.5625 20.3068 12.2289 19.9434L15.2077 18.3185C15.8502 17.9681 16.25 17.2946 16.25 16.5627V12.7708M10.75 17.1389L16.25 12.7708M16.25 12.7708C19.0783 10.1782 20.9249 7.36947 21.2111 3.74957C21.2546 3.199 20.801 2.7454 20.2504 2.78892C16.6305 3.07508 13.8218 4.92172 11.2292 7.75M4.80556 21.25H3.75C3.19771 21.25 2.75 20.8023 2.75 20.25V19.1945C2.75 18.0592 3.6703 17.1389 4.80556 17.1389C5.94081 17.1389 6.86111 18.0592 6.86111 19.1945C6.86111 20.3297 5.94081 21.25 4.80556 21.25Z" stroke="currentColor" stroke-width="1.5" stroke-linejoin="round"/>
</svg>
