<svg width="16" height="16" viewBox="0 0 24 24" fill="none" xmlns="http://www.w3.org/2000/svg">
<path fill-rule="evenodd" clip-rule="evenodd" d="M2.8427 11.9999C5.16307 16.4127 8.63942 18.4999 12 18.4999C15.3606 18.4999 18.8369 16.4128 21.1573 12C18.8369 7.58725 15.3606 5.50003 12 5.5C8.63941 5.49997 5.16307 7.58714 2.8427 11.9999ZM12 4C16.1417 4.00003 20.1618 6.64058 22.671 11.6649C22.7763 11.8759 22.7763 12.1241 22.671 12.3351C20.1618 17.3595 16.1417 20 12 19.9999C7.85826 19.9999 3.83815 17.3593 1.32902 12.335C1.22366 12.124 1.22366 11.8758 1.32902 11.6648C3.83815 6.64046 7.85827 3.99997 12 4Z" fill="currentColor"/>
<path d="M10.7412 10.5176L11.5528 8.89443C11.737 8.5259 12.263 8.5259 12.4472 8.89443L13.2588 10.5176C13.3072 10.6144 13.3856 10.6928 13.4824 10.7412L15.1056 11.5528C15.4741 11.737 15.4741 12.263 15.1056 12.4472L13.4824 13.2588C13.3856 13.3072 13.3072 13.3856 13.2588 13.4824L12.4472 15.1056C12.263 15.4741 11.737 15.4741 11.5528 15.1056L10.7412 13.4824C10.6928 13.3856 10.6144 13.3072 10.5176 13.2588L8.89443 12.4472C8.5259 12.263 8.5259 11.737 8.89443 11.5528L10.5176 10.7412C10.6144 10.6928 10.6928 10.6144 10.7412 10.5176Z" fill="currentColor"/>
</svg>
