<svg width="24" height="24" viewBox="0 0 24 24" fill="none" xmlns="http://www.w3.org/2000/svg">
<path d="M9.38184 5.13889C13.8388 3.79741 18.7545 5.92653 21.7551 11.5262C21.8431 11.6904 21.8871 11.7725 21.9065 11.8697C21.9226 11.9507 21.9226 12.0493 21.9065 12.1303C21.8871 12.2275 21.8432 12.3094 21.7555 12.4732C21.1446 13.6133 20.4544 14.6095 19.7048 15.4619" stroke="currentColor" stroke-linecap="round" stroke-linejoin="round" stroke-width="1.5" />
<path d="M9.5 9.92322C9.03166 10.4864 8.75 11.2103 8.75 12C8.75 13.7949 10.2051 15.25 12 15.25C12.8035 15.25 13.5389 14.9584 14.1061 14.4753" stroke="currentColor" stroke-linecap="round" stroke-linejoin="round" stroke-width="1.5" />
<path d="M6.22301 6.75C4.7161 7.87098 3.35045 9.46319 2.24484 11.5266C2.15705 11.6905 2.11315 11.7724 2.09378 11.8696C2.07764 11.9506 2.07764 12.0493 2.09379 12.1303C2.11317 12.2275 2.15734 12.3099 2.24566 12.4747C5.83178 19.1661 12.1528 20.901 17.1571 17.6795" stroke="currentColor" stroke-linecap="round" stroke-linejoin="round" stroke-width="1.5" />
<path d="M2.75 2.75L21.25 21.25" stroke="currentColor" stroke-linecap="round" stroke-linejoin="round" stroke-width="1.5" />
</svg>
