<svg width="24" height="24" viewBox="0 0 24 24" fill="none" xmlns="http://www.w3.org/2000/svg">
<path d="M13.0301 13.3138C12.6965 13.2717 12.3532 13.25 12.0011 13.25C11.9517 13.25 11.9025 13.2504 11.8535 13.2513C8.53536 13.3088 6.02177 15.3058 4.9836 18.1129C4.5748 19.2182 5.51944 20.25 6.69796 20.25H12.5011M11.8535 13.2513C11.2034 13.2626 10.5846 13.3483 10.0012 13.5M13.0301 13.3138C13.3638 13.3559 13.6878 13.4184 14.0015 13.5M13.0301 13.3138C13.7321 13.4024 14.3915 13.5812 15.0011 13.838M18.2511 15.25V18.25M18.2511 18.25V21.25M18.2511 18.25H15.2511M18.2511 18.25H21.2511M15.7511 6.5C15.7511 8.57107 14.0722 10.25 12.0011 10.25C9.93005 10.25 8.25112 8.57107 8.25112 6.5C8.25112 4.42893 9.93005 2.75 12.0011 2.75C14.0722 2.75 15.7511 4.42893 15.7511 6.5Z" stroke="currentColor" stroke-width="1.5" stroke-linecap="round" stroke-linejoin="round"/>
</svg>
