<svg width="16" height="16" viewBox="0 0 24 24" fill="none" xmlns="http://www.w3.org/2000/svg">
<path d="M13.5 7H3.5M13.5 7C13.5 5.06625 15.0663 3.5 17 3.5C18.9337 3.5 20.5 5.06625 20.5 7C20.5 8.93375 18.9337 10.5 17 10.5C15.0663 10.5 13.5 8.93375 13.5 7ZM20.5 17H12.5M12.5 17C12.5 18.9338 10.9338 20.5 9 20.5C7.06625 20.5 5.5 18.9338 5.5 17M12.5 17C12.5 15.0662 10.9338 13.5 9 13.5C7.06625 13.5 5.5 15.0662 5.5 17M5.5 17H3.5" stroke="currentColor" stroke-linecap="round" stroke-linejoin="round"/>
</svg>
