<svg width="16" height="16" viewBox="0 0 24 24" fill="none" xmlns="http://www.w3.org/2000/svg">
<path d="M16 17.5C16 19.7091 14.2091 21.5 12 21.5C9.79086 21.5 8 19.7091 8 17.5M18.6934 8.82543L18.8853 12.5899C18.8991 12.8605 18.9678 13.1254 19.087 13.3687L20.3964 16.0387C20.4645 16.1777 20.5 16.3305 20.5 16.4854C20.5 17.0457 20.0457 17.5 19.4854 17.5H4.51461C3.95426 17.5 3.5 17.0457 3.5 16.4854C3.5 16.3305 3.53545 16.1777 3.60364 16.0387L4.91297 13.3687C5.03224 13.1254 5.10086 12.8605 5.11466 12.5899L5.30665 8.82543C5.48498 5.28203 8.42883 2.5 12 2.5C15.5712 2.5 18.515 5.28203 18.6934 8.82543Z" stroke="currentColor" stroke-linecap="round" stroke-linejoin="round"/>
</svg>
