<svg width="24" height="24" viewBox="0 0 24 24" fill="none" xmlns="http://www.w3.org/2000/svg">
<path d="M3.29601 19.141L3.6365 18.4728L3.6365 18.4728L3.29601 19.141ZM2.85899 18.704L2.19074 19.0445L2.19074 19.0445L2.85899 18.704ZM21.141 18.704L20.4728 18.3635V18.3635L21.141 18.704ZM20.704 19.141L21.0445 19.8093V19.8093L20.704 19.141ZM21.141 5.29601L20.4728 5.6365V5.6365L21.141 5.29601ZM20.704 4.85899L21.0445 4.19074L21.0445 4.19074L20.704 4.85899ZM2.85899 5.29601L2.19074 4.95552L2.19074 4.95552L2.85899 5.29601ZM3.29601 4.85899L2.95552 4.19074L2.95552 4.19074L3.29601 4.85899ZM11.3668 12.4819L10.8918 13.0624V13.0624L11.3668 12.4819ZM12.6332 12.4819L13.1082 13.0624V13.0624L12.6332 12.4819ZM20.5 6.35V17.65H22V6.35H20.5ZM19.65 18.5H4.35V20H19.65V18.5ZM3.5 17.65V6.35H2V17.65H3.5ZM4.35 5.5H19.65V4H4.35V5.5ZM4.35 18.5C4.0576 18.5 3.8834 18.4994 3.75428 18.4889C3.6339 18.479 3.62011 18.4644 3.6365 18.4728L2.95552 19.8093C3.18582 19.9266 3.419 19.9665 3.63213 19.9839C3.83651 20.0006 4.08235 20 4.35 20V18.5ZM2 17.65C2 17.9177 1.99942 18.1635 2.01612 18.3679C2.03353 18.581 2.07339 18.8142 2.19074 19.0445L3.52725 18.3635C3.5356 18.3799 3.52097 18.3661 3.51113 18.2457C3.50058 18.1166 3.5 17.9424 3.5 17.65H2ZM3.6365 18.4728C3.58946 18.4488 3.55122 18.4105 3.52725 18.3635L2.19074 19.0445C2.35852 19.3738 2.62623 19.6415 2.95552 19.8093L3.6365 18.4728ZM20.5 17.65C20.5 17.9424 20.4994 18.1166 20.4889 18.2457C20.479 18.3661 20.4644 18.3799 20.4728 18.3635L21.8093 19.0445C21.9266 18.8142 21.9665 18.581 21.9839 18.3679C22.0006 18.1635 22 17.9177 22 17.65H20.5ZM19.65 20C19.9177 20 20.1635 20.0006 20.3679 19.9839C20.581 19.9665 20.8142 19.9266 21.0445 19.8093L20.3635 18.4728C20.3799 18.4644 20.3661 18.479 20.2457 18.4889C20.1166 18.4994 19.9424 18.5 19.65 18.5V20ZM20.4728 18.3635C20.4488 18.4105 20.4105 18.4488 20.3635 18.4728L21.0445 19.8093C21.3738 19.6415 21.6415 19.3738 21.8093 19.0445L20.4728 18.3635ZM22 6.35C22 6.08235 22.0006 5.83651 21.9839 5.63213C21.9665 5.419 21.9266 5.18582 21.8093 4.95552L20.4728 5.6365C20.4644 5.62011 20.479 5.6339 20.4889 5.75428C20.4994 5.8834 20.5 6.0576 20.5 6.35H22ZM19.65 5.5C19.9424 5.5 20.1166 5.50058 20.2457 5.51113C20.3661 5.52097 20.3799 5.5356 20.3635 5.52725L21.0445 4.19074C20.8142 4.07339 20.581 4.03353 20.3679 4.01612C20.1635 3.99942 19.9177 4 19.65 4V5.5ZM21.8093 4.95552C21.6415 4.62623 21.3738 4.35852 21.0445 4.19074L20.3635 5.52725C20.4105 5.55122 20.4488 5.58946 20.4728 5.6365L21.8093 4.95552ZM3.5 6.35C3.5 6.0576 3.50058 5.8834 3.51113 5.75428C3.52097 5.6339 3.5356 5.62011 3.52725 5.6365L2.19074 4.95552C2.07339 5.18582 2.03353 5.419 2.01612 5.63213C1.99942 5.83651 2 6.08235 2 6.35H3.5ZM4.35 4C4.08235 4 3.83651 3.99942 3.63213 4.01612C3.419 4.03353 3.18582 4.07339 2.95552 4.19074L3.6365 5.52725C3.62011 5.5356 3.6339 5.52097 3.75428 5.51113C3.8834 5.50058 4.0576 5.5 4.35 5.5V4ZM3.52725 5.6365C3.55122 5.58946 3.58946 5.55122 3.6365 5.52725L2.95552 4.19074C2.62623 4.35852 2.35852 4.62623 2.19074 4.95552L3.52725 5.6365ZM11.8417 11.9014L3.47493 5.0559L2.52507 6.21684L10.8918 13.0624L11.8417 11.9014ZM20.5251 5.0559L12.1583 11.9014L13.1082 13.0624L21.4749 6.21684L20.5251 5.0559ZM10.8918 13.0624C11.5365 13.5898 12.4635 13.5898 13.1082 13.0624L12.1583 11.9014C12.0662 11.9768 11.9338 11.9768 11.8417 11.9014L10.8918 13.0624Z" fill="currentColor"/>
</svg>
