<svg width="24" height="24" viewBox="0 0 24 24" fill="none" xmlns="http://www.w3.org/2000/svg">
<path fill-rule="evenodd" clip-rule="evenodd" d="M21.9973 10.9005C19.5123 6.35461 15.7951 3.99997 12.0003 4C8.20558 4.00003 4.48836 6.35472 2.00336 10.9006C1.62909 11.5853 1.62909 12.4148 2.00337 13.0995C4.48836 17.6454 8.20559 20 12.0003 20C15.7951 20 19.5123 17.6453 21.9973 13.0994C22.3716 12.4147 22.3716 11.5852 21.9973 10.9005ZM12.4472 8.77639C12.3625 8.607 12.1894 8.5 12 8.5C11.8106 8.5 11.6375 8.607 11.5528 8.77639L10.6273 10.6273L8.77639 11.5528C8.607 11.6375 8.5 11.8106 8.5 12C8.5 12.1894 8.607 12.3625 8.77639 12.4472L10.6273 13.3727L11.5528 15.2236C11.6375 15.393 11.8106 15.5 12 15.5C12.1894 15.5 12.3625 15.393 12.4472 15.2236L13.3727 13.3727L15.2236 12.4472C15.393 12.3625 15.5 12.1894 15.5 12C15.5 11.8106 15.393 11.6375 15.2236 11.5528L13.3727 10.6273L12.4472 8.77639Z" fill="currentColor"/>
</svg>
