<svg width="16" height="16" viewBox="0 0 24 24" fill="none" xmlns="http://www.w3.org/2000/svg">
<path d="M20.5 17.3V6.7C20.5 5.5799 20.5 5.01984 20.282 4.59202C20.0903 4.21569 19.7843 3.90973 19.408 3.71799C18.9802 3.5 18.4201 3.5 17.3 3.5H6.7C5.5799 3.5 5.01984 3.5 4.59202 3.71799C4.21569 3.90973 3.90973 4.21569 3.71799 4.59202C3.5 5.01984 3.5 5.5799 3.5 6.7V17.3C3.5 18.4201 3.5 18.9802 3.71799 19.408C3.90973 19.7843 4.21569 20.0903 4.59202 20.282C5.01984 20.5 5.5799 20.5 6.7 20.5H17.3C18.4201 20.5 18.9802 20.5 19.408 20.282C19.7843 20.0903 20.0903 19.7843 20.282 19.408C20.5 18.9802 20.5 18.4201 20.5 17.3Z" stroke="currentColor" stroke-linecap="round" stroke-linejoin="round"/>
</svg>
