<svg width="16" height="16" viewBox="0 0 24 24" fill="none" xmlns="http://www.w3.org/2000/svg">
<path d="M3.5 5.5C3.5 4.39543 4.39543 3.5 5.5 3.5H8.5C9.60457 3.5 10.5 4.39543 10.5 5.5V8.5C10.5 9.60457 9.60457 10.5 8.5 10.5H5.5C4.39543 10.5 3.5 9.60457 3.5 8.5V5.5Z" stroke="currentColor" stroke-linecap="round" stroke-linejoin="round"/>
<path d="M3.5 15.5C3.5 14.3954 4.39543 13.5 5.5 13.5H8.5C9.60457 13.5 10.5 14.3954 10.5 15.5V18.5C10.5 19.6046 9.60457 20.5 8.5 20.5H5.5C4.39543 20.5 3.5 19.6046 3.5 18.5V15.5Z" stroke="currentColor" stroke-linecap="round" stroke-linejoin="round"/>
<path d="M14.5 7.5L18 4L21.5 7.5" stroke="currentColor" stroke-linecap="round" stroke-linejoin="round"/>
<path d="M21.5 16.5L18 20L14.5 16.5" stroke="currentColor" stroke-linecap="round" stroke-linejoin="round"/>
<path d="M18 4.5V19.5" stroke="currentColor" stroke-linecap="round" stroke-linejoin="round"/>
</svg>
