<svg width="16" height="16" viewBox="0 0 24 24" fill="none" xmlns="http://www.w3.org/2000/svg">
<path d="M9.5 9.5C9.5 8.39543 10.3954 7.5 11.5 7.5H12.5845C13.6424 7.5 14.5 8.35759 14.5 9.41548C14.5 10.0883 14.147 10.7118 13.57 11.058L12.971 11.4174C12.3686 11.7788 12 12.4299 12 13.1324V14.5M12 16.5V16.51M21.5 12C21.5 17.2467 17.2467 21.5 12 21.5C6.75329 21.5 2.5 17.2467 2.5 12C2.5 6.75329 6.75329 2.5 12 2.5C17.2467 2.5 21.5 6.75329 21.5 12Z" stroke="currentColor" stroke-linecap="round" stroke-linejoin="round"/>
</svg>
