<svg width="16" height="16" viewBox="0 0 24 24" fill="none" xmlns="http://www.w3.org/2000/svg">
<path d="M2.78927 5.46395L10.7335 11.9638C11.4703 12.5666 12.5297 12.5666 13.2665 11.9638L21.2107 5.46395M21.2107 5.46395C21.0183 5.14624 20.7406 4.88749 20.408 4.71799C19.9802 4.5 19.4201 4.5 18.3 4.5H5.7C4.5799 4.5 4.01984 4.5 3.59202 4.71799C3.25935 4.88749 2.98167 5.14624 2.78927 5.46395C2.76401 5.50565 2.74023 5.54836 2.71799 5.59202C2.5 6.01984 2.5 6.57989 2.5 7.7V16.3C2.5 17.4201 2.5 17.9802 2.71799 18.408C2.90973 18.7843 3.21569 19.0903 3.59202 19.282C4.01984 19.5 4.57989 19.5 5.7 19.5H18.3C19.4201 19.5 19.9802 19.5 20.408 19.282C20.7843 19.0903 21.0903 18.7843 21.282 18.408C21.5 17.9802 21.5 17.4201 21.5 16.3V7.7C21.5 6.5799 21.5 6.01984 21.282 5.59202C21.2598 5.54836 21.236 5.50565 21.2107 5.46395Z" stroke="currentColor" stroke-linecap="round" stroke-linejoin="round"/>
</svg>
