<svg width="16" height="16" viewBox="0 0 24 24" fill="none" xmlns="http://www.w3.org/2000/svg">
<path d="M4.5 5.5C4.5 4.39543 5.39543 3.5 6.5 3.5H7.5C8.60457 3.5 9.5 4.39543 9.5 5.5V18.5C9.5 19.6046 8.60457 20.5 7.5 20.5H6.5C5.39543 20.5 4.5 19.6046 4.5 18.5V5.5Z" stroke="currentColor" stroke-linejoin="round"/>
<path d="M14.5 5.5C14.5 4.39543 15.3954 3.5 16.5 3.5H17.5C18.6046 3.5 19.5 4.39543 19.5 5.5V18.5C19.5 19.6046 18.6046 20.5 17.5 20.5H16.5C15.3954 20.5 14.5 19.6046 14.5 18.5V5.5Z" stroke="currentColor" stroke-linejoin="round"/>
</svg>
