<svg width="16" height="16" viewBox="0 0 24 24" fill="none" xmlns="http://www.w3.org/2000/svg">
<path d="M13.1279 1.70845C12.6748 0.763852 11.3268 0.763847 10.8738 1.70845L8.42251 6.81919C8.38657 6.89413 8.31444 6.94687 8.22993 6.95796L2.58827 7.69783C1.5483 7.83422 1.12609 9.11529 1.89215 9.83878L6.01813 13.7354C6.07916 13.7931 6.10622 13.8769 6.0911 13.9581L5.05512 19.5243C4.86247 20.5594 5.95864 21.3445 6.8783 20.8479L11.8812 18.1465C11.9558 18.1063 12.0459 18.1063 12.1204 18.1465L17.1233 20.8479C18.043 21.3445 19.1392 20.5594 18.9465 19.5243L17.9106 13.9581C17.8954 13.8769 17.9225 13.7931 17.9835 13.7354L22.1095 9.83878C22.8756 9.11529 22.4534 7.83422 21.4134 7.69783L15.7717 6.95796C15.6872 6.94687 15.6151 6.89413 15.5791 6.81919L13.1279 1.70845Z" fill="currentColor"/>
</svg>
