<svg width="24" height="24" viewBox="0 0 24 24" fill="none" xmlns="http://www.w3.org/2000/svg">
<path d="M12.9474 9.10176L15.7696 4.14333C16.3823 3.06675 17.7491 2.6833 18.8339 3.28361C19.9268 3.88843 20.3217 5.26328 19.7159 6.35441L16.933 11.3664M9.00214 11.8465C7.35656 13.7876 5.49042 14.3736 3 13.8438C4 20.5 15.5045 24.8292 16.5048 16.3405M17.9582 16.5011L7.9937 10.9869C8.23647 10.5497 8.47925 10.1125 8.72202 9.67522C9.2578 8.71027 10.474 8.36165 11.4395 8.8963L17.9053 12.4764C18.871 13.0111 19.2207 14.227 18.685 15.1922C18.4428 15.6285 18.2005 16.0648 17.9582 16.5011Z" stroke="currentColor" stroke-width="2" stroke-linecap="square" stroke-linejoin="round"/>
</svg>
