<svg width="16" height="16" viewBox="0 0 24 24" fill="none" xmlns="http://www.w3.org/2000/svg">
<path d="M12 7.5V12M9.29422 18.7337L11.3593 20.4647C11.7292 20.7748 12.2679 20.7763 12.6397 20.4684L14.738 18.73C14.9173 18.5813 15.143 18.5 15.3759 18.5H18.5C19.6046 18.5 20.5 17.6046 20.5 16.5V5.50002C20.5 4.39545 19.6046 3.50002 18.5 3.50002L5.5 3.5C4.39543 3.5 3.5 4.39543 3.5 5.5V16.5C3.5 17.6046 4.39543 18.5 5.49999 18.5L8.65182 18.5C8.88675 18.5 9.11418 18.5827 9.29422 18.7337Z" stroke="currentColor" stroke-linecap="round"/>
<path d="M12 14.5V14.49M12.25 14.5C12.25 14.6381 12.1381 14.75 12 14.75C11.8619 14.75 11.75 14.6381 11.75 14.5C11.75 14.3619 11.8619 14.25 12 14.25C12.1381 14.25 12.25 14.3619 12.25 14.5Z" stroke="currentColor" stroke-linecap="round"/>
</svg>
