<svg width="16" height="16" viewBox="0 0 24 24" fill="none" xmlns="http://www.w3.org/2000/svg">
<path d="M7.75 3.75V7.25C7.75 7.80228 8.19772 8.25 8.75 8.25H15.25C15.8023 8.25 16.25 7.80228 16.25 7.25V3.75M20.25 7.16421V19.25C20.25 19.8023 19.8023 20.25 19.25 20.25H4.75C4.19772 20.25 3.75 19.8023 3.75 19.25V4.75C3.75 4.19772 4.19772 3.75 4.75 3.75H16.8358C17.101 3.75 17.3554 3.85536 17.5429 4.04289L19.9571 6.45711C20.1446 6.64464 20.25 6.899 20.25 7.16421ZM7.75 13.75V19.25C7.75 19.8023 8.19772 20.25 8.75 20.25H15.25C15.8023 20.25 16.25 19.8023 16.25 19.25V13.75C16.25 13.1977 15.8023 12.75 15.25 12.75H8.75C8.19772 12.75 7.75 13.1977 7.75 13.75Z" stroke="currentColor" stroke-width="1.5" stroke-linecap="round" stroke-linejoin="round"/>
</svg>
