<svg width="16" height="16" viewBox="0 0 24 24" fill="none" xmlns="http://www.w3.org/2000/svg">
<path d="M6.5 18C6.5 18.2761 6.27614 18.5 6 18.5C5.72386 18.5 5.5 18.2761 5.5 18C5.5 17.7239 5.72386 17.5 6 17.5C6.27614 17.5 6.5 17.7239 6.5 18Z" stroke="currentColor" stroke-linecap="square" stroke-linejoin="round"/>
<path d="M12.5 18C12.5 18.2761 12.2761 18.5 12 18.5C11.7239 18.5 11.5 18.2761 11.5 18C11.5 17.7239 11.7239 17.5 12 17.5C12.2761 17.5 12.5 17.7239 12.5 18Z" stroke="currentColor" stroke-linecap="square" stroke-linejoin="round"/>
<path d="M9.5 20C9.5 20.2761 9.27614 20.5 9 20.5C8.72386 20.5 8.5 20.2761 8.5 20C8.5 19.7239 8.72386 19.5 9 19.5C9.27614 19.5 9.5 19.7239 9.5 20Z" stroke="currentColor" stroke-linecap="square" stroke-linejoin="round"/>
<path d="M15.5 20C15.5 20.2761 15.2761 20.5 15 20.5C14.7239 20.5 14.5 20.2761 14.5 20C14.5 19.7239 14.7239 19.5 15 19.5C15.2761 19.5 15.5 19.7239 15.5 20Z" stroke="currentColor" stroke-linecap="square" stroke-linejoin="round"/>
<path d="M18.5 18C18.5 18.2761 18.2761 18.5 18 18.5C17.7239 18.5 17.5 18.2761 17.5 18C17.5 17.7239 17.7239 17.5 18 17.5C18.2761 17.5 18.5 17.7239 18.5 18Z" stroke="currentColor" stroke-linecap="square" stroke-linejoin="round"/>
<path d="M16 15.5H9.5C6.18629 15.5 3.5 12.8137 3.5 9.5C3.5 6.18629 6.18629 3.5 9.5 3.5C11.5018 3.5 13.2747 4.48036 14.3647 5.98716C14.6389 6.36617 15.1093 6.56343 15.575 6.5198C15.7149 6.5067 15.8567 6.5 16 6.5C18.4853 6.5 20.5 8.51472 20.5 11C20.5 13.4853 18.4853 15.5 16 15.5Z" stroke="currentColor" stroke-linecap="square" stroke-linejoin="round"/>
</svg>
