<svg width="16" height="16" viewBox="0 0 24 24" fill="none" xmlns="http://www.w3.org/2000/svg">
<path d="M8.5 7C8.5 7.82843 7.82843 8.5 7 8.5C6.17157 8.5 5.5 7.82843 5.5 7C5.5 6.17157 6.17157 5.5 7 5.5C7.82843 5.5 8.5 6.17157 8.5 7Z" stroke="currentColor" stroke-linecap="square" stroke-linejoin="round"/>
<path d="M2.5 11.1716V4.5C2.5 3.39543 3.39543 2.5 4.5 2.5H11.1716C11.702 2.5 12.2107 2.71071 12.5858 3.08579L21.0858 11.5858C21.8668 12.3668 21.8668 13.6332 21.0858 14.4142L14.4142 21.0858C13.6332 21.8668 12.3668 21.8668 11.5858 21.0858L3.08579 12.5858C2.71071 12.2107 2.5 11.702 2.5 11.1716Z" stroke="currentColor" stroke-linecap="square" stroke-linejoin="round"/>
</svg>
