<svg width="16" height="16" viewBox="0 0 24 24" fill="none" xmlns="http://www.w3.org/2000/svg">
<path d="M7.5 3.5V7.5C7.5 8.05228 7.94772 8.5 8.5 8.5H15.5C16.0523 8.5 16.5 8.05228 16.5 7.5V3.5M7.5 20.5V13.5C7.5 12.9477 7.94772 12.5 8.5 12.5H15.5C16.0523 12.5 16.5 12.9477 16.5 13.5V20.5M20.5 6.91421V19.5C20.5 20.0523 20.0523 20.5 19.5 20.5H4.5C3.94772 20.5 3.5 20.0523 3.5 19.5V4.5C3.5 3.94772 3.94772 3.5 4.5 3.5H17.0858C17.351 3.5 17.6054 3.60536 17.7929 3.79289L20.2071 6.20711C20.3946 6.39464 20.5 6.649 20.5 6.91421Z" stroke="currentColor" stroke-linecap="round" stroke-linejoin="round"/>
</svg>
