<svg width="24" height="24" viewBox="0 0 24 24" fill="none" xmlns="http://www.w3.org/2000/svg">
<path d="M4 16L7.29289 12.7071C7.68342 12.3166 8.31658 12.3166 8.70711 12.7071L12 16L13.2929 14.7071C13.6834 14.3166 14.3166 14.3166 14.7071 14.7071L19 19M6 20H18C19.1046 20 20 19.1046 20 18V6C20 4.89543 19.1046 4 18 4H6C4.89543 4 4 4.89543 4 6V18C4 19.1046 4.89543 20 6 20ZM15.25 9C15.25 9.55228 14.8023 10 14.25 10C13.6977 10 13.25 9.55228 13.25 9C13.25 8.44772 13.6977 8 14.25 8C14.8023 8 15.25 8.44772 15.25 9Z" stroke="currentColor" stroke-width="2" stroke-linecap="round"/>
</svg>
