<svg width="16" height="16" viewBox="0 0 24 24" fill="none" xmlns="http://www.w3.org/2000/svg">
<path d="M10.5 5.5H6.7C5.5799 5.5 5.01984 5.5 4.59202 5.71799C4.21569 5.90973 3.90973 6.21569 3.71799 6.59202C3.5 7.01984 3.5 7.5799 3.5 8.7V17.3C3.5 18.4201 3.5 18.9802 3.71799 19.408C3.90973 19.7843 4.21569 20.0903 4.59202 20.282C5.01984 20.5 5.57989 20.5 6.7 20.5H15.3C16.4201 20.5 16.9802 20.5 17.408 20.282C17.7843 20.0903 18.0903 19.7843 18.282 19.408C18.5 18.9802 18.5 18.4201 18.5 17.3V13.5M20.5 9.5V3.5H14.5M20.5 3.5L11.5 12.5" stroke="currentColor" stroke-linecap="round" stroke-linejoin="round"/>
</svg>
