<svg width="34" height="32" viewBox="0 0 34 32" fill="none" xmlns="http://www.w3.org/2000/svg">
<path d="M29.8636 17.9925C29.8636 25.7286 23.6036 32 15.8818 32C8.15981 32 1.89993 25.7286 1.89993 17.9925C1.89993 10.2564 8.15981 3.985 15.8818 3.985C23.6036 3.985 29.8636 10.2564 29.8636 17.9925Z" fill="url(#paint0_linear_19312_20709)"/>
<path d="M0.229145 5.25107L9.90525 30.661C9.90525 30.7459 11.1061 31.3428 12.1267 31.6835L9.32321 23.9209C12.2899 21.4198 19.1872 18.4615 22.265 17.295C21.9766 17.462 21.3923 17.973 21.3625 18.6817C21.3253 19.5675 22.3633 20.9627 23.3769 20.0374C24.3906 19.1121 32.0046 17.6994 33.1169 17.3228C34.007 17.0216 34.0564 16.09 33.9701 15.6619C33.2948 12.1202 31.8384 4.79 31.4134 3.8028C30.9882 2.8156 30.2721 2.71974 29.9674 2.7952C28.9372 3.21318 25.0555 4.2263 22.781 4.70499C24.2202 11.0197 25.0129 12.5171 26.7025 15.8763L26.1834 15.1787C25.821 14.6222 25.4214 14.3921 24.2992 11.3008L21.5752 1.60218C20.7745 0.276392 19.2719 -0.175932 18.1279 0.059577C16.9839 0.295086 16.5463 0.394212 14.4811 0.902645C12.535 1.38175 5.64709 3.76376 2.49104 4.85972C2.45398 4.70593 2.35517 4.32356 2.25633 4.02435C2.13279 3.65034 1.44075 2.92816 0.501359 3.32929C-0.250183 3.65018 0.00674231 4.74421 0.229145 5.25107Z" fill="#2CB1AF"/>
<path d="M28.1649 16.9452C27.3485 15.6138 25.0186 8.41402 23.9299 4.50865L22.2847 4.81852C22.6331 6.83662 22.4907 6.88678 23.9299 10.6766C26.8146 18.2725 27.1195 16.8143 28.1649 16.9452Z" fill="#1C6665"/>
<path d="M9.27786 23.6541C8.48701 22.3025 17.1976 4.41567 16.1431 0.450394L12.7457 1.36677L9.34821 2.54497L2.52785 4.84445C2.86537 6.8935 2.72736 6.94443 4.12136 10.7924C6.91537 18.5047 8.22334 22.8432 9.27786 23.6541Z" fill="url(#paint1_linear_19312_20709)"/>
<path d="M26.4663 16.2906L21.8748 17.3587C21.8748 17.3587 21.8549 17.5056 21.5008 17.8616C21.1466 18.2176 25.4068 16.884 26.4663 16.2906Z" fill="#1C6665"/>
<path d="M25.1627 17.6562C26.7919 17.11 26.5204 16.5525 26.5204 16.2906L28.165 16.9452C28.4274 17.4052 28.1786 17.9891 27.6656 18.1176L27.1196 18.2543C26.1015 18.3681 25.0948 18.8853 23.4656 19.7046C21.4289 20.7288 23.1261 18.339 25.1627 17.6562Z" fill="#1C6665"/>
<defs>
<linearGradient id="paint0_linear_19312_20709" x1="14.1766" y1="20.7257" x2="48.3539" y2="62.6868" gradientUnits="userSpaceOnUse">
<stop stop-color="#FD766B"/>
<stop offset="1" stop-color="white"/>
</linearGradient>
<linearGradient id="paint1_linear_19312_20709" x1="2.68398" y1="5.44209" x2="8.89185" y2="25.8922" gradientUnits="userSpaceOnUse">
<stop stop-color="#1C6665"/>
<stop offset="1" stop-color="#2CB1AF"/>
</linearGradient>
</defs>
</svg>
