<svg width="486" height="76" viewBox="0 0 486 76" fill="none" xmlns="http://www.w3.org/2000/svg">
<g filter="url(#filter0_dd_19312_20420)">
<rect x="3" y="1" width="327" height="70" rx="16" fill="white"/>
<rect x="3.5" y="1.5" width="326" height="69" rx="15.5" stroke="#EDEDED"/>
<g filter="url(#filter1_dd_19312_20420)">
<rect x="15" y="12" width="48" height="48" rx="12" fill="white"/>
<rect x="15.5" y="12.5" width="47" height="47" rx="11.5" stroke="url(#paint0_linear_19312_20420)" stroke-opacity="0.4"/>
<path d="M31 30V28H39M47 30V28H39M39 28V44M39 44H37M39 44H41" stroke="#2CB1AF" stroke-width="2" stroke-linecap="round" stroke-linejoin="round"/>
</g>
<path d="M82.178 32L79.518 22.06H81.436L83.256 29.48L85.09 22.06H86.784L88.618 29.48L90.424 22.06H92.356L89.696 32H87.68L85.944 25.196L84.208 32H82.178ZM95.2613 32.168C94.4773 32.168 93.8473 31.9907 93.3713 31.636C92.8953 31.272 92.6573 30.768 92.6573 30.124C92.6573 29.48 92.858 28.976 93.2593 28.612C93.6607 28.248 94.272 27.9867 95.0933 27.828L97.5713 27.338C97.5713 26.806 97.45 26.4093 97.2073 26.148C96.9647 25.8773 96.6053 25.742 96.1293 25.742C95.7 25.742 95.3593 25.8447 95.1073 26.05C94.8647 26.246 94.6967 26.5307 94.6033 26.904L92.7833 26.82C92.9327 26.0267 93.2967 25.42 93.8753 25C94.454 24.5707 95.2053 24.356 96.1293 24.356C97.1933 24.356 97.996 24.6267 98.5373 25.168C99.088 25.7 99.3633 26.4653 99.3633 27.464V30.18C99.3633 30.376 99.396 30.5113 99.4613 30.586C99.536 30.6607 99.6433 30.698 99.7833 30.698H100.021V32C99.9653 32.0187 99.872 32.0327 99.7413 32.042C99.62 32.0513 99.494 32.056 99.3633 32.056C99.0553 32.056 98.78 32.0093 98.5373 31.916C98.2947 31.8133 98.108 31.6407 97.9773 31.398C97.8467 31.146 97.7813 30.8053 97.7813 30.376L97.9353 30.488C97.8607 30.8147 97.6973 31.1087 97.4453 31.37C97.2027 31.622 96.8947 31.818 96.5213 31.958C96.148 32.098 95.728 32.168 95.2613 32.168ZM95.6253 30.866C96.0267 30.866 96.372 30.7867 96.6613 30.628C96.9507 30.4693 97.1747 30.25 97.3333 29.97C97.492 29.69 97.5713 29.3587 97.5713 28.976V28.556L95.6393 28.948C95.238 29.032 94.9487 29.158 94.7713 29.326C94.6033 29.4847 94.5193 29.6947 94.5193 29.956C94.5193 30.2453 94.6127 30.4693 94.7993 30.628C94.9953 30.7867 95.2707 30.866 95.6253 30.866ZM104.141 32.168C103.385 32.168 102.755 32.0607 102.251 31.846C101.756 31.6313 101.378 31.3327 101.117 30.95C100.856 30.5673 100.706 30.1333 100.669 29.648L102.503 29.564C102.568 29.956 102.727 30.2593 102.979 30.474C103.231 30.6887 103.623 30.796 104.155 30.796C104.575 30.796 104.892 30.7307 105.107 30.6C105.331 30.46 105.443 30.2453 105.443 29.956C105.443 29.788 105.401 29.648 105.317 29.536C105.242 29.424 105.088 29.326 104.855 29.242C104.631 29.158 104.3 29.074 103.861 28.99C103.105 28.8593 102.512 28.7007 102.083 28.514C101.654 28.318 101.35 28.0753 101.173 27.786C101.005 27.4967 100.921 27.1373 100.921 26.708C100.921 26.008 101.187 25.4433 101.719 25.014C102.26 24.5753 103.049 24.356 104.085 24.356C104.804 24.356 105.392 24.4727 105.849 24.706C106.316 24.93 106.666 25.2333 106.899 25.616C107.142 25.9893 107.282 26.4093 107.319 26.876L105.499 26.96C105.49 26.7267 105.434 26.5167 105.331 26.33C105.228 26.1433 105.074 25.9987 104.869 25.896C104.664 25.784 104.393 25.728 104.057 25.728C103.637 25.728 103.315 25.812 103.091 25.98C102.876 26.148 102.769 26.372 102.769 26.652C102.769 26.848 102.811 27.0113 102.895 27.142C102.988 27.2727 103.142 27.38 103.357 27.464C103.572 27.5387 103.866 27.6087 104.239 27.674C105.004 27.786 105.611 27.94 106.059 28.136C106.507 28.332 106.824 28.5793 107.011 28.878C107.207 29.1673 107.305 29.5173 107.305 29.928C107.305 30.6467 107.016 31.202 106.437 31.594C105.868 31.9767 105.102 32.168 104.141 32.168ZM112.15 32V22.06H113.942V26.232H113.718C113.793 25.8027 113.942 25.4527 114.166 25.182C114.39 24.902 114.665 24.6967 114.992 24.566C115.319 24.426 115.678 24.356 116.07 24.356C116.621 24.356 117.083 24.4773 117.456 24.72C117.839 24.9533 118.123 25.2847 118.31 25.714C118.506 26.1433 118.604 26.638 118.604 27.198V32H116.812V27.632C116.812 27.0253 116.709 26.5727 116.504 26.274C116.299 25.966 115.977 25.812 115.538 25.812C115.053 25.812 114.665 25.9707 114.376 26.288C114.087 26.6053 113.942 27.0673 113.942 27.674V32H112.15ZM122.564 32.168C121.78 32.168 121.15 31.9907 120.674 31.636C120.198 31.272 119.96 30.768 119.96 30.124C119.96 29.48 120.161 28.976 120.562 28.612C120.963 28.248 121.575 27.9867 122.396 27.828L124.874 27.338C124.874 26.806 124.753 26.4093 124.51 26.148C124.267 25.8773 123.908 25.742 123.432 25.742C123.003 25.742 122.662 25.8447 122.41 26.05C122.167 26.246 121.999 26.5307 121.906 26.904L120.086 26.82C120.235 26.0267 120.599 25.42 121.178 25C121.757 24.5707 122.508 24.356 123.432 24.356C124.496 24.356 125.299 24.6267 125.84 25.168C126.391 25.7 126.666 26.4653 126.666 27.464V30.18C126.666 30.376 126.699 30.5113 126.764 30.586C126.839 30.6607 126.946 30.698 127.086 30.698H127.324V32C127.268 32.0187 127.175 32.0327 127.044 32.042C126.923 32.0513 126.797 32.056 126.666 32.056C126.358 32.056 126.083 32.0093 125.84 31.916C125.597 31.8133 125.411 31.6407 125.28 31.398C125.149 31.146 125.084 30.8053 125.084 30.376L125.238 30.488C125.163 30.8147 125 31.1087 124.748 31.37C124.505 31.622 124.197 31.818 123.824 31.958C123.451 32.098 123.031 32.168 122.564 32.168ZM122.928 30.866C123.329 30.866 123.675 30.7867 123.964 30.628C124.253 30.4693 124.477 30.25 124.636 29.97C124.795 29.69 124.874 29.3587 124.874 28.976V28.556L122.942 28.948C122.541 29.032 122.251 29.158 122.074 29.326C121.906 29.4847 121.822 29.6947 121.822 29.956C121.822 30.2453 121.915 30.4693 122.102 30.628C122.298 30.7867 122.573 30.866 122.928 30.866ZM131.444 32.168C130.688 32.168 130.058 32.0607 129.554 31.846C129.059 31.6313 128.681 31.3327 128.42 30.95C128.158 30.5673 128.009 30.1333 127.972 29.648L129.806 29.564C129.871 29.956 130.03 30.2593 130.282 30.474C130.534 30.6887 130.926 30.796 131.458 30.796C131.878 30.796 132.195 30.7307 132.41 30.6C132.634 30.46 132.746 30.2453 132.746 29.956C132.746 29.788 132.704 29.648 132.62 29.536C132.545 29.424 132.391 29.326 132.158 29.242C131.934 29.158 131.602 29.074 131.164 28.99C130.408 28.8593 129.815 28.7007 129.386 28.514C128.956 28.318 128.653 28.0753 128.476 27.786C128.308 27.4967 128.224 27.1373 128.224 26.708C128.224 26.008 128.49 25.4433 129.022 25.014C129.563 24.5753 130.352 24.356 131.388 24.356C132.106 24.356 132.694 24.4727 133.152 24.706C133.618 24.93 133.968 25.2333 134.202 25.616C134.444 25.9893 134.584 26.4093 134.622 26.876L132.802 26.96C132.792 26.7267 132.736 26.5167 132.634 26.33C132.531 26.1433 132.377 25.9987 132.172 25.896C131.966 25.784 131.696 25.728 131.36 25.728C130.94 25.728 130.618 25.812 130.394 25.98C130.179 26.148 130.072 26.372 130.072 26.652C130.072 26.848 130.114 27.0113 130.198 27.142C130.291 27.2727 130.445 27.38 130.66 27.464C130.874 27.5387 131.168 27.6087 131.542 27.674C132.307 27.786 132.914 27.94 133.362 28.136C133.81 28.332 134.127 28.5793 134.314 28.878C134.51 29.1673 134.608 29.5173 134.608 29.928C134.608 30.6467 134.318 31.202 133.74 31.594C133.17 31.9767 132.405 32.168 131.444 32.168ZM138.744 32C137.997 32 137.446 31.8273 137.092 31.482C136.746 31.1367 136.574 30.5953 136.574 29.858V22.774H138.366V29.69C138.366 30.0353 138.44 30.278 138.59 30.418C138.739 30.5487 138.972 30.614 139.29 30.614H140.34V32H138.744ZM135.398 25.91V24.524H140.34V25.91H135.398ZM147.691 32.168C147.056 32.168 146.505 32.0093 146.039 31.692C145.581 31.3747 145.227 30.922 144.975 30.334C144.723 29.746 144.597 29.0553 144.597 28.262C144.597 27.4687 144.723 26.778 144.975 26.19C145.227 25.602 145.586 25.1493 146.053 24.832C146.519 24.5147 147.065 24.356 147.691 24.356C148.213 24.356 148.671 24.4633 149.063 24.678C149.464 24.8927 149.767 25.196 149.973 25.588V22.06H151.765V32H150.057L150.015 30.894C149.809 31.2953 149.501 31.608 149.091 31.832C148.68 32.056 148.213 32.168 147.691 32.168ZM148.237 30.712C148.61 30.712 148.923 30.6187 149.175 30.432C149.436 30.2453 149.632 29.97 149.763 29.606C149.903 29.2327 149.973 28.7847 149.973 28.262C149.973 27.73 149.903 27.282 149.763 26.918C149.632 26.554 149.436 26.2787 149.175 26.092C148.923 25.9053 148.61 25.812 148.237 25.812C147.695 25.812 147.261 26.0313 146.935 26.47C146.617 26.8993 146.459 27.4967 146.459 28.262C146.459 29.0087 146.617 29.606 146.935 30.054C147.261 30.4927 147.695 30.712 148.237 30.712ZM155.944 32.168C155.188 32.168 154.586 31.9207 154.138 31.426C153.699 30.922 153.48 30.2267 153.48 29.34V24.524H155.272V28.892C155.272 29.5173 155.375 29.9793 155.58 30.278C155.795 30.5673 156.117 30.712 156.546 30.712C157.031 30.712 157.405 30.5533 157.666 30.236C157.937 29.9093 158.072 29.438 158.072 28.822V24.524H159.864V32H158.226L158.184 29.942L158.408 30.012C158.296 30.7213 158.03 31.258 157.61 31.622C157.19 31.986 156.635 32.168 155.944 32.168ZM165.142 32V22.06H166.934V26.232H166.71C166.785 25.8027 166.934 25.4527 167.158 25.182C167.382 24.902 167.657 24.6967 167.984 24.566C168.311 24.426 168.67 24.356 169.062 24.356C169.613 24.356 170.075 24.4773 170.448 24.72C170.831 24.9533 171.115 25.2847 171.302 25.714C171.498 26.1433 171.596 26.638 171.596 27.198V32H169.804V27.632C169.804 27.0253 169.701 26.5727 169.496 26.274C169.291 25.966 168.969 25.812 168.53 25.812C168.045 25.812 167.657 25.9707 167.368 26.288C167.079 26.6053 166.934 27.0673 166.934 27.674V32H165.142ZM176.607 32.168C175.86 32.168 175.211 32.0093 174.661 31.692C174.11 31.3653 173.685 30.908 173.387 30.32C173.088 29.732 172.939 29.046 172.939 28.262C172.939 27.478 173.088 26.7967 173.387 26.218C173.685 25.63 174.105 25.1727 174.647 24.846C175.197 24.5193 175.837 24.356 176.565 24.356C177.274 24.356 177.895 24.5147 178.427 24.832C178.968 25.1493 179.383 25.6067 179.673 26.204C179.962 26.8013 180.107 27.52 180.107 28.36V28.766H174.801C174.838 29.4193 175.015 29.914 175.333 30.25C175.659 30.5767 176.089 30.74 176.621 30.74C177.022 30.74 177.353 30.6513 177.615 30.474C177.885 30.2873 178.072 30.0307 178.175 29.704L180.009 29.816C179.803 30.544 179.397 31.118 178.791 31.538C178.193 31.958 177.465 32.168 176.607 32.168ZM174.801 27.562H178.259C178.221 26.9553 178.049 26.5073 177.741 26.218C177.433 25.9193 177.041 25.77 176.565 25.77C176.089 25.77 175.692 25.924 175.375 26.232C175.067 26.54 174.875 26.9833 174.801 27.562ZM183.971 32.168C183.215 32.168 182.613 31.9207 182.165 31.426C181.727 30.922 181.507 30.2267 181.507 29.34V24.524H183.299V28.892C183.299 29.5173 183.402 29.9793 183.607 30.278C183.822 30.5673 184.144 30.712 184.573 30.712C185.059 30.712 185.432 30.5533 185.693 30.236C185.964 29.9093 186.099 29.438 186.099 28.822V24.524H187.891V32H186.253L186.211 29.942L186.435 30.012C186.323 30.7213 186.057 31.258 185.637 31.622C185.217 31.986 184.662 32.168 183.971 32.168ZM192.529 32C191.782 32 191.231 31.8273 190.877 31.482C190.531 31.1367 190.359 30.5953 190.359 29.858V22.774H192.151V29.69C192.151 30.0353 192.225 30.278 192.375 30.418C192.524 30.5487 192.757 30.614 193.075 30.614H194.125V32H192.529ZM189.183 25.91V24.524H194.125V25.91H189.183ZM198.55 32.168C197.803 32.168 197.155 32.0093 196.604 31.692C196.053 31.3653 195.629 30.908 195.33 30.32C195.031 29.732 194.882 29.046 194.882 28.262C194.882 27.478 195.031 26.7967 195.33 26.218C195.629 25.63 196.049 25.1727 196.59 24.846C197.141 24.5193 197.78 24.356 198.508 24.356C199.217 24.356 199.838 24.5147 200.37 24.832C200.911 25.1493 201.327 25.6067 201.616 26.204C201.905 26.8013 202.05 27.52 202.05 28.36V28.766H196.744C196.781 29.4193 196.959 29.914 197.276 30.25C197.603 30.5767 198.032 30.74 198.564 30.74C198.965 30.74 199.297 30.6513 199.558 30.474C199.829 30.2873 200.015 30.0307 200.118 29.704L201.952 29.816C201.747 30.544 201.341 31.118 200.734 31.538C200.137 31.958 199.409 32.168 198.55 32.168ZM196.744 27.562H200.202C200.165 26.9553 199.992 26.5073 199.684 26.218C199.376 25.9193 198.984 25.77 198.508 25.77C198.032 25.77 197.635 25.924 197.318 26.232C197.01 26.54 196.819 26.9833 196.744 27.562ZM210.088 34.268C209.435 34.268 208.875 34.1793 208.408 34.002C207.941 33.8247 207.563 33.5727 207.274 33.246C206.994 32.9287 206.798 32.56 206.686 32.14L208.534 32.014C208.627 32.294 208.786 32.5133 209.01 32.672C209.243 32.8307 209.603 32.91 210.088 32.91C210.639 32.91 211.063 32.784 211.362 32.532C211.661 32.2893 211.81 31.9067 211.81 31.384V30.432C211.633 30.796 211.348 31.09 210.956 31.314C210.564 31.5287 210.125 31.636 209.64 31.636C209.024 31.636 208.473 31.4867 207.988 31.188C207.512 30.88 207.139 30.4553 206.868 29.914C206.597 29.3633 206.462 28.7287 206.462 28.01C206.462 27.2913 206.593 26.6613 206.854 26.12C207.125 25.5693 207.498 25.14 207.974 24.832C208.45 24.5147 208.996 24.356 209.612 24.356C210.153 24.356 210.62 24.4773 211.012 24.72C211.404 24.9627 211.689 25.2847 211.866 25.686V24.524H213.616V31.342C213.616 31.9767 213.467 32.5133 213.168 32.952C212.879 33.3907 212.468 33.7173 211.936 33.932C211.413 34.156 210.797 34.268 210.088 34.268ZM210.06 30.236C210.592 30.236 211.017 30.04 211.334 29.648C211.651 29.2467 211.815 28.696 211.824 27.996C211.833 27.5293 211.763 27.1327 211.614 26.806C211.474 26.47 211.269 26.2133 210.998 26.036C210.737 25.8493 210.424 25.756 210.06 25.756C209.509 25.756 209.08 25.9613 208.772 26.372C208.473 26.7733 208.324 27.3147 208.324 27.996C208.324 28.6773 208.478 29.2233 208.786 29.634C209.103 30.0353 209.528 30.236 210.06 30.236ZM218.675 32.168C217.928 32.168 217.28 32.0093 216.729 31.692C216.178 31.3653 215.754 30.908 215.455 30.32C215.156 29.732 215.007 29.046 215.007 28.262C215.007 27.478 215.156 26.7967 215.455 26.218C215.754 25.63 216.174 25.1727 216.715 24.846C217.266 24.5193 217.905 24.356 218.633 24.356C219.342 24.356 219.963 24.5147 220.495 24.832C221.036 25.1493 221.452 25.6067 221.741 26.204C222.03 26.8013 222.175 27.52 222.175 28.36V28.766H216.869C216.906 29.4193 217.084 29.914 217.401 30.25C217.728 30.5767 218.157 30.74 218.689 30.74C219.09 30.74 219.422 30.6513 219.683 30.474C219.954 30.2873 220.14 30.0307 220.243 29.704L222.077 29.816C221.872 30.544 221.466 31.118 220.859 31.538C220.262 31.958 219.534 32.168 218.675 32.168ZM216.869 27.562H220.327C220.29 26.9553 220.117 26.5073 219.809 26.218C219.501 25.9193 219.109 25.77 218.633 25.77C218.157 25.77 217.76 25.924 217.443 26.232C217.135 26.54 216.944 26.9833 216.869 27.562ZM225.436 32C224.895 32 224.461 31.86 224.134 31.58C223.807 31.3 223.644 30.852 223.644 30.236V22.06H225.436V30.054C225.436 30.2407 225.483 30.3807 225.576 30.474C225.679 30.5673 225.819 30.614 225.996 30.614H226.542V32H225.436ZM230.925 32.168C230.178 32.168 229.53 32.0093 228.979 31.692C228.428 31.3653 228.004 30.908 227.705 30.32C227.406 29.732 227.257 29.046 227.257 28.262C227.257 27.478 227.406 26.7967 227.705 26.218C228.004 25.63 228.424 25.1727 228.965 24.846C229.516 24.5193 230.155 24.356 230.883 24.356C231.592 24.356 232.213 24.5147 232.745 24.832C233.286 25.1493 233.702 25.6067 233.991 26.204C234.28 26.8013 234.425 27.52 234.425 28.36V28.766H229.119C229.156 29.4193 229.334 29.914 229.651 30.25C229.978 30.5767 230.407 30.74 230.939 30.74C231.34 30.74 231.672 30.6513 231.933 30.474C232.204 30.2873 232.39 30.0307 232.493 29.704L234.327 29.816C234.122 30.544 233.716 31.118 233.109 31.538C232.512 31.958 231.784 32.168 230.925 32.168ZM229.119 27.562H232.577C232.54 26.9553 232.367 26.5073 232.059 26.218C231.751 25.9193 231.359 25.77 230.883 25.77C230.407 25.77 230.01 25.924 229.693 26.232C229.385 26.54 229.194 26.9833 229.119 27.562ZM235.826 32V24.524H237.506L237.576 26.596L237.422 26.568C237.534 25.8493 237.744 25.3313 238.052 25.014C238.369 24.6873 238.798 24.524 239.34 24.524H240.026V26.064H239.326C238.943 26.064 238.626 26.12 238.374 26.232C238.122 26.344 237.93 26.5213 237.8 26.764C237.678 26.9973 237.618 27.3053 237.618 27.688V32H235.826ZM241.103 32V24.524H242.727L242.797 26.624L242.587 26.54C242.662 26.0173 242.816 25.5973 243.049 25.28C243.282 24.9627 243.567 24.7293 243.903 24.58C244.239 24.4307 244.608 24.356 245.009 24.356C245.56 24.356 246.022 24.4773 246.395 24.72C246.778 24.9627 247.067 25.2987 247.263 25.728C247.459 26.148 247.557 26.638 247.557 27.198V32H245.765V27.772C245.765 27.352 245.723 26.9973 245.639 26.708C245.555 26.4187 245.415 26.1993 245.219 26.05C245.032 25.8913 244.78 25.812 244.463 25.812C243.987 25.812 243.604 25.98 243.315 26.316C243.035 26.652 242.895 27.1373 242.895 27.772V32H241.103ZM251.988 32C251.241 32 250.69 31.8273 250.336 31.482C249.99 31.1367 249.818 30.5953 249.818 29.858V22.774H251.61V29.69C251.61 30.0353 251.684 30.278 251.834 30.418C251.983 30.5487 252.216 30.614 252.534 30.614H253.584V32H251.988ZM248.642 25.91V24.524H253.584V25.91H248.642ZM257.108 28.962C257.108 28.2433 257.211 27.688 257.416 27.296C257.622 26.8947 257.976 26.5587 258.48 26.288C258.826 26.1013 259.087 25.938 259.264 25.798C259.442 25.6487 259.558 25.4947 259.614 25.336C259.68 25.168 259.712 24.9627 259.712 24.72C259.712 24.328 259.582 24.006 259.32 23.754C259.068 23.502 258.704 23.376 258.228 23.376C257.678 23.376 257.253 23.5207 256.954 23.81C256.656 24.0993 256.474 24.524 256.408 25.084L254.532 25C254.588 24.384 254.766 23.838 255.064 23.362C255.372 22.886 255.792 22.5127 256.324 22.242C256.856 21.9713 257.491 21.836 258.228 21.836C258.928 21.836 259.526 21.962 260.02 22.214C260.524 22.466 260.907 22.8113 261.168 23.25C261.43 23.6793 261.56 24.1693 261.56 24.72C261.56 25.1307 261.5 25.476 261.378 25.756C261.266 26.036 261.08 26.2927 260.818 26.526C260.566 26.75 260.235 26.988 259.824 27.24C259.47 27.4453 259.222 27.6693 259.082 27.912C258.952 28.1547 258.886 28.5047 258.886 28.962H257.108ZM256.954 32V30.04H258.998V32H256.954Z" fill="#252629"/>
<path d="M83.032 51.192C82.376 51.192 81.804 51.068 81.316 50.82C80.828 50.572 80.44 50.232 80.152 49.8C79.872 49.36 79.708 48.852 79.66 48.276L80.74 48.204C80.796 48.628 80.92 48.988 81.112 49.284C81.304 49.58 81.56 49.804 81.88 49.956C82.208 50.108 82.6 50.184 83.056 50.184C83.456 50.184 83.796 50.132 84.076 50.028C84.356 49.924 84.568 49.772 84.712 49.572C84.864 49.372 84.94 49.128 84.94 48.84C84.94 48.576 84.876 48.344 84.748 48.144C84.628 47.936 84.392 47.748 84.04 47.58C83.696 47.404 83.184 47.232 82.504 47.064C81.848 46.896 81.324 46.712 80.932 46.512C80.548 46.312 80.268 46.068 80.092 45.78C79.924 45.492 79.84 45.136 79.84 44.712C79.84 44.232 79.952 43.812 80.176 43.452C80.408 43.084 80.736 42.8 81.16 42.6C81.584 42.392 82.088 42.288 82.672 42.288C83.296 42.288 83.832 42.408 84.28 42.648C84.728 42.88 85.084 43.2 85.348 43.608C85.612 44.016 85.776 44.48 85.84 45L84.76 45.072C84.712 44.728 84.6 44.424 84.424 44.16C84.256 43.888 84.024 43.676 83.728 43.524C83.432 43.372 83.072 43.296 82.648 43.296C82.12 43.296 81.7 43.424 81.388 43.68C81.076 43.928 80.92 44.256 80.92 44.664C80.92 44.928 80.98 45.148 81.1 45.324C81.228 45.492 81.452 45.644 81.772 45.78C82.092 45.908 82.552 46.048 83.152 46.2C83.864 46.376 84.428 46.588 84.844 46.836C85.268 47.076 85.568 47.356 85.744 47.676C85.928 47.996 86.02 48.36 86.02 48.768C86.02 49.264 85.892 49.696 85.636 50.064C85.38 50.424 85.028 50.704 84.58 50.904C84.132 51.096 83.616 51.192 83.032 51.192ZM88.8838 51C88.5158 51 88.2158 50.904 87.9838 50.712C87.7518 50.52 87.6358 50.216 87.6358 49.8V42.48H88.6438V49.716C88.6438 49.844 88.6758 49.944 88.7398 50.016C88.8118 50.08 88.9118 50.112 89.0398 50.112H89.5918V51H88.8838ZM90.7413 51V44.64H91.7493V51H90.7413ZM90.7173 43.644V42.468H91.7733V43.644H90.7173ZM93.7413 51V44.64H94.6653L94.7013 46.26L94.5813 46.152C94.6613 45.776 94.8013 45.468 95.0013 45.228C95.2013 44.98 95.4413 44.796 95.7213 44.676C96.0093 44.556 96.3173 44.496 96.6453 44.496C97.1333 44.496 97.5333 44.604 97.8453 44.82C98.1653 45.036 98.4013 45.328 98.5533 45.696C98.7133 46.056 98.7933 46.46 98.7933 46.908V51H97.7853V47.196C97.7853 46.804 97.7373 46.476 97.6413 46.212C97.5533 45.94 97.4093 45.736 97.2093 45.6C97.0093 45.456 96.7493 45.384 96.4293 45.384C95.9413 45.384 95.5373 45.54 95.2173 45.852C94.9053 46.156 94.7493 46.604 94.7493 47.196V51H93.7413ZM102.985 52.944C102.529 52.944 102.117 52.868 101.749 52.716C101.381 52.564 101.073 52.348 100.825 52.068C100.577 51.788 100.409 51.464 100.321 51.096L101.377 51.024C101.473 51.32 101.641 51.552 101.881 51.72C102.129 51.896 102.497 51.984 102.985 51.984C103.561 51.984 104.001 51.868 104.305 51.636C104.617 51.404 104.773 51.056 104.773 50.592V49.56C104.621 49.896 104.377 50.164 104.041 50.364C103.705 50.564 103.329 50.664 102.913 50.664C102.377 50.664 101.897 50.532 101.473 50.268C101.057 50.004 100.729 49.64 100.489 49.176C100.257 48.712 100.141 48.18 100.141 47.58C100.141 46.972 100.257 46.44 100.489 45.984C100.721 45.52 101.041 45.156 101.449 44.892C101.865 44.628 102.337 44.496 102.865 44.496C103.313 44.496 103.713 44.6 104.065 44.808C104.425 45.016 104.677 45.296 104.821 45.648V44.64H105.781V50.568C105.781 51.064 105.669 51.488 105.445 51.84C105.221 52.2 104.901 52.472 104.485 52.656C104.069 52.848 103.569 52.944 102.985 52.944ZM102.961 49.704C103.505 49.704 103.941 49.516 104.269 49.14C104.597 48.756 104.765 48.236 104.773 47.58C104.781 47.14 104.709 46.764 104.557 46.452C104.413 46.132 104.201 45.888 103.921 45.72C103.649 45.544 103.329 45.456 102.961 45.456C102.401 45.456 101.965 45.648 101.653 46.032C101.349 46.408 101.197 46.924 101.197 47.58C101.197 48.236 101.353 48.756 101.665 49.14C101.985 49.516 102.417 49.704 102.961 49.704ZM108.946 51C108.578 51 108.278 50.904 108.046 50.712C107.814 50.52 107.698 50.216 107.698 49.8V42.48H108.706V49.716C108.706 49.844 108.738 49.944 108.802 50.016C108.874 50.08 108.974 50.112 109.102 50.112H109.654V51H108.946ZM113.311 51.144C112.711 51.144 112.191 51.008 111.751 50.736C111.319 50.464 110.983 50.08 110.743 49.584C110.511 49.08 110.395 48.492 110.395 47.82C110.395 47.148 110.511 46.564 110.743 46.068C110.983 45.572 111.315 45.188 111.739 44.916C112.171 44.636 112.679 44.496 113.263 44.496C113.815 44.496 114.303 44.628 114.727 44.892C115.151 45.148 115.479 45.524 115.711 46.02C115.951 46.516 116.071 47.12 116.071 47.832V48.132H111.451C111.491 48.812 111.671 49.324 111.991 49.668C112.319 50.012 112.759 50.184 113.311 50.184C113.727 50.184 114.067 50.088 114.331 49.896C114.603 49.696 114.791 49.436 114.895 49.116L115.975 49.2C115.807 49.768 115.487 50.236 115.015 50.604C114.551 50.964 113.983 51.144 113.311 51.144ZM111.451 47.244H114.967C114.919 46.628 114.739 46.176 114.427 45.888C114.123 45.6 113.735 45.456 113.263 45.456C112.775 45.456 112.371 45.608 112.051 45.912C111.739 46.208 111.539 46.652 111.451 47.244ZM122.39 51V43.488H119.738V42.48H126.074V43.488H123.422V51H122.39ZM128.698 51.144C128.098 51.144 127.578 51.008 127.138 50.736C126.706 50.464 126.37 50.08 126.13 49.584C125.898 49.08 125.782 48.492 125.782 47.82C125.782 47.148 125.898 46.564 126.13 46.068C126.37 45.572 126.702 45.188 127.126 44.916C127.558 44.636 128.066 44.496 128.65 44.496C129.202 44.496 129.69 44.628 130.114 44.892C130.538 45.148 130.866 45.524 131.098 46.02C131.338 46.516 131.458 47.12 131.458 47.832V48.132H126.838C126.878 48.812 127.058 49.324 127.378 49.668C127.706 50.012 128.146 50.184 128.698 50.184C129.114 50.184 129.454 50.088 129.718 49.896C129.99 49.696 130.178 49.436 130.282 49.116L131.362 49.2C131.194 49.768 130.874 50.236 130.402 50.604C129.938 50.964 129.37 51.144 128.698 51.144ZM126.838 47.244H130.354C130.306 46.628 130.126 46.176 129.814 45.888C129.51 45.6 129.122 45.456 128.65 45.456C128.162 45.456 127.758 45.608 127.438 45.912C127.126 46.208 126.926 46.652 126.838 47.244ZM131.947 51L134.287 47.736L132.067 44.64H133.243L134.911 47.04L136.531 44.64H137.731L135.535 47.76L137.839 51H136.663L134.911 48.432L133.147 51H131.947ZM141.058 51C140.482 51 140.054 50.868 139.774 50.604C139.502 50.34 139.366 49.928 139.366 49.368V43.152H140.374V49.344C140.374 49.632 140.438 49.832 140.566 49.944C140.694 50.056 140.89 50.112 141.154 50.112H142.066V51H141.058ZM138.43 45.528V44.64H142.066V45.528H138.43ZM146.573 51V42.48H147.605V51H146.573ZM149.733 51V44.64H150.657L150.693 46.26L150.573 46.152C150.653 45.776 150.793 45.468 150.993 45.228C151.193 44.98 151.433 44.796 151.713 44.676C152.001 44.556 152.309 44.496 152.637 44.496C153.125 44.496 153.525 44.604 153.837 44.82C154.157 45.036 154.393 45.328 154.545 45.696C154.705 46.056 154.785 46.46 154.785 46.908V51H153.777V47.196C153.777 46.804 153.729 46.476 153.633 46.212C153.545 45.94 153.401 45.736 153.201 45.6C153.001 45.456 152.741 45.384 152.421 45.384C151.933 45.384 151.529 45.54 151.209 45.852C150.897 46.156 150.741 46.604 150.741 47.196V51H149.733ZM156.472 52.8V44.64H157.408L157.432 46.008L157.288 45.936C157.448 45.464 157.712 45.108 158.08 44.868C158.456 44.62 158.888 44.496 159.376 44.496C160.008 44.496 160.524 44.652 160.924 44.964C161.332 45.276 161.632 45.684 161.824 46.188C162.024 46.692 162.124 47.236 162.124 47.82C162.124 48.404 162.024 48.948 161.824 49.452C161.632 49.956 161.332 50.364 160.924 50.676C160.524 50.988 160.008 51.144 159.376 51.144C159.048 51.144 158.74 51.088 158.452 50.976C158.172 50.864 157.932 50.708 157.732 50.508C157.54 50.308 157.408 50.072 157.336 49.8L157.48 49.632V52.8H156.472ZM159.28 50.184C159.832 50.184 160.268 49.976 160.588 49.56C160.908 49.144 161.068 48.564 161.068 47.82C161.068 47.076 160.908 46.496 160.588 46.08C160.268 45.664 159.832 45.456 159.28 45.456C158.912 45.456 158.592 45.544 158.32 45.72C158.056 45.896 157.848 46.16 157.696 46.512C157.552 46.864 157.48 47.3 157.48 47.82C157.48 48.34 157.552 48.776 157.696 49.128C157.84 49.48 158.048 49.744 158.32 49.92C158.592 50.096 158.912 50.184 159.28 50.184ZM165.579 51.144C164.947 51.144 164.439 50.932 164.055 50.508C163.679 50.076 163.491 49.484 163.491 48.732V44.64H164.499V48.456C164.499 49.072 164.607 49.528 164.823 49.824C165.047 50.112 165.387 50.256 165.843 50.256C166.347 50.256 166.743 50.096 167.031 49.776C167.319 49.448 167.463 49 167.463 48.432V44.64H168.471V51H167.511V49.428L167.667 49.512C167.539 50.032 167.295 50.436 166.935 50.724C166.575 51.004 166.123 51.144 165.579 51.144ZM172.382 51C171.806 51 171.378 50.868 171.098 50.604C170.826 50.34 170.69 49.928 170.69 49.368V43.152H171.698V49.344C171.698 49.632 171.762 49.832 171.89 49.944C172.018 50.056 172.214 50.112 172.478 50.112H173.39V51H172.382ZM169.754 45.528V44.64H173.39V45.528H169.754Z" fill="#ACADAE"/>
</g>
<defs>
<filter id="filter0_dd_19312_20420" x="0" y="0" width="486" height="76" filterUnits="userSpaceOnUse" color-interpolation-filters="sRGB">
<feFlood flood-opacity="0" result="BackgroundImageFix"/>
<feColorMatrix in="SourceAlpha" type="matrix" values="0 0 0 0 0 0 0 0 0 0 0 0 0 0 0 0 0 0 127 0" result="hardAlpha"/>
<feOffset dy="1"/>
<feGaussianBlur stdDeviation="0.5"/>
<feColorMatrix type="matrix" values="0 0 0 0 0.0352941 0 0 0 0 0.0980392 0 0 0 0 0.192157 0 0 0 0.04 0"/>
<feBlend mode="normal" in2="BackgroundImageFix" result="effect1_dropShadow_19312_20420"/>
<feColorMatrix in="SourceAlpha" type="matrix" values="0 0 0 0 0 0 0 0 0 0 0 0 0 0 0 0 0 0 127 0" result="hardAlpha"/>
<feMorphology radius="3" operator="erode" in="SourceAlpha" result="effect2_dropShadow_19312_20420"/>
<feOffset dy="2"/>
<feGaussianBlur stdDeviation="3"/>
<feColorMatrix type="matrix" values="0 0 0 0 0.0352941 0 0 0 0 0.0980392 0 0 0 0 0.192157 0 0 0 0.035 0"/>
<feBlend mode="normal" in2="effect1_dropShadow_19312_20420" result="effect2_dropShadow_19312_20420"/>
<feBlend mode="normal" in="SourceGraphic" in2="effect2_dropShadow_19312_20420" result="shape"/>
</filter>
<filter id="filter1_dd_19312_20420" x="12" y="11" width="54" height="54" filterUnits="userSpaceOnUse" color-interpolation-filters="sRGB">
<feFlood flood-opacity="0" result="BackgroundImageFix"/>
<feColorMatrix in="SourceAlpha" type="matrix" values="0 0 0 0 0 0 0 0 0 0 0 0 0 0 0 0 0 0 127 0" result="hardAlpha"/>
<feOffset dy="1"/>
<feGaussianBlur stdDeviation="0.5"/>
<feColorMatrix type="matrix" values="0 0 0 0 0.0352941 0 0 0 0 0.0980392 0 0 0 0 0.192157 0 0 0 0.04 0"/>
<feBlend mode="normal" in2="BackgroundImageFix" result="effect1_dropShadow_19312_20420"/>
<feColorMatrix in="SourceAlpha" type="matrix" values="0 0 0 0 0 0 0 0 0 0 0 0 0 0 0 0 0 0 127 0" result="hardAlpha"/>
<feMorphology radius="3" operator="erode" in="SourceAlpha" result="effect2_dropShadow_19312_20420"/>
<feOffset dy="2"/>
<feGaussianBlur stdDeviation="3"/>
<feColorMatrix type="matrix" values="0 0 0 0 0.0352941 0 0 0 0 0.0980392 0 0 0 0 0.192157 0 0 0 0.035 0"/>
<feBlend mode="normal" in2="effect1_dropShadow_19312_20420" result="effect2_dropShadow_19312_20420"/>
<feBlend mode="normal" in="SourceGraphic" in2="effect2_dropShadow_19312_20420" result="shape"/>
</filter>
<linearGradient id="paint0_linear_19312_20420" x1="39" y1="12" x2="39" y2="60" gradientUnits="userSpaceOnUse">
<stop stop-color="white" stop-opacity="0.4"/>
<stop offset="1" stop-opacity="0.1"/>
</linearGradient>
</defs>
</svg>
