<svg width="486" height="76" viewBox="0 0 486 76" fill="none" xmlns="http://www.w3.org/2000/svg">
<g filter="url(#filter0_dd_19312_20416)">
<rect x="3" y="1" width="327" height="70" rx="16" fill="white"/>
<rect x="3.5" y="1.5" width="326" height="69" rx="15.5" stroke="#EDEDED"/>
<g filter="url(#filter1_dd_19312_20416)">
<rect x="15" y="12" width="48" height="48" rx="12" fill="white"/>
<rect x="15.5" y="12.5" width="47" height="47" rx="11.5" stroke="url(#paint0_linear_19312_20416)" stroke-opacity="0.4"/>
<path d="M41.8287 38.8286C40.2666 40.3907 37.734 40.3907 36.1719 38.8286" stroke="#2CB1AF" stroke-width="2" stroke-linecap="round" stroke-linejoin="round"/>
<path d="M41.75 33.5H41.76M42 33.5C42 33.6381 41.8881 33.75 41.75 33.75C41.6119 33.75 41.5 33.6381 41.5 33.5C41.5 33.3619 41.6119 33.25 41.75 33.25C41.8881 33.25 42 33.3619 42 33.5Z" stroke="#2CB1AF" stroke-width="2" stroke-linecap="round" stroke-linejoin="round"/>
<path d="M36.25 33.5H36.26M36.5 33.5C36.5 33.6381 36.3881 33.75 36.25 33.75C36.1119 33.75 36 33.6381 36 33.5C36 33.3619 36.1119 33.25 36.25 33.25C36.3881 33.25 36.5 33.3619 36.5 33.5Z" stroke="#2CB1AF" stroke-width="2" stroke-linecap="round" stroke-linejoin="round"/>
<path d="M48 36C48 40.9706 43.9706 45 39 45C34.0294 45 30 40.9706 30 36C30 31.0294 34.0294 27 39 27C43.9706 27 48 31.0294 48 36Z" stroke="#2CB1AF" stroke-width="2" stroke-linecap="round" stroke-linejoin="round"/>
</g>
<path d="M82.178 32L79.518 22.06H81.436L83.256 29.48L85.09 22.06H86.784L88.618 29.48L90.424 22.06H92.356L89.696 32H87.68L85.944 25.196L84.208 32H82.178ZM93.5015 32V24.524H95.2935V32H93.5015ZM93.4735 23.53V21.934H95.3355V23.53H93.4735ZM100.359 32.168C99.6119 32.168 98.9632 32.0093 98.4125 31.692C97.8619 31.3653 97.4372 30.908 97.1385 30.32C96.8399 29.732 96.6905 29.046 96.6905 28.262C96.6905 27.478 96.8399 26.7967 97.1385 26.218C97.4372 25.63 97.8572 25.1727 98.3985 24.846C98.9492 24.5193 99.5885 24.356 100.317 24.356C101.026 24.356 101.647 24.5147 102.179 24.832C102.72 25.1493 103.135 25.6067 103.425 26.204C103.714 26.8013 103.859 27.52 103.859 28.36V28.766H98.5525C98.5899 29.4193 98.7672 29.914 99.0845 30.25C99.4112 30.5767 99.8405 30.74 100.373 30.74C100.774 30.74 101.105 30.6513 101.367 30.474C101.637 30.2873 101.824 30.0307 101.927 29.704L103.761 29.816C103.555 30.544 103.149 31.118 102.543 31.538C101.945 31.958 101.217 32.168 100.359 32.168ZM98.5525 27.562H102.011C101.973 26.9553 101.801 26.5073 101.493 26.218C101.185 25.9193 100.793 25.77 100.317 25.77C99.8405 25.77 99.4439 25.924 99.1265 26.232C98.8185 26.54 98.6272 26.9833 98.5525 27.562ZM111.897 34.268C111.243 34.268 110.683 34.1793 110.217 34.002C109.75 33.8247 109.372 33.5727 109.083 33.246C108.803 32.9287 108.607 32.56 108.495 32.14L110.343 32.014C110.436 32.294 110.595 32.5133 110.819 32.672C111.052 32.8307 111.411 32.91 111.897 32.91C112.447 32.91 112.872 32.784 113.171 32.532C113.469 32.2893 113.619 31.9067 113.619 31.384V30.432C113.441 30.796 113.157 31.09 112.765 31.314C112.373 31.5287 111.934 31.636 111.449 31.636C110.833 31.636 110.282 31.4867 109.797 31.188C109.321 30.88 108.947 30.4553 108.677 29.914C108.406 29.3633 108.271 28.7287 108.271 28.01C108.271 27.2913 108.401 26.6613 108.663 26.12C108.933 25.5693 109.307 25.14 109.783 24.832C110.259 24.5147 110.805 24.356 111.421 24.356C111.962 24.356 112.429 24.4773 112.821 24.72C113.213 24.9627 113.497 25.2847 113.675 25.686V24.524H115.425V31.342C115.425 31.9767 115.275 32.5133 114.977 32.952C114.687 33.3907 114.277 33.7173 113.745 33.932C113.222 34.156 112.606 34.268 111.897 34.268ZM111.869 30.236C112.401 30.236 112.825 30.04 113.143 29.648C113.46 29.2467 113.623 28.696 113.633 27.996C113.642 27.5293 113.572 27.1327 113.423 26.806C113.283 26.47 113.077 26.2133 112.807 26.036C112.545 25.8493 112.233 25.756 111.869 25.756C111.318 25.756 110.889 25.9613 110.581 26.372C110.282 26.7733 110.133 27.3147 110.133 27.996C110.133 28.6773 110.287 29.2233 110.595 29.634C110.912 30.0353 111.337 30.236 111.869 30.236ZM120.484 32.168C119.737 32.168 119.088 32.0093 118.538 31.692C117.987 31.3653 117.562 30.908 117.264 30.32C116.965 29.732 116.816 29.046 116.816 28.262C116.816 27.478 116.965 26.7967 117.264 26.218C117.562 25.63 117.982 25.1727 118.524 24.846C119.074 24.5193 119.714 24.356 120.442 24.356C121.151 24.356 121.772 24.5147 122.304 24.832C122.845 25.1493 123.26 25.6067 123.55 26.204C123.839 26.8013 123.984 27.52 123.984 28.36V28.766H118.678C118.715 29.4193 118.892 29.914 119.21 30.25C119.536 30.5767 119.966 30.74 120.498 30.74C120.899 30.74 121.23 30.6513 121.492 30.474C121.762 30.2873 121.949 30.0307 122.052 29.704L123.886 29.816C123.68 30.544 123.274 31.118 122.668 31.538C122.07 31.958 121.342 32.168 120.484 32.168ZM118.678 27.562H122.136C122.098 26.9553 121.926 26.5073 121.618 26.218C121.31 25.9193 120.918 25.77 120.442 25.77C119.966 25.77 119.569 25.924 119.252 26.232C118.944 26.54 118.752 26.9833 118.678 27.562ZM125.384 32V22.06H127.176V26.232H126.952C127.027 25.8027 127.176 25.4527 127.4 25.182C127.624 24.902 127.9 24.6967 128.226 24.566C128.553 24.426 128.912 24.356 129.304 24.356C129.855 24.356 130.317 24.4773 130.69 24.72C131.073 24.9533 131.358 25.2847 131.544 25.714C131.74 26.1433 131.838 26.638 131.838 27.198V32H130.046V27.632C130.046 27.0253 129.944 26.5727 129.738 26.274C129.533 25.966 129.211 25.812 128.772 25.812C128.287 25.812 127.9 25.9707 127.61 26.288C127.321 26.6053 127.176 27.0673 127.176 27.674V32H125.384ZM136.269 32C135.522 32 134.972 31.8273 134.617 31.482C134.272 31.1367 134.099 30.5953 134.099 29.858V22.774H135.891V29.69C135.891 30.0353 135.966 30.278 136.115 30.418C136.264 30.5487 136.498 30.614 136.815 30.614H137.865V32H136.269ZM132.923 25.91V24.524H137.865V25.91H132.923ZM145.79 32.168C145.044 32.168 144.395 32.0093 143.844 31.692C143.294 31.3653 142.869 30.908 142.57 30.32C142.272 29.732 142.122 29.046 142.122 28.262C142.122 27.478 142.272 26.7967 142.57 26.218C142.869 25.63 143.289 25.1727 143.83 24.846C144.381 24.5193 145.02 24.356 145.748 24.356C146.458 24.356 147.078 24.5147 147.61 24.832C148.152 25.1493 148.567 25.6067 148.856 26.204C149.146 26.8013 149.29 27.52 149.29 28.36V28.766H143.984C144.022 29.4193 144.199 29.914 144.516 30.25C144.843 30.5767 145.272 30.74 145.804 30.74C146.206 30.74 146.537 30.6513 146.798 30.474C147.069 30.2873 147.256 30.0307 147.358 29.704L149.192 29.816C148.987 30.544 148.581 31.118 147.974 31.538C147.377 31.958 146.649 32.168 145.79 32.168ZM143.984 27.562H147.442C147.405 26.9553 147.232 26.5073 146.924 26.218C146.616 25.9193 146.224 25.77 145.748 25.77C145.272 25.77 144.876 25.924 144.558 26.232C144.25 26.54 144.059 26.9833 143.984 27.562ZM153.729 32.168C152.973 32.168 152.343 32.0607 151.839 31.846C151.344 31.6313 150.966 31.3327 150.705 30.95C150.444 30.5673 150.294 30.1333 150.257 29.648L152.091 29.564C152.156 29.956 152.315 30.2593 152.567 30.474C152.819 30.6887 153.211 30.796 153.743 30.796C154.163 30.796 154.48 30.7307 154.695 30.6C154.919 30.46 155.031 30.2453 155.031 29.956C155.031 29.788 154.989 29.648 154.905 29.536C154.83 29.424 154.676 29.326 154.443 29.242C154.219 29.158 153.888 29.074 153.449 28.99C152.693 28.8593 152.1 28.7007 151.671 28.514C151.242 28.318 150.938 28.0753 150.761 27.786C150.593 27.4967 150.509 27.1373 150.509 26.708C150.509 26.008 150.775 25.4433 151.307 25.014C151.848 24.5753 152.637 24.356 153.673 24.356C154.392 24.356 154.98 24.4727 155.437 24.706C155.904 24.93 156.254 25.2333 156.487 25.616C156.73 25.9893 156.87 26.4093 156.907 26.876L155.087 26.96C155.078 26.7267 155.022 26.5167 154.919 26.33C154.816 26.1433 154.662 25.9987 154.457 25.896C154.252 25.784 153.981 25.728 153.645 25.728C153.225 25.728 152.903 25.812 152.679 25.98C152.464 26.148 152.357 26.372 152.357 26.652C152.357 26.848 152.399 27.0113 152.483 27.142C152.576 27.2727 152.73 27.38 152.945 27.464C153.16 27.5387 153.454 27.6087 153.827 27.674C154.592 27.786 155.199 27.94 155.647 28.136C156.095 28.332 156.412 28.5793 156.599 28.878C156.795 29.1673 156.893 29.5173 156.893 29.928C156.893 30.6467 156.604 31.202 156.025 31.594C155.456 31.9767 154.69 32.168 153.729 32.168ZM164.398 32.168C163.763 32.168 163.212 32.0093 162.746 31.692C162.288 31.3747 161.934 30.922 161.682 30.334C161.43 29.746 161.304 29.0553 161.304 28.262C161.304 27.4687 161.43 26.778 161.682 26.19C161.934 25.602 162.293 25.1493 162.76 24.832C163.226 24.5147 163.772 24.356 164.398 24.356C164.92 24.356 165.378 24.4633 165.77 24.678C166.171 24.8927 166.474 25.196 166.68 25.588V22.06H168.472V32H166.764L166.722 30.894C166.516 31.2953 166.208 31.608 165.798 31.832C165.387 32.056 164.92 32.168 164.398 32.168ZM164.944 30.712C165.317 30.712 165.63 30.6187 165.882 30.432C166.143 30.2453 166.339 29.97 166.47 29.606C166.61 29.2327 166.68 28.7847 166.68 28.262C166.68 27.73 166.61 27.282 166.47 26.918C166.339 26.554 166.143 26.2787 165.882 26.092C165.63 25.9053 165.317 25.812 164.944 25.812C164.402 25.812 163.968 26.0313 163.642 26.47C163.324 26.8993 163.166 27.4967 163.166 28.262C163.166 29.0087 163.324 29.606 163.642 30.054C163.968 30.4927 164.402 30.712 164.944 30.712ZM170.214 32V24.524H172.006V32H170.214ZM170.186 23.53V21.934H172.048V23.53H170.186ZM174.056 32V24.524H175.736L175.806 26.596L175.652 26.568C175.764 25.8493 175.974 25.3313 176.282 25.014C176.6 24.6873 177.029 24.524 177.57 24.524H178.256V26.064H177.556C177.174 26.064 176.856 26.12 176.604 26.232C176.352 26.344 176.161 26.5213 176.03 26.764C175.909 26.9973 175.848 27.3053 175.848 27.688V32H174.056ZM183.093 32V22.06H184.885V26.232H184.661C184.736 25.8027 184.885 25.4527 185.109 25.182C185.333 24.902 185.609 24.6967 185.935 24.566C186.262 24.426 186.621 24.356 187.013 24.356C187.564 24.356 188.026 24.4773 188.399 24.72C188.782 24.9533 189.067 25.2847 189.253 25.714C189.449 26.1433 189.547 26.638 189.547 27.198V32H187.755V27.632C187.755 27.0253 187.653 26.5727 187.447 26.274C187.242 25.966 186.92 25.812 186.481 25.812C185.996 25.812 185.609 25.9707 185.319 26.288C185.03 26.6053 184.885 27.0673 184.885 27.674V32H183.093ZM194.558 32.168C193.811 32.168 193.162 32.0093 192.612 31.692C192.061 31.3653 191.636 30.908 191.338 30.32C191.039 29.732 190.89 29.046 190.89 28.262C190.89 27.478 191.039 26.7967 191.338 26.218C191.636 25.63 192.056 25.1727 192.598 24.846C193.148 24.5193 193.788 24.356 194.516 24.356C195.225 24.356 195.846 24.5147 196.378 24.832C196.919 25.1493 197.334 25.6067 197.624 26.204C197.913 26.8013 198.058 27.52 198.058 28.36V28.766H192.752C192.789 29.4193 192.966 29.914 193.284 30.25C193.61 30.5767 194.04 30.74 194.572 30.74C194.973 30.74 195.304 30.6513 195.566 30.474C195.836 30.2873 196.023 30.0307 196.126 29.704L197.96 29.816C197.754 30.544 197.348 31.118 196.742 31.538C196.144 31.958 195.416 32.168 194.558 32.168ZM192.752 27.562H196.21C196.172 26.9553 196 26.5073 195.692 26.218C195.384 25.9193 194.992 25.77 194.516 25.77C194.04 25.77 193.643 25.924 193.326 26.232C193.018 26.54 192.826 26.9833 192.752 27.562ZM201.923 32.168C201.167 32.168 200.565 31.9207 200.117 31.426C199.678 30.922 199.459 30.2267 199.459 29.34V24.524H201.251V28.892C201.251 29.5173 201.353 29.9793 201.559 30.278C201.773 30.5673 202.095 30.712 202.525 30.712C203.01 30.712 203.383 30.5533 203.645 30.236C203.915 29.9093 204.051 29.438 204.051 28.822V24.524H205.843V32H204.205L204.163 29.942L204.387 30.012C204.275 30.7213 204.009 31.258 203.589 31.622C203.169 31.986 202.613 32.168 201.923 32.168ZM210.48 32C209.733 32 209.183 31.8273 208.828 31.482C208.483 31.1367 208.31 30.5953 208.31 29.858V22.774H210.102V29.69C210.102 30.0353 210.177 30.278 210.326 30.418C210.475 30.5487 210.709 30.614 211.026 30.614H212.076V32H210.48ZM207.134 25.91V24.524H212.076V25.91H207.134ZM216.501 32.168C215.754 32.168 215.106 32.0093 214.555 31.692C214.004 31.3653 213.58 30.908 213.281 30.32C212.982 29.732 212.833 29.046 212.833 28.262C212.833 27.478 212.982 26.7967 213.281 26.218C213.58 25.63 214 25.1727 214.541 24.846C215.092 24.5193 215.731 24.356 216.459 24.356C217.168 24.356 217.789 24.5147 218.321 24.832C218.862 25.1493 219.278 25.6067 219.567 26.204C219.856 26.8013 220.001 27.52 220.001 28.36V28.766H214.695C214.732 29.4193 214.91 29.914 215.227 30.25C215.554 30.5767 215.983 30.74 216.515 30.74C216.916 30.74 217.248 30.6513 217.509 30.474C217.78 30.2873 217.966 30.0307 218.069 29.704L219.903 29.816C219.698 30.544 219.292 31.118 218.685 31.538C218.088 31.958 217.36 32.168 216.501 32.168ZM214.695 27.562H218.153C218.116 26.9553 217.943 26.5073 217.635 26.218C217.327 25.9193 216.935 25.77 216.459 25.77C215.983 25.77 215.586 25.924 215.269 26.232C214.961 26.54 214.77 26.9833 214.695 27.562ZM224.987 32V22.06H227.437L230.181 29.76L232.925 22.06H235.375V32H233.555V25.14L231.049 31.986H229.313L226.807 25.14V32H224.987ZM240.591 32.168C239.854 32.168 239.205 32.0093 238.645 31.692C238.095 31.3653 237.665 30.908 237.357 30.32C237.059 29.732 236.909 29.046 236.909 28.262C236.909 27.4687 237.059 26.7827 237.357 26.204C237.665 25.616 238.095 25.1633 238.645 24.846C239.205 24.5193 239.854 24.356 240.591 24.356C241.329 24.356 241.973 24.5193 242.523 24.846C243.074 25.1633 243.499 25.616 243.797 26.204C244.105 26.7827 244.259 27.4687 244.259 28.262C244.259 29.046 244.105 29.732 243.797 30.32C243.499 30.908 243.074 31.3653 242.523 31.692C241.973 32.0093 241.329 32.168 240.591 32.168ZM240.591 30.712C241.17 30.712 241.613 30.4973 241.921 30.068C242.239 29.6387 242.397 29.0367 242.397 28.262C242.397 27.4967 242.239 26.8993 241.921 26.47C241.613 26.0313 241.17 25.812 240.591 25.812C240.013 25.812 239.565 26.0313 239.247 26.47C238.93 26.8993 238.771 27.4967 238.771 28.262C238.771 29.0367 238.93 29.6387 239.247 30.068C239.565 30.4973 240.013 30.712 240.591 30.712ZM245.642 32V24.524H247.322L247.392 26.596L247.238 26.568C247.35 25.8493 247.56 25.3313 247.868 25.014C248.185 24.6873 248.615 24.524 249.156 24.524H249.842V26.064H249.142C248.759 26.064 248.442 26.12 248.19 26.232C247.938 26.344 247.747 26.5213 247.616 26.764C247.495 26.9973 247.434 27.3053 247.434 27.688V32H245.642ZM254.002 34.268C253.349 34.268 252.789 34.1793 252.322 34.002C251.855 33.8247 251.477 33.5727 251.188 33.246C250.908 32.9287 250.712 32.56 250.6 32.14L252.448 32.014C252.541 32.294 252.7 32.5133 252.924 32.672C253.157 32.8307 253.517 32.91 254.002 32.91C254.553 32.91 254.977 32.784 255.276 32.532C255.575 32.2893 255.724 31.9067 255.724 31.384V30.432C255.547 30.796 255.262 31.09 254.87 31.314C254.478 31.5287 254.039 31.636 253.554 31.636C252.938 31.636 252.387 31.4867 251.902 31.188C251.426 30.88 251.053 30.4553 250.782 29.914C250.511 29.3633 250.376 28.7287 250.376 28.01C250.376 27.2913 250.507 26.6613 250.768 26.12C251.039 25.5693 251.412 25.14 251.888 24.832C252.364 24.5147 252.91 24.356 253.526 24.356C254.067 24.356 254.534 24.4773 254.926 24.72C255.318 24.9627 255.603 25.2847 255.78 25.686V24.524H257.53V31.342C257.53 31.9767 257.381 32.5133 257.082 32.952C256.793 33.3907 256.382 33.7173 255.85 33.932C255.327 34.156 254.711 34.268 254.002 34.268ZM253.974 30.236C254.506 30.236 254.931 30.04 255.248 29.648C255.565 29.2467 255.729 28.696 255.738 27.996C255.747 27.5293 255.677 27.1327 255.528 26.806C255.388 26.47 255.183 26.2133 254.912 26.036C254.651 25.8493 254.338 25.756 253.974 25.756C253.423 25.756 252.994 25.9613 252.686 26.372C252.387 26.7733 252.238 27.3147 252.238 27.996C252.238 28.6773 252.392 29.2233 252.7 29.634C253.017 30.0353 253.442 30.236 253.974 30.236ZM262.589 32.168C261.842 32.168 261.194 32.0093 260.643 31.692C260.092 31.3653 259.668 30.908 259.369 30.32C259.07 29.732 258.921 29.046 258.921 28.262C258.921 27.478 259.07 26.7967 259.369 26.218C259.668 25.63 260.088 25.1727 260.629 24.846C261.18 24.5193 261.819 24.356 262.547 24.356C263.256 24.356 263.877 24.5147 264.409 24.832C264.95 25.1493 265.366 25.6067 265.655 26.204C265.944 26.8013 266.089 27.52 266.089 28.36V28.766H260.783C260.82 29.4193 260.998 29.914 261.315 30.25C261.642 30.5767 262.071 30.74 262.603 30.74C263.004 30.74 263.336 30.6513 263.597 30.474C263.868 30.2873 264.054 30.0307 264.157 29.704L265.991 29.816C265.786 30.544 265.38 31.118 264.773 31.538C264.176 31.958 263.448 32.168 262.589 32.168ZM260.783 27.562H264.241C264.204 26.9553 264.031 26.5073 263.723 26.218C263.415 25.9193 263.023 25.77 262.547 25.77C262.071 25.77 261.674 25.924 261.357 26.232C261.049 26.54 260.858 26.9833 260.783 27.562ZM267.49 32V24.524H269.114L269.184 26.624L268.974 26.54C269.048 26.0173 269.202 25.5973 269.436 25.28C269.669 24.9627 269.954 24.7293 270.29 24.58C270.626 24.4307 270.994 24.356 271.396 24.356C271.946 24.356 272.408 24.4773 272.782 24.72C273.164 24.9627 273.454 25.2987 273.65 25.728C273.846 26.148 273.944 26.638 273.944 27.198V32H272.152V27.772C272.152 27.352 272.11 26.9973 272.026 26.708C271.942 26.4187 271.802 26.1993 271.606 26.05C271.419 25.8913 271.167 25.812 270.85 25.812C270.374 25.812 269.991 25.98 269.702 26.316C269.422 26.652 269.282 27.1373 269.282 27.772V32H267.49ZM277.767 28.962C277.767 28.2433 277.869 27.688 278.075 27.296C278.28 26.8947 278.635 26.5587 279.139 26.288C279.484 26.1013 279.745 25.938 279.923 25.798C280.1 25.6487 280.217 25.4947 280.273 25.336C280.338 25.168 280.371 24.9627 280.371 24.72C280.371 24.328 280.24 24.006 279.979 23.754C279.727 23.502 279.363 23.376 278.887 23.376C278.336 23.376 277.911 23.5207 277.613 23.81C277.314 24.0993 277.132 24.524 277.067 25.084L275.191 25C275.247 24.384 275.424 23.838 275.723 23.362C276.031 22.886 276.451 22.5127 276.983 22.242C277.515 21.9713 278.149 21.836 278.887 21.836C279.587 21.836 280.184 21.962 280.679 22.214C281.183 22.466 281.565 22.8113 281.827 23.25C282.088 23.6793 282.219 24.1693 282.219 24.72C282.219 25.1307 282.158 25.476 282.037 25.756C281.925 26.036 281.738 26.2927 281.477 26.526C281.225 26.75 280.893 26.988 280.483 27.24C280.128 27.4453 279.881 27.6693 279.741 27.912C279.61 28.1547 279.545 28.5047 279.545 28.962H277.767ZM277.613 32V30.04H279.657V32H277.613Z" fill="#252629"/>
<path d="M80.104 51V42.48H81.544L84.268 49.872L86.98 42.48H88.42V51H87.388V44.4L84.952 51H83.572L81.136 44.4V51H80.104ZM92.8503 51.144C92.2663 51.144 91.7543 51.008 91.3143 50.736C90.8743 50.464 90.5343 50.08 90.2943 49.584C90.0543 49.08 89.9343 48.492 89.9343 47.82C89.9343 47.14 90.0543 46.552 90.2943 46.056C90.5343 45.56 90.8743 45.176 91.3143 44.904C91.7543 44.632 92.2663 44.496 92.8503 44.496C93.4343 44.496 93.9423 44.632 94.3743 44.904C94.8143 45.176 95.1543 45.56 95.3943 46.056C95.6343 46.552 95.7543 47.14 95.7543 47.82C95.7543 48.492 95.6343 49.08 95.3943 49.584C95.1543 50.08 94.8143 50.464 94.3743 50.736C93.9423 51.008 93.4343 51.144 92.8503 51.144ZM92.8503 50.184C93.4343 50.184 93.8863 49.976 94.2063 49.56C94.5343 49.136 94.6983 48.556 94.6983 47.82C94.6983 47.084 94.5343 46.508 94.2063 46.092C93.8863 45.668 93.4343 45.456 92.8503 45.456C92.2663 45.456 91.8103 45.668 91.4823 46.092C91.1543 46.508 90.9902 47.084 90.9902 47.82C90.9902 48.556 91.1543 49.136 91.4823 49.56C91.8103 49.976 92.2663 50.184 92.8503 50.184ZM99.612 51.144C99.028 51.144 98.516 51.008 98.076 50.736C97.636 50.464 97.296 50.08 97.056 49.584C96.816 49.08 96.696 48.492 96.696 47.82C96.696 47.14 96.816 46.552 97.056 46.056C97.296 45.56 97.636 45.176 98.076 44.904C98.516 44.632 99.028 44.496 99.612 44.496C100.196 44.496 100.704 44.632 101.136 44.904C101.576 45.176 101.916 45.56 102.156 46.056C102.396 46.552 102.516 47.14 102.516 47.82C102.516 48.492 102.396 49.08 102.156 49.584C101.916 50.08 101.576 50.464 101.136 50.736C100.704 51.008 100.196 51.144 99.612 51.144ZM99.612 50.184C100.196 50.184 100.648 49.976 100.968 49.56C101.296 49.136 101.46 48.556 101.46 47.82C101.46 47.084 101.296 46.508 100.968 46.092C100.648 45.668 100.196 45.456 99.612 45.456C99.028 45.456 98.572 45.668 98.244 46.092C97.916 46.508 97.752 47.084 97.752 47.82C97.752 48.556 97.916 49.136 98.244 49.56C98.572 49.976 99.028 50.184 99.612 50.184ZM106.146 51.144C105.594 51.144 105.114 51.008 104.706 50.736C104.306 50.464 103.998 50.08 103.782 49.584C103.566 49.088 103.458 48.5 103.458 47.82C103.458 47.14 103.566 46.552 103.782 46.056C103.998 45.56 104.306 45.176 104.706 44.904C105.114 44.632 105.594 44.496 106.146 44.496C106.57 44.496 106.958 44.588 107.31 44.772C107.662 44.948 107.926 45.2 108.102 45.528V42.48H109.11V51H108.198L108.162 50.04C107.986 50.384 107.718 50.656 107.358 50.856C106.998 51.048 106.594 51.144 106.146 51.144ZM106.35 50.184C106.726 50.184 107.042 50.088 107.298 49.896C107.562 49.704 107.762 49.432 107.898 49.08C108.034 48.72 108.102 48.3 108.102 47.82C108.102 47.324 108.034 46.9 107.898 46.548C107.762 46.196 107.562 45.928 107.298 45.744C107.042 45.552 106.726 45.456 106.35 45.456C105.79 45.456 105.342 45.668 105.006 46.092C104.678 46.508 104.514 47.084 104.514 47.82C104.514 48.548 104.678 49.124 105.006 49.548C105.342 49.972 105.79 50.184 106.35 50.184ZM117.098 51.192C116.442 51.192 115.87 51.068 115.382 50.82C114.894 50.572 114.506 50.232 114.218 49.8C113.938 49.36 113.774 48.852 113.726 48.276L114.806 48.204C114.862 48.628 114.986 48.988 115.178 49.284C115.37 49.58 115.626 49.804 115.946 49.956C116.274 50.108 116.666 50.184 117.122 50.184C117.522 50.184 117.862 50.132 118.142 50.028C118.422 49.924 118.634 49.772 118.778 49.572C118.93 49.372 119.006 49.128 119.006 48.84C119.006 48.576 118.942 48.344 118.814 48.144C118.694 47.936 118.458 47.748 118.106 47.58C117.762 47.404 117.25 47.232 116.57 47.064C115.914 46.896 115.39 46.712 114.998 46.512C114.614 46.312 114.334 46.068 114.158 45.78C113.99 45.492 113.906 45.136 113.906 44.712C113.906 44.232 114.018 43.812 114.242 43.452C114.474 43.084 114.802 42.8 115.226 42.6C115.65 42.392 116.154 42.288 116.738 42.288C117.362 42.288 117.898 42.408 118.346 42.648C118.794 42.88 119.15 43.2 119.414 43.608C119.678 44.016 119.842 44.48 119.906 45L118.826 45.072C118.778 44.728 118.666 44.424 118.49 44.16C118.322 43.888 118.09 43.676 117.794 43.524C117.498 43.372 117.138 43.296 116.714 43.296C116.186 43.296 115.766 43.424 115.454 43.68C115.142 43.928 114.986 44.256 114.986 44.664C114.986 44.928 115.046 45.148 115.166 45.324C115.294 45.492 115.518 45.644 115.838 45.78C116.158 45.908 116.618 46.048 117.218 46.2C117.93 46.376 118.494 46.588 118.91 46.836C119.334 47.076 119.634 47.356 119.81 47.676C119.994 47.996 120.086 48.36 120.086 48.768C120.086 49.264 119.958 49.696 119.702 50.064C119.446 50.424 119.094 50.704 118.646 50.904C118.198 51.096 117.682 51.192 117.098 51.192ZM124.35 51.144C123.75 51.144 123.23 51.008 122.79 50.736C122.358 50.464 122.022 50.08 121.782 49.584C121.55 49.08 121.434 48.492 121.434 47.82C121.434 47.148 121.55 46.564 121.782 46.068C122.022 45.572 122.354 45.188 122.778 44.916C123.21 44.636 123.718 44.496 124.302 44.496C124.854 44.496 125.342 44.628 125.766 44.892C126.19 45.148 126.518 45.524 126.75 46.02C126.99 46.516 127.11 47.12 127.11 47.832V48.132H122.49C122.53 48.812 122.71 49.324 123.03 49.668C123.358 50.012 123.798 50.184 124.35 50.184C124.766 50.184 125.106 50.088 125.37 49.896C125.642 49.696 125.83 49.436 125.934 49.116L127.014 49.2C126.846 49.768 126.526 50.236 126.054 50.604C125.59 50.964 125.022 51.144 124.35 51.144ZM122.49 47.244H126.006C125.958 46.628 125.778 46.176 125.466 45.888C125.162 45.6 124.774 45.456 124.302 45.456C123.814 45.456 123.41 45.608 123.09 45.912C122.778 46.208 122.578 46.652 122.49 47.244ZM129.782 51C129.414 51 129.114 50.904 128.882 50.712C128.65 50.52 128.534 50.216 128.534 49.8V42.48H129.542V49.716C129.542 49.844 129.574 49.944 129.638 50.016C129.71 50.08 129.81 50.112 129.938 50.112H130.49V51H129.782ZM134.147 51.144C133.547 51.144 133.027 51.008 132.587 50.736C132.155 50.464 131.819 50.08 131.579 49.584C131.347 49.08 131.231 48.492 131.231 47.82C131.231 47.148 131.347 46.564 131.579 46.068C131.819 45.572 132.151 45.188 132.575 44.916C133.007 44.636 133.515 44.496 134.099 44.496C134.651 44.496 135.139 44.628 135.563 44.892C135.987 45.148 136.315 45.524 136.547 46.02C136.787 46.516 136.907 47.12 136.907 47.832V48.132H132.287C132.327 48.812 132.507 49.324 132.827 49.668C133.155 50.012 133.595 50.184 134.147 50.184C134.563 50.184 134.903 50.088 135.167 49.896C135.439 49.696 135.627 49.436 135.731 49.116L136.811 49.2C136.643 49.768 136.323 50.236 135.851 50.604C135.387 50.964 134.819 51.144 134.147 51.144ZM132.287 47.244H135.803C135.755 46.628 135.575 46.176 135.263 45.888C134.959 45.6 134.571 45.456 134.099 45.456C133.611 45.456 133.207 45.608 132.887 45.912C132.575 46.208 132.375 46.652 132.287 47.244ZM140.757 51.144C140.165 51.144 139.649 51.008 139.209 50.736C138.777 50.464 138.441 50.08 138.201 49.584C137.961 49.08 137.841 48.492 137.841 47.82C137.841 47.148 137.961 46.564 138.201 46.068C138.441 45.572 138.777 45.188 139.209 44.916C139.649 44.636 140.165 44.496 140.757 44.496C141.245 44.496 141.677 44.584 142.053 44.76C142.437 44.928 142.749 45.176 142.989 45.504C143.229 45.832 143.385 46.232 143.457 46.704L142.401 46.776C142.329 46.352 142.145 46.028 141.849 45.804C141.553 45.572 141.189 45.456 140.757 45.456C140.173 45.456 139.717 45.668 139.389 46.092C139.061 46.508 138.896 47.084 138.896 47.82C138.896 48.556 139.061 49.136 139.389 49.56C139.717 49.976 140.173 50.184 140.757 50.184C141.189 50.184 141.553 50.064 141.849 49.824C142.145 49.584 142.329 49.224 142.401 48.744L143.457 48.816C143.385 49.288 143.229 49.7 142.989 50.052C142.749 50.396 142.437 50.664 142.053 50.856C141.677 51.048 141.245 51.144 140.757 51.144ZM146.788 51C146.212 51 145.784 50.868 145.504 50.604C145.232 50.34 145.096 49.928 145.096 49.368V43.152H146.104V49.344C146.104 49.632 146.168 49.832 146.296 49.944C146.424 50.056 146.62 50.112 146.884 50.112H147.796V51H146.788ZM144.16 45.528V44.64H147.796V45.528H144.16ZM151.456 51.144C150.872 51.144 150.36 51.008 149.92 50.736C149.48 50.464 149.14 50.08 148.9 49.584C148.66 49.08 148.54 48.492 148.54 47.82C148.54 47.14 148.66 46.552 148.9 46.056C149.14 45.56 149.48 45.176 149.92 44.904C150.36 44.632 150.872 44.496 151.456 44.496C152.04 44.496 152.548 44.632 152.98 44.904C153.42 45.176 153.76 45.56 154 46.056C154.24 46.552 154.36 47.14 154.36 47.82C154.36 48.492 154.24 49.08 154 49.584C153.76 50.08 153.42 50.464 152.98 50.736C152.548 51.008 152.04 51.144 151.456 51.144ZM151.456 50.184C152.04 50.184 152.492 49.976 152.812 49.56C153.14 49.136 153.304 48.556 153.304 47.82C153.304 47.084 153.14 46.508 152.812 46.092C152.492 45.668 152.04 45.456 151.456 45.456C150.872 45.456 150.416 45.668 150.088 46.092C149.76 46.508 149.596 47.084 149.596 47.82C149.596 48.556 149.76 49.136 150.088 49.56C150.416 49.976 150.872 50.184 151.456 50.184ZM155.733 51V44.64H156.621L156.669 46.248L156.573 46.212C156.653 45.668 156.825 45.272 157.089 45.024C157.361 44.768 157.721 44.64 158.169 44.64H158.793V45.6H158.181C157.861 45.6 157.593 45.66 157.377 45.78C157.169 45.892 157.009 46.064 156.897 46.296C156.793 46.52 156.741 46.808 156.741 47.16V51H155.733Z" fill="#ACADAE"/>
</g>
<defs>
<filter id="filter0_dd_19312_20416" x="0" y="0" width="486" height="76" filterUnits="userSpaceOnUse" color-interpolation-filters="sRGB">
<feFlood flood-opacity="0" result="BackgroundImageFix"/>
<feColorMatrix in="SourceAlpha" type="matrix" values="0 0 0 0 0 0 0 0 0 0 0 0 0 0 0 0 0 0 127 0" result="hardAlpha"/>
<feOffset dy="1"/>
<feGaussianBlur stdDeviation="0.5"/>
<feColorMatrix type="matrix" values="0 0 0 0 0.0352941 0 0 0 0 0.0980392 0 0 0 0 0.192157 0 0 0 0.04 0"/>
<feBlend mode="normal" in2="BackgroundImageFix" result="effect1_dropShadow_19312_20416"/>
<feColorMatrix in="SourceAlpha" type="matrix" values="0 0 0 0 0 0 0 0 0 0 0 0 0 0 0 0 0 0 127 0" result="hardAlpha"/>
<feMorphology radius="3" operator="erode" in="SourceAlpha" result="effect2_dropShadow_19312_20416"/>
<feOffset dy="2"/>
<feGaussianBlur stdDeviation="3"/>
<feColorMatrix type="matrix" values="0 0 0 0 0.0352941 0 0 0 0 0.0980392 0 0 0 0 0.192157 0 0 0 0.035 0"/>
<feBlend mode="normal" in2="effect1_dropShadow_19312_20416" result="effect2_dropShadow_19312_20416"/>
<feBlend mode="normal" in="SourceGraphic" in2="effect2_dropShadow_19312_20416" result="shape"/>
</filter>
<filter id="filter1_dd_19312_20416" x="12" y="11" width="54" height="54" filterUnits="userSpaceOnUse" color-interpolation-filters="sRGB">
<feFlood flood-opacity="0" result="BackgroundImageFix"/>
<feColorMatrix in="SourceAlpha" type="matrix" values="0 0 0 0 0 0 0 0 0 0 0 0 0 0 0 0 0 0 127 0" result="hardAlpha"/>
<feOffset dy="1"/>
<feGaussianBlur stdDeviation="0.5"/>
<feColorMatrix type="matrix" values="0 0 0 0 0.0352941 0 0 0 0 0.0980392 0 0 0 0 0.192157 0 0 0 0.04 0"/>
<feBlend mode="normal" in2="BackgroundImageFix" result="effect1_dropShadow_19312_20416"/>
<feColorMatrix in="SourceAlpha" type="matrix" values="0 0 0 0 0 0 0 0 0 0 0 0 0 0 0 0 0 0 127 0" result="hardAlpha"/>
<feMorphology radius="3" operator="erode" in="SourceAlpha" result="effect2_dropShadow_19312_20416"/>
<feOffset dy="2"/>
<feGaussianBlur stdDeviation="3"/>
<feColorMatrix type="matrix" values="0 0 0 0 0.0352941 0 0 0 0 0.0980392 0 0 0 0 0.192157 0 0 0 0.035 0"/>
<feBlend mode="normal" in2="effect1_dropShadow_19312_20416" result="effect2_dropShadow_19312_20416"/>
<feBlend mode="normal" in="SourceGraphic" in2="effect2_dropShadow_19312_20416" result="shape"/>
</filter>
<linearGradient id="paint0_linear_19312_20416" x1="39" y1="12" x2="39" y2="60" gradientUnits="userSpaceOnUse">
<stop stop-color="white" stop-opacity="0.4"/>
<stop offset="1" stop-opacity="0.1"/>
</linearGradient>
</defs>
</svg>
