<svg width="374" height="240" viewBox="0 0 374 240" fill="none" xmlns="http://www.w3.org/2000/svg">
<mask id="path-1-inside-1_19312_20507" fill="white">
<path d="M0 20C0 8.9543 8.95431 0 20 0H354C365.046 0 374 8.95431 374 20V220C374 231.046 365.046 240 354 240H20C8.9543 240 0 231.046 0 220V20Z"/>
</mask>
<path d="M0 20C0 8.9543 8.95431 0 20 0H354C365.046 0 374 8.95431 374 20V220C374 231.046 365.046 240 354 240H20C8.9543 240 0 231.046 0 220V20Z" fill="white"/>
<path d="M20 0V1H354V0V-1H20V0ZM374 20H373V220H374H375V20H374ZM354 240V239H20V240V241H354V240ZM0 220H1V20H0H-1V220H0ZM20 240V239C9.50658 239 1 230.493 1 220H0H-1C-1 231.598 8.40201 241 20 241V240ZM374 220H373C373 230.493 364.493 239 354 239V240V241C365.598 241 375 231.598 375 220H374ZM354 0V1C364.493 1 373 9.50659 373 20H374H375C375 8.40202 365.598 -1 354 -1V0ZM20 0V-1C8.40202 -1 -1 8.40202 -1 20H0H1C1 9.50659 9.50659 1 20 1V0Z" fill="#FAFAFA" mask="url(#path-1-inside-1_19312_20507)"/>
<path d="M27.25 38H29.25M33.75 38H36.25M33.75 34.25H38.25M27.25 34.25H29.25M27.25 41.75H29.25M30.25 46.75H41.75C42.8546 46.75 43.75 45.8546 43.75 44.75V31.25C43.75 30.1454 42.8546 29.25 41.75 29.25H30.25C29.1454 29.25 28.25 30.1454 28.25 31.25V44.75C28.25 45.8546 29.1454 46.75 30.25 46.75Z" stroke="#646568" stroke-width="1.5" stroke-linecap="round" stroke-linejoin="round"/>
<g filter="url(#filter0_dd_19312_20507)">
<path d="M322 33C322 28.0294 326.029 24 331 24H341C345.971 24 350 28.0294 350 33V43C350 47.9706 345.971 52 341 52H331C326.029 52 322 47.9706 322 43V33Z" fill="white"/>
<path d="M331 24.5H341C345.694 24.5 349.5 28.3056 349.5 33V43C349.5 47.6944 345.694 51.5 341 51.5H331C326.306 51.5 322.5 47.6944 322.5 43V33C322.5 28.3056 326.306 24.5 331 24.5Z" stroke="#EDEDED"/>
<path fill-rule="evenodd" clip-rule="evenodd" d="M334.667 32.6668C334.667 31.9304 335.264 31.3335 336 31.3335C336.736 31.3335 337.333 31.9304 337.333 32.6668C337.333 33.4032 336.736 34.0002 336 34.0002C335.264 34.0002 334.667 33.4032 334.667 32.6668ZM334.667 38.0002C334.667 37.2638 335.264 36.6668 336 36.6668C336.736 36.6668 337.333 37.2638 337.333 38.0002C337.333 38.7365 336.736 39.3335 336 39.3335C335.264 39.3335 334.667 38.7365 334.667 38.0002ZM334.667 43.3335C334.667 42.5971 335.264 42.0002 336 42.0002C336.736 42.0002 337.333 42.5971 337.333 43.3335C337.333 44.0699 336.736 44.6668 336 44.6668C335.264 44.6668 334.667 44.0699 334.667 43.3335Z" fill="black"/>
</g>
<path d="M25.28 85V73.64H32.928V75.448H27.36V78.408H32.736V80.2H27.36V83.192H33.056V85H25.28ZM37.2719 85.192C36.3759 85.192 35.6559 84.9893 35.1119 84.584C34.5679 84.168 34.2959 83.592 34.2959 82.856C34.2959 82.12 34.5252 81.544 34.9839 81.128C35.4425 80.712 36.1412 80.4133 37.0799 80.232L39.9119 79.672C39.9119 79.064 39.7732 78.6107 39.4959 78.312C39.2185 78.0027 38.8079 77.848 38.2639 77.848C37.7732 77.848 37.3839 77.9653 37.0959 78.2C36.8185 78.424 36.6265 78.7493 36.5199 79.176L34.4399 79.08C34.6105 78.1733 35.0265 77.48 35.6879 77C36.3492 76.5093 37.2079 76.264 38.2639 76.264C39.4799 76.264 40.3972 76.5733 41.0159 77.192C41.6452 77.8 41.9599 78.6747 41.9599 79.816V82.92C41.9599 83.144 41.9972 83.2987 42.0719 83.384C42.1572 83.4693 42.2799 83.512 42.4399 83.512H42.7119V85C42.6479 85.0213 42.5412 85.0373 42.3919 85.048C42.2532 85.0587 42.1092 85.064 41.9599 85.064C41.6079 85.064 41.2932 85.0107 41.0159 84.904C40.7385 84.7867 40.5252 84.5893 40.3759 84.312C40.2265 84.024 40.1519 83.6347 40.1519 83.144L40.3279 83.272C40.2425 83.6453 40.0559 83.9813 39.7679 84.28C39.4905 84.568 39.1385 84.792 38.7119 84.952C38.2852 85.112 37.8052 85.192 37.2719 85.192ZM37.6879 83.704C38.1465 83.704 38.5412 83.6133 38.8719 83.432C39.2025 83.2507 39.4585 83 39.6399 82.68C39.8212 82.36 39.9119 81.9813 39.9119 81.544V81.064L37.7039 81.512C37.2452 81.608 36.9145 81.752 36.7119 81.944C36.5199 82.1253 36.4239 82.3653 36.4239 82.664C36.4239 82.9947 36.5305 83.2507 36.7439 83.432C36.9679 83.6133 37.2825 83.704 37.6879 83.704ZM46.7628 85C45.9094 85 45.2801 84.8027 44.8748 84.408C44.4801 84.0133 44.2828 83.3947 44.2828 82.552V74.456H46.3307V82.36C46.3307 82.7547 46.4161 83.032 46.5868 83.192C46.7574 83.3413 47.0241 83.416 47.3868 83.416H48.5868V85H46.7628ZM42.9388 78.04V76.456H48.5868V78.04H42.9388ZM57.3721 85C56.5188 85 55.8895 84.8027 55.4841 84.408C55.0895 84.0133 54.8921 83.3947 54.8921 82.552V74.456H56.9401V82.36C56.9401 82.7547 57.0255 83.032 57.1961 83.192C57.3668 83.3413 57.6335 83.416 57.9961 83.416H59.1961V85H57.3721ZM53.5481 78.04V76.456H59.1961V78.04H53.5481ZM60.5731 85V73.64H62.6211V78.408H62.3651C62.4505 77.9173 62.6211 77.5173 62.8771 77.208C63.1331 76.888 63.4478 76.6533 63.8211 76.504C64.1945 76.344 64.6051 76.264 65.0531 76.264C65.6825 76.264 66.2105 76.4027 66.6371 76.68C67.0745 76.9467 67.3998 77.3253 67.6131 77.816C67.8371 78.3067 67.9491 78.872 67.9491 79.512V85H65.9011V80.008C65.9011 79.3147 65.7838 78.7973 65.5491 78.456C65.3145 78.104 64.9465 77.928 64.4451 77.928C63.8905 77.928 63.4478 78.1093 63.1171 78.472C62.7865 78.8347 62.6211 79.3627 62.6211 80.056V85H60.5731ZM72.475 85.192C71.579 85.192 70.859 84.9893 70.315 84.584C69.771 84.168 69.499 83.592 69.499 82.856C69.499 82.12 69.7283 81.544 70.187 81.128C70.6457 80.712 71.3443 80.4133 72.283 80.232L75.115 79.672C75.115 79.064 74.9763 78.6107 74.699 78.312C74.4217 78.0027 74.011 77.848 73.467 77.848C72.9763 77.848 72.587 77.9653 72.299 78.2C72.0217 78.424 71.8297 78.7493 71.723 79.176L69.643 79.08C69.8137 78.1733 70.2297 77.48 70.891 77C71.5523 76.5093 72.411 76.264 73.467 76.264C74.683 76.264 75.6003 76.5733 76.219 77.192C76.8483 77.8 77.163 78.6747 77.163 79.816V82.92C77.163 83.144 77.2003 83.2987 77.275 83.384C77.3603 83.4693 77.483 83.512 77.643 83.512H77.915V85C77.851 85.0213 77.7443 85.0373 77.595 85.048C77.4563 85.0587 77.3123 85.064 77.163 85.064C76.811 85.064 76.4963 85.0107 76.219 84.904C75.9417 84.7867 75.7283 84.5893 75.579 84.312C75.4297 84.024 75.355 83.6347 75.355 83.144L75.531 83.272C75.4457 83.6453 75.259 83.9813 74.971 84.28C74.6937 84.568 74.3417 84.792 73.915 84.952C73.4883 85.112 73.0083 85.192 72.475 85.192ZM72.891 83.704C73.3497 83.704 73.7443 83.6133 74.075 83.432C74.4057 83.2507 74.6617 83 74.843 82.68C75.0243 82.36 75.115 81.9813 75.115 81.544V81.064L72.907 81.512C72.4483 81.608 72.1177 81.752 71.915 81.944C71.723 82.1253 71.627 82.3653 71.627 82.664C71.627 82.9947 71.7337 83.2507 71.947 83.432C72.171 83.6133 72.4857 83.704 72.891 83.704ZM81.9659 85C81.1125 85 80.4832 84.8027 80.0779 84.408C79.6832 84.0133 79.4859 83.3947 79.4859 82.552V74.456H81.5339V82.36C81.5339 82.7547 81.6192 83.032 81.7899 83.192C81.9605 83.3413 82.2272 83.416 82.5899 83.416H83.7899V85H81.9659ZM78.1419 78.04V76.456H83.7899V78.04H78.1419ZM89.3113 85V73.64H96.9113V75.448H90.2553L91.3913 74.28V79.496L90.2553 78.552H96.6233V80.344H90.2553L91.3913 79.4V85H89.3113ZM98.3231 85V76.456H100.243L100.323 78.824L100.147 78.792C100.275 77.9707 100.515 77.3787 100.867 77.016C101.23 76.6427 101.72 76.456 102.339 76.456H103.123V78.216H102.323C101.886 78.216 101.523 78.28 101.235 78.408C100.947 78.536 100.728 78.7387 100.579 79.016C100.44 79.2827 100.371 79.6347 100.371 80.072V85H98.3231ZM107.941 85.192C107.099 85.192 106.357 85.0107 105.717 84.648C105.088 84.2747 104.597 83.752 104.245 83.08C103.904 82.408 103.733 81.624 103.733 80.728C103.733 79.8213 103.904 79.0373 104.245 78.376C104.597 77.704 105.088 77.1867 105.717 76.824C106.357 76.4507 107.099 76.264 107.941 76.264C108.784 76.264 109.52 76.4507 110.149 76.824C110.779 77.1867 111.264 77.704 111.605 78.376C111.957 79.0373 112.133 79.8213 112.133 80.728C112.133 81.624 111.957 82.408 111.605 83.08C111.264 83.752 110.779 84.2747 110.149 84.648C109.52 85.0107 108.784 85.192 107.941 85.192ZM107.941 83.528C108.603 83.528 109.109 83.2827 109.461 82.792C109.824 82.3013 110.005 81.6133 110.005 80.728C110.005 79.8533 109.824 79.1707 109.461 78.68C109.109 78.1787 108.603 77.928 107.941 77.928C107.28 77.928 106.768 78.1787 106.405 78.68C106.043 79.1707 105.861 79.8533 105.861 80.728C105.861 81.6133 106.043 82.3013 106.405 82.792C106.768 83.2827 107.28 83.528 107.941 83.528ZM117.362 87.592C116.615 87.592 115.975 87.4907 115.442 87.288C114.908 87.0853 114.476 86.7973 114.146 86.424C113.826 86.0613 113.602 85.64 113.474 85.16L115.586 85.016C115.692 85.336 115.874 85.5867 116.13 85.768C116.396 85.9493 116.807 86.04 117.362 86.04C117.991 86.04 118.476 85.896 118.818 85.608C119.159 85.3307 119.33 84.8933 119.33 84.296V83.208C119.127 83.624 118.802 83.96 118.354 84.216C117.906 84.4613 117.404 84.584 116.85 84.584C116.146 84.584 115.516 84.4133 114.962 84.072C114.418 83.72 113.991 83.2347 113.682 82.616C113.372 81.9867 113.218 81.2613 113.218 80.44C113.218 79.6187 113.367 78.8987 113.666 78.28C113.975 77.6507 114.402 77.16 114.946 76.808C115.49 76.4453 116.114 76.264 116.818 76.264C117.436 76.264 117.97 76.4027 118.418 76.68C118.866 76.9573 119.191 77.3253 119.394 77.784V76.456H121.394V84.248C121.394 84.9733 121.223 85.5867 120.882 86.088C120.551 86.5893 120.082 86.9627 119.474 87.208C118.876 87.464 118.172 87.592 117.362 87.592ZM117.33 82.984C117.938 82.984 118.423 82.76 118.786 82.312C119.148 81.8533 119.335 81.224 119.346 80.424C119.356 79.8907 119.276 79.4373 119.106 79.064C118.946 78.68 118.711 78.3867 118.402 78.184C118.103 77.9707 117.746 77.864 117.33 77.864C116.7 77.864 116.21 78.0987 115.858 78.568C115.516 79.0267 115.346 79.6453 115.346 80.424C115.346 81.2027 115.522 81.8267 115.874 82.296C116.236 82.7547 116.722 82.984 117.33 82.984Z" fill="#252629"/>
<path d="M29.376 109.256C28.5013 109.256 27.7387 109.091 27.088 108.76C26.4373 108.429 25.92 107.976 25.536 107.4C25.1627 106.813 24.944 106.136 24.88 105.368L26.32 105.272C26.3947 105.837 26.56 106.317 26.816 106.712C27.072 107.107 27.4133 107.405 27.84 107.608C28.2773 107.811 28.8 107.912 29.408 107.912C29.9413 107.912 30.3947 107.843 30.768 107.704C31.1413 107.565 31.424 107.363 31.616 107.096C31.8187 106.829 31.92 106.504 31.92 106.12C31.92 105.768 31.8347 105.459 31.664 105.192C31.504 104.915 31.1893 104.664 30.72 104.44C30.2613 104.205 29.5787 103.976 28.672 103.752C27.7973 103.528 27.0987 103.283 26.576 103.016C26.064 102.749 25.6907 102.424 25.456 102.04C25.232 101.656 25.12 101.181 25.12 100.616C25.12 99.976 25.2693 99.416 25.568 98.936C25.8773 98.4453 26.3147 98.0667 26.88 97.8C27.4453 97.5227 28.1173 97.384 28.896 97.384C29.728 97.384 30.4427 97.544 31.04 97.864C31.6373 98.1733 32.112 98.6 32.464 99.144C32.816 99.688 33.0347 100.307 33.12 101L31.68 101.096C31.616 100.637 31.4667 100.232 31.232 99.88C31.008 99.5173 30.6987 99.2347 30.304 99.032C29.9093 98.8293 29.4293 98.728 28.864 98.728C28.16 98.728 27.6 98.8987 27.184 99.24C26.768 99.5707 26.56 100.008 26.56 100.552C26.56 100.904 26.64 101.197 26.8 101.432C26.9707 101.656 27.2693 101.859 27.696 102.04C28.1227 102.211 28.736 102.397 29.536 102.6C30.4853 102.835 31.2373 103.117 31.792 103.448C32.3573 103.768 32.7573 104.141 32.992 104.568C33.2373 104.995 33.36 105.48 33.36 106.024C33.36 106.685 33.1893 107.261 32.848 107.752C32.5067 108.232 32.0373 108.605 31.44 108.872C30.8427 109.128 30.1547 109.256 29.376 109.256ZM38.2278 109C37.4598 109 36.8891 108.824 36.5158 108.472C36.1531 108.12 35.9718 107.571 35.9718 106.824V98.536H37.3158V106.792C37.3158 107.176 37.4011 107.443 37.5718 107.592C37.7424 107.741 38.0038 107.816 38.3558 107.816H39.5718V109H38.2278ZM34.7238 101.704V100.52H39.5718V101.704H34.7238ZM43.5211 109.192C42.6465 109.192 41.9478 108.989 41.4251 108.584C40.9131 108.179 40.6571 107.613 40.6571 106.888C40.6571 106.163 40.8705 105.592 41.2971 105.176C41.7238 104.76 42.4011 104.467 43.3291 104.296L46.3371 103.736C46.3371 103.021 46.1665 102.488 45.8251 102.136C45.4945 101.784 44.9931 101.608 44.3211 101.608C43.7345 101.608 43.2705 101.741 42.9291 102.008C42.5878 102.264 42.3531 102.637 42.2251 103.128L40.8011 103.016C40.9611 102.216 41.3451 101.571 41.9531 101.08C42.5718 100.579 43.3611 100.328 44.3211 100.328C45.4091 100.328 46.2411 100.637 46.8171 101.256C47.3931 101.864 47.6811 102.707 47.6811 103.784V107.288C47.6811 107.48 47.7131 107.619 47.7771 107.704C47.8518 107.779 47.9691 107.816 48.1291 107.816H48.4651V109C48.4225 109.011 48.3531 109.016 48.2571 109.016C48.1611 109.027 48.0598 109.032 47.9531 109.032C47.5691 109.032 47.2545 108.973 47.0091 108.856C46.7745 108.728 46.6038 108.536 46.4971 108.28C46.3905 108.013 46.3371 107.667 46.3371 107.24L46.4971 107.272C46.4225 107.635 46.2411 107.965 45.9531 108.264C45.6651 108.552 45.3078 108.781 44.8811 108.952C44.4545 109.112 44.0011 109.192 43.5211 109.192ZM43.6491 108.008C44.2145 108.008 44.6945 107.901 45.0891 107.688C45.4945 107.464 45.8038 107.165 46.0171 106.792C46.2305 106.408 46.3371 105.981 46.3371 105.512V104.904L43.5851 105.416C43.0091 105.523 42.6091 105.688 42.3851 105.912C42.1718 106.125 42.0651 106.408 42.0651 106.76C42.0651 107.155 42.2038 107.464 42.4811 107.688C42.7691 107.901 43.1585 108.008 43.6491 108.008ZM49.9831 109V100.52H51.1671L51.2311 102.664L51.1031 102.616C51.2098 101.891 51.4391 101.363 51.7911 101.032C52.1538 100.691 52.6338 100.52 53.2311 100.52H54.0631V101.8H53.2471C52.8205 101.8 52.4631 101.88 52.1751 102.04C51.8978 102.189 51.6845 102.419 51.5351 102.728C51.3965 103.027 51.3271 103.411 51.3271 103.88V109H49.9831ZM58.3528 109C57.5848 109 57.0141 108.824 56.6408 108.472C56.2781 108.12 56.0968 107.571 56.0968 106.824V98.536H57.4408V106.792C57.4408 107.176 57.5261 107.443 57.6968 107.592C57.8674 107.741 58.1288 107.816 58.4808 107.816H59.6968V109H58.3528ZM54.8488 101.704V100.52H59.6968V101.704H54.8488ZM64.5764 109.192C63.7764 109.192 63.083 109.011 62.4964 108.648C61.9204 108.285 61.4724 107.773 61.1524 107.112C60.843 106.44 60.6884 105.656 60.6884 104.76C60.6884 103.864 60.843 103.085 61.1524 102.424C61.4724 101.763 61.915 101.251 62.4804 100.888C63.0564 100.515 63.7337 100.328 64.5124 100.328C65.2484 100.328 65.899 100.504 66.4644 100.856C67.0297 101.197 67.467 101.699 67.7764 102.36C68.0964 103.021 68.2564 103.827 68.2564 104.776V105.176H62.0964C62.1497 106.083 62.3897 106.765 62.8164 107.224C63.2537 107.683 63.8404 107.912 64.5764 107.912C65.131 107.912 65.5844 107.784 65.9364 107.528C66.299 107.261 66.5497 106.915 66.6884 106.488L68.1284 106.6C67.9044 107.357 67.4777 107.981 66.8484 108.472C66.2297 108.952 65.4724 109.192 64.5764 109.192ZM62.0964 103.992H66.7844C66.7204 103.171 66.4804 102.568 66.0644 102.184C65.659 101.8 65.1417 101.608 64.5124 101.608C63.8617 101.608 63.323 101.811 62.8964 102.216C62.4804 102.611 62.2137 103.203 62.0964 103.992ZM74.2331 109V100.52H75.4651L75.5131 102.664L75.3211 102.6C75.4171 102.131 75.5825 101.731 75.8171 101.4C76.0625 101.059 76.3611 100.797 76.7131 100.616C77.0651 100.424 77.4545 100.328 77.8811 100.328C78.6171 100.328 79.2145 100.531 79.6731 100.936C80.1425 101.341 80.4358 101.907 80.5531 102.632L80.2971 102.616C80.3825 102.125 80.5371 101.715 80.7611 101.384C80.9958 101.043 81.2945 100.781 81.6571 100.6C82.0198 100.419 82.4358 100.328 82.9051 100.328C83.5131 100.328 84.0251 100.456 84.4411 100.712C84.8571 100.957 85.1718 101.32 85.3851 101.8C85.5985 102.28 85.7051 102.861 85.7051 103.544V109H84.3611V103.832C84.3611 103.064 84.2118 102.488 83.9131 102.104C83.6145 101.709 83.1718 101.512 82.5851 101.512C82.1905 101.512 81.8438 101.608 81.5451 101.8C81.2571 101.992 81.0331 102.269 80.8731 102.632C80.7131 102.984 80.6331 103.416 80.6331 103.928V109H79.2891V103.928C79.2891 103.171 79.1558 102.579 78.8891 102.152C78.6225 101.725 78.1745 101.512 77.5451 101.512C77.1505 101.512 76.8038 101.608 76.5051 101.8C76.2171 101.992 75.9878 102.269 75.8171 102.632C75.6571 102.995 75.5771 103.427 75.5771 103.928V109H74.2331ZM88.1706 109V100.52H89.5146V109H88.1706ZM88.1386 99.192V97.624H89.5466V99.192H88.1386ZM94.5403 109C93.7723 109 93.2016 108.824 92.8283 108.472C92.4656 108.12 92.2843 107.571 92.2843 106.824V98.536H93.6283V106.792C93.6283 107.176 93.7136 107.443 93.8843 107.592C94.0549 107.741 94.3163 107.816 94.6683 107.816H95.8843V109H94.5403ZM91.0363 101.704V100.52H95.8843V101.704H91.0363ZM104.71 109.192C103.974 109.192 103.334 109.011 102.79 108.648C102.257 108.285 101.846 107.773 101.558 107.112C101.27 106.451 101.126 105.667 101.126 104.76C101.126 103.853 101.27 103.069 101.558 102.408C101.846 101.747 102.257 101.235 102.79 100.872C103.334 100.509 103.974 100.328 104.71 100.328C105.275 100.328 105.793 100.451 106.262 100.696C106.731 100.931 107.083 101.267 107.318 101.704V97.64H108.662V109H107.446L107.398 107.72C107.163 108.179 106.806 108.541 106.326 108.808C105.846 109.064 105.307 109.192 104.71 109.192ZM104.982 107.912C105.483 107.912 105.905 107.784 106.246 107.528C106.598 107.272 106.865 106.909 107.046 106.44C107.227 105.96 107.318 105.4 107.318 104.76C107.318 104.099 107.227 103.533 107.046 103.064C106.865 102.595 106.598 102.237 106.246 101.992C105.905 101.736 105.483 101.608 104.982 101.608C104.235 101.608 103.638 101.891 103.19 102.456C102.753 103.011 102.534 103.779 102.534 104.76C102.534 105.731 102.753 106.499 103.19 107.064C103.638 107.629 104.235 107.912 104.982 107.912ZM114.373 109.192C113.573 109.192 112.88 109.011 112.293 108.648C111.717 108.285 111.269 107.773 110.949 107.112C110.64 106.44 110.485 105.656 110.485 104.76C110.485 103.864 110.64 103.085 110.949 102.424C111.269 101.763 111.712 101.251 112.277 100.888C112.853 100.515 113.531 100.328 114.309 100.328C115.045 100.328 115.696 100.504 116.261 100.856C116.827 101.197 117.264 101.699 117.573 102.36C117.893 103.021 118.053 103.827 118.053 104.776V105.176H111.893C111.947 106.083 112.187 106.765 112.613 107.224C113.051 107.683 113.637 107.912 114.373 107.912C114.928 107.912 115.381 107.784 115.733 107.528C116.096 107.261 116.347 106.915 116.485 106.488L117.925 106.6C117.701 107.357 117.275 107.981 116.645 108.472C116.027 108.952 115.269 109.192 114.373 109.192ZM111.893 103.992H116.581C116.517 103.171 116.277 102.568 115.861 102.184C115.456 101.8 114.939 101.608 114.309 101.608C113.659 101.608 113.12 101.811 112.693 102.216C112.277 102.611 112.011 103.203 111.893 103.992ZM119.874 109V100.52H121.106L121.154 102.664L120.962 102.6C121.058 102.131 121.223 101.731 121.458 101.4C121.703 101.059 122.002 100.797 122.354 100.616C122.706 100.424 123.095 100.328 123.522 100.328C124.258 100.328 124.855 100.531 125.314 100.936C125.783 101.341 126.076 101.907 126.194 102.632L125.938 102.616C126.023 102.125 126.178 101.715 126.402 101.384C126.636 101.043 126.935 100.781 127.298 100.6C127.66 100.419 128.076 100.328 128.546 100.328C129.154 100.328 129.666 100.456 130.082 100.712C130.498 100.957 130.812 101.32 131.026 101.8C131.239 102.28 131.346 102.861 131.346 103.544V109H130.002V103.832C130.002 103.064 129.852 102.488 129.554 102.104C129.255 101.709 128.812 101.512 128.226 101.512C127.831 101.512 127.484 101.608 127.186 101.8C126.898 101.992 126.674 102.269 126.514 102.632C126.354 102.984 126.274 103.416 126.274 103.928V109H124.93V103.928C124.93 103.171 124.796 102.579 124.53 102.152C124.263 101.725 123.815 101.512 123.186 101.512C122.791 101.512 122.444 101.608 122.146 101.8C121.858 101.992 121.628 102.269 121.458 102.632C121.298 102.995 121.218 103.427 121.218 103.928V109H119.874ZM140.225 109L137.233 97.64H138.737L141.073 107.112L143.393 97.64H144.961L147.297 107.112L149.617 97.64H151.137L148.145 109H146.417L144.177 100.2L141.937 109H140.225ZM152.671 109V100.52H154.015V109H152.671ZM152.639 99.192V97.624H154.047V99.192H152.639ZM159.733 109.192C158.943 109.192 158.255 109.011 157.669 108.648C157.093 108.285 156.645 107.773 156.325 107.112C156.005 106.44 155.845 105.656 155.845 104.76C155.845 103.864 156.005 103.085 156.325 102.424C156.645 101.763 157.093 101.251 157.669 100.888C158.255 100.515 158.943 100.328 159.733 100.328C160.383 100.328 160.959 100.445 161.461 100.68C161.973 100.904 162.389 101.235 162.709 101.672C163.029 102.109 163.237 102.643 163.333 103.272L161.925 103.368C161.829 102.803 161.583 102.371 161.189 102.072C160.794 101.763 160.309 101.608 159.733 101.608C158.954 101.608 158.346 101.891 157.909 102.456C157.471 103.011 157.253 103.779 157.253 104.76C157.253 105.741 157.471 106.515 157.909 107.08C158.346 107.635 158.954 107.912 159.733 107.912C160.309 107.912 160.794 107.752 161.189 107.432C161.583 107.112 161.829 106.632 161.925 105.992L163.333 106.088C163.237 106.717 163.029 107.267 162.709 107.736C162.389 108.195 161.973 108.552 161.461 108.808C160.959 109.064 160.383 109.192 159.733 109.192ZM164.999 109V97.64H166.343V102.392L166.183 102.36C166.289 101.891 166.471 101.507 166.727 101.208C166.983 100.909 167.297 100.691 167.671 100.552C168.044 100.403 168.455 100.328 168.903 100.328C169.511 100.328 170.023 100.467 170.439 100.744C170.865 101.011 171.185 101.389 171.399 101.88C171.623 102.36 171.735 102.915 171.735 103.544V109H170.391V103.928C170.391 103.107 170.241 102.499 169.943 102.104C169.655 101.709 169.212 101.512 168.615 101.512C167.932 101.512 167.383 101.72 166.967 102.136C166.551 102.552 166.343 103.155 166.343 103.944V109H164.999ZM176.759 109C175.991 109 175.42 108.824 175.047 108.472C174.684 108.12 174.503 107.571 174.503 106.824V98.536H175.847V106.792C175.847 107.176 175.932 107.443 176.103 107.592C176.274 107.741 176.535 107.816 176.887 107.816H178.103V109H176.759ZM173.255 101.704V100.52H178.103V101.704H173.255ZM179.671 109V100.52H181.015V109H179.671ZM179.639 99.192V97.624H181.047V99.192H179.639ZM186.637 111.592C186.029 111.592 185.479 111.491 184.989 111.288C184.498 111.085 184.087 110.797 183.757 110.424C183.426 110.051 183.202 109.619 183.085 109.128L184.493 109.032C184.621 109.427 184.845 109.736 185.165 109.96C185.495 110.195 185.986 110.312 186.637 110.312C187.405 110.312 187.991 110.157 188.397 109.848C188.813 109.539 189.021 109.075 189.021 108.456V107.08C188.818 107.528 188.493 107.885 188.045 108.152C187.597 108.419 187.095 108.552 186.541 108.552C185.826 108.552 185.186 108.376 184.621 108.024C184.066 107.672 183.629 107.187 183.309 106.568C182.999 105.949 182.845 105.24 182.845 104.44C182.845 103.629 182.999 102.92 183.309 102.312C183.618 101.693 184.045 101.208 184.589 100.856C185.143 100.504 185.773 100.328 186.477 100.328C187.074 100.328 187.607 100.467 188.077 100.744C188.557 101.021 188.893 101.395 189.085 101.864V100.52H190.365V108.424C190.365 109.085 190.215 109.651 189.917 110.12C189.618 110.6 189.191 110.963 188.637 111.208C188.082 111.464 187.415 111.592 186.637 111.592ZM186.605 107.272C187.33 107.272 187.911 107.021 188.349 106.52C188.786 106.008 189.01 105.315 189.021 104.44C189.031 103.853 188.935 103.352 188.733 102.936C188.541 102.509 188.258 102.184 187.885 101.96C187.522 101.725 187.095 101.608 186.605 101.608C185.858 101.608 185.277 101.864 184.861 102.376C184.455 102.877 184.253 103.565 184.253 104.44C184.253 105.315 184.461 106.008 184.877 106.52C185.303 107.021 185.879 107.272 186.605 107.272ZM195.852 109.192C195.074 109.192 194.418 109.069 193.884 108.824C193.362 108.579 192.956 108.243 192.668 107.816C192.391 107.379 192.231 106.883 192.188 106.328L193.596 106.232C193.682 106.744 193.89 107.155 194.22 107.464C194.562 107.763 195.106 107.912 195.852 107.912C196.428 107.912 196.871 107.821 197.18 107.64C197.5 107.448 197.66 107.144 197.66 106.728C197.66 106.504 197.607 106.317 197.5 106.168C197.404 106.019 197.207 105.891 196.908 105.784C196.61 105.667 196.172 105.555 195.596 105.448C194.807 105.299 194.188 105.112 193.74 104.888C193.292 104.664 192.978 104.392 192.796 104.072C192.615 103.752 192.524 103.368 192.524 102.92C192.524 102.163 192.802 101.544 193.356 101.064C193.922 100.573 194.716 100.328 195.74 100.328C196.487 100.328 197.095 100.461 197.564 100.728C198.044 100.984 198.407 101.32 198.652 101.736C198.898 102.152 199.047 102.589 199.1 103.048L197.692 103.144C197.671 102.877 197.591 102.627 197.452 102.392C197.314 102.157 197.106 101.971 196.828 101.832C196.551 101.683 196.178 101.608 195.708 101.608C195.1 101.608 194.652 101.725 194.364 101.96C194.076 102.195 193.932 102.493 193.932 102.856C193.932 103.133 193.986 103.363 194.092 103.544C194.21 103.715 194.407 103.859 194.684 103.976C194.972 104.083 195.362 104.179 195.852 104.264C196.684 104.403 197.335 104.579 197.804 104.792C198.274 105.005 198.599 105.272 198.78 105.592C198.972 105.901 199.068 106.28 199.068 106.728C199.068 107.507 198.764 108.115 198.156 108.552C197.559 108.979 196.791 109.192 195.852 109.192ZM203.697 109C202.929 109 202.358 108.824 201.985 108.472C201.622 108.12 201.441 107.571 201.441 106.824V98.536H202.785V106.792C202.785 107.176 202.87 107.443 203.041 107.592C203.211 107.741 203.473 107.816 203.825 107.816H205.041V109H203.697ZM200.193 101.704V100.52H205.041V101.704H200.193ZM209.92 109.192C209.12 109.192 208.427 109.011 207.84 108.648C207.264 108.285 206.816 107.773 206.496 107.112C206.187 106.44 206.032 105.656 206.032 104.76C206.032 103.864 206.187 103.085 206.496 102.424C206.816 101.763 207.259 101.251 207.824 100.888C208.4 100.515 209.077 100.328 209.856 100.328C210.592 100.328 211.243 100.504 211.808 100.856C212.373 101.197 212.811 101.699 213.12 102.36C213.44 103.021 213.6 103.827 213.6 104.776V105.176H207.44C207.493 106.083 207.733 106.765 208.16 107.224C208.597 107.683 209.184 107.912 209.92 107.912C210.475 107.912 210.928 107.784 211.28 107.528C211.643 107.261 211.893 106.915 212.032 106.488L213.472 106.6C213.248 107.357 212.821 107.981 212.192 108.472C211.573 108.952 210.816 109.192 209.92 109.192ZM207.44 103.992H212.128C212.064 103.171 211.824 102.568 211.408 102.184C211.003 101.8 210.485 101.608 209.856 101.608C209.205 101.608 208.667 101.811 208.24 102.216C207.824 102.611 207.557 103.203 207.44 103.992ZM215.421 109V100.52H216.653L216.701 102.68L216.541 102.536C216.647 102.035 216.834 101.624 217.101 101.304C217.367 100.973 217.687 100.728 218.061 100.568C218.445 100.408 218.855 100.328 219.293 100.328C219.943 100.328 220.477 100.472 220.893 100.76C221.319 101.048 221.634 101.437 221.837 101.928C222.05 102.408 222.157 102.947 222.157 103.544V109H220.813V103.928C220.813 103.405 220.749 102.968 220.621 102.616C220.503 102.253 220.311 101.981 220.045 101.8C219.778 101.608 219.431 101.512 219.005 101.512C218.354 101.512 217.815 101.72 217.389 102.136C216.973 102.541 216.765 103.139 216.765 103.928V109H215.421ZM231.502 109.192C230.659 109.192 229.982 108.909 229.47 108.344C228.968 107.768 228.718 106.979 228.718 105.976V100.52H230.062V105.608C230.062 106.429 230.206 107.037 230.494 107.432C230.792 107.816 231.246 108.008 231.854 108.008C232.526 108.008 233.054 107.795 233.438 107.368C233.822 106.931 234.014 106.333 234.014 105.576V100.52H235.358V109H234.078V106.904L234.286 107.016C234.115 107.709 233.79 108.248 233.31 108.632C232.83 109.005 232.227 109.192 231.502 109.192ZM237.921 109V100.52H239.153L239.201 102.68L239.041 102.536C239.147 102.035 239.334 101.624 239.601 101.304C239.867 100.973 240.187 100.728 240.561 100.568C240.945 100.408 241.355 100.328 241.793 100.328C242.443 100.328 242.977 100.472 243.393 100.76C243.819 101.048 244.134 101.437 244.337 101.928C244.55 102.408 244.657 102.947 244.657 103.544V109H243.313V103.928C243.313 103.405 243.249 102.968 243.121 102.616C243.003 102.253 242.811 101.981 242.545 101.8C242.278 101.608 241.931 101.512 241.505 101.512C240.854 101.512 240.315 101.72 239.889 102.136C239.473 102.541 239.265 103.139 239.265 103.928V109H237.921ZM250.038 109.192C249.302 109.192 248.662 109.011 248.118 108.648C247.585 108.285 247.174 107.773 246.886 107.112C246.598 106.451 246.454 105.667 246.454 104.76C246.454 103.853 246.598 103.069 246.886 102.408C247.174 101.747 247.585 101.235 248.118 100.872C248.662 100.509 249.302 100.328 250.038 100.328C250.603 100.328 251.121 100.451 251.59 100.696C252.059 100.931 252.411 101.267 252.646 101.704V97.64H253.99V109H252.774L252.726 107.72C252.491 108.179 252.134 108.541 251.654 108.808C251.174 109.064 250.635 109.192 250.038 109.192ZM250.31 107.912C250.811 107.912 251.233 107.784 251.574 107.528C251.926 107.272 252.193 106.909 252.374 106.44C252.555 105.96 252.646 105.4 252.646 104.76C252.646 104.099 252.555 103.533 252.374 103.064C252.193 102.595 251.926 102.237 251.574 101.992C251.233 101.736 250.811 101.608 250.31 101.608C249.563 101.608 248.966 101.891 248.518 102.456C248.081 103.011 247.862 103.779 247.862 104.76C247.862 105.731 248.081 106.499 248.518 107.064C248.966 107.629 249.563 107.912 250.31 107.912ZM263.762 111.592C263.154 111.592 262.604 111.491 262.114 111.288C261.623 111.085 261.212 110.797 260.882 110.424C260.551 110.051 260.327 109.619 260.21 109.128L261.618 109.032C261.746 109.427 261.97 109.736 262.29 109.96C262.62 110.195 263.111 110.312 263.762 110.312C264.53 110.312 265.116 110.157 265.522 109.848C265.938 109.539 266.146 109.075 266.146 108.456V107.08C265.943 107.528 265.618 107.885 265.17 108.152C264.722 108.419 264.22 108.552 263.666 108.552C262.951 108.552 262.311 108.376 261.746 108.024C261.191 107.672 260.754 107.187 260.434 106.568C260.124 105.949 259.97 105.24 259.97 104.44C259.97 103.629 260.124 102.92 260.434 102.312C260.743 101.693 261.17 101.208 261.714 100.856C262.268 100.504 262.898 100.328 263.602 100.328C264.199 100.328 264.732 100.467 265.202 100.744C265.682 101.021 266.018 101.395 266.21 101.864V100.52H267.49V108.424C267.49 109.085 267.34 109.651 267.042 110.12C266.743 110.6 266.316 110.963 265.762 111.208C265.207 111.464 264.54 111.592 263.762 111.592ZM263.73 107.272C264.455 107.272 265.036 107.021 265.474 106.52C265.911 106.008 266.135 105.315 266.146 104.44C266.156 103.853 266.06 103.352 265.858 102.936C265.666 102.509 265.383 102.184 265.01 101.96C264.647 101.725 264.22 101.608 263.73 101.608C262.983 101.608 262.402 101.864 261.986 102.376C261.58 102.877 261.378 103.565 261.378 104.44C261.378 105.315 261.586 106.008 262.002 106.52C262.428 107.021 263.004 107.272 263.73 107.272ZM273.201 109.192C272.401 109.192 271.708 109.011 271.121 108.648C270.545 108.285 270.097 107.773 269.777 107.112C269.468 106.44 269.313 105.656 269.313 104.76C269.313 103.864 269.468 103.085 269.777 102.424C270.097 101.763 270.54 101.251 271.105 100.888C271.681 100.515 272.359 100.328 273.137 100.328C273.873 100.328 274.524 100.504 275.089 100.856C275.655 101.197 276.092 101.699 276.401 102.36C276.721 103.021 276.881 103.827 276.881 104.776V105.176H270.721C270.775 106.083 271.015 106.765 271.441 107.224C271.879 107.683 272.465 107.912 273.201 107.912C273.756 107.912 274.209 107.784 274.561 107.528C274.924 107.261 275.175 106.915 275.313 106.488L276.753 106.6C276.529 107.357 276.103 107.981 275.473 108.472C274.855 108.952 274.097 109.192 273.201 109.192ZM270.721 103.992H275.409C275.345 103.171 275.105 102.568 274.689 102.184C274.284 101.8 273.767 101.608 273.137 101.608C272.487 101.608 271.948 101.811 271.521 102.216C271.105 102.611 270.839 103.203 270.721 103.992ZM281.79 109.192C281.011 109.192 280.355 109.069 279.822 108.824C279.299 108.579 278.894 108.243 278.606 107.816C278.329 107.379 278.169 106.883 278.126 106.328L279.534 106.232C279.619 106.744 279.827 107.155 280.158 107.464C280.499 107.763 281.043 107.912 281.79 107.912C282.366 107.912 282.809 107.821 283.118 107.64C283.438 107.448 283.598 107.144 283.598 106.728C283.598 106.504 283.545 106.317 283.438 106.168C283.342 106.019 283.145 105.891 282.846 105.784C282.547 105.667 282.11 105.555 281.534 105.448C280.745 105.299 280.126 105.112 279.678 104.888C279.23 104.664 278.915 104.392 278.734 104.072C278.553 103.752 278.462 103.368 278.462 102.92C278.462 102.163 278.739 101.544 279.294 101.064C279.859 100.573 280.654 100.328 281.678 100.328C282.425 100.328 283.033 100.461 283.502 100.728C283.982 100.984 284.345 101.32 284.59 101.736C284.835 102.152 284.985 102.589 285.038 103.048L283.63 103.144C283.609 102.877 283.529 102.627 283.39 102.392C283.251 102.157 283.043 101.971 282.766 101.832C282.489 101.683 282.115 101.608 281.646 101.608C281.038 101.608 280.59 101.725 280.302 101.96C280.014 102.195 279.87 102.493 279.87 102.856C279.87 103.133 279.923 103.363 280.03 103.544C280.147 103.715 280.345 103.859 280.622 103.976C280.91 104.083 281.299 104.179 281.79 104.264C282.622 104.403 283.273 104.579 283.742 104.792C284.211 105.005 284.537 105.272 284.718 105.592C284.91 105.901 285.006 106.28 285.006 106.728C285.006 107.507 284.702 108.115 284.094 108.552C283.497 108.979 282.729 109.192 281.79 109.192ZM289.634 109C288.866 109 288.295 108.824 287.922 108.472C287.559 108.12 287.378 107.571 287.378 106.824V98.536H288.722V106.792C288.722 107.176 288.807 107.443 288.978 107.592C289.149 107.741 289.41 107.816 289.762 107.816H290.978V109H289.634ZM286.13 101.704V100.52H290.978V101.704H286.13ZM294.927 109.192C294.053 109.192 293.354 108.989 292.831 108.584C292.319 108.179 292.063 107.613 292.063 106.888C292.063 106.163 292.277 105.592 292.703 105.176C293.13 104.76 293.807 104.467 294.735 104.296L297.743 103.736C297.743 103.021 297.573 102.488 297.231 102.136C296.901 101.784 296.399 101.608 295.727 101.608C295.141 101.608 294.677 101.741 294.335 102.008C293.994 102.264 293.759 102.637 293.631 103.128L292.207 103.016C292.367 102.216 292.751 101.571 293.359 101.08C293.978 100.579 294.767 100.328 295.727 100.328C296.815 100.328 297.647 100.637 298.223 101.256C298.799 101.864 299.087 102.707 299.087 103.784V107.288C299.087 107.48 299.119 107.619 299.183 107.704C299.258 107.779 299.375 107.816 299.535 107.816H299.871V109C299.829 109.011 299.759 109.016 299.663 109.016C299.567 109.027 299.466 109.032 299.359 109.032C298.975 109.032 298.661 108.973 298.415 108.856C298.181 108.728 298.01 108.536 297.903 108.28C297.797 108.013 297.743 107.667 297.743 107.24L297.903 107.272C297.829 107.635 297.647 107.965 297.359 108.264C297.071 108.552 296.714 108.781 296.287 108.952C295.861 109.112 295.407 109.192 294.927 109.192ZM295.055 108.008C295.621 108.008 296.101 107.901 296.495 107.688C296.901 107.464 297.21 107.165 297.423 106.792C297.637 106.408 297.743 105.981 297.743 105.512V104.904L294.991 105.416C294.415 105.523 294.015 105.688 293.791 105.912C293.578 106.125 293.471 106.408 293.471 106.76C293.471 107.155 293.61 107.464 293.887 107.688C294.175 107.901 294.565 108.008 295.055 108.008ZM302.96 109C302.469 109 302.069 108.872 301.76 108.616C301.45 108.36 301.296 107.955 301.296 107.4V97.64H302.64V107.288C302.64 107.459 302.682 107.592 302.768 107.688C302.864 107.773 302.997 107.816 303.168 107.816H303.904V109H302.96ZM307.868 109C307.1 109 306.53 108.824 306.156 108.472C305.794 108.12 305.612 107.571 305.612 106.824V98.536H306.956V106.792C306.956 107.176 307.042 107.443 307.212 107.592C307.383 107.741 307.644 107.816 307.996 107.816H309.212V109H307.868ZM304.364 101.704V100.52H309.212V101.704H304.364ZM314.092 109.192C313.292 109.192 312.599 109.011 312.012 108.648C311.436 108.285 310.988 107.773 310.668 107.112C310.359 106.44 310.204 105.656 310.204 104.76C310.204 103.864 310.359 103.085 310.668 102.424C310.988 101.763 311.431 101.251 311.996 100.888C312.572 100.515 313.249 100.328 314.028 100.328C314.764 100.328 315.415 100.504 315.98 100.856C316.545 101.197 316.983 101.699 317.292 102.36C317.612 103.021 317.772 103.827 317.772 104.776V105.176H311.612C311.665 106.083 311.905 106.765 312.332 107.224C312.769 107.683 313.356 107.912 314.092 107.912C314.647 107.912 315.1 107.784 315.452 107.528C315.815 107.261 316.065 106.915 316.204 106.488L317.644 106.6C317.42 107.357 316.993 107.981 316.364 108.472C315.745 108.952 314.988 109.192 314.092 109.192ZM311.612 103.992H316.3C316.236 103.171 315.996 102.568 315.58 102.184C315.175 101.8 314.657 101.608 314.028 101.608C313.377 101.608 312.839 101.811 312.412 102.216C311.996 102.611 311.729 103.203 311.612 103.992ZM28.288 131.192C27.552 131.192 26.912 131.011 26.368 130.648C25.8347 130.285 25.424 129.773 25.136 129.112C24.848 128.451 24.704 127.667 24.704 126.76C24.704 125.853 24.848 125.069 25.136 124.408C25.424 123.747 25.8347 123.235 26.368 122.872C26.912 122.509 27.552 122.328 28.288 122.328C28.8533 122.328 29.3707 122.451 29.84 122.696C30.3093 122.931 30.6613 123.267 30.896 123.704V119.64H32.24V131H31.024L30.976 129.72C30.7413 130.179 30.384 130.541 29.904 130.808C29.424 131.064 28.8853 131.192 28.288 131.192ZM28.56 129.912C29.0613 129.912 29.4827 129.784 29.824 129.528C30.176 129.272 30.4427 128.909 30.624 128.44C30.8053 127.96 30.896 127.4 30.896 126.76C30.896 126.099 30.8053 125.533 30.624 125.064C30.4427 124.595 30.176 124.237 29.824 123.992C29.4827 123.736 29.0613 123.608 28.56 123.608C27.8133 123.608 27.216 123.891 26.768 124.456C26.3307 125.011 26.112 125.779 26.112 126.76C26.112 127.731 26.3307 128.499 26.768 129.064C27.216 129.629 27.8133 129.912 28.56 129.912ZM37.9514 131.192C37.1514 131.192 36.458 131.011 35.8714 130.648C35.2954 130.285 34.8474 129.773 34.5274 129.112C34.218 128.44 34.0634 127.656 34.0634 126.76C34.0634 125.864 34.218 125.085 34.5274 124.424C34.8474 123.763 35.29 123.251 35.8554 122.888C36.4314 122.515 37.1087 122.328 37.8874 122.328C38.6234 122.328 39.274 122.504 39.8394 122.856C40.4047 123.197 40.842 123.699 41.1514 124.36C41.4714 125.021 41.6314 125.827 41.6314 126.776V127.176H35.4714C35.5247 128.083 35.7647 128.765 36.1914 129.224C36.6287 129.683 37.2154 129.912 37.9514 129.912C38.506 129.912 38.9594 129.784 39.3114 129.528C39.674 129.261 39.9247 128.915 40.0634 128.488L41.5034 128.6C41.2794 129.357 40.8527 129.981 40.2234 130.472C39.6047 130.952 38.8474 131.192 37.9514 131.192ZM35.4714 125.992H40.1594C40.0954 125.171 39.8554 124.568 39.4394 124.184C39.034 123.8 38.5167 123.608 37.8874 123.608C37.2367 123.608 36.698 123.811 36.2714 124.216C35.8554 124.611 35.5887 125.203 35.4714 125.992ZM43.4519 131V122.52H44.6839L44.7319 124.68L44.5719 124.536C44.6785 124.035 44.8652 123.624 45.1319 123.304C45.3985 122.973 45.7185 122.728 46.0919 122.568C46.4759 122.408 46.8865 122.328 47.3239 122.328C47.9745 122.328 48.5079 122.472 48.9239 122.76C49.3505 123.048 49.6652 123.437 49.8679 123.928C50.0812 124.408 50.1879 124.947 50.1879 125.544V131H48.8439V125.928C48.8439 125.405 48.7799 124.968 48.6519 124.616C48.5345 124.253 48.3425 123.981 48.0759 123.8C47.8092 123.608 47.4625 123.512 47.0359 123.512C46.3852 123.512 45.8465 123.72 45.4199 124.136C45.0039 124.541 44.7959 125.139 44.7959 125.928V131H43.4519ZM56.9408 131V119.64H61.2448C62.0448 119.64 62.7328 119.779 63.3088 120.056C63.8848 120.333 64.3274 120.733 64.6368 121.256C64.9568 121.768 65.1168 122.376 65.1168 123.08C65.1168 123.592 64.9941 124.051 64.7488 124.456C64.5141 124.851 64.2101 125.165 63.8368 125.4C63.4634 125.635 63.0741 125.763 62.6688 125.784L62.5728 125.64C63.2661 125.64 63.8101 125.8 64.2048 126.12C64.6101 126.44 64.8448 126.952 64.9088 127.656L65.2288 131H63.8368L63.5487 127.8C63.5061 127.331 63.3354 126.984 63.0368 126.76C62.7488 126.536 62.2741 126.424 61.6128 126.424H58.3168V131H56.9408ZM58.3168 125.08H61.4208C62.1141 125.08 62.6634 124.904 63.0688 124.552C63.4741 124.2 63.6768 123.699 63.6768 123.048C63.6768 122.387 63.4688 121.88 63.0528 121.528C62.6368 121.165 62.0341 120.984 61.2448 120.984H58.3168V125.08ZM70.6233 131.192C69.8233 131.192 69.1299 131.011 68.5433 130.648C67.9673 130.285 67.5193 129.773 67.1993 129.112C66.8899 128.44 66.7353 127.656 66.7353 126.76C66.7353 125.864 66.8899 125.085 67.1993 124.424C67.5193 123.763 67.9619 123.251 68.5273 122.888C69.1033 122.515 69.7806 122.328 70.5593 122.328C71.2953 122.328 71.9459 122.504 72.5113 122.856C73.0766 123.197 73.5139 123.699 73.8233 124.36C74.1433 125.021 74.3033 125.827 74.3033 126.776V127.176H68.1432C68.1966 128.083 68.4366 128.765 68.8633 129.224C69.3006 129.683 69.8873 129.912 70.6233 129.912C71.1779 129.912 71.6313 129.784 71.9833 129.528C72.3459 129.261 72.5966 128.915 72.7353 128.488L74.1753 128.6C73.9513 129.357 73.5246 129.981 72.8953 130.472C72.2766 130.952 71.5193 131.192 70.6233 131.192ZM68.1432 125.992H72.8313C72.7673 125.171 72.5273 124.568 72.1113 124.184C71.7059 123.8 71.1886 123.608 70.5593 123.608C69.9086 123.608 69.3699 123.811 68.9433 124.216C68.5273 124.611 68.2606 125.203 68.1432 125.992ZM79.2118 131.192C78.4331 131.192 77.7771 131.069 77.2438 130.824C76.7211 130.579 76.3158 130.243 76.0278 129.816C75.7504 129.379 75.5904 128.883 75.5478 128.328L76.9557 128.232C77.0411 128.744 77.2491 129.155 77.5798 129.464C77.9211 129.763 78.4651 129.912 79.2118 129.912C79.7878 129.912 80.2304 129.821 80.5398 129.64C80.8598 129.448 81.0198 129.144 81.0198 128.728C81.0198 128.504 80.9664 128.317 80.8598 128.168C80.7638 128.019 80.5664 127.891 80.2678 127.784C79.9691 127.667 79.5318 127.555 78.9557 127.448C78.1664 127.299 77.5478 127.112 77.0998 126.888C76.6518 126.664 76.3371 126.392 76.1558 126.072C75.9744 125.752 75.8838 125.368 75.8838 124.92C75.8838 124.163 76.1611 123.544 76.7158 123.064C77.2811 122.573 78.0758 122.328 79.0998 122.328C79.8464 122.328 80.4544 122.461 80.9238 122.728C81.4038 122.984 81.7664 123.32 82.0118 123.736C82.2571 124.152 82.4064 124.589 82.4598 125.048L81.0518 125.144C81.0304 124.877 80.9504 124.627 80.8118 124.392C80.6731 124.157 80.4651 123.971 80.1878 123.832C79.9104 123.683 79.5371 123.608 79.0677 123.608C78.4598 123.608 78.0118 123.725 77.7238 123.96C77.4358 124.195 77.2918 124.493 77.2918 124.856C77.2918 125.133 77.3451 125.363 77.4518 125.544C77.5691 125.715 77.7664 125.859 78.0438 125.976C78.3318 126.083 78.7211 126.179 79.2118 126.264C80.0438 126.403 80.6944 126.579 81.1638 126.792C81.6331 127.005 81.9584 127.272 82.1398 127.592C82.3318 127.901 82.4278 128.28 82.4278 128.728C82.4278 129.507 82.1238 130.115 81.5158 130.552C80.9184 130.979 80.1504 131.192 79.2118 131.192ZM87.0559 131C86.2879 131 85.7172 130.824 85.3439 130.472C84.9812 130.12 84.7999 129.571 84.7999 128.824V120.536H86.1439V128.792C86.1439 129.176 86.2292 129.443 86.3999 129.592C86.5705 129.741 86.8319 129.816 87.1839 129.816H88.3999V131H87.0559ZM83.5519 123.704V122.52H88.3999V123.704H83.5519ZM97.2255 131.192C96.4895 131.192 95.8495 131.011 95.3055 130.648C94.7722 130.285 94.3615 129.773 94.0735 129.112C93.7855 128.451 93.6415 127.667 93.6415 126.76C93.6415 125.853 93.7855 125.069 94.0735 124.408C94.3615 123.747 94.7722 123.235 95.3055 122.872C95.8495 122.509 96.4895 122.328 97.2255 122.328C97.7908 122.328 98.3082 122.451 98.7775 122.696C99.2468 122.931 99.5988 123.267 99.8335 123.704V119.64H101.178V131H99.9615L99.9135 129.72C99.6788 130.179 99.3215 130.541 98.8415 130.808C98.3615 131.064 97.8228 131.192 97.2255 131.192ZM97.4975 129.912C97.9988 129.912 98.4202 129.784 98.7615 129.528C99.1135 129.272 99.3802 128.909 99.5615 128.44C99.7428 127.96 99.8335 127.4 99.8335 126.76C99.8335 126.099 99.7428 125.533 99.5615 125.064C99.3802 124.595 99.1135 124.237 98.7615 123.992C98.4202 123.736 97.9988 123.608 97.4975 123.608C96.7508 123.608 96.1535 123.891 95.7055 124.456C95.2682 125.011 95.0495 125.779 95.0495 126.76C95.0495 127.731 95.2682 128.499 95.7055 129.064C96.1535 129.629 96.7508 129.912 97.4975 129.912ZM106.889 131.192C106.089 131.192 105.396 131.011 104.809 130.648C104.233 130.285 103.785 129.773 103.465 129.112C103.156 128.44 103.001 127.656 103.001 126.76C103.001 125.864 103.156 125.085 103.465 124.424C103.785 123.763 104.228 123.251 104.793 122.888C105.369 122.515 106.046 122.328 106.825 122.328C107.561 122.328 108.212 122.504 108.777 122.856C109.342 123.197 109.78 123.699 110.089 124.36C110.409 125.021 110.569 125.827 110.569 126.776V127.176H104.409C104.462 128.083 104.702 128.765 105.129 129.224C105.566 129.683 106.153 129.912 106.889 129.912C107.444 129.912 107.897 129.784 108.249 129.528C108.612 129.261 108.862 128.915 109.001 128.488L110.441 128.6C110.217 129.357 109.79 129.981 109.161 130.472C108.542 130.952 107.785 131.192 106.889 131.192ZM104.409 125.992H109.097C109.033 125.171 108.793 124.568 108.377 124.184C107.972 123.8 107.454 123.608 106.825 123.608C106.174 123.608 105.636 123.811 105.209 124.216C104.793 124.611 104.526 125.203 104.409 125.992ZM115.477 131.192C114.699 131.192 114.043 131.069 113.509 130.824C112.987 130.579 112.581 130.243 112.293 129.816C112.016 129.379 111.856 128.883 111.813 128.328L113.221 128.232C113.307 128.744 113.515 129.155 113.845 129.464C114.187 129.763 114.731 129.912 115.477 129.912C116.053 129.912 116.496 129.821 116.805 129.64C117.125 129.448 117.285 129.144 117.285 128.728C117.285 128.504 117.232 128.317 117.125 128.168C117.029 128.019 116.832 127.891 116.533 127.784C116.235 127.667 115.797 127.555 115.221 127.448C114.432 127.299 113.813 127.112 113.365 126.888C112.917 126.664 112.603 126.392 112.421 126.072C112.24 125.752 112.149 125.368 112.149 124.92C112.149 124.163 112.427 123.544 112.981 123.064C113.547 122.573 114.341 122.328 115.365 122.328C116.112 122.328 116.72 122.461 117.189 122.728C117.669 122.984 118.032 123.32 118.277 123.736C118.523 124.152 118.672 124.589 118.725 125.048L117.317 125.144C117.296 124.877 117.216 124.627 117.077 124.392C116.939 124.157 116.731 123.971 116.453 123.832C116.176 123.683 115.803 123.608 115.333 123.608C114.725 123.608 114.277 123.725 113.989 123.96C113.701 124.195 113.557 124.493 113.557 124.856C113.557 125.133 113.611 125.363 113.717 125.544C113.835 125.715 114.032 125.859 114.309 125.976C114.597 126.083 114.987 126.179 115.477 126.264C116.309 126.403 116.96 126.579 117.429 126.792C117.899 127.005 118.224 127.272 118.405 127.592C118.597 127.901 118.693 128.28 118.693 128.728C118.693 129.507 118.389 130.115 117.781 130.552C117.184 130.979 116.416 131.192 115.477 131.192ZM127.15 131V120.984H123.614V119.64H132.062V120.984H128.526V131H127.15ZM134.693 131.192C133.818 131.192 133.12 130.989 132.597 130.584C132.085 130.179 131.829 129.613 131.829 128.888C131.829 128.163 132.042 127.592 132.469 127.176C132.896 126.76 133.573 126.467 134.501 126.296L137.509 125.736C137.509 125.021 137.338 124.488 136.997 124.136C136.666 123.784 136.165 123.608 135.493 123.608C134.906 123.608 134.442 123.741 134.101 124.008C133.76 124.264 133.525 124.637 133.397 125.128L131.973 125.016C132.133 124.216 132.517 123.571 133.125 123.08C133.744 122.579 134.533 122.328 135.493 122.328C136.581 122.328 137.413 122.637 137.989 123.256C138.565 123.864 138.853 124.707 138.853 125.784V129.288C138.853 129.48 138.885 129.619 138.949 129.704C139.024 129.779 139.141 129.816 139.301 129.816H139.637V131C139.594 131.011 139.525 131.016 139.429 131.016C139.333 131.027 139.232 131.032 139.125 131.032C138.741 131.032 138.426 130.973 138.181 130.856C137.946 130.728 137.776 130.536 137.669 130.28C137.562 130.013 137.509 129.667 137.509 129.24L137.669 129.272C137.594 129.635 137.413 129.965 137.125 130.264C136.837 130.552 136.48 130.781 136.053 130.952C135.626 131.112 135.173 131.192 134.693 131.192ZM134.821 130.008C135.386 130.008 135.866 129.901 136.261 129.688C136.666 129.464 136.976 129.165 137.189 128.792C137.402 128.408 137.509 127.981 137.509 127.512V126.904L134.757 127.416C134.181 127.523 133.781 127.688 133.557 127.912C133.344 128.125 133.237 128.408 133.237 128.76C133.237 129.155 133.376 129.464 133.653 129.688C133.941 129.901 134.33 130.008 134.821 130.008ZM144.34 133.592C143.732 133.592 143.182 133.491 142.692 133.288C142.201 133.085 141.79 132.797 141.46 132.424C141.129 132.051 140.905 131.619 140.788 131.128L142.196 131.032C142.324 131.427 142.548 131.736 142.868 131.96C143.198 132.195 143.689 132.312 144.34 132.312C145.108 132.312 145.694 132.157 146.1 131.848C146.516 131.539 146.724 131.075 146.724 130.456V129.08C146.521 129.528 146.196 129.885 145.748 130.152C145.3 130.419 144.798 130.552 144.244 130.552C143.529 130.552 142.889 130.376 142.324 130.024C141.769 129.672 141.332 129.187 141.012 128.568C140.702 127.949 140.548 127.24 140.548 126.44C140.548 125.629 140.702 124.92 141.012 124.312C141.321 123.693 141.748 123.208 142.292 122.856C142.846 122.504 143.476 122.328 144.18 122.328C144.777 122.328 145.31 122.467 145.78 122.744C146.26 123.021 146.596 123.395 146.788 123.864V122.52H148.068V130.424C148.068 131.085 147.918 131.651 147.62 132.12C147.321 132.6 146.894 132.963 146.34 133.208C145.785 133.464 145.118 133.592 144.34 133.592ZM144.308 129.272C145.033 129.272 145.614 129.021 146.052 128.52C146.489 128.008 146.713 127.315 146.724 126.44C146.734 125.853 146.638 125.352 146.436 124.936C146.244 124.509 145.961 124.184 145.588 123.96C145.225 123.725 144.798 123.608 144.308 123.608C143.561 123.608 142.98 123.864 142.564 124.376C142.158 124.877 141.956 125.565 141.956 126.44C141.956 127.315 142.164 128.008 142.58 128.52C143.006 129.021 143.582 129.272 144.308 129.272ZM153.78 131.192C152.98 131.192 152.286 131.011 151.7 130.648C151.124 130.285 150.676 129.773 150.356 129.112C150.046 128.44 149.892 127.656 149.892 126.76C149.892 125.864 150.046 125.085 150.356 124.424C150.676 123.763 151.118 123.251 151.684 122.888C152.26 122.515 152.937 122.328 153.716 122.328C154.452 122.328 155.102 122.504 155.668 122.856C156.233 123.197 156.67 123.699 156.98 124.36C157.3 125.021 157.46 125.827 157.46 126.776V127.176H151.299C151.353 128.083 151.593 128.765 152.02 129.224C152.457 129.683 153.044 129.912 153.78 129.912C154.334 129.912 154.788 129.784 155.14 129.528C155.502 129.261 155.753 128.915 155.892 128.488L157.332 128.6C157.108 129.357 156.681 129.981 156.052 130.472C155.433 130.952 154.676 131.192 153.78 131.192ZM151.299 125.992H155.988C155.924 125.171 155.684 124.568 155.268 124.184C154.862 123.8 154.345 123.608 153.716 123.608C153.065 123.608 152.526 123.811 152.1 124.216C151.684 124.611 151.417 125.203 151.299 125.992ZM162.368 131.192C161.589 131.192 160.933 131.069 160.4 130.824C159.877 130.579 159.472 130.243 159.184 129.816C158.907 129.379 158.747 128.883 158.704 128.328L160.112 128.232C160.197 128.744 160.405 129.155 160.736 129.464C161.077 129.763 161.621 129.912 162.368 129.912C162.944 129.912 163.387 129.821 163.696 129.64C164.016 129.448 164.176 129.144 164.176 128.728C164.176 128.504 164.123 128.317 164.016 128.168C163.92 128.019 163.723 127.891 163.424 127.784C163.125 127.667 162.688 127.555 162.112 127.448C161.323 127.299 160.704 127.112 160.256 126.888C159.808 126.664 159.493 126.392 159.312 126.072C159.131 125.752 159.04 125.368 159.04 124.92C159.04 124.163 159.317 123.544 159.872 123.064C160.437 122.573 161.232 122.328 162.256 122.328C163.003 122.328 163.611 122.461 164.08 122.728C164.56 122.984 164.923 123.32 165.168 123.736C165.413 124.152 165.563 124.589 165.616 125.048L164.208 125.144C164.187 124.877 164.107 124.627 163.968 124.392C163.829 124.157 163.621 123.971 163.344 123.832C163.067 123.683 162.693 123.608 162.224 123.608C161.616 123.608 161.168 123.725 160.88 123.96C160.592 124.195 160.448 124.493 160.448 124.856C160.448 125.133 160.501 125.363 160.608 125.544C160.725 125.715 160.923 125.859 161.2 125.976C161.488 126.083 161.877 126.179 162.368 126.264C163.2 126.403 163.851 126.579 164.32 126.792C164.789 127.005 165.115 127.272 165.296 127.592C165.488 127.901 165.584 128.28 165.584 128.728C165.584 129.507 165.28 130.115 164.672 130.552C164.075 130.979 163.307 131.192 162.368 131.192ZM175.481 131.192C174.894 131.192 174.371 131.064 173.913 130.808C173.454 130.541 173.102 130.179 172.857 129.72L172.809 131H171.593V119.64H172.937V123.704C173.15 123.352 173.481 123.037 173.929 122.76C174.377 122.472 174.894 122.328 175.481 122.328C176.227 122.328 176.873 122.509 177.417 122.872C177.961 123.235 178.382 123.747 178.681 124.408C178.979 125.069 179.128 125.853 179.128 126.76C179.128 127.667 178.979 128.451 178.681 129.112C178.382 129.773 177.961 130.285 177.417 130.648C176.873 131.011 176.227 131.192 175.481 131.192ZM175.401 129.912C176.115 129.912 176.681 129.629 177.097 129.064C177.513 128.499 177.721 127.731 177.721 126.76C177.721 125.779 177.513 125.011 177.097 124.456C176.681 123.891 176.126 123.608 175.433 123.608C174.91 123.608 174.462 123.736 174.089 123.992C173.715 124.237 173.427 124.595 173.225 125.064C173.033 125.533 172.937 126.099 172.937 126.76C172.937 127.4 173.033 127.96 173.225 128.44C173.427 128.909 173.71 129.272 174.073 129.528C174.446 129.784 174.889 129.912 175.401 129.912ZM184.264 131.192C183.464 131.192 182.771 131.011 182.184 130.648C181.608 130.285 181.16 129.773 180.84 129.112C180.531 128.44 180.376 127.656 180.376 126.76C180.376 125.864 180.531 125.085 180.84 124.424C181.16 123.763 181.603 123.251 182.168 122.888C182.744 122.515 183.421 122.328 184.2 122.328C184.936 122.328 185.587 122.504 186.152 122.856C186.717 123.197 187.155 123.699 187.464 124.36C187.784 125.021 187.944 125.827 187.944 126.776V127.176H181.784C181.837 128.083 182.077 128.765 182.504 129.224C182.941 129.683 183.528 129.912 184.264 129.912C184.819 129.912 185.272 129.784 185.624 129.528C185.987 129.261 186.237 128.915 186.376 128.488L187.816 128.6C187.592 129.357 187.165 129.981 186.536 130.472C185.917 130.952 185.16 131.192 184.264 131.192ZM181.784 125.992H186.472C186.408 125.171 186.168 124.568 185.752 124.184C185.347 123.8 184.829 123.608 184.2 123.608C183.549 123.608 183.011 123.811 182.584 124.216C182.168 124.611 181.901 125.203 181.784 125.992ZM191.21 131L188.586 122.52H190.058L192.042 129.592L194.058 122.52H195.498L197.514 129.592L199.514 122.52H200.986L198.362 131H196.666L194.778 124.552L192.89 131H191.21ZM205.095 131.192C204.253 131.192 203.575 130.909 203.063 130.344C202.562 129.768 202.311 128.979 202.311 127.976V122.52H203.655V127.608C203.655 128.429 203.799 129.037 204.087 129.432C204.386 129.816 204.839 130.008 205.447 130.008C206.119 130.008 206.647 129.795 207.031 129.368C207.415 128.931 207.607 128.333 207.607 127.576V122.52H208.951V131H207.671V128.904L207.879 129.016C207.709 129.709 207.383 130.248 206.903 130.632C206.423 131.005 205.821 131.192 205.095 131.192ZM214.446 131.192C213.667 131.192 213.011 131.069 212.478 130.824C211.955 130.579 211.55 130.243 211.262 129.816C210.985 129.379 210.825 128.883 210.782 128.328L212.19 128.232C212.275 128.744 212.483 129.155 212.814 129.464C213.155 129.763 213.699 129.912 214.446 129.912C215.022 129.912 215.465 129.821 215.774 129.64C216.094 129.448 216.254 129.144 216.254 128.728C216.254 128.504 216.201 128.317 216.094 128.168C215.998 128.019 215.801 127.891 215.502 127.784C215.203 127.667 214.766 127.555 214.19 127.448C213.401 127.299 212.782 127.112 212.334 126.888C211.886 126.664 211.571 126.392 211.39 126.072C211.209 125.752 211.118 125.368 211.118 124.92C211.118 124.163 211.395 123.544 211.95 123.064C212.515 122.573 213.31 122.328 214.334 122.328C215.081 122.328 215.689 122.461 216.158 122.728C216.638 122.984 217.001 123.32 217.246 123.736C217.491 124.152 217.641 124.589 217.694 125.048L216.286 125.144C216.265 124.877 216.185 124.627 216.046 124.392C215.907 124.157 215.699 123.971 215.422 123.832C215.145 123.683 214.771 123.608 214.302 123.608C213.694 123.608 213.246 123.725 212.958 123.96C212.67 124.195 212.526 124.493 212.526 124.856C212.526 125.133 212.579 125.363 212.686 125.544C212.803 125.715 213.001 125.859 213.278 125.976C213.566 126.083 213.955 126.179 214.446 126.264C215.278 126.403 215.929 126.579 216.398 126.792C216.867 127.005 217.193 127.272 217.374 127.592C217.566 127.901 217.662 128.28 217.662 128.728C217.662 129.507 217.358 130.115 216.75 130.552C216.153 130.979 215.385 131.192 214.446 131.192ZM222.602 131.192C221.824 131.192 221.168 131.069 220.634 130.824C220.112 130.579 219.706 130.243 219.418 129.816C219.141 129.379 218.981 128.883 218.938 128.328L220.346 128.232C220.432 128.744 220.64 129.155 220.97 129.464C221.312 129.763 221.856 129.912 222.602 129.912C223.178 129.912 223.621 129.821 223.93 129.64C224.25 129.448 224.41 129.144 224.41 128.728C224.41 128.504 224.357 128.317 224.25 128.168C224.154 128.019 223.957 127.891 223.658 127.784C223.36 127.667 222.922 127.555 222.346 127.448C221.557 127.299 220.938 127.112 220.49 126.888C220.042 126.664 219.728 126.392 219.546 126.072C219.365 125.752 219.274 125.368 219.274 124.92C219.274 124.163 219.552 123.544 220.106 123.064C220.672 122.573 221.466 122.328 222.49 122.328C223.237 122.328 223.845 122.461 224.314 122.728C224.794 122.984 225.157 123.32 225.402 123.736C225.648 124.152 225.797 124.589 225.85 125.048L224.442 125.144C224.421 124.877 224.341 124.627 224.202 124.392C224.064 124.157 223.856 123.971 223.578 123.832C223.301 123.683 222.928 123.608 222.458 123.608C221.85 123.608 221.402 123.725 221.114 123.96C220.826 124.195 220.682 124.493 220.682 124.856C220.682 125.133 220.736 125.363 220.842 125.544C220.96 125.715 221.157 125.859 221.434 125.976C221.722 126.083 222.112 126.179 222.602 126.264C223.434 126.403 224.085 126.579 224.554 126.792C225.024 127.005 225.349 127.272 225.53 127.592C225.722 127.901 225.818 128.28 225.818 128.728C225.818 129.507 225.514 130.115 224.906 130.552C224.309 130.979 223.541 131.192 222.602 131.192ZM230.447 131C229.679 131 229.108 130.824 228.735 130.472C228.372 130.12 228.191 129.571 228.191 128.824V120.536H229.535V128.792C229.535 129.176 229.62 129.443 229.791 129.592C229.961 129.741 230.223 129.816 230.575 129.816H231.791V131H230.447ZM226.943 123.704V122.52H231.791V123.704H226.943ZM233.438 131V129.192H235.246V131H233.438Z" fill="#646568"/>
<path d="M38 188.5H119C126.456 188.5 132.5 194.544 132.5 202C132.5 209.456 126.456 215.5 119 215.5H38C30.5442 215.5 24.5 209.456 24.5 202C24.5 194.544 30.5442 188.5 38 188.5Z" stroke="#EDEDED"/>
<path d="M44 195.833V196.52M38.5186 202.167H37.8334M49.4815 202.167H50.1667M47.8756 198.128L48.3601 197.643M37.8334 204.833H50.1667M40.5 207.5H47.5M40.1245 198.128L39.64 197.643M41.1667 202.167V202.005C41.1667 200.437 42.4352 199.167 44 199.167C45.5648 199.167 46.8334 200.437 46.8334 202.005V202.167" stroke="#4E4F52" stroke-width="1.5" stroke-linecap="round" stroke-linejoin="round"/>
<path d="M59.912 206.192C59.248 206.192 58.684 206.088 58.22 205.88C57.756 205.672 57.396 205.384 57.14 205.016C56.884 204.64 56.732 204.204 56.684 203.708L58.28 203.624C58.344 204.024 58.52 204.324 58.808 204.524C59.096 204.724 59.464 204.824 59.912 204.824C60.432 204.824 60.836 204.684 61.124 204.404C61.42 204.116 61.568 203.712 61.568 203.192C61.568 202.864 61.5 202.576 61.364 202.328C61.236 202.08 61.048 201.888 60.8 201.752C60.552 201.616 60.252 201.548 59.9 201.548C59.54 201.548 59.224 201.628 58.952 201.788C58.688 201.94 58.496 202.144 58.376 202.4H56.792L57.38 197.48H62.6V198.836H58.736L58.4 201.548L58.196 201.368C58.324 201.144 58.492 200.956 58.7 200.804C58.908 200.644 59.148 200.524 59.42 200.444C59.7 200.364 60 200.324 60.32 200.324C60.896 200.324 61.396 200.448 61.82 200.696C62.252 200.944 62.584 201.284 62.816 201.716C63.056 202.148 63.176 202.64 63.176 203.192C63.176 203.792 63.04 204.32 62.768 204.776C62.504 205.224 62.124 205.572 61.628 205.82C61.14 206.068 60.568 206.192 59.912 206.192ZM67.6709 206V197.48H73.4069V198.836H69.2309V201.056H73.2629V202.4H69.2309V204.644H73.5029V206H67.6709ZM76.4698 206C76.0058 206 75.6338 205.88 75.3538 205.64C75.0738 205.4 74.9338 205.016 74.9338 204.488V197.48H76.4698V204.332C76.4698 204.492 76.5098 204.612 76.5898 204.692C76.6778 204.772 76.7978 204.812 76.9498 204.812H77.4178V206H76.4698ZM81.1745 206.144C80.5345 206.144 79.9785 206.008 79.5065 205.736C79.0345 205.456 78.6705 205.064 78.4145 204.56C78.1585 204.056 78.0305 203.468 78.0305 202.796C78.0305 202.124 78.1585 201.54 78.4145 201.044C78.6705 200.54 79.0305 200.148 79.4945 199.868C79.9665 199.588 80.5145 199.448 81.1385 199.448C81.7465 199.448 82.2785 199.584 82.7345 199.856C83.1985 200.128 83.5545 200.52 83.8025 201.032C84.0505 201.544 84.1745 202.16 84.1745 202.88V203.228H79.6265C79.6585 203.788 79.8105 204.212 80.0825 204.5C80.3625 204.78 80.7305 204.92 81.1865 204.92C81.5305 204.92 81.8145 204.844 82.0385 204.692C82.2705 204.532 82.4305 204.312 82.5185 204.032L84.0905 204.128C83.9145 204.752 83.5665 205.244 83.0465 205.604C82.5345 205.964 81.9105 206.144 81.1745 206.144ZM79.6265 202.196H82.5905C82.5585 201.676 82.4105 201.292 82.1465 201.044C81.8825 200.788 81.5465 200.66 81.1385 200.66C80.7305 200.66 80.3905 200.792 80.1185 201.056C79.8545 201.32 79.6905 201.7 79.6265 202.196ZM85.3752 206V199.592H86.7672L86.8152 201.164L86.6712 201.092C86.7432 200.748 86.8672 200.456 87.0432 200.216C87.2272 199.968 87.4472 199.78 87.7032 199.652C87.9672 199.516 88.2552 199.448 88.5672 199.448C89.1112 199.448 89.5512 199.604 89.8872 199.916C90.2232 200.22 90.4352 200.64 90.5232 201.176H90.3192C90.3912 200.8 90.5152 200.488 90.6912 200.24C90.8672 199.984 91.0872 199.788 91.3512 199.652C91.6232 199.516 91.9272 199.448 92.2632 199.448C92.7032 199.448 93.0832 199.544 93.4032 199.736C93.7232 199.92 93.9672 200.192 94.1352 200.552C94.3112 200.912 94.3992 201.356 94.3992 201.884V206H92.8632V202.28C92.8632 201.752 92.7712 201.356 92.5872 201.092C92.4112 200.828 92.1392 200.696 91.7712 200.696C91.5232 200.696 91.3112 200.76 91.1352 200.888C90.9592 201.016 90.8232 201.204 90.7272 201.452C90.6392 201.692 90.5952 201.984 90.5952 202.328V206H89.1672V202.328C89.1672 201.8 89.0872 201.396 88.9272 201.116C88.7672 200.836 88.4912 200.696 88.0992 200.696C87.8512 200.696 87.6392 200.76 87.4632 200.888C87.2952 201.016 87.1592 201.204 87.0552 201.452C86.9592 201.692 86.9112 201.984 86.9112 202.328V206H85.3752ZM98.694 206.144C98.054 206.144 97.498 206.008 97.026 205.736C96.554 205.456 96.19 205.064 95.934 204.56C95.678 204.056 95.55 203.468 95.55 202.796C95.55 202.124 95.678 201.54 95.934 201.044C96.19 200.54 96.55 200.148 97.014 199.868C97.486 199.588 98.034 199.448 98.658 199.448C99.266 199.448 99.798 199.584 100.254 199.856C100.718 200.128 101.074 200.52 101.322 201.032C101.57 201.544 101.694 202.16 101.694 202.88V203.228H97.146C97.178 203.788 97.33 204.212 97.602 204.5C97.882 204.78 98.25 204.92 98.706 204.92C99.05 204.92 99.334 204.844 99.558 204.692C99.79 204.532 99.95 204.312 100.038 204.032L101.61 204.128C101.434 204.752 101.086 205.244 100.566 205.604C100.054 205.964 99.43 206.144 98.694 206.144ZM97.146 202.196H100.11C100.078 201.676 99.93 201.292 99.666 201.044C99.402 200.788 99.066 200.66 98.658 200.66C98.25 200.66 97.91 200.792 97.638 201.056C97.374 201.32 97.21 201.7 97.146 202.196ZM102.895 206V199.592H104.287L104.347 201.392L104.167 201.32C104.231 200.872 104.363 200.512 104.563 200.24C104.763 199.968 105.007 199.768 105.295 199.64C105.583 199.512 105.899 199.448 106.243 199.448C106.715 199.448 107.111 199.552 107.431 199.76C107.759 199.968 108.007 200.256 108.175 200.624C108.343 200.984 108.427 201.404 108.427 201.884V206H106.891V202.376C106.891 202.016 106.855 201.712 106.783 201.464C106.711 201.216 106.591 201.028 106.423 200.9C106.263 200.764 106.047 200.696 105.775 200.696C105.367 200.696 105.039 200.84 104.791 201.128C104.551 201.416 104.431 201.832 104.431 202.376V206H102.895ZM112.224 206C111.584 206 111.112 205.852 110.808 205.556C110.512 205.26 110.364 204.796 110.364 204.164V198.092H111.9V204.02C111.9 204.316 111.964 204.524 112.092 204.644C112.22 204.756 112.42 204.812 112.692 204.812H113.592V206H112.224ZM109.356 200.78V199.592H113.592V200.78H109.356ZM117.385 206.144C116.745 206.144 116.189 206.008 115.717 205.736C115.245 205.456 114.881 205.064 114.625 204.56C114.369 204.056 114.241 203.468 114.241 202.796C114.241 202.124 114.369 201.54 114.625 201.044C114.881 200.54 115.241 200.148 115.705 199.868C116.177 199.588 116.725 199.448 117.349 199.448C117.957 199.448 118.489 199.584 118.945 199.856C119.409 200.128 119.765 200.52 120.013 201.032C120.261 201.544 120.385 202.16 120.385 202.88V203.228H115.837C115.869 203.788 116.021 204.212 116.293 204.5C116.573 204.78 116.941 204.92 117.397 204.92C117.741 204.92 118.025 204.844 118.249 204.692C118.481 204.532 118.641 204.312 118.729 204.032L120.301 204.128C120.125 204.752 119.777 205.244 119.257 205.604C118.745 205.964 118.121 206.144 117.385 206.144ZM115.837 202.196H118.801C118.769 201.676 118.621 201.292 118.357 201.044C118.093 200.788 117.757 200.66 117.349 200.66C116.941 200.66 116.601 200.792 116.329 201.056C116.065 201.32 115.901 201.7 115.837 202.196Z" fill="#4E4F52"/>
<path d="M155 188.5H236C243.456 188.5 249.5 194.544 249.5 202C249.5 209.456 243.456 215.5 236 215.5H155C147.544 215.5 141.5 209.456 141.5 202C141.5 194.544 147.544 188.5 155 188.5Z" stroke="#EDEDED"/>
<path d="M155.5 202.167V202C155.5 198.962 157.962 196.5 161 196.5C164.038 196.5 166.5 198.962 166.5 202V202.167M154.167 204.833H167.833M157.5 207.5H164.5" stroke="#4E4F52" stroke-width="1.5" stroke-linecap="round" stroke-linejoin="round"/>
<path d="M176.792 206.192C175.776 206.192 174.992 205.96 174.44 205.496C173.888 205.024 173.592 204.392 173.552 203.6L175.148 203.528C175.196 203.984 175.364 204.316 175.652 204.524C175.948 204.732 176.328 204.836 176.792 204.836C177.104 204.836 177.388 204.792 177.644 204.704C177.9 204.608 178.104 204.464 178.256 204.272C178.408 204.08 178.484 203.832 178.484 203.528C178.484 203.064 178.328 202.72 178.016 202.496C177.704 202.272 177.288 202.16 176.768 202.16H176.024V200.924H176.768C177.176 200.924 177.516 200.84 177.788 200.672C178.068 200.496 178.208 200.204 178.208 199.796C178.208 199.428 178.092 199.144 177.86 198.944C177.636 198.744 177.284 198.644 176.804 198.644C176.332 198.644 175.976 198.74 175.736 198.932C175.496 199.124 175.352 199.376 175.304 199.688L173.708 199.604C173.796 198.9 174.104 198.34 174.632 197.924C175.168 197.5 175.892 197.288 176.804 197.288C177.444 197.288 177.988 197.384 178.436 197.576C178.884 197.768 179.224 198.04 179.456 198.392C179.696 198.744 179.816 199.164 179.816 199.652C179.816 200.164 179.648 200.584 179.312 200.912C178.976 201.24 178.496 201.46 177.872 201.572V201.368C178.568 201.464 179.112 201.712 179.504 202.112C179.896 202.504 180.092 203.004 180.092 203.612C180.092 204.156 179.956 204.62 179.684 205.004C179.412 205.388 179.028 205.684 178.532 205.892C178.036 206.092 177.456 206.192 176.792 206.192ZM184.437 206V197.48H190.173V198.836H185.997V201.056H190.029V202.4H185.997V204.644H190.269V206H184.437ZM193.235 206C192.771 206 192.399 205.88 192.119 205.64C191.839 205.4 191.699 205.016 191.699 204.488V197.48H193.235V204.332C193.235 204.492 193.275 204.612 193.355 204.692C193.443 204.772 193.563 204.812 193.715 204.812H194.183V206H193.235ZM197.94 206.144C197.3 206.144 196.744 206.008 196.272 205.736C195.8 205.456 195.436 205.064 195.18 204.56C194.924 204.056 194.796 203.468 194.796 202.796C194.796 202.124 194.924 201.54 195.18 201.044C195.436 200.54 195.796 200.148 196.26 199.868C196.732 199.588 197.28 199.448 197.904 199.448C198.512 199.448 199.044 199.584 199.5 199.856C199.964 200.128 200.32 200.52 200.568 201.032C200.816 201.544 200.94 202.16 200.94 202.88V203.228H196.392C196.424 203.788 196.576 204.212 196.848 204.5C197.128 204.78 197.496 204.92 197.952 204.92C198.296 204.92 198.58 204.844 198.804 204.692C199.036 204.532 199.196 204.312 199.284 204.032L200.856 204.128C200.68 204.752 200.332 205.244 199.812 205.604C199.3 205.964 198.676 206.144 197.94 206.144ZM196.392 202.196H199.356C199.324 201.676 199.176 201.292 198.912 201.044C198.648 200.788 198.312 200.66 197.904 200.66C197.496 200.66 197.156 200.792 196.884 201.056C196.62 201.32 196.456 201.7 196.392 202.196ZM202.141 206V199.592H203.533L203.581 201.164L203.437 201.092C203.509 200.748 203.633 200.456 203.809 200.216C203.993 199.968 204.213 199.78 204.469 199.652C204.733 199.516 205.021 199.448 205.333 199.448C205.877 199.448 206.317 199.604 206.653 199.916C206.989 200.22 207.201 200.64 207.289 201.176H207.085C207.157 200.8 207.281 200.488 207.457 200.24C207.633 199.984 207.853 199.788 208.117 199.652C208.389 199.516 208.693 199.448 209.029 199.448C209.469 199.448 209.849 199.544 210.169 199.736C210.489 199.92 210.733 200.192 210.901 200.552C211.077 200.912 211.165 201.356 211.165 201.884V206H209.629V202.28C209.629 201.752 209.537 201.356 209.353 201.092C209.177 200.828 208.905 200.696 208.537 200.696C208.289 200.696 208.077 200.76 207.901 200.888C207.725 201.016 207.589 201.204 207.493 201.452C207.405 201.692 207.361 201.984 207.361 202.328V206H205.933V202.328C205.933 201.8 205.853 201.396 205.693 201.116C205.533 200.836 205.257 200.696 204.865 200.696C204.617 200.696 204.405 200.76 204.229 200.888C204.061 201.016 203.925 201.204 203.821 201.452C203.725 201.692 203.677 201.984 203.677 202.328V206H202.141ZM215.46 206.144C214.82 206.144 214.264 206.008 213.792 205.736C213.32 205.456 212.956 205.064 212.7 204.56C212.444 204.056 212.316 203.468 212.316 202.796C212.316 202.124 212.444 201.54 212.7 201.044C212.956 200.54 213.316 200.148 213.78 199.868C214.252 199.588 214.8 199.448 215.424 199.448C216.032 199.448 216.564 199.584 217.02 199.856C217.484 200.128 217.84 200.52 218.088 201.032C218.336 201.544 218.46 202.16 218.46 202.88V203.228H213.912C213.944 203.788 214.096 204.212 214.368 204.5C214.648 204.78 215.016 204.92 215.472 204.92C215.816 204.92 216.1 204.844 216.324 204.692C216.556 204.532 216.716 204.312 216.804 204.032L218.376 204.128C218.2 204.752 217.852 205.244 217.332 205.604C216.82 205.964 216.196 206.144 215.46 206.144ZM213.912 202.196H216.876C216.844 201.676 216.696 201.292 216.432 201.044C216.168 200.788 215.832 200.66 215.424 200.66C215.016 200.66 214.676 200.792 214.404 201.056C214.14 201.32 213.976 201.7 213.912 202.196ZM219.66 206V199.592H221.052L221.112 201.392L220.932 201.32C220.996 200.872 221.128 200.512 221.328 200.24C221.528 199.968 221.772 199.768 222.06 199.64C222.348 199.512 222.664 199.448 223.008 199.448C223.48 199.448 223.876 199.552 224.196 199.76C224.524 199.968 224.772 200.256 224.94 200.624C225.108 200.984 225.192 201.404 225.192 201.884V206H223.656V202.376C223.656 202.016 223.62 201.712 223.548 201.464C223.476 201.216 223.356 201.028 223.188 200.9C223.028 200.764 222.812 200.696 222.54 200.696C222.132 200.696 221.804 200.84 221.556 201.128C221.316 201.416 221.196 201.832 221.196 202.376V206H219.66ZM228.99 206C228.35 206 227.878 205.852 227.574 205.556C227.278 205.26 227.13 204.796 227.13 204.164V198.092H228.666V204.02C228.666 204.316 228.73 204.524 228.858 204.644C228.986 204.756 229.186 204.812 229.458 204.812H230.358V206H228.99ZM226.122 200.78V199.592H230.358V200.78H226.122ZM234.151 206.144C233.511 206.144 232.955 206.008 232.483 205.736C232.011 205.456 231.647 205.064 231.391 204.56C231.135 204.056 231.007 203.468 231.007 202.796C231.007 202.124 231.135 201.54 231.391 201.044C231.647 200.54 232.007 200.148 232.471 199.868C232.943 199.588 233.491 199.448 234.115 199.448C234.723 199.448 235.255 199.584 235.711 199.856C236.175 200.128 236.531 200.52 236.779 201.032C237.027 201.544 237.151 202.16 237.151 202.88V203.228H232.603C232.635 203.788 232.787 204.212 233.059 204.5C233.339 204.78 233.707 204.92 234.163 204.92C234.507 204.92 234.791 204.844 235.015 204.692C235.247 204.532 235.407 204.312 235.495 204.032L237.067 204.128C236.891 204.752 236.543 205.244 236.023 205.604C235.511 205.964 234.887 206.144 234.151 206.144ZM232.603 202.196H235.567C235.535 201.676 235.387 201.292 235.123 201.044C234.859 200.788 234.523 200.66 234.115 200.66C233.707 200.66 233.367 200.792 233.095 201.056C232.831 201.32 232.667 201.7 232.603 202.196Z" fill="#4E4F52"/>
<path d="M304.96 206V197.48H307.06L309.412 204.08L311.764 197.48H313.864V206H312.304V200.12L310.156 205.988H308.668L306.52 200.12V206H304.96ZM318.323 206.144C317.683 206.144 317.127 206.008 316.655 205.736C316.183 205.456 315.819 205.064 315.563 204.56C315.307 204.056 315.179 203.468 315.179 202.796C315.179 202.124 315.307 201.54 315.563 201.044C315.819 200.54 316.179 200.148 316.643 199.868C317.115 199.588 317.663 199.448 318.287 199.448C318.895 199.448 319.427 199.584 319.883 199.856C320.347 200.128 320.703 200.52 320.951 201.032C321.199 201.544 321.323 202.16 321.323 202.88V203.228H316.775C316.807 203.788 316.959 204.212 317.231 204.5C317.511 204.78 317.879 204.92 318.335 204.92C318.679 204.92 318.963 204.844 319.187 204.692C319.419 204.532 319.579 204.312 319.667 204.032L321.239 204.128C321.063 204.752 320.715 205.244 320.195 205.604C319.683 205.964 319.059 206.144 318.323 206.144ZM316.775 202.196H319.739C319.707 201.676 319.559 201.292 319.295 201.044C319.031 200.788 318.695 200.66 318.287 200.66C317.879 200.66 317.539 200.792 317.267 201.056C317.003 201.32 316.839 201.7 316.775 202.196ZM322.524 206V197.48H324.06V201.056H323.868C323.932 200.688 324.06 200.388 324.252 200.156C324.444 199.916 324.68 199.74 324.96 199.628C325.24 199.508 325.548 199.448 325.884 199.448C326.356 199.448 326.752 199.552 327.072 199.76C327.4 199.96 327.644 200.244 327.804 200.612C327.972 200.98 328.056 201.404 328.056 201.884V206H326.52V202.256C326.52 201.736 326.432 201.348 326.256 201.092C326.08 200.828 325.804 200.696 325.428 200.696C325.012 200.696 324.68 200.832 324.432 201.104C324.184 201.376 324.06 201.772 324.06 202.292V206H322.524ZM329.543 206V199.592H330.983L331.043 201.368L330.911 201.344C331.007 200.728 331.187 200.284 331.451 200.012C331.723 199.732 332.091 199.592 332.555 199.592H333.143V200.912H332.543C332.215 200.912 331.943 200.96 331.727 201.056C331.511 201.152 331.347 201.304 331.235 201.512C331.131 201.712 331.079 201.976 331.079 202.304V206H329.543Z" fill="#646568"/>
<path d="M340.667 204.667L342.862 202.472C343.122 202.211 343.122 201.789 342.862 201.529L340.667 199.333" stroke="#646568" stroke-width="1.33333" stroke-linecap="round" stroke-linejoin="round"/>
<rect x="8.5" y="8.5" width="357" height="223" rx="15.5" stroke="url(#paint0_linear_19312_20507)" stroke-opacity="0.4"/>
<defs>
<filter id="filter0_dd_19312_20507" x="319" y="23" width="34" height="34" filterUnits="userSpaceOnUse" color-interpolation-filters="sRGB">
<feFlood flood-opacity="0" result="BackgroundImageFix"/>
<feColorMatrix in="SourceAlpha" type="matrix" values="0 0 0 0 0 0 0 0 0 0 0 0 0 0 0 0 0 0 127 0" result="hardAlpha"/>
<feOffset dy="1"/>
<feGaussianBlur stdDeviation="0.5"/>
<feColorMatrix type="matrix" values="0 0 0 0 0.0352941 0 0 0 0 0.0980392 0 0 0 0 0.192157 0 0 0 0.04 0"/>
<feBlend mode="normal" in2="BackgroundImageFix" result="effect1_dropShadow_19312_20507"/>
<feColorMatrix in="SourceAlpha" type="matrix" values="0 0 0 0 0 0 0 0 0 0 0 0 0 0 0 0 0 0 127 0" result="hardAlpha"/>
<feMorphology radius="3" operator="erode" in="SourceAlpha" result="effect2_dropShadow_19312_20507"/>
<feOffset dy="2"/>
<feGaussianBlur stdDeviation="3"/>
<feColorMatrix type="matrix" values="0 0 0 0 0.0352941 0 0 0 0 0.0980392 0 0 0 0 0.192157 0 0 0 0.035 0"/>
<feBlend mode="normal" in2="effect1_dropShadow_19312_20507" result="effect2_dropShadow_19312_20507"/>
<feBlend mode="normal" in="SourceGraphic" in2="effect2_dropShadow_19312_20507" result="shape"/>
</filter>
<linearGradient id="paint0_linear_19312_20507" x1="187" y1="8" x2="187" y2="232" gradientUnits="userSpaceOnUse">
<stop stop-color="white" stop-opacity="0.4"/>
<stop offset="1" stop-opacity="0.1"/>
</linearGradient>
</defs>
</svg>
