<svg width="462" height="222" viewBox="0 0 462 222" fill="none" xmlns="http://www.w3.org/2000/svg">
<g filter="url(#filter0_dd_19312_20184)">
<path d="M3 21C3 9.95431 11.9543 1 23 1H439C450.046 1 459 9.95431 459 21V197C459 208.046 450.046 217 439 217H23C11.9543 217 3 208.046 3 197V21Z" fill="white"/>
<path d="M23 1.5H439C449.77 1.5 458.5 10.2305 458.5 21V197C458.5 207.77 449.77 216.5 439 216.5H23C12.2305 216.5 3.5 207.77 3.5 197V21C3.5 10.2304 12.2304 1.5 23 1.5Z" stroke="url(#paint0_linear_19312_20184)" stroke-opacity="0.4"/>
<path d="M31.574 33.8333H30.8511C30.0921 33.8333 29.6098 33.0209 29.9732 32.3545L30.5981 31.209C30.9485 30.5664 31.622 30.1667 32.3539 30.1667H34.486M31.574 33.8333L34.1666 36.4259M31.574 33.8333L34.486 30.1667M34.1666 36.4259V37.1488C34.1666 37.9078 34.9791 38.3902 35.6454 38.0267L36.791 37.4019C37.4335 37.0514 37.8333 36.378 37.8333 35.6461V33.5139M34.1666 36.4259L37.8333 33.5139M37.8333 33.5139C39.6316 31.8654 40.8346 30.0858 41.1075 27.831C41.1739 27.2827 40.7172 26.826 40.1689 26.8924C37.9141 27.1653 36.1345 28.3683 34.486 30.1667M30.2036 39.1667H29.8333C29.281 39.1667 28.8333 38.719 28.8333 38.1667V37.7963C28.8333 37.0395 29.4468 36.4259 30.2036 36.4259C30.9605 36.4259 31.574 37.0395 31.574 37.7963C31.574 38.5531 30.9605 39.1667 30.2036 39.1667Z" stroke="#646568" stroke-width="1.5" stroke-linejoin="round"/>
<path d="M110.443 38.656C109.59 38.656 108.96 38.4587 108.555 38.064C108.16 37.6693 107.963 37.0507 107.963 36.208V28.112H110.011V36.016C110.011 36.4107 110.096 36.688 110.267 36.848C110.438 36.9973 110.704 37.072 111.067 37.072H112.267V38.656H110.443ZM106.619 31.696V30.112H112.267V31.696H106.619Z" fill="#252629"/>
<path d="M100.952 38.848C100.056 38.848 99.3363 38.6453 98.7923 38.24C98.2483 37.824 97.9763 37.248 97.9763 36.512C97.9763 35.776 98.2057 35.2 98.6643 34.784C99.123 34.368 99.8217 34.0693 100.76 33.888L103.592 33.328C103.592 32.72 103.454 32.2667 103.176 31.968C102.899 31.6587 102.488 31.504 101.944 31.504C101.454 31.504 101.064 31.6213 100.776 31.856C100.499 32.08 100.307 32.4053 100.2 32.832L98.1203 32.736C98.291 31.8293 98.707 31.136 99.3683 30.656C100.03 30.1653 100.888 29.92 101.944 29.92C103.16 29.92 104.078 30.2293 104.696 30.848C105.326 31.456 105.64 32.3307 105.64 33.472V36.576C105.64 36.8 105.678 36.9547 105.752 37.04C105.838 37.1253 105.96 37.168 106.12 37.168H106.392V38.656C106.328 38.6773 106.222 38.6933 106.072 38.704C105.934 38.7147 105.79 38.72 105.64 38.72C105.288 38.72 104.974 38.6667 104.696 38.56C104.419 38.4427 104.206 38.2453 104.056 37.968C103.907 37.68 103.832 37.2907 103.832 36.8L104.008 36.928C103.923 37.3013 103.736 37.6373 103.448 37.936C103.171 38.224 102.819 38.448 102.392 38.608C101.966 38.768 101.486 38.848 100.952 38.848ZM101.368 37.36C101.827 37.36 102.222 37.2693 102.552 37.088C102.883 36.9067 103.139 36.656 103.32 36.336C103.502 36.016 103.592 35.6373 103.592 35.2V34.72L101.384 35.168C100.926 35.264 100.595 35.408 100.392 35.6C100.2 35.7813 100.104 36.0213 100.104 36.32C100.104 36.6507 100.211 36.9067 100.424 37.088C100.648 37.2693 100.963 37.36 101.368 37.36ZM99.3843 28.976V27.152H101.384V28.976H99.3843ZM102.6 28.976V27.152H104.6V28.976H102.6Z" fill="#252629"/>
<path d="M95.1931 38.656C94.3398 38.656 93.7105 38.4587 93.3051 38.064C92.9105 37.6693 92.7131 37.0507 92.7131 36.208V28.112H94.7611V36.016C94.7611 36.4107 94.8465 36.688 95.0171 36.848C95.1878 36.9973 95.4545 37.072 95.8171 37.072H97.0171V38.656H95.1931ZM91.3691 31.696V30.112H97.0171V31.696H91.3691Z" fill="#252629"/>
<path d="M88.0034 38.656V30.112H90.0514V38.656H88.0034ZM87.9714 28.976V27.152H90.0994V28.976H87.9714Z" fill="#252629"/>
<path d="M81.152 38.656L78.032 30.112H80.192L82.368 36.592L84.544 30.112H86.704L83.584 38.656H81.152Z" fill="#252629"/>
<path d="M74.6753 38.656V30.112H76.7233V38.656H74.6753ZM74.6433 28.976V27.152H76.7713V28.976H74.6433Z" fill="#252629"/>
<path d="M71.4744 38.656C70.6211 38.656 69.9917 38.4587 69.5864 38.064C69.1917 37.6693 68.9944 37.0507 68.9944 36.208V28.112H71.0424V36.016C71.0424 36.4107 71.1277 36.688 71.2984 36.848C71.4691 36.9973 71.7357 37.072 72.0984 37.072H73.2984V38.656H71.4744ZM67.6504 31.696V30.112H73.2984V31.696H67.6504Z" fill="#252629"/>
<path d="M58.7849 38.656V27.296H60.8329V33.968L64.3369 30.112H66.8649L63.5209 33.664L66.9769 38.656H64.6729L62.1769 34.88L60.8329 36.304V38.656H58.7849Z" fill="#252629"/>
<path d="M47 38.656L51.096 27.296H53.64L57.736 38.656H55.56L54.616 35.968H50.12L49.176 38.656H47ZM50.728 34.192H54.008L52.376 29.392L50.728 34.192Z" fill="#252629"/>
<path d="M174.881 58.552C174.081 58.552 173.388 58.3707 172.801 58.008C172.225 57.6453 171.777 57.1333 171.457 56.472C171.148 55.8 170.993 55.016 170.993 54.12C170.993 53.224 171.148 52.4453 171.457 51.784C171.777 51.1227 172.22 50.6107 172.785 50.248C173.361 49.8747 174.039 49.688 174.817 49.688C175.553 49.688 176.204 49.864 176.769 50.216C177.335 50.5573 177.772 51.0587 178.081 51.72C178.401 52.3813 178.561 53.1867 178.561 54.136V54.536H172.401C172.455 55.4427 172.695 56.1253 173.121 56.584C173.559 57.0427 174.145 57.272 174.881 57.272C175.436 57.272 175.889 57.144 176.241 56.888C176.604 56.6213 176.855 56.2747 176.993 55.848L178.433 55.96C178.209 56.7173 177.783 57.3413 177.153 57.832C176.535 58.312 175.777 58.552 174.881 58.552ZM172.401 53.352H177.089C177.025 52.5307 176.785 51.928 176.369 51.544C175.964 51.16 175.447 50.968 174.817 50.968C174.167 50.968 173.628 51.1707 173.201 51.576C172.785 51.9707 172.519 52.5627 172.401 53.352Z" fill="#ACADAE"/>
<path d="M162.46 58.36V47H163.804V51.752L163.644 51.72C163.751 51.2507 163.932 50.8667 164.188 50.568C164.444 50.2693 164.759 50.0507 165.132 49.912C165.505 49.7627 165.916 49.688 166.364 49.688C166.972 49.688 167.484 49.8267 167.9 50.104C168.327 50.3707 168.647 50.7493 168.86 51.24C169.084 51.72 169.196 52.2747 169.196 52.904V58.36H167.852V53.288C167.852 52.4667 167.703 51.8587 167.404 51.464C167.116 51.0693 166.673 50.872 166.076 50.872C165.393 50.872 164.844 51.08 164.428 51.496C164.012 51.912 163.804 52.5147 163.804 53.304V58.36H162.46Z" fill="#ACADAE"/>
<path d="M157.194 58.552C156.405 58.552 155.717 58.3707 155.13 58.008C154.554 57.6453 154.106 57.1333 153.786 56.472C153.466 55.8 153.306 55.016 153.306 54.12C153.306 53.224 153.466 52.4453 153.786 51.784C154.106 51.1227 154.554 50.6107 155.13 50.248C155.717 49.8747 156.405 49.688 157.194 49.688C157.845 49.688 158.421 49.8053 158.922 50.04C159.434 50.264 159.85 50.5947 160.17 51.032C160.49 51.4693 160.698 52.0027 160.794 52.632L159.386 52.728C159.29 52.1627 159.045 51.7307 158.65 51.432C158.255 51.1227 157.77 50.968 157.194 50.968C156.415 50.968 155.807 51.2507 155.37 51.816C154.933 52.3707 154.714 53.1387 154.714 54.12C154.714 55.1013 154.933 55.8747 155.37 56.44C155.807 56.9947 156.415 57.272 157.194 57.272C157.77 57.272 158.255 57.112 158.65 56.792C159.045 56.472 159.29 55.992 159.386 55.352L160.794 55.448C160.698 56.0773 160.49 56.6267 160.17 57.096C159.85 57.5547 159.434 57.912 158.922 58.168C158.421 58.424 157.845 58.552 157.194 58.552Z" fill="#ACADAE"/>
<path d="M148.178 58.552C147.4 58.552 146.717 58.3707 146.13 58.008C145.544 57.6453 145.09 57.1333 144.77 56.472C144.45 55.8 144.29 55.016 144.29 54.12C144.29 53.2133 144.45 52.4293 144.77 51.768C145.09 51.1067 145.544 50.5947 146.13 50.232C146.717 49.8693 147.4 49.688 148.178 49.688C148.957 49.688 149.634 49.8693 150.21 50.232C150.797 50.5947 151.25 51.1067 151.57 51.768C151.89 52.4293 152.05 53.2133 152.05 54.12C152.05 55.016 151.89 55.8 151.57 56.472C151.25 57.1333 150.797 57.6453 150.21 58.008C149.634 58.3707 148.957 58.552 148.178 58.552ZM148.178 57.272C148.957 57.272 149.56 56.9947 149.986 56.44C150.424 55.8747 150.642 55.1013 150.642 54.12C150.642 53.1387 150.424 52.3707 149.986 51.816C149.56 51.2507 148.957 50.968 148.178 50.968C147.4 50.968 146.792 51.2507 146.354 51.816C145.917 52.3707 145.698 53.1387 145.698 54.12C145.698 55.1013 145.917 55.8747 146.354 56.44C146.792 56.9947 147.4 57.272 148.178 57.272Z" fill="#ACADAE"/>
<path d="M132.702 58.36L129.71 47H131.214L133.55 56.472L135.87 47H137.438L139.774 56.472L142.094 47H143.614L140.622 58.36H138.894L136.654 49.56L134.414 58.36H132.702Z" fill="#ACADAE"/>
<path d="M120.522 58.552C119.743 58.552 119.061 58.3707 118.474 58.008C117.887 57.6453 117.434 57.1333 117.114 56.472C116.794 55.8 116.634 55.016 116.634 54.12C116.634 53.2133 116.794 52.4293 117.114 51.768C117.434 51.1067 117.887 50.5947 118.474 50.232C119.061 49.8693 119.743 49.688 120.522 49.688C121.301 49.688 121.978 49.8693 122.554 50.232C123.141 50.5947 123.594 51.1067 123.914 51.768C124.234 52.4293 124.394 53.2133 124.394 54.12C124.394 55.016 124.234 55.8 123.914 56.472C123.594 57.1333 123.141 57.6453 122.554 58.008C121.978 58.3707 121.301 58.552 120.522 58.552ZM120.522 57.272C121.301 57.272 121.903 56.9947 122.33 56.44C122.767 55.8747 122.986 55.1013 122.986 54.12C122.986 53.1387 122.767 52.3707 122.33 51.816C121.903 51.2507 121.301 50.968 120.522 50.968C119.743 50.968 119.135 51.2507 118.698 51.816C118.261 52.3707 118.042 53.1387 118.042 54.12C118.042 55.1013 118.261 55.8747 118.698 56.44C119.135 56.9947 119.743 57.272 120.522 57.272Z" fill="#ACADAE"/>
<path d="M111.788 58.36V49.88H112.972L113.036 52.024L112.908 51.976C113.015 51.2506 113.244 50.7226 113.596 50.392C113.959 50.0506 114.439 49.88 115.036 49.88H115.868V51.16H115.052C114.625 51.16 114.268 51.24 113.98 51.4C113.703 51.5493 113.489 51.7786 113.34 52.088C113.201 52.3866 113.132 52.7706 113.132 53.24V58.36H111.788Z" fill="#ACADAE"/>
<path d="M102.429 60.76V49.88H103.677L103.709 51.704L103.517 51.608C103.73 50.9787 104.082 50.504 104.573 50.184C105.074 49.8533 105.65 49.688 106.301 49.688C107.143 49.688 107.831 49.896 108.365 50.312C108.909 50.728 109.309 51.272 109.565 51.944C109.831 52.616 109.965 53.3413 109.965 54.12C109.965 54.8987 109.831 55.624 109.565 56.296C109.309 56.968 108.909 57.512 108.365 57.928C107.831 58.344 107.143 58.552 106.301 58.552C105.863 58.552 105.453 58.4773 105.069 58.328C104.695 58.1787 104.375 57.9707 104.109 57.704C103.853 57.4373 103.677 57.1227 103.581 56.76L103.773 56.536V60.76H102.429ZM106.173 57.272C106.909 57.272 107.49 56.9947 107.917 56.44C108.343 55.8853 108.557 55.112 108.557 54.12C108.557 53.128 108.343 52.3547 107.917 51.8C107.49 51.2453 106.909 50.968 106.173 50.968C105.682 50.968 105.255 51.0853 104.893 51.32C104.541 51.5547 104.263 51.9067 104.061 52.376C103.869 52.8453 103.773 53.4267 103.773 54.12C103.773 54.8133 103.869 55.3947 104.061 55.864C104.253 56.3333 104.53 56.6853 104.893 56.92C105.255 57.1547 105.682 57.272 106.173 57.272Z" fill="#ACADAE"/>
<path d="M89.1318 58.36V49.88H90.3638L90.4118 52.04L90.2518 51.896C90.3585 51.3947 90.5452 50.984 90.8118 50.664C91.0785 50.3333 91.3985 50.088 91.7718 49.928C92.1558 49.768 92.5665 49.688 93.0038 49.688C93.6545 49.688 94.1878 49.832 94.6038 50.12C95.0305 50.408 95.3452 50.7973 95.5478 51.288C95.7612 51.768 95.8678 52.3067 95.8678 52.904V58.36H94.5238V53.288C94.5238 52.7653 94.4598 52.328 94.3318 51.976C94.2145 51.6133 94.0225 51.3413 93.7558 51.16C93.4892 50.968 93.1425 50.872 92.7158 50.872C92.0652 50.872 91.5265 51.08 91.0998 51.496C90.6838 51.9013 90.4758 52.4987 90.4758 53.288V58.36H89.1318Z" fill="#ACADAE"/>
<path d="M83.6314 58.552C82.8314 58.552 82.1381 58.3707 81.5514 58.008C80.9754 57.6453 80.5274 57.1333 80.2074 56.472C79.8981 55.8 79.7434 55.016 79.7434 54.12C79.7434 53.224 79.8981 52.4453 80.2074 51.784C80.5274 51.1227 80.9701 50.6107 81.5354 50.248C82.1114 49.8747 82.7887 49.688 83.5674 49.688C84.3034 49.688 84.9541 49.864 85.5194 50.216C86.0847 50.5573 86.5221 51.0587 86.8314 51.72C87.1514 52.3813 87.3114 53.1867 87.3114 54.136V54.536H81.1514C81.2047 55.4427 81.4447 56.1253 81.8714 56.584C82.3087 57.0427 82.8954 57.272 83.6314 57.272C84.1861 57.272 84.6394 57.144 84.9914 56.888C85.3541 56.6213 85.6047 56.2747 85.7434 55.848L87.1834 55.96C86.9594 56.7173 86.5327 57.3413 85.9034 57.832C85.2847 58.312 84.5274 58.552 83.6314 58.552ZM81.1514 53.352H85.8394C85.7754 52.5307 85.5354 51.928 85.1194 51.544C84.7141 51.16 84.1967 50.968 83.5674 50.968C82.9167 50.968 82.3781 51.1707 81.9514 51.576C81.5354 51.9707 81.2687 52.5627 81.1514 53.352Z" fill="#ACADAE"/>
<path d="M74.848 58.552C74.2613 58.552 73.7386 58.424 73.28 58.168C72.8213 57.9013 72.4693 57.5387 72.224 57.08L72.176 58.36H70.96V47H72.304V51.064C72.5173 50.712 72.848 50.3973 73.296 50.12C73.744 49.832 74.2613 49.688 74.848 49.688C75.5946 49.688 76.24 49.8693 76.784 50.232C77.328 50.5947 77.7493 51.1067 78.048 51.768C78.3466 52.4293 78.496 53.2133 78.496 54.12C78.496 55.0267 78.3466 55.8107 78.048 56.472C77.7493 57.1333 77.328 57.6453 76.784 58.008C76.24 58.3707 75.5946 58.552 74.848 58.552ZM74.768 57.272C75.4826 57.272 76.048 56.9893 76.464 56.424C76.88 55.8587 77.088 55.0907 77.088 54.12C77.088 53.1387 76.88 52.3707 76.464 51.816C76.048 51.2507 75.4933 50.968 74.8 50.968C74.2773 50.968 73.8293 51.096 73.456 51.352C73.0826 51.5973 72.7946 51.9547 72.592 52.424C72.4 52.8933 72.304 53.4587 72.304 54.12C72.304 54.76 72.4 55.32 72.592 55.8C72.7946 56.2693 73.0773 56.632 73.44 56.888C73.8133 57.144 74.256 57.272 74.768 57.272Z" fill="#ACADAE"/>
<path d="M64.5605 58.552C63.6859 58.552 62.9872 58.3493 62.4645 57.944C61.9525 57.5387 61.6965 56.9733 61.6965 56.248C61.6965 55.5227 61.9099 54.952 62.3365 54.536C62.7632 54.12 63.4405 53.8267 64.3685 53.656L67.3765 53.096C67.3765 52.3813 67.2059 51.848 66.8645 51.496C66.5339 51.144 66.0325 50.968 65.3605 50.968C64.7739 50.968 64.3099 51.1013 63.9685 51.368C63.6272 51.624 63.3925 51.9973 63.2645 52.488L61.8405 52.376C62.0005 51.576 62.3845 50.9307 62.9925 50.44C63.6112 49.9387 64.4005 49.688 65.3605 49.688C66.4485 49.688 67.2805 49.9973 67.8565 50.616C68.4325 51.224 68.7205 52.0667 68.7205 53.144V56.648C68.7205 56.84 68.7525 56.9787 68.8165 57.064C68.8912 57.1387 69.0085 57.176 69.1685 57.176H69.5045V58.36C69.4619 58.3707 69.3925 58.376 69.2965 58.376C69.2005 58.3867 69.0992 58.392 68.9925 58.392C68.6085 58.392 68.2939 58.3333 68.0485 58.216C67.8139 58.088 67.6432 57.896 67.5365 57.64C67.4299 57.3733 67.3765 57.0267 67.3765 56.6L67.5365 56.632C67.4619 56.9947 67.2805 57.3253 66.9925 57.624C66.7045 57.912 66.3472 58.1413 65.9205 58.312C65.4939 58.472 65.0405 58.552 64.5605 58.552ZM64.6885 57.368C65.2539 57.368 65.7339 57.2613 66.1285 57.048C66.5339 56.824 66.8432 56.5253 67.0565 56.152C67.2699 55.768 67.3765 55.3413 67.3765 54.872V54.264L64.6245 54.776C64.0485 54.8827 63.6485 55.048 63.4245 55.272C63.2112 55.4853 63.1045 55.768 63.1045 56.12C63.1045 56.5147 63.2432 56.824 63.5205 57.048C63.8085 57.2613 64.1979 57.368 64.6885 57.368Z" fill="#ACADAE"/>
<path d="M55.9885 60.952C55.3805 60.952 54.8312 60.8507 54.3405 60.648C53.8499 60.4453 53.4392 60.1573 53.1085 59.784C52.7779 59.4107 52.5539 58.9787 52.4365 58.488L53.8445 58.392C53.9725 58.7867 54.1965 59.096 54.5165 59.32C54.8472 59.5547 55.3379 59.672 55.9885 59.672C56.7565 59.672 57.3432 59.5173 57.7485 59.208C58.1645 58.8987 58.3725 58.4347 58.3725 57.816V56.44C58.1699 56.888 57.8445 57.2453 57.3965 57.512C56.9485 57.7787 56.4472 57.912 55.8925 57.912C55.1779 57.912 54.5379 57.736 53.9725 57.384C53.4179 57.032 52.9805 56.5467 52.6605 55.928C52.3512 55.3093 52.1965 54.6 52.1965 53.8C52.1965 52.9893 52.3512 52.28 52.6605 51.672C52.9699 51.0533 53.3965 50.568 53.9405 50.216C54.4952 49.864 55.1245 49.688 55.8285 49.688C56.4259 49.688 56.9592 49.8267 57.4285 50.104C57.9085 50.3813 58.2445 50.7547 58.4365 51.224V49.88H59.7165V57.784C59.7165 58.4453 59.5672 59.0107 59.2685 59.48C58.9699 59.96 58.5432 60.3227 57.9885 60.568C57.4339 60.824 56.7672 60.952 55.9885 60.952ZM55.9565 56.632C56.6819 56.632 57.2632 56.3813 57.7005 55.88C58.1379 55.368 58.3619 54.6747 58.3725 53.8C58.3832 53.2133 58.2872 52.712 58.0845 52.296C57.8925 51.8693 57.6099 51.544 57.2365 51.32C56.8739 51.0853 56.4472 50.968 55.9565 50.968C55.2099 50.968 54.6285 51.224 54.2125 51.736C53.8072 52.2373 53.6045 52.9253 53.6045 53.8C53.6045 54.6747 53.8125 55.368 54.2285 55.88C54.6552 56.3813 55.2312 56.632 55.9565 56.632Z" fill="#ACADAE"/>
<path d="M47.995 58.36V49.112C47.995 48.4827 48.1764 47.976 48.539 47.592C48.9017 47.1973 49.467 47 50.235 47H51.579V48.184H50.331C50.0004 48.184 49.7497 48.2747 49.579 48.456C49.419 48.6373 49.339 48.888 49.339 49.208V58.36H47.995ZM46.843 51.064V49.88H51.467V51.064H46.843Z" fill="#ACADAE"/>
<path d="M41.119 58.552C40.2763 58.552 39.599 58.2693 39.087 57.704C38.5856 57.128 38.335 56.3386 38.335 55.336V49.88H39.679V54.968C39.679 55.7893 39.823 56.3973 40.111 56.792C40.4096 57.176 40.863 57.368 41.471 57.368C42.143 57.368 42.671 57.1546 43.055 56.728C43.439 56.2906 43.631 55.6933 43.631 54.936V49.88H44.975V58.36H43.695V56.264L43.903 56.376C43.7323 57.0693 43.407 57.608 42.927 57.992C42.447 58.3653 41.8443 58.552 41.119 58.552Z" fill="#ACADAE"/>
<path d="M27 58.36L31.096 47H32.952L37.048 58.36H35.544L34.408 55.128H29.64L28.504 58.36H27ZM30.104 53.784H33.944L32.024 48.2L30.104 53.784Z" fill="#ACADAE"/>
<g filter="url(#filter1_dd_19312_20184)">
<path d="M407 34C407 29.0294 411.029 25 416 25H426C430.971 25 435 29.0294 435 34V44C435 48.9706 430.971 53 426 53H416C411.029 53 407 48.9706 407 44V34Z" fill="white"/>
<path d="M416 25.5H426C430.694 25.5 434.5 29.3056 434.5 34V44C434.5 48.6944 430.694 52.5 426 52.5H416C411.306 52.5 407.5 48.6944 407.5 44V34C407.5 29.3056 411.306 25.5 416 25.5Z" stroke="#EDEDED"/>
<path d="M427 39C427 42.3137 424.314 45 421 45C417.686 45 415 42.3137 415 39C415 35.6863 417.686 33 421 33C424.314 33 427 35.6863 427 39Z" stroke="#252629" stroke-width="1.33333" stroke-linejoin="round"/>
<path d="M424.333 39C424.333 40.8409 422.841 42.3333 421 42.3333C419.159 42.3333 417.667 40.8409 417.667 39C417.667 37.159 419.159 35.6667 421 35.6667C422.841 35.6667 424.333 37.159 424.333 39Z" stroke="black" stroke-width="1.33333" stroke-linejoin="round"/>
<path d="M421.667 39C421.667 39.3682 421.368 39.6667 421 39.6667C420.632 39.6667 420.333 39.3682 420.333 39C420.333 38.6318 420.632 38.3333 421 38.3333C421.368 38.3333 421.667 38.6318 421.667 39Z" stroke="black" stroke-width="1.33333" stroke-linejoin="round"/>
</g>
<g filter="url(#filter2_dd_19312_20184)">
<path d="M34 90C34 87.7909 35.7909 86 38 86H46C48.2091 86 50 87.7909 50 90V106H34V90Z" fill="#2CB1AF"/>
<path d="M38 86.5H46C47.933 86.5 49.5 88.067 49.5 90V105.5H34.5V90C34.5 88.067 36.067 86.5 38 86.5Z" stroke="url(#paint1_linear_19312_20184)" stroke-opacity="0.4"/>
</g>
<g filter="url(#filter3_dd_19312_20184)">
<rect x="34" y="107" width="16" height="20" fill="#2CB1AF"/>
<rect x="34.5" y="107.5" width="15" height="19" stroke="url(#paint2_linear_19312_20184)" stroke-opacity="0.4"/>
</g>
<g filter="url(#filter4_dd_19312_20184)">
<rect x="34" y="128" width="16" height="20" fill="#2CB1AF"/>
<rect x="34.5" y="128.5" width="15" height="19" stroke="url(#paint3_linear_19312_20184)" stroke-opacity="0.4"/>
</g>
<g filter="url(#filter5_dd_19312_20184)">
<path d="M34 149H50V165C50 167.209 48.2091 169 46 169H38C35.7909 169 34 167.209 34 165V149Z" fill="#2CB1AF"/>
<path d="M49.5 149.5V165C49.5 166.933 47.933 168.5 46 168.5H38C36.067 168.5 34.5 166.933 34.5 165V149.5H49.5Z" stroke="url(#paint4_linear_19312_20184)" stroke-opacity="0.4"/>
</g>
<path d="M27.736 188V182.32H28.424V185.144L30.976 182.32H31.848L29.624 184.784L32 188H31.16L29.16 185.296L28.424 186.104V188H27.736ZM33.8391 188L32.3431 182.32H33.0951L34.2631 187.056L35.4231 182.32H36.2071L37.3751 187.056L38.5351 182.32H39.2951L37.7991 188H36.9351L35.8151 183.6L34.6951 188H33.8391ZM42.0816 188C42.0816 187.6 42.1429 187.24 42.2656 186.92C42.3936 186.595 42.6149 186.285 42.9296 185.992C43.2496 185.699 43.6922 185.403 44.2576 185.104C44.5189 184.965 44.7296 184.837 44.8896 184.72C45.0496 184.603 45.1669 184.477 45.2416 184.344C45.3162 184.211 45.3536 184.048 45.3536 183.856C45.3536 183.659 45.3109 183.488 45.2256 183.344C45.1402 183.195 45.0122 183.077 44.8416 182.992C44.6762 182.907 44.4682 182.864 44.2176 182.864C43.8176 182.864 43.5002 182.968 43.2656 183.176C43.0362 183.384 42.8922 183.68 42.8336 184.064L42.1136 184.016C42.1776 183.461 42.3909 183.019 42.7536 182.688C43.1162 182.357 43.6042 182.192 44.2176 182.192C44.6069 182.192 44.9402 182.261 45.2176 182.4C45.4949 182.539 45.7056 182.733 45.8496 182.984C45.9989 183.229 46.0736 183.515 46.0736 183.84C46.0736 184.128 46.0256 184.379 45.9296 184.592C45.8336 184.8 45.6709 184.995 45.4416 185.176C45.2176 185.357 44.9082 185.552 44.5136 185.76C44.0016 186.032 43.6122 186.307 43.3456 186.584C43.0842 186.861 42.9456 187.109 42.9296 187.328H46.0736V188H42.0816ZM47.9806 188V183.792H46.7966V183.2H47.2766C47.4846 183.2 47.6499 183.173 47.7726 183.12C47.9006 183.067 47.9912 182.976 48.0446 182.848C48.0979 182.72 48.1246 182.544 48.1246 182.32H48.6686V188H47.9806Z" fill="#ACADAE"/>
<g filter="url(#filter6_dd_19312_20184)">
<path d="M72 111C72 108.791 73.7909 107 76 107H84C86.2091 107 88 108.791 88 111V127H72V111Z" fill="#61C5C3"/>
<path d="M76 107.5H84C85.933 107.5 87.5 109.067 87.5 111V126.5H72.5V111C72.5 109.067 74.067 107.5 76 107.5Z" stroke="url(#paint5_linear_19312_20184)" stroke-opacity="0.4"/>
</g>
<g filter="url(#filter7_dd_19312_20184)">
<rect x="72" y="128" width="16" height="20" fill="#61C5C3"/>
<rect x="72.5" y="128.5" width="15" height="19" stroke="url(#paint6_linear_19312_20184)" stroke-opacity="0.4"/>
</g>
<g filter="url(#filter8_dd_19312_20184)">
<path d="M72 149H88V165C88 167.209 86.2091 169 84 169H76C73.7909 169 72 167.209 72 165V149Z" fill="#61C5C3"/>
<path d="M87.5 149.5V165C87.5 166.933 85.933 168.5 84 168.5H76C74.067 168.5 72.5 166.933 72.5 165V149.5H87.5Z" stroke="url(#paint7_linear_19312_20184)" stroke-opacity="0.4"/>
</g>
<path d="M65.736 188V182.32H66.424V185.144L68.976 182.32H69.848L67.624 184.784L70 188H69.16L67.16 185.296L66.424 186.104V188H65.736ZM71.8391 188L70.3431 182.32H71.0951L72.2631 187.056L73.4231 182.32H74.2071L75.3751 187.056L76.5351 182.32H77.2951L75.7991 188H74.9351L73.8151 183.6L72.6951 188H71.8391ZM80.0816 188C80.0816 187.6 80.1429 187.24 80.2656 186.92C80.3936 186.595 80.6149 186.285 80.9296 185.992C81.2496 185.699 81.6922 185.403 82.2576 185.104C82.5189 184.965 82.7296 184.837 82.8896 184.72C83.0496 184.603 83.1669 184.477 83.2416 184.344C83.3162 184.211 83.3536 184.048 83.3536 183.856C83.3536 183.659 83.3109 183.488 83.2256 183.344C83.1402 183.195 83.0122 183.077 82.8416 182.992C82.6762 182.907 82.4682 182.864 82.2176 182.864C81.8176 182.864 81.5002 182.968 81.2656 183.176C81.0362 183.384 80.8922 183.68 80.8336 184.064L80.1136 184.016C80.1776 183.461 80.3909 183.019 80.7536 182.688C81.1162 182.357 81.6042 182.192 82.2176 182.192C82.6069 182.192 82.9402 182.261 83.2176 182.4C83.4949 182.539 83.7056 182.733 83.8496 182.984C83.9989 183.229 84.0736 183.515 84.0736 183.84C84.0736 184.128 84.0256 184.379 83.9296 184.592C83.8336 184.8 83.6709 184.995 83.4416 185.176C83.2176 185.357 82.9082 185.552 82.5136 185.76C82.0016 186.032 81.6122 186.307 81.3456 186.584C81.0842 186.861 80.9456 187.109 80.9296 187.328H84.0736V188H80.0816ZM85.0347 188C85.0347 187.6 85.096 187.24 85.2187 186.92C85.3467 186.595 85.568 186.285 85.8827 185.992C86.2027 185.699 86.6454 185.403 87.2107 185.104C87.472 184.965 87.6827 184.837 87.8427 184.72C88.0027 184.603 88.12 184.477 88.1947 184.344C88.2694 184.211 88.3067 184.048 88.3067 183.856C88.3067 183.659 88.264 183.488 88.1787 183.344C88.0934 183.195 87.9654 183.077 87.7947 182.992C87.6294 182.907 87.4214 182.864 87.1707 182.864C86.7707 182.864 86.4534 182.968 86.2187 183.176C85.9894 183.384 85.8454 183.68 85.7867 184.064L85.0667 184.016C85.1307 183.461 85.344 183.019 85.7067 182.688C86.0694 182.357 86.5574 182.192 87.1707 182.192C87.56 182.192 87.8934 182.261 88.1707 182.4C88.448 182.539 88.6587 182.733 88.8027 182.984C88.952 183.229 89.0267 183.515 89.0267 183.84C89.0267 184.128 88.9787 184.379 88.8827 184.592C88.7867 184.8 88.624 184.995 88.3947 185.176C88.1707 185.357 87.8614 185.552 87.4667 185.76C86.9547 186.032 86.5654 186.307 86.2987 186.584C86.0374 186.861 85.8987 187.109 85.8827 187.328H89.0267V188H85.0347Z" fill="#ACADAE"/>
<g filter="url(#filter9_dd_19312_20184)">
<path d="M110 153C110 150.791 111.791 149 114 149H122C124.209 149 126 150.791 126 153V165C126 167.209 124.209 169 122 169H114C111.791 169 110 167.209 110 165V153Z" fill="#CAECEB"/>
<path d="M114 149.5H122C123.933 149.5 125.5 151.067 125.5 153V165C125.5 166.933 123.933 168.5 122 168.5H114C112.067 168.5 110.5 166.933 110.5 165V153C110.5 151.067 112.067 149.5 114 149.5Z" stroke="url(#paint8_linear_19312_20184)" stroke-opacity="0.4"/>
</g>
<path d="M103.736 188V182.32H104.424V185.144L106.976 182.32H107.848L105.624 184.784L108 188H107.16L105.16 185.296L104.424 186.104V188H103.736ZM109.839 188L108.343 182.32H109.095L110.263 187.056L111.423 182.32H112.207L113.375 187.056L114.535 182.32H115.295L113.799 188H112.935L111.815 183.6L110.695 188H109.839ZM118.082 188C118.082 187.6 118.143 187.24 118.266 186.92C118.394 186.595 118.615 186.285 118.93 185.992C119.25 185.699 119.692 185.403 120.258 185.104C120.519 184.965 120.73 184.837 120.89 184.72C121.05 184.603 121.167 184.477 121.242 184.344C121.316 184.211 121.354 184.048 121.354 183.856C121.354 183.659 121.311 183.488 121.226 183.344C121.14 183.195 121.012 183.077 120.842 182.992C120.676 182.907 120.468 182.864 120.218 182.864C119.818 182.864 119.5 182.968 119.266 183.176C119.036 183.384 118.892 183.68 118.834 184.064L118.114 184.016C118.178 183.461 118.391 183.019 118.754 182.688C119.116 182.357 119.604 182.192 120.218 182.192C120.607 182.192 120.94 182.261 121.218 182.4C121.495 182.539 121.706 182.733 121.85 182.984C121.999 183.229 122.074 183.515 122.074 183.84C122.074 184.128 122.026 184.379 121.93 184.592C121.834 184.8 121.671 184.995 121.442 185.176C121.218 185.357 120.908 185.552 120.514 185.76C120.002 186.032 119.612 186.307 119.346 186.584C119.084 186.861 118.946 187.109 118.93 187.328H122.074V188H118.082ZM124.806 188.128C124.177 188.128 123.692 187.981 123.35 187.688C123.009 187.389 122.825 187.005 122.798 186.536L123.51 186.488C123.542 186.835 123.676 187.083 123.91 187.232C124.15 187.381 124.449 187.456 124.806 187.456C125.052 187.456 125.278 187.424 125.486 187.36C125.694 187.291 125.862 187.181 125.99 187.032C126.118 186.877 126.182 186.672 126.182 186.416C126.182 186.037 126.057 185.76 125.806 185.584C125.556 185.408 125.225 185.32 124.814 185.32H124.366V184.648H124.814C125.15 184.648 125.428 184.581 125.646 184.448C125.87 184.315 125.982 184.085 125.982 183.76C125.982 183.467 125.886 183.245 125.694 183.096C125.508 182.941 125.225 182.864 124.846 182.864C124.473 182.864 124.19 182.936 123.998 183.08C123.812 183.224 123.7 183.421 123.662 183.672L122.942 183.624C122.996 183.197 123.185 182.853 123.51 182.592C123.836 182.325 124.281 182.192 124.846 182.192C125.23 182.192 125.561 182.256 125.838 182.384C126.116 182.507 126.329 182.683 126.478 182.912C126.628 183.141 126.702 183.413 126.702 183.728C126.702 184.08 126.59 184.365 126.366 184.584C126.148 184.797 125.822 184.944 125.39 185.024V184.88C125.854 184.933 126.222 185.099 126.494 185.376C126.766 185.653 126.902 186 126.902 186.416C126.902 186.779 126.812 187.088 126.63 187.344C126.454 187.6 126.209 187.795 125.894 187.928C125.58 188.061 125.217 188.128 124.806 188.128Z" fill="#ACADAE"/>
<g filter="url(#filter10_dd_19312_20184)">
<path d="M148 132C148 129.791 149.791 128 152 128H160C162.209 128 164 129.791 164 132V148H148V132Z" fill="#96D8D7"/>
<path d="M152 128.5H160C161.933 128.5 163.5 130.067 163.5 132V147.5H148.5V132C148.5 130.067 150.067 128.5 152 128.5Z" stroke="url(#paint9_linear_19312_20184)" stroke-opacity="0.4"/>
</g>
<g filter="url(#filter11_dd_19312_20184)">
<path d="M148 149H164V165C164 167.209 162.209 169 160 169H152C149.791 169 148 167.209 148 165V149Z" fill="#96D8D7"/>
<path d="M163.5 149.5V165C163.5 166.933 161.933 168.5 160 168.5H152C150.067 168.5 148.5 166.933 148.5 165V149.5H163.5Z" stroke="url(#paint10_linear_19312_20184)" stroke-opacity="0.4"/>
</g>
<path d="M141.736 188V182.32H142.424V185.144L144.976 182.32H145.848L143.624 184.784L146 188H145.16L143.16 185.296L142.424 186.104V188H141.736ZM147.839 188L146.343 182.32H147.095L148.263 187.056L149.423 182.32H150.207L151.375 187.056L152.535 182.32H153.295L151.799 188H150.935L149.815 183.6L148.695 188H147.839ZM156.082 188C156.082 187.6 156.143 187.24 156.266 186.92C156.394 186.595 156.615 186.285 156.93 185.992C157.25 185.699 157.692 185.403 158.258 185.104C158.519 184.965 158.73 184.837 158.89 184.72C159.05 184.603 159.167 184.477 159.242 184.344C159.316 184.211 159.354 184.048 159.354 183.856C159.354 183.659 159.311 183.488 159.226 183.344C159.14 183.195 159.012 183.077 158.842 182.992C158.676 182.907 158.468 182.864 158.218 182.864C157.818 182.864 157.5 182.968 157.266 183.176C157.036 183.384 156.892 183.68 156.834 184.064L156.114 184.016C156.178 183.461 156.391 183.019 156.754 182.688C157.116 182.357 157.604 182.192 158.218 182.192C158.607 182.192 158.94 182.261 159.218 182.4C159.495 182.539 159.706 182.733 159.85 182.984C159.999 183.229 160.074 183.515 160.074 183.84C160.074 184.128 160.026 184.379 159.93 184.592C159.834 184.8 159.671 184.995 159.442 185.176C159.218 185.357 158.908 185.552 158.514 185.76C158.002 186.032 157.612 186.307 157.346 186.584C157.084 186.861 156.946 187.109 156.93 187.328H160.074V188H156.082ZM163.362 188V186.768H160.474V186.144L163.314 182.32H164.05V186.096H164.754V186.768H164.05V188H163.362ZM161.306 186.096H163.362V183.376L161.306 186.096Z" fill="#ACADAE"/>
<g filter="url(#filter12_dd_19312_20184)">
<path d="M186 90C186 87.7909 187.791 86 190 86H198C200.209 86 202 87.7909 202 90V106H186V90Z" fill="#2CB1AF"/>
<path d="M190 86.5H198C199.933 86.5 201.5 88.067 201.5 90V105.5H186.5V90C186.5 88.067 188.067 86.5 190 86.5Z" stroke="url(#paint11_linear_19312_20184)" stroke-opacity="0.4"/>
</g>
<g filter="url(#filter13_dd_19312_20184)">
<rect x="186" y="107" width="16" height="20" fill="#2CB1AF"/>
<rect x="186.5" y="107.5" width="15" height="19" stroke="url(#paint12_linear_19312_20184)" stroke-opacity="0.4"/>
</g>
<g filter="url(#filter14_dd_19312_20184)">
<rect x="186" y="128" width="16" height="20" fill="#2CB1AF"/>
<rect x="186.5" y="128.5" width="15" height="19" stroke="url(#paint13_linear_19312_20184)" stroke-opacity="0.4"/>
</g>
<g filter="url(#filter15_dd_19312_20184)">
<path d="M186 149H202V165C202 167.209 200.209 169 198 169H190C187.791 169 186 167.209 186 165V149Z" fill="#2CB1AF"/>
<path d="M201.5 149.5V165C201.5 166.933 199.933 168.5 198 168.5H190C188.067 168.5 186.5 166.933 186.5 165V149.5H201.5Z" stroke="url(#paint14_linear_19312_20184)" stroke-opacity="0.4"/>
</g>
<path d="M179.736 188V182.32H180.424V185.144L182.976 182.32H183.848L181.624 184.784L184 188H183.16L181.16 185.296L180.424 186.104V188H179.736ZM185.839 188L184.343 182.32H185.095L186.263 187.056L187.423 182.32H188.207L189.375 187.056L190.535 182.32H191.295L189.799 188H188.935L187.815 183.6L186.695 188H185.839ZM194.082 188C194.082 187.6 194.143 187.24 194.266 186.92C194.394 186.595 194.615 186.285 194.93 185.992C195.25 185.699 195.692 185.403 196.258 185.104C196.519 184.965 196.73 184.837 196.89 184.72C197.05 184.603 197.167 184.477 197.242 184.344C197.316 184.211 197.354 184.048 197.354 183.856C197.354 183.659 197.311 183.488 197.226 183.344C197.14 183.195 197.012 183.077 196.842 182.992C196.676 182.907 196.468 182.864 196.218 182.864C195.818 182.864 195.5 182.968 195.266 183.176C195.036 183.384 194.892 183.68 194.834 184.064L194.114 184.016C194.178 183.461 194.391 183.019 194.754 182.688C195.116 182.357 195.604 182.192 196.218 182.192C196.607 182.192 196.94 182.261 197.218 182.4C197.495 182.539 197.706 182.733 197.85 182.984C197.999 183.229 198.074 183.515 198.074 183.84C198.074 184.128 198.026 184.379 197.93 184.592C197.834 184.8 197.671 184.995 197.442 185.176C197.218 185.357 196.908 185.552 196.514 185.76C196.002 186.032 195.612 186.307 195.346 186.584C195.084 186.861 194.946 187.109 194.93 187.328H198.074V188H194.082ZM201.051 188.128C200.651 188.128 200.304 188.061 200.011 187.928C199.723 187.795 199.493 187.608 199.323 187.368C199.157 187.128 199.061 186.851 199.035 186.536L199.755 186.488C199.797 186.808 199.933 187.051 200.163 187.216C200.397 187.376 200.693 187.456 201.051 187.456C201.451 187.456 201.768 187.344 202.003 187.12C202.237 186.891 202.355 186.576 202.355 186.176C202.355 185.909 202.301 185.68 202.195 185.488C202.093 185.291 201.944 185.139 201.747 185.032C201.549 184.925 201.312 184.872 201.035 184.872C200.773 184.872 200.536 184.928 200.323 185.04C200.109 185.152 199.957 185.309 199.867 185.512H199.131L199.507 182.32H202.691V182.992H200.139L199.883 185.088L199.755 184.96C199.84 184.795 199.952 184.659 200.091 184.552C200.235 184.44 200.397 184.357 200.579 184.304C200.765 184.245 200.96 184.216 201.163 184.216C201.541 184.216 201.875 184.301 202.163 184.472C202.451 184.637 202.675 184.869 202.835 185.168C202.995 185.461 203.075 185.797 203.075 186.176C203.075 186.555 202.989 186.893 202.819 187.192C202.648 187.485 202.411 187.715 202.107 187.88C201.803 188.045 201.451 188.128 201.051 188.128Z" fill="#ACADAE"/>
<g filter="url(#filter16_dd_19312_20184)">
<path d="M224 90C224 87.7909 225.791 86 228 86H236C238.209 86 240 87.7909 240 90V106H224V90Z" fill="#2CB1AF"/>
<path d="M228 86.5H236C237.933 86.5 239.5 88.067 239.5 90V105.5H224.5V90C224.5 88.067 226.067 86.5 228 86.5Z" stroke="url(#paint15_linear_19312_20184)" stroke-opacity="0.4"/>
</g>
<g filter="url(#filter17_dd_19312_20184)">
<rect x="224" y="107" width="16" height="20" fill="#2CB1AF"/>
<rect x="224.5" y="107.5" width="15" height="19" stroke="url(#paint16_linear_19312_20184)" stroke-opacity="0.4"/>
</g>
<g filter="url(#filter18_dd_19312_20184)">
<rect x="224" y="128" width="16" height="20" fill="#2CB1AF"/>
<rect x="224.5" y="128.5" width="15" height="19" stroke="url(#paint17_linear_19312_20184)" stroke-opacity="0.4"/>
</g>
<g filter="url(#filter19_dd_19312_20184)">
<path d="M224 149H240V165C240 167.209 238.209 169 236 169H228C225.791 169 224 167.209 224 165V149Z" fill="#2CB1AF"/>
<path d="M239.5 149.5V165C239.5 166.933 237.933 168.5 236 168.5H228C226.067 168.5 224.5 166.933 224.5 165V149.5H239.5Z" stroke="url(#paint18_linear_19312_20184)" stroke-opacity="0.4"/>
</g>
<path d="M217.736 188V182.32H218.424V185.144L220.976 182.32H221.848L219.624 184.784L222 188H221.16L219.16 185.296L218.424 186.104V188H217.736ZM223.839 188L222.343 182.32H223.095L224.263 187.056L225.423 182.32H226.207L227.375 187.056L228.535 182.32H229.295L227.799 188H226.935L225.815 183.6L224.695 188H223.839ZM232.082 188C232.082 187.6 232.143 187.24 232.266 186.92C232.394 186.595 232.615 186.285 232.93 185.992C233.25 185.699 233.692 185.403 234.258 185.104C234.519 184.965 234.73 184.837 234.89 184.72C235.05 184.603 235.167 184.477 235.242 184.344C235.316 184.211 235.354 184.048 235.354 183.856C235.354 183.659 235.311 183.488 235.226 183.344C235.14 183.195 235.012 183.077 234.842 182.992C234.676 182.907 234.468 182.864 234.218 182.864C233.818 182.864 233.5 182.968 233.266 183.176C233.036 183.384 232.892 183.68 232.834 184.064L232.114 184.016C232.178 183.461 232.391 183.019 232.754 182.688C233.116 182.357 233.604 182.192 234.218 182.192C234.607 182.192 234.94 182.261 235.218 182.4C235.495 182.539 235.706 182.733 235.85 182.984C235.999 183.229 236.074 183.515 236.074 183.84C236.074 184.128 236.026 184.379 235.93 184.592C235.834 184.8 235.671 184.995 235.442 185.176C235.218 185.357 234.908 185.552 234.514 185.76C234.002 186.032 233.612 186.307 233.346 186.584C233.084 186.861 232.946 187.109 232.93 187.328H236.074V188H232.082ZM238.971 188.128C238.544 188.128 238.179 188.032 237.875 187.84C237.576 187.643 237.347 187.355 237.187 186.976C237.032 186.597 236.955 186.139 236.955 185.6C236.955 185.131 236.992 184.691 237.067 184.28C237.147 183.869 237.272 183.509 237.443 183.2C237.619 182.885 237.848 182.64 238.131 182.464C238.419 182.283 238.773 182.192 239.195 182.192C239.701 182.192 240.093 182.317 240.371 182.568C240.648 182.813 240.843 183.136 240.955 183.536L240.235 183.6C240.171 183.376 240.059 183.197 239.899 183.064C239.744 182.931 239.509 182.864 239.195 182.864C238.725 182.864 238.355 183.064 238.083 183.464C237.816 183.864 237.675 184.469 237.659 185.28L237.515 185.248C237.573 185.056 237.675 184.88 237.819 184.72C237.968 184.555 238.149 184.424 238.363 184.328C238.581 184.227 238.827 184.176 239.099 184.176C239.472 184.176 239.8 184.256 240.083 184.416C240.365 184.576 240.584 184.803 240.739 185.096C240.899 185.384 240.979 185.723 240.979 186.112C240.979 186.528 240.893 186.888 240.723 187.192C240.552 187.491 240.315 187.723 240.011 187.888C239.712 188.048 239.365 188.128 238.971 188.128ZM238.987 187.456C239.36 187.456 239.664 187.339 239.899 187.104C240.139 186.864 240.259 186.533 240.259 186.112C240.259 185.851 240.208 185.624 240.107 185.432C240.005 185.24 239.864 185.093 239.683 184.992C239.501 184.885 239.291 184.832 239.051 184.832C238.795 184.832 238.565 184.885 238.363 184.992C238.16 185.093 238 185.24 237.883 185.432C237.765 185.624 237.707 185.851 237.707 186.112C237.707 186.373 237.757 186.605 237.859 186.808C237.965 187.011 238.115 187.171 238.307 187.288C238.499 187.4 238.725 187.456 238.987 187.456Z" fill="#ACADAE"/>
<g filter="url(#filter20_dd_19312_20184)">
<path d="M262 111C262 108.791 263.791 107 266 107H274C276.209 107 278 108.791 278 111V127H262V111Z" fill="#61C5C3"/>
<path d="M266 107.5H274C275.933 107.5 277.5 109.067 277.5 111V126.5H262.5V111C262.5 109.067 264.067 107.5 266 107.5Z" stroke="url(#paint19_linear_19312_20184)" stroke-opacity="0.4"/>
</g>
<g filter="url(#filter21_dd_19312_20184)">
<rect x="262" y="128" width="16" height="20" fill="#61C5C3"/>
<rect x="262.5" y="128.5" width="15" height="19" stroke="url(#paint20_linear_19312_20184)" stroke-opacity="0.4"/>
</g>
<g filter="url(#filter22_dd_19312_20184)">
<path d="M262 149H278V165C278 167.209 276.209 169 274 169H266C263.791 169 262 167.209 262 165V149Z" fill="#61C5C3"/>
<path d="M277.5 149.5V165C277.5 166.933 275.933 168.5 274 168.5H266C264.067 168.5 262.5 166.933 262.5 165V149.5H277.5Z" stroke="url(#paint21_linear_19312_20184)" stroke-opacity="0.4"/>
</g>
<path d="M255.736 188V182.32H256.424V185.144L258.976 182.32H259.848L257.624 184.784L260 188H259.16L257.16 185.296L256.424 186.104V188H255.736ZM261.839 188L260.343 182.32H261.095L262.263 187.056L263.423 182.32H264.207L265.375 187.056L266.535 182.32H267.295L265.799 188H264.935L263.815 183.6L262.695 188H261.839ZM270.082 188C270.082 187.6 270.143 187.24 270.266 186.92C270.394 186.595 270.615 186.285 270.93 185.992C271.25 185.699 271.692 185.403 272.258 185.104C272.519 184.965 272.73 184.837 272.89 184.72C273.05 184.603 273.167 184.477 273.242 184.344C273.316 184.211 273.354 184.048 273.354 183.856C273.354 183.659 273.311 183.488 273.226 183.344C273.14 183.195 273.012 183.077 272.842 182.992C272.676 182.907 272.468 182.864 272.218 182.864C271.818 182.864 271.5 182.968 271.266 183.176C271.036 183.384 270.892 183.68 270.834 184.064L270.114 184.016C270.178 183.461 270.391 183.019 270.754 182.688C271.116 182.357 271.604 182.192 272.218 182.192C272.607 182.192 272.94 182.261 273.218 182.4C273.495 182.539 273.706 182.733 273.85 182.984C273.999 183.229 274.074 183.515 274.074 183.84C274.074 184.128 274.026 184.379 273.93 184.592C273.834 184.8 273.671 184.995 273.442 185.176C273.218 185.357 272.908 185.552 272.514 185.76C272.002 186.032 271.612 186.307 271.346 186.584C271.084 186.861 270.946 187.109 270.93 187.328H274.074V188H270.082ZM275.737 188C275.737 187.413 275.817 186.829 275.977 186.248C276.137 185.661 276.366 185.093 276.664 184.544C276.969 183.995 277.331 183.477 277.753 182.992H274.473V182.32H278.505V182.944C278.03 183.488 277.638 184.027 277.329 184.56C277.025 185.088 276.801 185.635 276.657 186.2C276.513 186.76 276.441 187.36 276.441 188H275.737Z" fill="#ACADAE"/>
<g filter="url(#filter23_dd_19312_20184)">
<path d="M300 69C300 66.7909 301.791 65 304 65H312C314.209 65 316 66.7909 316 69V85H300V69Z" fill="#2CB1AF"/>
<path d="M304 65.5H312C313.933 65.5 315.5 67.067 315.5 69V84.5H300.5V69C300.5 67.067 302.067 65.5 304 65.5Z" stroke="url(#paint22_linear_19312_20184)" stroke-opacity="0.4"/>
</g>
<g filter="url(#filter24_dd_19312_20184)">
<rect x="300" y="86" width="16" height="20" fill="#2CB1AF"/>
<rect x="300.5" y="86.5" width="15" height="19" stroke="url(#paint23_linear_19312_20184)" stroke-opacity="0.4"/>
</g>
<g filter="url(#filter25_dd_19312_20184)">
<rect x="300" y="107" width="16" height="20" fill="#2CB1AF"/>
<rect x="300.5" y="107.5" width="15" height="19" stroke="url(#paint24_linear_19312_20184)" stroke-opacity="0.4"/>
</g>
<g filter="url(#filter26_dd_19312_20184)">
<rect x="300" y="128" width="16" height="20" fill="#2CB1AF"/>
<rect x="300.5" y="128.5" width="15" height="19" stroke="url(#paint25_linear_19312_20184)" stroke-opacity="0.4"/>
</g>
<g filter="url(#filter27_dd_19312_20184)">
<path d="M300 149H316V165C316 167.209 314.209 169 312 169H304C301.791 169 300 167.209 300 165V149Z" fill="#2CB1AF"/>
<path d="M315.5 149.5V165C315.5 166.933 313.933 168.5 312 168.5H304C302.067 168.5 300.5 166.933 300.5 165V149.5H315.5Z" stroke="url(#paint26_linear_19312_20184)" stroke-opacity="0.4"/>
</g>
<path d="M293.736 188V182.32H294.424V185.144L296.976 182.32H297.848L295.624 184.784L298 188H297.16L295.16 185.296L294.424 186.104V188H293.736ZM299.839 188L298.343 182.32H299.095L300.263 187.056L301.423 182.32H302.207L303.375 187.056L304.535 182.32H305.295L303.799 188H302.935L301.815 183.6L300.695 188H299.839ZM308.082 188C308.082 187.6 308.143 187.24 308.266 186.92C308.394 186.595 308.615 186.285 308.93 185.992C309.25 185.699 309.692 185.403 310.258 185.104C310.519 184.965 310.73 184.837 310.89 184.72C311.05 184.603 311.167 184.477 311.242 184.344C311.316 184.211 311.354 184.048 311.354 183.856C311.354 183.659 311.311 183.488 311.226 183.344C311.14 183.195 311.012 183.077 310.842 182.992C310.676 182.907 310.468 182.864 310.218 182.864C309.818 182.864 309.5 182.968 309.266 183.176C309.036 183.384 308.892 183.68 308.834 184.064L308.114 184.016C308.178 183.461 308.391 183.019 308.754 182.688C309.116 182.357 309.604 182.192 310.218 182.192C310.607 182.192 310.94 182.261 311.218 182.4C311.495 182.539 311.706 182.733 311.85 182.984C311.999 183.229 312.074 183.515 312.074 183.84C312.074 184.128 312.026 184.379 311.93 184.592C311.834 184.8 311.671 184.995 311.442 185.176C311.218 185.357 310.908 185.552 310.514 185.76C310.002 186.032 309.612 186.307 309.346 186.584C309.084 186.861 308.946 187.109 308.93 187.328H312.074V188H308.082ZM314.971 188.128C314.565 188.128 314.203 188.064 313.883 187.936C313.568 187.808 313.32 187.619 313.139 187.368C312.963 187.117 312.875 186.808 312.875 186.44C312.875 186.029 312.997 185.691 313.243 185.424C313.488 185.152 313.813 184.968 314.219 184.872L314.235 185.032C313.909 184.941 313.645 184.795 313.443 184.592C313.245 184.384 313.147 184.104 313.147 183.752C313.147 183.453 313.221 183.187 313.371 182.952C313.525 182.717 313.739 182.533 314.011 182.4C314.283 182.261 314.603 182.192 314.971 182.192C315.339 182.192 315.659 182.261 315.931 182.4C316.208 182.533 316.421 182.717 316.571 182.952C316.72 183.187 316.795 183.453 316.795 183.752C316.795 184.104 316.696 184.384 316.499 184.592C316.301 184.795 316.037 184.941 315.707 185.032L315.723 184.872C316.133 184.968 316.459 185.152 316.699 185.424C316.944 185.691 317.067 186.029 317.067 186.44C317.067 186.808 316.976 187.117 316.795 187.368C316.619 187.619 316.373 187.808 316.059 187.936C315.744 188.064 315.381 188.128 314.971 188.128ZM314.971 187.456C315.392 187.456 315.725 187.371 315.971 187.2C316.221 187.024 316.347 186.757 316.347 186.4C316.347 186.069 316.235 185.805 316.011 185.608C315.792 185.405 315.445 185.304 314.971 185.304C314.501 185.304 314.155 185.405 313.931 185.608C313.707 185.805 313.595 186.069 313.595 186.4C313.595 186.757 313.717 187.024 313.963 187.2C314.213 187.371 314.549 187.456 314.971 187.456ZM314.971 184.664C315.323 184.664 315.595 184.589 315.787 184.44C315.979 184.285 316.075 184.056 316.075 183.752C316.075 183.48 315.981 183.264 315.795 183.104C315.608 182.944 315.333 182.864 314.971 182.864C314.613 182.864 314.339 182.944 314.147 183.104C313.96 183.264 313.867 183.48 313.867 183.752C313.867 184.056 313.963 184.285 314.155 184.44C314.347 184.589 314.619 184.664 314.971 184.664Z" fill="#ACADAE"/>
<path d="M338 167C338 165.895 338.895 165 340 165H352C353.105 165 354 165.895 354 167V167C354 168.105 353.105 169 352 169H340C338.895 169 338 168.105 338 167V167Z" fill="#EDEDED"/>
<path d="M331.736 188V182.32H332.424V185.144L334.976 182.32H335.848L333.624 184.784L336 188H335.16L333.16 185.296L332.424 186.104V188H331.736ZM337.839 188L336.343 182.32H337.095L338.263 187.056L339.423 182.32H340.207L341.375 187.056L342.535 182.32H343.295L341.799 188H340.935L339.815 183.6L338.695 188H337.839ZM346.082 188C346.082 187.6 346.143 187.24 346.266 186.92C346.394 186.595 346.615 186.285 346.93 185.992C347.25 185.699 347.692 185.403 348.258 185.104C348.519 184.965 348.73 184.837 348.89 184.72C349.05 184.603 349.167 184.477 349.242 184.344C349.316 184.211 349.354 184.048 349.354 183.856C349.354 183.659 349.311 183.488 349.226 183.344C349.14 183.195 349.012 183.077 348.842 182.992C348.676 182.907 348.468 182.864 348.218 182.864C347.818 182.864 347.5 182.968 347.266 183.176C347.036 183.384 346.892 183.68 346.834 184.064L346.114 184.016C346.178 183.461 346.391 183.019 346.754 182.688C347.116 182.357 347.604 182.192 348.218 182.192C348.607 182.192 348.94 182.261 349.218 182.4C349.495 182.539 349.706 182.733 349.85 182.984C349.999 183.229 350.074 183.515 350.074 183.84C350.074 184.128 350.026 184.379 349.93 184.592C349.834 184.8 349.671 184.995 349.442 185.176C349.218 185.357 348.908 185.552 348.514 185.76C348.002 186.032 347.612 186.307 347.346 186.584C347.084 186.861 346.946 187.109 346.93 187.328H350.074V188H346.082ZM352.699 188.128C352.229 188.128 351.845 188.013 351.547 187.784C351.253 187.549 351.053 187.256 350.947 186.904L351.675 186.848C351.739 187.04 351.856 187.189 352.027 187.296C352.197 187.403 352.421 187.456 352.699 187.456C353.173 187.456 353.536 187.267 353.787 186.888C354.043 186.504 354.173 185.888 354.179 185.04L354.347 185.072C354.213 185.429 354.008 185.707 353.731 185.904C353.453 186.096 353.131 186.192 352.763 186.192C352.395 186.192 352.069 186.109 351.787 185.944C351.504 185.779 351.28 185.547 351.115 185.248C350.955 184.949 350.875 184.603 350.875 184.208C350.875 183.792 350.96 183.435 351.131 183.136C351.301 182.832 351.536 182.6 351.835 182.44C352.133 182.275 352.472 182.192 352.851 182.192C353.325 182.192 353.712 182.301 354.011 182.52C354.315 182.739 354.539 183.045 354.683 183.44C354.827 183.829 354.899 184.291 354.899 184.824C354.899 185.299 354.861 185.739 354.787 186.144C354.712 186.544 354.589 186.893 354.419 187.192C354.248 187.485 354.021 187.715 353.739 187.88C353.461 188.045 353.115 188.128 352.699 188.128ZM352.811 185.512C353.072 185.512 353.301 185.461 353.499 185.36C353.696 185.259 353.851 185.112 353.963 184.92C354.08 184.728 354.139 184.496 354.139 184.224C354.139 183.963 354.085 183.731 353.979 183.528C353.877 183.32 353.731 183.157 353.539 183.04C353.347 182.923 353.117 182.864 352.851 182.864C352.589 182.864 352.365 182.923 352.179 183.04C351.992 183.152 351.848 183.309 351.747 183.512C351.645 183.715 351.595 183.947 351.595 184.208C351.595 184.475 351.645 184.707 351.747 184.904C351.853 185.096 351.997 185.245 352.179 185.352C352.36 185.459 352.571 185.512 352.811 185.512Z" fill="#ACADAE"/>
<path d="M376 167C376 165.895 376.895 165 378 165H390C391.105 165 392 165.895 392 167V167C392 168.105 391.105 169 390 169H378C376.895 169 376 168.105 376 167V167Z" fill="#EDEDED"/>
<path d="M369.736 188V182.32H370.424V185.144L372.976 182.32H373.848L371.624 184.784L374 188H373.16L371.16 185.296L370.424 186.104V188H369.736ZM375.839 188L374.343 182.32H375.095L376.263 187.056L377.423 182.32H378.207L379.375 187.056L380.535 182.32H381.295L379.799 188H378.935L377.815 183.6L376.695 188H375.839ZM386.01 188.128C385.38 188.128 384.895 187.981 384.554 187.688C384.212 187.389 384.028 187.005 384.002 186.536L384.714 186.488C384.746 186.835 384.879 187.083 385.114 187.232C385.354 187.381 385.652 187.456 386.01 187.456C386.255 187.456 386.482 187.424 386.69 187.36C386.898 187.291 387.066 187.181 387.194 187.032C387.322 186.877 387.386 186.672 387.386 186.416C387.386 186.037 387.26 185.76 387.01 185.584C386.759 185.408 386.428 185.32 386.018 185.32H385.57V184.648H386.018C386.354 184.648 386.631 184.581 386.85 184.448C387.074 184.315 387.186 184.085 387.186 183.76C387.186 183.467 387.09 183.245 386.898 183.096C386.711 182.941 386.428 182.864 386.05 182.864C385.676 182.864 385.394 182.936 385.202 183.08C385.015 183.224 384.903 183.421 384.866 183.672L384.146 183.624C384.199 183.197 384.388 182.853 384.714 182.592C385.039 182.325 385.484 182.192 386.05 182.192C386.434 182.192 386.764 182.256 387.042 182.384C387.319 182.507 387.532 182.683 387.682 182.912C387.831 183.141 387.906 183.413 387.906 183.728C387.906 184.08 387.794 184.365 387.57 184.584C387.351 184.797 387.026 184.944 386.594 185.024V184.88C387.058 184.933 387.426 185.099 387.698 185.376C387.97 185.653 388.106 186 388.106 186.416C388.106 186.779 388.015 187.088 387.834 187.344C387.658 187.6 387.412 187.795 387.098 187.928C386.783 188.061 386.42 188.128 386.01 188.128ZM391.156 188.128C390.697 188.128 390.3 188.008 389.964 187.768C389.628 187.528 389.366 187.187 389.18 186.744C388.998 186.301 388.908 185.776 388.908 185.168C388.908 184.56 388.998 184.035 389.18 183.592C389.366 183.144 389.628 182.8 389.964 182.56C390.3 182.315 390.697 182.192 391.156 182.192C391.62 182.192 392.02 182.315 392.356 182.56C392.692 182.8 392.95 183.141 393.132 183.584C393.318 184.027 393.412 184.555 393.412 185.168C393.412 185.776 393.318 186.301 393.132 186.744C392.95 187.187 392.692 187.528 392.356 187.768C392.02 188.008 391.62 188.128 391.156 188.128ZM391.156 187.456C391.646 187.456 392.025 187.259 392.292 186.864C392.558 186.464 392.692 185.899 392.692 185.168C392.692 184.677 392.63 184.261 392.508 183.92C392.39 183.573 392.217 183.312 391.988 183.136C391.764 182.955 391.486 182.864 391.156 182.864C390.83 182.864 390.553 182.955 390.324 183.136C390.1 183.312 389.926 183.573 389.804 183.92C389.686 184.261 389.628 184.677 389.628 185.168C389.628 185.899 389.761 186.464 390.028 186.864C390.294 187.259 390.67 187.456 391.156 187.456Z" fill="#ACADAE"/>
<path d="M414 167C414 165.895 414.895 165 416 165H428C429.105 165 430 165.895 430 167V167C430 168.105 429.105 169 428 169H416C414.895 169 414 168.105 414 167V167Z" fill="#EDEDED"/>
<path d="M418 186.833V181.339C418 181.149 418.108 180.972 418.285 180.901C420.609 179.98 422.482 181.869 424.748 181.304C425.107 181.215 425.5 181.46 425.5 181.83V186.522C425.5 186.712 425.392 186.89 425.215 186.96C422.639 187.981 420.617 185.55 418 186.833ZM418 186.833V190" stroke="#646568" stroke-linecap="round" stroke-linejoin="round"/>
<path d="M32 85.5C32 86.8807 30.8807 88 29.5 88C28.1193 88 27 86.8807 27 85.5C27 84.1193 28.1193 83 29.5 83C30.8807 83 32 84.1193 32 85.5Z" fill="#FD766B"/>
<path d="M31 85.5C31 84.6716 30.3284 84 29.5 84C28.6716 84 28 84.6716 28 85.5C28 86.3284 28.6716 87 29.5 87V88C28.1193 88 27 86.8807 27 85.5C27 84.1193 28.1193 83 29.5 83C30.8807 83 32 84.1193 32 85.5C32 86.8807 30.8807 88 29.5 88V87C30.3284 87 31 86.3284 31 85.5Z" fill="#FD766B"/>
<path d="M429.5 85C429.776 85 430 85.2239 430 85.5C430 85.7762 429.776 86 429.5 86L31.5 86C31.2239 86 31 85.7761 31 85.5C31 85.2239 31.2239 85 31.5 85L429.5 85Z" fill="#FD766B"/>
</g>
<defs>
<filter id="filter0_dd_19312_20184" x="0" y="0" width="462" height="222" filterUnits="userSpaceOnUse" color-interpolation-filters="sRGB">
<feFlood flood-opacity="0" result="BackgroundImageFix"/>
<feColorMatrix in="SourceAlpha" type="matrix" values="0 0 0 0 0 0 0 0 0 0 0 0 0 0 0 0 0 0 127 0" result="hardAlpha"/>
<feOffset dy="1"/>
<feGaussianBlur stdDeviation="0.5"/>
<feColorMatrix type="matrix" values="0 0 0 0 0.0352941 0 0 0 0 0.0980392 0 0 0 0 0.192157 0 0 0 0.04 0"/>
<feBlend mode="normal" in2="BackgroundImageFix" result="effect1_dropShadow_19312_20184"/>
<feColorMatrix in="SourceAlpha" type="matrix" values="0 0 0 0 0 0 0 0 0 0 0 0 0 0 0 0 0 0 127 0" result="hardAlpha"/>
<feMorphology radius="3" operator="erode" in="SourceAlpha" result="effect2_dropShadow_19312_20184"/>
<feOffset dy="2"/>
<feGaussianBlur stdDeviation="3"/>
<feColorMatrix type="matrix" values="0 0 0 0 0.0352941 0 0 0 0 0.0980392 0 0 0 0 0.192157 0 0 0 0.035 0"/>
<feBlend mode="normal" in2="effect1_dropShadow_19312_20184" result="effect2_dropShadow_19312_20184"/>
<feBlend mode="normal" in="SourceGraphic" in2="effect2_dropShadow_19312_20184" result="shape"/>
</filter>
<filter id="filter1_dd_19312_20184" x="404" y="24" width="34" height="34" filterUnits="userSpaceOnUse" color-interpolation-filters="sRGB">
<feFlood flood-opacity="0" result="BackgroundImageFix"/>
<feColorMatrix in="SourceAlpha" type="matrix" values="0 0 0 0 0 0 0 0 0 0 0 0 0 0 0 0 0 0 127 0" result="hardAlpha"/>
<feOffset dy="1"/>
<feGaussianBlur stdDeviation="0.5"/>
<feColorMatrix type="matrix" values="0 0 0 0 0.0352941 0 0 0 0 0.0980392 0 0 0 0 0.192157 0 0 0 0.04 0"/>
<feBlend mode="normal" in2="BackgroundImageFix" result="effect1_dropShadow_19312_20184"/>
<feColorMatrix in="SourceAlpha" type="matrix" values="0 0 0 0 0 0 0 0 0 0 0 0 0 0 0 0 0 0 127 0" result="hardAlpha"/>
<feMorphology radius="3" operator="erode" in="SourceAlpha" result="effect2_dropShadow_19312_20184"/>
<feOffset dy="2"/>
<feGaussianBlur stdDeviation="3"/>
<feColorMatrix type="matrix" values="0 0 0 0 0.0352941 0 0 0 0 0.0980392 0 0 0 0 0.192157 0 0 0 0.035 0"/>
<feBlend mode="normal" in2="effect1_dropShadow_19312_20184" result="effect2_dropShadow_19312_20184"/>
<feBlend mode="normal" in="SourceGraphic" in2="effect2_dropShadow_19312_20184" result="shape"/>
</filter>
<filter id="filter2_dd_19312_20184" x="31" y="85" width="22" height="26" filterUnits="userSpaceOnUse" color-interpolation-filters="sRGB">
<feFlood flood-opacity="0" result="BackgroundImageFix"/>
<feColorMatrix in="SourceAlpha" type="matrix" values="0 0 0 0 0 0 0 0 0 0 0 0 0 0 0 0 0 0 127 0" result="hardAlpha"/>
<feOffset dy="1"/>
<feGaussianBlur stdDeviation="0.5"/>
<feColorMatrix type="matrix" values="0 0 0 0 0.0352941 0 0 0 0 0.0980392 0 0 0 0 0.192157 0 0 0 0.04 0"/>
<feBlend mode="normal" in2="BackgroundImageFix" result="effect1_dropShadow_19312_20184"/>
<feColorMatrix in="SourceAlpha" type="matrix" values="0 0 0 0 0 0 0 0 0 0 0 0 0 0 0 0 0 0 127 0" result="hardAlpha"/>
<feMorphology radius="3" operator="erode" in="SourceAlpha" result="effect2_dropShadow_19312_20184"/>
<feOffset dy="2"/>
<feGaussianBlur stdDeviation="3"/>
<feColorMatrix type="matrix" values="0 0 0 0 0.0352941 0 0 0 0 0.0980392 0 0 0 0 0.192157 0 0 0 0.035 0"/>
<feBlend mode="normal" in2="effect1_dropShadow_19312_20184" result="effect2_dropShadow_19312_20184"/>
<feBlend mode="normal" in="SourceGraphic" in2="effect2_dropShadow_19312_20184" result="shape"/>
</filter>
<filter id="filter3_dd_19312_20184" x="31" y="106" width="22" height="26" filterUnits="userSpaceOnUse" color-interpolation-filters="sRGB">
<feFlood flood-opacity="0" result="BackgroundImageFix"/>
<feColorMatrix in="SourceAlpha" type="matrix" values="0 0 0 0 0 0 0 0 0 0 0 0 0 0 0 0 0 0 127 0" result="hardAlpha"/>
<feOffset dy="1"/>
<feGaussianBlur stdDeviation="0.5"/>
<feColorMatrix type="matrix" values="0 0 0 0 0.0352941 0 0 0 0 0.0980392 0 0 0 0 0.192157 0 0 0 0.04 0"/>
<feBlend mode="normal" in2="BackgroundImageFix" result="effect1_dropShadow_19312_20184"/>
<feColorMatrix in="SourceAlpha" type="matrix" values="0 0 0 0 0 0 0 0 0 0 0 0 0 0 0 0 0 0 127 0" result="hardAlpha"/>
<feMorphology radius="3" operator="erode" in="SourceAlpha" result="effect2_dropShadow_19312_20184"/>
<feOffset dy="2"/>
<feGaussianBlur stdDeviation="3"/>
<feColorMatrix type="matrix" values="0 0 0 0 0.0352941 0 0 0 0 0.0980392 0 0 0 0 0.192157 0 0 0 0.035 0"/>
<feBlend mode="normal" in2="effect1_dropShadow_19312_20184" result="effect2_dropShadow_19312_20184"/>
<feBlend mode="normal" in="SourceGraphic" in2="effect2_dropShadow_19312_20184" result="shape"/>
</filter>
<filter id="filter4_dd_19312_20184" x="31" y="127" width="22" height="26" filterUnits="userSpaceOnUse" color-interpolation-filters="sRGB">
<feFlood flood-opacity="0" result="BackgroundImageFix"/>
<feColorMatrix in="SourceAlpha" type="matrix" values="0 0 0 0 0 0 0 0 0 0 0 0 0 0 0 0 0 0 127 0" result="hardAlpha"/>
<feOffset dy="1"/>
<feGaussianBlur stdDeviation="0.5"/>
<feColorMatrix type="matrix" values="0 0 0 0 0.0352941 0 0 0 0 0.0980392 0 0 0 0 0.192157 0 0 0 0.04 0"/>
<feBlend mode="normal" in2="BackgroundImageFix" result="effect1_dropShadow_19312_20184"/>
<feColorMatrix in="SourceAlpha" type="matrix" values="0 0 0 0 0 0 0 0 0 0 0 0 0 0 0 0 0 0 127 0" result="hardAlpha"/>
<feMorphology radius="3" operator="erode" in="SourceAlpha" result="effect2_dropShadow_19312_20184"/>
<feOffset dy="2"/>
<feGaussianBlur stdDeviation="3"/>
<feColorMatrix type="matrix" values="0 0 0 0 0.0352941 0 0 0 0 0.0980392 0 0 0 0 0.192157 0 0 0 0.035 0"/>
<feBlend mode="normal" in2="effect1_dropShadow_19312_20184" result="effect2_dropShadow_19312_20184"/>
<feBlend mode="normal" in="SourceGraphic" in2="effect2_dropShadow_19312_20184" result="shape"/>
</filter>
<filter id="filter5_dd_19312_20184" x="31" y="148" width="22" height="26" filterUnits="userSpaceOnUse" color-interpolation-filters="sRGB">
<feFlood flood-opacity="0" result="BackgroundImageFix"/>
<feColorMatrix in="SourceAlpha" type="matrix" values="0 0 0 0 0 0 0 0 0 0 0 0 0 0 0 0 0 0 127 0" result="hardAlpha"/>
<feOffset dy="1"/>
<feGaussianBlur stdDeviation="0.5"/>
<feColorMatrix type="matrix" values="0 0 0 0 0.0352941 0 0 0 0 0.0980392 0 0 0 0 0.192157 0 0 0 0.04 0"/>
<feBlend mode="normal" in2="BackgroundImageFix" result="effect1_dropShadow_19312_20184"/>
<feColorMatrix in="SourceAlpha" type="matrix" values="0 0 0 0 0 0 0 0 0 0 0 0 0 0 0 0 0 0 127 0" result="hardAlpha"/>
<feMorphology radius="3" operator="erode" in="SourceAlpha" result="effect2_dropShadow_19312_20184"/>
<feOffset dy="2"/>
<feGaussianBlur stdDeviation="3"/>
<feColorMatrix type="matrix" values="0 0 0 0 0.0352941 0 0 0 0 0.0980392 0 0 0 0 0.192157 0 0 0 0.035 0"/>
<feBlend mode="normal" in2="effect1_dropShadow_19312_20184" result="effect2_dropShadow_19312_20184"/>
<feBlend mode="normal" in="SourceGraphic" in2="effect2_dropShadow_19312_20184" result="shape"/>
</filter>
<filter id="filter6_dd_19312_20184" x="69" y="106" width="22" height="26" filterUnits="userSpaceOnUse" color-interpolation-filters="sRGB">
<feFlood flood-opacity="0" result="BackgroundImageFix"/>
<feColorMatrix in="SourceAlpha" type="matrix" values="0 0 0 0 0 0 0 0 0 0 0 0 0 0 0 0 0 0 127 0" result="hardAlpha"/>
<feOffset dy="1"/>
<feGaussianBlur stdDeviation="0.5"/>
<feColorMatrix type="matrix" values="0 0 0 0 0.0352941 0 0 0 0 0.0980392 0 0 0 0 0.192157 0 0 0 0.04 0"/>
<feBlend mode="normal" in2="BackgroundImageFix" result="effect1_dropShadow_19312_20184"/>
<feColorMatrix in="SourceAlpha" type="matrix" values="0 0 0 0 0 0 0 0 0 0 0 0 0 0 0 0 0 0 127 0" result="hardAlpha"/>
<feMorphology radius="3" operator="erode" in="SourceAlpha" result="effect2_dropShadow_19312_20184"/>
<feOffset dy="2"/>
<feGaussianBlur stdDeviation="3"/>
<feColorMatrix type="matrix" values="0 0 0 0 0.0352941 0 0 0 0 0.0980392 0 0 0 0 0.192157 0 0 0 0.035 0"/>
<feBlend mode="normal" in2="effect1_dropShadow_19312_20184" result="effect2_dropShadow_19312_20184"/>
<feBlend mode="normal" in="SourceGraphic" in2="effect2_dropShadow_19312_20184" result="shape"/>
</filter>
<filter id="filter7_dd_19312_20184" x="69" y="127" width="22" height="26" filterUnits="userSpaceOnUse" color-interpolation-filters="sRGB">
<feFlood flood-opacity="0" result="BackgroundImageFix"/>
<feColorMatrix in="SourceAlpha" type="matrix" values="0 0 0 0 0 0 0 0 0 0 0 0 0 0 0 0 0 0 127 0" result="hardAlpha"/>
<feOffset dy="1"/>
<feGaussianBlur stdDeviation="0.5"/>
<feColorMatrix type="matrix" values="0 0 0 0 0.0352941 0 0 0 0 0.0980392 0 0 0 0 0.192157 0 0 0 0.04 0"/>
<feBlend mode="normal" in2="BackgroundImageFix" result="effect1_dropShadow_19312_20184"/>
<feColorMatrix in="SourceAlpha" type="matrix" values="0 0 0 0 0 0 0 0 0 0 0 0 0 0 0 0 0 0 127 0" result="hardAlpha"/>
<feMorphology radius="3" operator="erode" in="SourceAlpha" result="effect2_dropShadow_19312_20184"/>
<feOffset dy="2"/>
<feGaussianBlur stdDeviation="3"/>
<feColorMatrix type="matrix" values="0 0 0 0 0.0352941 0 0 0 0 0.0980392 0 0 0 0 0.192157 0 0 0 0.035 0"/>
<feBlend mode="normal" in2="effect1_dropShadow_19312_20184" result="effect2_dropShadow_19312_20184"/>
<feBlend mode="normal" in="SourceGraphic" in2="effect2_dropShadow_19312_20184" result="shape"/>
</filter>
<filter id="filter8_dd_19312_20184" x="69" y="148" width="22" height="26" filterUnits="userSpaceOnUse" color-interpolation-filters="sRGB">
<feFlood flood-opacity="0" result="BackgroundImageFix"/>
<feColorMatrix in="SourceAlpha" type="matrix" values="0 0 0 0 0 0 0 0 0 0 0 0 0 0 0 0 0 0 127 0" result="hardAlpha"/>
<feOffset dy="1"/>
<feGaussianBlur stdDeviation="0.5"/>
<feColorMatrix type="matrix" values="0 0 0 0 0.0352941 0 0 0 0 0.0980392 0 0 0 0 0.192157 0 0 0 0.04 0"/>
<feBlend mode="normal" in2="BackgroundImageFix" result="effect1_dropShadow_19312_20184"/>
<feColorMatrix in="SourceAlpha" type="matrix" values="0 0 0 0 0 0 0 0 0 0 0 0 0 0 0 0 0 0 127 0" result="hardAlpha"/>
<feMorphology radius="3" operator="erode" in="SourceAlpha" result="effect2_dropShadow_19312_20184"/>
<feOffset dy="2"/>
<feGaussianBlur stdDeviation="3"/>
<feColorMatrix type="matrix" values="0 0 0 0 0.0352941 0 0 0 0 0.0980392 0 0 0 0 0.192157 0 0 0 0.035 0"/>
<feBlend mode="normal" in2="effect1_dropShadow_19312_20184" result="effect2_dropShadow_19312_20184"/>
<feBlend mode="normal" in="SourceGraphic" in2="effect2_dropShadow_19312_20184" result="shape"/>
</filter>
<filter id="filter9_dd_19312_20184" x="107" y="148" width="22" height="26" filterUnits="userSpaceOnUse" color-interpolation-filters="sRGB">
<feFlood flood-opacity="0" result="BackgroundImageFix"/>
<feColorMatrix in="SourceAlpha" type="matrix" values="0 0 0 0 0 0 0 0 0 0 0 0 0 0 0 0 0 0 127 0" result="hardAlpha"/>
<feOffset dy="1"/>
<feGaussianBlur stdDeviation="0.5"/>
<feColorMatrix type="matrix" values="0 0 0 0 0.0352941 0 0 0 0 0.0980392 0 0 0 0 0.192157 0 0 0 0.04 0"/>
<feBlend mode="normal" in2="BackgroundImageFix" result="effect1_dropShadow_19312_20184"/>
<feColorMatrix in="SourceAlpha" type="matrix" values="0 0 0 0 0 0 0 0 0 0 0 0 0 0 0 0 0 0 127 0" result="hardAlpha"/>
<feMorphology radius="3" operator="erode" in="SourceAlpha" result="effect2_dropShadow_19312_20184"/>
<feOffset dy="2"/>
<feGaussianBlur stdDeviation="3"/>
<feColorMatrix type="matrix" values="0 0 0 0 0.0352941 0 0 0 0 0.0980392 0 0 0 0 0.192157 0 0 0 0.035 0"/>
<feBlend mode="normal" in2="effect1_dropShadow_19312_20184" result="effect2_dropShadow_19312_20184"/>
<feBlend mode="normal" in="SourceGraphic" in2="effect2_dropShadow_19312_20184" result="shape"/>
</filter>
<filter id="filter10_dd_19312_20184" x="145" y="127" width="22" height="26" filterUnits="userSpaceOnUse" color-interpolation-filters="sRGB">
<feFlood flood-opacity="0" result="BackgroundImageFix"/>
<feColorMatrix in="SourceAlpha" type="matrix" values="0 0 0 0 0 0 0 0 0 0 0 0 0 0 0 0 0 0 127 0" result="hardAlpha"/>
<feOffset dy="1"/>
<feGaussianBlur stdDeviation="0.5"/>
<feColorMatrix type="matrix" values="0 0 0 0 0.0352941 0 0 0 0 0.0980392 0 0 0 0 0.192157 0 0 0 0.04 0"/>
<feBlend mode="normal" in2="BackgroundImageFix" result="effect1_dropShadow_19312_20184"/>
<feColorMatrix in="SourceAlpha" type="matrix" values="0 0 0 0 0 0 0 0 0 0 0 0 0 0 0 0 0 0 127 0" result="hardAlpha"/>
<feMorphology radius="3" operator="erode" in="SourceAlpha" result="effect2_dropShadow_19312_20184"/>
<feOffset dy="2"/>
<feGaussianBlur stdDeviation="3"/>
<feColorMatrix type="matrix" values="0 0 0 0 0.0352941 0 0 0 0 0.0980392 0 0 0 0 0.192157 0 0 0 0.035 0"/>
<feBlend mode="normal" in2="effect1_dropShadow_19312_20184" result="effect2_dropShadow_19312_20184"/>
<feBlend mode="normal" in="SourceGraphic" in2="effect2_dropShadow_19312_20184" result="shape"/>
</filter>
<filter id="filter11_dd_19312_20184" x="145" y="148" width="22" height="26" filterUnits="userSpaceOnUse" color-interpolation-filters="sRGB">
<feFlood flood-opacity="0" result="BackgroundImageFix"/>
<feColorMatrix in="SourceAlpha" type="matrix" values="0 0 0 0 0 0 0 0 0 0 0 0 0 0 0 0 0 0 127 0" result="hardAlpha"/>
<feOffset dy="1"/>
<feGaussianBlur stdDeviation="0.5"/>
<feColorMatrix type="matrix" values="0 0 0 0 0.0352941 0 0 0 0 0.0980392 0 0 0 0 0.192157 0 0 0 0.04 0"/>
<feBlend mode="normal" in2="BackgroundImageFix" result="effect1_dropShadow_19312_20184"/>
<feColorMatrix in="SourceAlpha" type="matrix" values="0 0 0 0 0 0 0 0 0 0 0 0 0 0 0 0 0 0 127 0" result="hardAlpha"/>
<feMorphology radius="3" operator="erode" in="SourceAlpha" result="effect2_dropShadow_19312_20184"/>
<feOffset dy="2"/>
<feGaussianBlur stdDeviation="3"/>
<feColorMatrix type="matrix" values="0 0 0 0 0.0352941 0 0 0 0 0.0980392 0 0 0 0 0.192157 0 0 0 0.035 0"/>
<feBlend mode="normal" in2="effect1_dropShadow_19312_20184" result="effect2_dropShadow_19312_20184"/>
<feBlend mode="normal" in="SourceGraphic" in2="effect2_dropShadow_19312_20184" result="shape"/>
</filter>
<filter id="filter12_dd_19312_20184" x="183" y="85" width="22" height="26" filterUnits="userSpaceOnUse" color-interpolation-filters="sRGB">
<feFlood flood-opacity="0" result="BackgroundImageFix"/>
<feColorMatrix in="SourceAlpha" type="matrix" values="0 0 0 0 0 0 0 0 0 0 0 0 0 0 0 0 0 0 127 0" result="hardAlpha"/>
<feOffset dy="1"/>
<feGaussianBlur stdDeviation="0.5"/>
<feColorMatrix type="matrix" values="0 0 0 0 0.0352941 0 0 0 0 0.0980392 0 0 0 0 0.192157 0 0 0 0.04 0"/>
<feBlend mode="normal" in2="BackgroundImageFix" result="effect1_dropShadow_19312_20184"/>
<feColorMatrix in="SourceAlpha" type="matrix" values="0 0 0 0 0 0 0 0 0 0 0 0 0 0 0 0 0 0 127 0" result="hardAlpha"/>
<feMorphology radius="3" operator="erode" in="SourceAlpha" result="effect2_dropShadow_19312_20184"/>
<feOffset dy="2"/>
<feGaussianBlur stdDeviation="3"/>
<feColorMatrix type="matrix" values="0 0 0 0 0.0352941 0 0 0 0 0.0980392 0 0 0 0 0.192157 0 0 0 0.035 0"/>
<feBlend mode="normal" in2="effect1_dropShadow_19312_20184" result="effect2_dropShadow_19312_20184"/>
<feBlend mode="normal" in="SourceGraphic" in2="effect2_dropShadow_19312_20184" result="shape"/>
</filter>
<filter id="filter13_dd_19312_20184" x="183" y="106" width="22" height="26" filterUnits="userSpaceOnUse" color-interpolation-filters="sRGB">
<feFlood flood-opacity="0" result="BackgroundImageFix"/>
<feColorMatrix in="SourceAlpha" type="matrix" values="0 0 0 0 0 0 0 0 0 0 0 0 0 0 0 0 0 0 127 0" result="hardAlpha"/>
<feOffset dy="1"/>
<feGaussianBlur stdDeviation="0.5"/>
<feColorMatrix type="matrix" values="0 0 0 0 0.0352941 0 0 0 0 0.0980392 0 0 0 0 0.192157 0 0 0 0.04 0"/>
<feBlend mode="normal" in2="BackgroundImageFix" result="effect1_dropShadow_19312_20184"/>
<feColorMatrix in="SourceAlpha" type="matrix" values="0 0 0 0 0 0 0 0 0 0 0 0 0 0 0 0 0 0 127 0" result="hardAlpha"/>
<feMorphology radius="3" operator="erode" in="SourceAlpha" result="effect2_dropShadow_19312_20184"/>
<feOffset dy="2"/>
<feGaussianBlur stdDeviation="3"/>
<feColorMatrix type="matrix" values="0 0 0 0 0.0352941 0 0 0 0 0.0980392 0 0 0 0 0.192157 0 0 0 0.035 0"/>
<feBlend mode="normal" in2="effect1_dropShadow_19312_20184" result="effect2_dropShadow_19312_20184"/>
<feBlend mode="normal" in="SourceGraphic" in2="effect2_dropShadow_19312_20184" result="shape"/>
</filter>
<filter id="filter14_dd_19312_20184" x="183" y="127" width="22" height="26" filterUnits="userSpaceOnUse" color-interpolation-filters="sRGB">
<feFlood flood-opacity="0" result="BackgroundImageFix"/>
<feColorMatrix in="SourceAlpha" type="matrix" values="0 0 0 0 0 0 0 0 0 0 0 0 0 0 0 0 0 0 127 0" result="hardAlpha"/>
<feOffset dy="1"/>
<feGaussianBlur stdDeviation="0.5"/>
<feColorMatrix type="matrix" values="0 0 0 0 0.0352941 0 0 0 0 0.0980392 0 0 0 0 0.192157 0 0 0 0.04 0"/>
<feBlend mode="normal" in2="BackgroundImageFix" result="effect1_dropShadow_19312_20184"/>
<feColorMatrix in="SourceAlpha" type="matrix" values="0 0 0 0 0 0 0 0 0 0 0 0 0 0 0 0 0 0 127 0" result="hardAlpha"/>
<feMorphology radius="3" operator="erode" in="SourceAlpha" result="effect2_dropShadow_19312_20184"/>
<feOffset dy="2"/>
<feGaussianBlur stdDeviation="3"/>
<feColorMatrix type="matrix" values="0 0 0 0 0.0352941 0 0 0 0 0.0980392 0 0 0 0 0.192157 0 0 0 0.035 0"/>
<feBlend mode="normal" in2="effect1_dropShadow_19312_20184" result="effect2_dropShadow_19312_20184"/>
<feBlend mode="normal" in="SourceGraphic" in2="effect2_dropShadow_19312_20184" result="shape"/>
</filter>
<filter id="filter15_dd_19312_20184" x="183" y="148" width="22" height="26" filterUnits="userSpaceOnUse" color-interpolation-filters="sRGB">
<feFlood flood-opacity="0" result="BackgroundImageFix"/>
<feColorMatrix in="SourceAlpha" type="matrix" values="0 0 0 0 0 0 0 0 0 0 0 0 0 0 0 0 0 0 127 0" result="hardAlpha"/>
<feOffset dy="1"/>
<feGaussianBlur stdDeviation="0.5"/>
<feColorMatrix type="matrix" values="0 0 0 0 0.0352941 0 0 0 0 0.0980392 0 0 0 0 0.192157 0 0 0 0.04 0"/>
<feBlend mode="normal" in2="BackgroundImageFix" result="effect1_dropShadow_19312_20184"/>
<feColorMatrix in="SourceAlpha" type="matrix" values="0 0 0 0 0 0 0 0 0 0 0 0 0 0 0 0 0 0 127 0" result="hardAlpha"/>
<feMorphology radius="3" operator="erode" in="SourceAlpha" result="effect2_dropShadow_19312_20184"/>
<feOffset dy="2"/>
<feGaussianBlur stdDeviation="3"/>
<feColorMatrix type="matrix" values="0 0 0 0 0.0352941 0 0 0 0 0.0980392 0 0 0 0 0.192157 0 0 0 0.035 0"/>
<feBlend mode="normal" in2="effect1_dropShadow_19312_20184" result="effect2_dropShadow_19312_20184"/>
<feBlend mode="normal" in="SourceGraphic" in2="effect2_dropShadow_19312_20184" result="shape"/>
</filter>
<filter id="filter16_dd_19312_20184" x="221" y="85" width="22" height="26" filterUnits="userSpaceOnUse" color-interpolation-filters="sRGB">
<feFlood flood-opacity="0" result="BackgroundImageFix"/>
<feColorMatrix in="SourceAlpha" type="matrix" values="0 0 0 0 0 0 0 0 0 0 0 0 0 0 0 0 0 0 127 0" result="hardAlpha"/>
<feOffset dy="1"/>
<feGaussianBlur stdDeviation="0.5"/>
<feColorMatrix type="matrix" values="0 0 0 0 0.0352941 0 0 0 0 0.0980392 0 0 0 0 0.192157 0 0 0 0.04 0"/>
<feBlend mode="normal" in2="BackgroundImageFix" result="effect1_dropShadow_19312_20184"/>
<feColorMatrix in="SourceAlpha" type="matrix" values="0 0 0 0 0 0 0 0 0 0 0 0 0 0 0 0 0 0 127 0" result="hardAlpha"/>
<feMorphology radius="3" operator="erode" in="SourceAlpha" result="effect2_dropShadow_19312_20184"/>
<feOffset dy="2"/>
<feGaussianBlur stdDeviation="3"/>
<feColorMatrix type="matrix" values="0 0 0 0 0.0352941 0 0 0 0 0.0980392 0 0 0 0 0.192157 0 0 0 0.035 0"/>
<feBlend mode="normal" in2="effect1_dropShadow_19312_20184" result="effect2_dropShadow_19312_20184"/>
<feBlend mode="normal" in="SourceGraphic" in2="effect2_dropShadow_19312_20184" result="shape"/>
</filter>
<filter id="filter17_dd_19312_20184" x="221" y="106" width="22" height="26" filterUnits="userSpaceOnUse" color-interpolation-filters="sRGB">
<feFlood flood-opacity="0" result="BackgroundImageFix"/>
<feColorMatrix in="SourceAlpha" type="matrix" values="0 0 0 0 0 0 0 0 0 0 0 0 0 0 0 0 0 0 127 0" result="hardAlpha"/>
<feOffset dy="1"/>
<feGaussianBlur stdDeviation="0.5"/>
<feColorMatrix type="matrix" values="0 0 0 0 0.0352941 0 0 0 0 0.0980392 0 0 0 0 0.192157 0 0 0 0.04 0"/>
<feBlend mode="normal" in2="BackgroundImageFix" result="effect1_dropShadow_19312_20184"/>
<feColorMatrix in="SourceAlpha" type="matrix" values="0 0 0 0 0 0 0 0 0 0 0 0 0 0 0 0 0 0 127 0" result="hardAlpha"/>
<feMorphology radius="3" operator="erode" in="SourceAlpha" result="effect2_dropShadow_19312_20184"/>
<feOffset dy="2"/>
<feGaussianBlur stdDeviation="3"/>
<feColorMatrix type="matrix" values="0 0 0 0 0.0352941 0 0 0 0 0.0980392 0 0 0 0 0.192157 0 0 0 0.035 0"/>
<feBlend mode="normal" in2="effect1_dropShadow_19312_20184" result="effect2_dropShadow_19312_20184"/>
<feBlend mode="normal" in="SourceGraphic" in2="effect2_dropShadow_19312_20184" result="shape"/>
</filter>
<filter id="filter18_dd_19312_20184" x="221" y="127" width="22" height="26" filterUnits="userSpaceOnUse" color-interpolation-filters="sRGB">
<feFlood flood-opacity="0" result="BackgroundImageFix"/>
<feColorMatrix in="SourceAlpha" type="matrix" values="0 0 0 0 0 0 0 0 0 0 0 0 0 0 0 0 0 0 127 0" result="hardAlpha"/>
<feOffset dy="1"/>
<feGaussianBlur stdDeviation="0.5"/>
<feColorMatrix type="matrix" values="0 0 0 0 0.0352941 0 0 0 0 0.0980392 0 0 0 0 0.192157 0 0 0 0.04 0"/>
<feBlend mode="normal" in2="BackgroundImageFix" result="effect1_dropShadow_19312_20184"/>
<feColorMatrix in="SourceAlpha" type="matrix" values="0 0 0 0 0 0 0 0 0 0 0 0 0 0 0 0 0 0 127 0" result="hardAlpha"/>
<feMorphology radius="3" operator="erode" in="SourceAlpha" result="effect2_dropShadow_19312_20184"/>
<feOffset dy="2"/>
<feGaussianBlur stdDeviation="3"/>
<feColorMatrix type="matrix" values="0 0 0 0 0.0352941 0 0 0 0 0.0980392 0 0 0 0 0.192157 0 0 0 0.035 0"/>
<feBlend mode="normal" in2="effect1_dropShadow_19312_20184" result="effect2_dropShadow_19312_20184"/>
<feBlend mode="normal" in="SourceGraphic" in2="effect2_dropShadow_19312_20184" result="shape"/>
</filter>
<filter id="filter19_dd_19312_20184" x="221" y="148" width="22" height="26" filterUnits="userSpaceOnUse" color-interpolation-filters="sRGB">
<feFlood flood-opacity="0" result="BackgroundImageFix"/>
<feColorMatrix in="SourceAlpha" type="matrix" values="0 0 0 0 0 0 0 0 0 0 0 0 0 0 0 0 0 0 127 0" result="hardAlpha"/>
<feOffset dy="1"/>
<feGaussianBlur stdDeviation="0.5"/>
<feColorMatrix type="matrix" values="0 0 0 0 0.0352941 0 0 0 0 0.0980392 0 0 0 0 0.192157 0 0 0 0.04 0"/>
<feBlend mode="normal" in2="BackgroundImageFix" result="effect1_dropShadow_19312_20184"/>
<feColorMatrix in="SourceAlpha" type="matrix" values="0 0 0 0 0 0 0 0 0 0 0 0 0 0 0 0 0 0 127 0" result="hardAlpha"/>
<feMorphology radius="3" operator="erode" in="SourceAlpha" result="effect2_dropShadow_19312_20184"/>
<feOffset dy="2"/>
<feGaussianBlur stdDeviation="3"/>
<feColorMatrix type="matrix" values="0 0 0 0 0.0352941 0 0 0 0 0.0980392 0 0 0 0 0.192157 0 0 0 0.035 0"/>
<feBlend mode="normal" in2="effect1_dropShadow_19312_20184" result="effect2_dropShadow_19312_20184"/>
<feBlend mode="normal" in="SourceGraphic" in2="effect2_dropShadow_19312_20184" result="shape"/>
</filter>
<filter id="filter20_dd_19312_20184" x="259" y="106" width="22" height="26" filterUnits="userSpaceOnUse" color-interpolation-filters="sRGB">
<feFlood flood-opacity="0" result="BackgroundImageFix"/>
<feColorMatrix in="SourceAlpha" type="matrix" values="0 0 0 0 0 0 0 0 0 0 0 0 0 0 0 0 0 0 127 0" result="hardAlpha"/>
<feOffset dy="1"/>
<feGaussianBlur stdDeviation="0.5"/>
<feColorMatrix type="matrix" values="0 0 0 0 0.0352941 0 0 0 0 0.0980392 0 0 0 0 0.192157 0 0 0 0.04 0"/>
<feBlend mode="normal" in2="BackgroundImageFix" result="effect1_dropShadow_19312_20184"/>
<feColorMatrix in="SourceAlpha" type="matrix" values="0 0 0 0 0 0 0 0 0 0 0 0 0 0 0 0 0 0 127 0" result="hardAlpha"/>
<feMorphology radius="3" operator="erode" in="SourceAlpha" result="effect2_dropShadow_19312_20184"/>
<feOffset dy="2"/>
<feGaussianBlur stdDeviation="3"/>
<feColorMatrix type="matrix" values="0 0 0 0 0.0352941 0 0 0 0 0.0980392 0 0 0 0 0.192157 0 0 0 0.035 0"/>
<feBlend mode="normal" in2="effect1_dropShadow_19312_20184" result="effect2_dropShadow_19312_20184"/>
<feBlend mode="normal" in="SourceGraphic" in2="effect2_dropShadow_19312_20184" result="shape"/>
</filter>
<filter id="filter21_dd_19312_20184" x="259" y="127" width="22" height="26" filterUnits="userSpaceOnUse" color-interpolation-filters="sRGB">
<feFlood flood-opacity="0" result="BackgroundImageFix"/>
<feColorMatrix in="SourceAlpha" type="matrix" values="0 0 0 0 0 0 0 0 0 0 0 0 0 0 0 0 0 0 127 0" result="hardAlpha"/>
<feOffset dy="1"/>
<feGaussianBlur stdDeviation="0.5"/>
<feColorMatrix type="matrix" values="0 0 0 0 0.0352941 0 0 0 0 0.0980392 0 0 0 0 0.192157 0 0 0 0.04 0"/>
<feBlend mode="normal" in2="BackgroundImageFix" result="effect1_dropShadow_19312_20184"/>
<feColorMatrix in="SourceAlpha" type="matrix" values="0 0 0 0 0 0 0 0 0 0 0 0 0 0 0 0 0 0 127 0" result="hardAlpha"/>
<feMorphology radius="3" operator="erode" in="SourceAlpha" result="effect2_dropShadow_19312_20184"/>
<feOffset dy="2"/>
<feGaussianBlur stdDeviation="3"/>
<feColorMatrix type="matrix" values="0 0 0 0 0.0352941 0 0 0 0 0.0980392 0 0 0 0 0.192157 0 0 0 0.035 0"/>
<feBlend mode="normal" in2="effect1_dropShadow_19312_20184" result="effect2_dropShadow_19312_20184"/>
<feBlend mode="normal" in="SourceGraphic" in2="effect2_dropShadow_19312_20184" result="shape"/>
</filter>
<filter id="filter22_dd_19312_20184" x="259" y="148" width="22" height="26" filterUnits="userSpaceOnUse" color-interpolation-filters="sRGB">
<feFlood flood-opacity="0" result="BackgroundImageFix"/>
<feColorMatrix in="SourceAlpha" type="matrix" values="0 0 0 0 0 0 0 0 0 0 0 0 0 0 0 0 0 0 127 0" result="hardAlpha"/>
<feOffset dy="1"/>
<feGaussianBlur stdDeviation="0.5"/>
<feColorMatrix type="matrix" values="0 0 0 0 0.0352941 0 0 0 0 0.0980392 0 0 0 0 0.192157 0 0 0 0.04 0"/>
<feBlend mode="normal" in2="BackgroundImageFix" result="effect1_dropShadow_19312_20184"/>
<feColorMatrix in="SourceAlpha" type="matrix" values="0 0 0 0 0 0 0 0 0 0 0 0 0 0 0 0 0 0 127 0" result="hardAlpha"/>
<feMorphology radius="3" operator="erode" in="SourceAlpha" result="effect2_dropShadow_19312_20184"/>
<feOffset dy="2"/>
<feGaussianBlur stdDeviation="3"/>
<feColorMatrix type="matrix" values="0 0 0 0 0.0352941 0 0 0 0 0.0980392 0 0 0 0 0.192157 0 0 0 0.035 0"/>
<feBlend mode="normal" in2="effect1_dropShadow_19312_20184" result="effect2_dropShadow_19312_20184"/>
<feBlend mode="normal" in="SourceGraphic" in2="effect2_dropShadow_19312_20184" result="shape"/>
</filter>
<filter id="filter23_dd_19312_20184" x="297" y="64" width="22" height="26" filterUnits="userSpaceOnUse" color-interpolation-filters="sRGB">
<feFlood flood-opacity="0" result="BackgroundImageFix"/>
<feColorMatrix in="SourceAlpha" type="matrix" values="0 0 0 0 0 0 0 0 0 0 0 0 0 0 0 0 0 0 127 0" result="hardAlpha"/>
<feOffset dy="1"/>
<feGaussianBlur stdDeviation="0.5"/>
<feColorMatrix type="matrix" values="0 0 0 0 0.0352941 0 0 0 0 0.0980392 0 0 0 0 0.192157 0 0 0 0.04 0"/>
<feBlend mode="normal" in2="BackgroundImageFix" result="effect1_dropShadow_19312_20184"/>
<feColorMatrix in="SourceAlpha" type="matrix" values="0 0 0 0 0 0 0 0 0 0 0 0 0 0 0 0 0 0 127 0" result="hardAlpha"/>
<feMorphology radius="3" operator="erode" in="SourceAlpha" result="effect2_dropShadow_19312_20184"/>
<feOffset dy="2"/>
<feGaussianBlur stdDeviation="3"/>
<feColorMatrix type="matrix" values="0 0 0 0 0.0352941 0 0 0 0 0.0980392 0 0 0 0 0.192157 0 0 0 0.035 0"/>
<feBlend mode="normal" in2="effect1_dropShadow_19312_20184" result="effect2_dropShadow_19312_20184"/>
<feBlend mode="normal" in="SourceGraphic" in2="effect2_dropShadow_19312_20184" result="shape"/>
</filter>
<filter id="filter24_dd_19312_20184" x="297" y="85" width="22" height="26" filterUnits="userSpaceOnUse" color-interpolation-filters="sRGB">
<feFlood flood-opacity="0" result="BackgroundImageFix"/>
<feColorMatrix in="SourceAlpha" type="matrix" values="0 0 0 0 0 0 0 0 0 0 0 0 0 0 0 0 0 0 127 0" result="hardAlpha"/>
<feOffset dy="1"/>
<feGaussianBlur stdDeviation="0.5"/>
<feColorMatrix type="matrix" values="0 0 0 0 0.0352941 0 0 0 0 0.0980392 0 0 0 0 0.192157 0 0 0 0.04 0"/>
<feBlend mode="normal" in2="BackgroundImageFix" result="effect1_dropShadow_19312_20184"/>
<feColorMatrix in="SourceAlpha" type="matrix" values="0 0 0 0 0 0 0 0 0 0 0 0 0 0 0 0 0 0 127 0" result="hardAlpha"/>
<feMorphology radius="3" operator="erode" in="SourceAlpha" result="effect2_dropShadow_19312_20184"/>
<feOffset dy="2"/>
<feGaussianBlur stdDeviation="3"/>
<feColorMatrix type="matrix" values="0 0 0 0 0.0352941 0 0 0 0 0.0980392 0 0 0 0 0.192157 0 0 0 0.035 0"/>
<feBlend mode="normal" in2="effect1_dropShadow_19312_20184" result="effect2_dropShadow_19312_20184"/>
<feBlend mode="normal" in="SourceGraphic" in2="effect2_dropShadow_19312_20184" result="shape"/>
</filter>
<filter id="filter25_dd_19312_20184" x="297" y="106" width="22" height="26" filterUnits="userSpaceOnUse" color-interpolation-filters="sRGB">
<feFlood flood-opacity="0" result="BackgroundImageFix"/>
<feColorMatrix in="SourceAlpha" type="matrix" values="0 0 0 0 0 0 0 0 0 0 0 0 0 0 0 0 0 0 127 0" result="hardAlpha"/>
<feOffset dy="1"/>
<feGaussianBlur stdDeviation="0.5"/>
<feColorMatrix type="matrix" values="0 0 0 0 0.0352941 0 0 0 0 0.0980392 0 0 0 0 0.192157 0 0 0 0.04 0"/>
<feBlend mode="normal" in2="BackgroundImageFix" result="effect1_dropShadow_19312_20184"/>
<feColorMatrix in="SourceAlpha" type="matrix" values="0 0 0 0 0 0 0 0 0 0 0 0 0 0 0 0 0 0 127 0" result="hardAlpha"/>
<feMorphology radius="3" operator="erode" in="SourceAlpha" result="effect2_dropShadow_19312_20184"/>
<feOffset dy="2"/>
<feGaussianBlur stdDeviation="3"/>
<feColorMatrix type="matrix" values="0 0 0 0 0.0352941 0 0 0 0 0.0980392 0 0 0 0 0.192157 0 0 0 0.035 0"/>
<feBlend mode="normal" in2="effect1_dropShadow_19312_20184" result="effect2_dropShadow_19312_20184"/>
<feBlend mode="normal" in="SourceGraphic" in2="effect2_dropShadow_19312_20184" result="shape"/>
</filter>
<filter id="filter26_dd_19312_20184" x="297" y="127" width="22" height="26" filterUnits="userSpaceOnUse" color-interpolation-filters="sRGB">
<feFlood flood-opacity="0" result="BackgroundImageFix"/>
<feColorMatrix in="SourceAlpha" type="matrix" values="0 0 0 0 0 0 0 0 0 0 0 0 0 0 0 0 0 0 127 0" result="hardAlpha"/>
<feOffset dy="1"/>
<feGaussianBlur stdDeviation="0.5"/>
<feColorMatrix type="matrix" values="0 0 0 0 0.0352941 0 0 0 0 0.0980392 0 0 0 0 0.192157 0 0 0 0.04 0"/>
<feBlend mode="normal" in2="BackgroundImageFix" result="effect1_dropShadow_19312_20184"/>
<feColorMatrix in="SourceAlpha" type="matrix" values="0 0 0 0 0 0 0 0 0 0 0 0 0 0 0 0 0 0 127 0" result="hardAlpha"/>
<feMorphology radius="3" operator="erode" in="SourceAlpha" result="effect2_dropShadow_19312_20184"/>
<feOffset dy="2"/>
<feGaussianBlur stdDeviation="3"/>
<feColorMatrix type="matrix" values="0 0 0 0 0.0352941 0 0 0 0 0.0980392 0 0 0 0 0.192157 0 0 0 0.035 0"/>
<feBlend mode="normal" in2="effect1_dropShadow_19312_20184" result="effect2_dropShadow_19312_20184"/>
<feBlend mode="normal" in="SourceGraphic" in2="effect2_dropShadow_19312_20184" result="shape"/>
</filter>
<filter id="filter27_dd_19312_20184" x="297" y="148" width="22" height="26" filterUnits="userSpaceOnUse" color-interpolation-filters="sRGB">
<feFlood flood-opacity="0" result="BackgroundImageFix"/>
<feColorMatrix in="SourceAlpha" type="matrix" values="0 0 0 0 0 0 0 0 0 0 0 0 0 0 0 0 0 0 127 0" result="hardAlpha"/>
<feOffset dy="1"/>
<feGaussianBlur stdDeviation="0.5"/>
<feColorMatrix type="matrix" values="0 0 0 0 0.0352941 0 0 0 0 0.0980392 0 0 0 0 0.192157 0 0 0 0.04 0"/>
<feBlend mode="normal" in2="BackgroundImageFix" result="effect1_dropShadow_19312_20184"/>
<feColorMatrix in="SourceAlpha" type="matrix" values="0 0 0 0 0 0 0 0 0 0 0 0 0 0 0 0 0 0 127 0" result="hardAlpha"/>
<feMorphology radius="3" operator="erode" in="SourceAlpha" result="effect2_dropShadow_19312_20184"/>
<feOffset dy="2"/>
<feGaussianBlur stdDeviation="3"/>
<feColorMatrix type="matrix" values="0 0 0 0 0.0352941 0 0 0 0 0.0980392 0 0 0 0 0.192157 0 0 0 0.035 0"/>
<feBlend mode="normal" in2="effect1_dropShadow_19312_20184" result="effect2_dropShadow_19312_20184"/>
<feBlend mode="normal" in="SourceGraphic" in2="effect2_dropShadow_19312_20184" result="shape"/>
</filter>
<linearGradient id="paint0_linear_19312_20184" x1="231" y1="1" x2="231" y2="217" gradientUnits="userSpaceOnUse">
<stop stop-color="white" stop-opacity="0.4"/>
<stop offset="1" stop-opacity="0.1"/>
</linearGradient>
<linearGradient id="paint1_linear_19312_20184" x1="42" y1="86" x2="42" y2="106" gradientUnits="userSpaceOnUse">
<stop stop-color="white" stop-opacity="0.4"/>
<stop offset="1" stop-opacity="0.1"/>
</linearGradient>
<linearGradient id="paint2_linear_19312_20184" x1="42" y1="107" x2="42" y2="127" gradientUnits="userSpaceOnUse">
<stop stop-color="white" stop-opacity="0.4"/>
<stop offset="1" stop-opacity="0.1"/>
</linearGradient>
<linearGradient id="paint3_linear_19312_20184" x1="42" y1="128" x2="42" y2="148" gradientUnits="userSpaceOnUse">
<stop stop-color="white" stop-opacity="0.4"/>
<stop offset="1" stop-opacity="0.1"/>
</linearGradient>
<linearGradient id="paint4_linear_19312_20184" x1="42" y1="149" x2="42" y2="169" gradientUnits="userSpaceOnUse">
<stop stop-color="white" stop-opacity="0.4"/>
<stop offset="1" stop-opacity="0.1"/>
</linearGradient>
<linearGradient id="paint5_linear_19312_20184" x1="80" y1="107" x2="80" y2="127" gradientUnits="userSpaceOnUse">
<stop stop-color="white" stop-opacity="0.4"/>
<stop offset="1" stop-opacity="0.1"/>
</linearGradient>
<linearGradient id="paint6_linear_19312_20184" x1="80" y1="128" x2="80" y2="148" gradientUnits="userSpaceOnUse">
<stop stop-color="white" stop-opacity="0.4"/>
<stop offset="1" stop-opacity="0.1"/>
</linearGradient>
<linearGradient id="paint7_linear_19312_20184" x1="80" y1="149" x2="80" y2="169" gradientUnits="userSpaceOnUse">
<stop stop-color="white" stop-opacity="0.4"/>
<stop offset="1" stop-opacity="0.1"/>
</linearGradient>
<linearGradient id="paint8_linear_19312_20184" x1="118" y1="149" x2="118" y2="169" gradientUnits="userSpaceOnUse">
<stop stop-color="white" stop-opacity="0.4"/>
<stop offset="1" stop-opacity="0.1"/>
</linearGradient>
<linearGradient id="paint9_linear_19312_20184" x1="156" y1="128" x2="156" y2="148" gradientUnits="userSpaceOnUse">
<stop stop-color="white" stop-opacity="0.4"/>
<stop offset="1" stop-opacity="0.1"/>
</linearGradient>
<linearGradient id="paint10_linear_19312_20184" x1="156" y1="149" x2="156" y2="169" gradientUnits="userSpaceOnUse">
<stop stop-color="white" stop-opacity="0.4"/>
<stop offset="1" stop-opacity="0.1"/>
</linearGradient>
<linearGradient id="paint11_linear_19312_20184" x1="194" y1="86" x2="194" y2="106" gradientUnits="userSpaceOnUse">
<stop stop-color="white" stop-opacity="0.4"/>
<stop offset="1" stop-opacity="0.1"/>
</linearGradient>
<linearGradient id="paint12_linear_19312_20184" x1="194" y1="107" x2="194" y2="127" gradientUnits="userSpaceOnUse">
<stop stop-color="white" stop-opacity="0.4"/>
<stop offset="1" stop-opacity="0.1"/>
</linearGradient>
<linearGradient id="paint13_linear_19312_20184" x1="194" y1="128" x2="194" y2="148" gradientUnits="userSpaceOnUse">
<stop stop-color="white" stop-opacity="0.4"/>
<stop offset="1" stop-opacity="0.1"/>
</linearGradient>
<linearGradient id="paint14_linear_19312_20184" x1="194" y1="149" x2="194" y2="169" gradientUnits="userSpaceOnUse">
<stop stop-color="white" stop-opacity="0.4"/>
<stop offset="1" stop-opacity="0.1"/>
</linearGradient>
<linearGradient id="paint15_linear_19312_20184" x1="232" y1="86" x2="232" y2="106" gradientUnits="userSpaceOnUse">
<stop stop-color="white" stop-opacity="0.4"/>
<stop offset="1" stop-opacity="0.1"/>
</linearGradient>
<linearGradient id="paint16_linear_19312_20184" x1="232" y1="107" x2="232" y2="127" gradientUnits="userSpaceOnUse">
<stop stop-color="white" stop-opacity="0.4"/>
<stop offset="1" stop-opacity="0.1"/>
</linearGradient>
<linearGradient id="paint17_linear_19312_20184" x1="232" y1="128" x2="232" y2="148" gradientUnits="userSpaceOnUse">
<stop stop-color="white" stop-opacity="0.4"/>
<stop offset="1" stop-opacity="0.1"/>
</linearGradient>
<linearGradient id="paint18_linear_19312_20184" x1="232" y1="149" x2="232" y2="169" gradientUnits="userSpaceOnUse">
<stop stop-color="white" stop-opacity="0.4"/>
<stop offset="1" stop-opacity="0.1"/>
</linearGradient>
<linearGradient id="paint19_linear_19312_20184" x1="270" y1="107" x2="270" y2="127" gradientUnits="userSpaceOnUse">
<stop stop-color="white" stop-opacity="0.4"/>
<stop offset="1" stop-opacity="0.1"/>
</linearGradient>
<linearGradient id="paint20_linear_19312_20184" x1="270" y1="128" x2="270" y2="148" gradientUnits="userSpaceOnUse">
<stop stop-color="white" stop-opacity="0.4"/>
<stop offset="1" stop-opacity="0.1"/>
</linearGradient>
<linearGradient id="paint21_linear_19312_20184" x1="270" y1="149" x2="270" y2="169" gradientUnits="userSpaceOnUse">
<stop stop-color="white" stop-opacity="0.4"/>
<stop offset="1" stop-opacity="0.1"/>
</linearGradient>
<linearGradient id="paint22_linear_19312_20184" x1="308" y1="65" x2="308" y2="85" gradientUnits="userSpaceOnUse">
<stop stop-color="white" stop-opacity="0.4"/>
<stop offset="1" stop-opacity="0.1"/>
</linearGradient>
<linearGradient id="paint23_linear_19312_20184" x1="308" y1="86" x2="308" y2="106" gradientUnits="userSpaceOnUse">
<stop stop-color="white" stop-opacity="0.4"/>
<stop offset="1" stop-opacity="0.1"/>
</linearGradient>
<linearGradient id="paint24_linear_19312_20184" x1="308" y1="107" x2="308" y2="127" gradientUnits="userSpaceOnUse">
<stop stop-color="white" stop-opacity="0.4"/>
<stop offset="1" stop-opacity="0.1"/>
</linearGradient>
<linearGradient id="paint25_linear_19312_20184" x1="308" y1="128" x2="308" y2="148" gradientUnits="userSpaceOnUse">
<stop stop-color="white" stop-opacity="0.4"/>
<stop offset="1" stop-opacity="0.1"/>
</linearGradient>
<linearGradient id="paint26_linear_19312_20184" x1="308" y1="149" x2="308" y2="169" gradientUnits="userSpaceOnUse">
<stop stop-color="white" stop-opacity="0.4"/>
<stop offset="1" stop-opacity="0.1"/>
</linearGradient>
</defs>
</svg>
