<svg width="432" height="216" viewBox="0 0 432 216" fill="none" xmlns="http://www.w3.org/2000/svg">
<path d="M0 20C0 8.95431 8.95431 0 20 0H196C207.046 0 216 8.95431 216 20V196C216 207.046 207.046 216 196 216H20C8.95431 216 0 207.046 0 196V20Z" fill="white"/>
<path d="M20 0.5H196C206.77 0.500001 215.5 9.23045 215.5 20V196C215.5 206.77 206.77 215.5 196 215.5H20C9.23045 215.5 0.500001 206.77 0.5 196V20C0.500001 9.23045 9.23045 0.500001 20 0.5Z" stroke="url(#paint0_linear_19312_20171)" stroke-opacity="0.4"/>
<path d="M25.8333 34.3091L26.517 35.9321C26.7562 36.4999 27.5683 36.4685 27.7633 35.884L28.6065 33.3556C28.8116 32.7405 29.6813 32.7488 29.8748 33.3676L31.9584 40.0312C32.1613 40.6801 33.0874 40.6466 33.2432 39.9848L35.5903 30.0153C35.7432 29.3658 36.6454 29.3166 36.8675 29.9456L38.1666 33.6243" stroke="#646568" stroke-width="1.5" stroke-linecap="round" stroke-linejoin="round"/>
<path d="M45.28 41V29.64H52.88V31.448H46.224L47.36 30.28V35.496L46.224 34.552H52.592V36.344H46.224L47.36 35.4V41H45.28ZM58.0039 41.192C57.1612 41.192 56.4199 41.0107 55.7799 40.648C55.1505 40.2747 54.6599 39.752 54.3079 39.08C53.9665 38.408 53.7959 37.624 53.7959 36.728C53.7959 35.8213 53.9665 35.0373 54.3079 34.376C54.6599 33.704 55.1505 33.1867 55.7799 32.824C56.4199 32.4507 57.1612 32.264 58.0039 32.264C58.8465 32.264 59.5825 32.4507 60.2119 32.824C60.8412 33.1867 61.3265 33.704 61.6679 34.376C62.0199 35.0373 62.1959 35.8213 62.1959 36.728C62.1959 37.624 62.0199 38.408 61.6679 39.08C61.3265 39.752 60.8412 40.2747 60.2119 40.648C59.5825 41.0107 58.8465 41.192 58.0039 41.192ZM58.0039 39.528C58.6652 39.528 59.1719 39.2827 59.5239 38.792C59.8865 38.3013 60.0679 37.6133 60.0679 36.728C60.0679 35.8533 59.8865 35.1707 59.5239 34.68C59.1719 34.1787 58.6652 33.928 58.0039 33.928C57.3425 33.928 56.8305 34.1787 56.4679 34.68C56.1052 35.1707 55.9239 35.8533 55.9239 36.728C55.9239 37.6133 56.1052 38.3013 56.4679 38.792C56.8305 39.2827 57.3425 39.528 58.0039 39.528ZM63.7763 41V32.456H65.6963L65.7763 34.824L65.6003 34.792C65.7283 33.9707 65.9683 33.3787 66.3203 33.016C66.6829 32.6427 67.1736 32.456 67.7923 32.456H68.5763V34.216H67.7763C67.3389 34.216 66.9763 34.28 66.6883 34.408C66.4003 34.536 66.1816 34.7387 66.0323 35.016C65.8936 35.2827 65.8243 35.6347 65.8243 36.072V41H63.7763ZM73.1378 41C72.2844 41 71.6551 40.8027 71.2498 40.408C70.8551 40.0133 70.6578 39.3947 70.6578 38.552V30.456H72.7057V38.36C72.7057 38.7547 72.7911 39.032 72.9618 39.192C73.1324 39.3413 73.3991 39.416 73.7618 39.416H74.9618V41H73.1378ZM69.3138 34.04V32.456H74.9618V34.04H69.3138ZM79.7951 41.192C78.9311 41.192 78.2111 41.0693 77.6351 40.824C77.0698 40.5787 76.6378 40.2373 76.3391 39.8C76.0405 39.3627 75.8698 38.8667 75.8271 38.312L77.9231 38.216C77.9978 38.664 78.1791 39.0107 78.4671 39.256C78.7551 39.5013 79.2031 39.624 79.8111 39.624C80.2911 39.624 80.6538 39.5493 80.8991 39.4C81.1551 39.24 81.2831 38.9947 81.2831 38.664C81.2831 38.472 81.2351 38.312 81.1391 38.184C81.0538 38.056 80.8778 37.944 80.6111 37.848C80.3551 37.752 79.9765 37.656 79.4751 37.56C78.6111 37.4107 77.9338 37.2293 77.4431 37.016C76.9525 36.792 76.6058 36.5147 76.4031 36.184C76.2111 35.8533 76.1151 35.4427 76.1151 34.952C76.1151 34.152 76.4191 33.5067 77.0271 33.016C77.6458 32.5147 78.5471 32.264 79.7311 32.264C80.5525 32.264 81.2245 32.3973 81.7471 32.664C82.2805 32.92 82.6805 33.2667 82.9471 33.704C83.2245 34.1307 83.3845 34.6107 83.4271 35.144L81.3471 35.24C81.3365 34.9733 81.2725 34.7333 81.1551 34.52C81.0378 34.3067 80.8618 34.1413 80.6271 34.024C80.3925 33.896 80.0831 33.832 79.6991 33.832C79.2191 33.832 78.8511 33.928 78.5951 34.12C78.3498 34.312 78.2271 34.568 78.2271 34.888C78.2271 35.112 78.2751 35.2987 78.3711 35.448C78.4778 35.5973 78.6538 35.72 78.8991 35.816C79.1445 35.9013 79.4805 35.9813 79.9071 36.056C80.7818 36.184 81.4751 36.36 81.9871 36.584C82.4991 36.808 82.8618 37.0907 83.0751 37.432C83.2991 37.7627 83.4111 38.1627 83.4111 38.632C83.4111 39.4533 83.0805 40.088 82.4191 40.536C81.7685 40.9733 80.8938 41.192 79.7951 41.192ZM88.7226 41.192C87.8693 41.192 87.128 41.0107 86.4986 40.648C85.8693 40.2747 85.3786 39.752 85.0266 39.08C84.6853 38.408 84.5146 37.624 84.5146 36.728C84.5146 35.832 84.6853 35.0533 85.0266 34.392C85.3786 33.72 85.8693 33.1973 86.4986 32.824C87.128 32.4507 87.8693 32.264 88.7226 32.264C89.448 32.264 90.0933 32.392 90.6586 32.648C91.224 32.904 91.6826 33.272 92.0346 33.752C92.3973 34.2213 92.6213 34.7973 92.7066 35.48L90.5946 35.592C90.5093 35.048 90.296 34.6373 89.9546 34.36C89.624 34.072 89.2133 33.928 88.7226 33.928C88.0613 33.928 87.5493 34.1787 87.1866 34.68C86.824 35.1707 86.6426 35.8533 86.6426 36.728C86.6426 37.6133 86.824 38.3013 87.1866 38.792C87.5493 39.2827 88.0613 39.528 88.7226 39.528C89.224 39.528 89.64 39.384 89.9706 39.096C90.312 38.808 90.52 38.36 90.5946 37.752L92.7066 37.848C92.6213 38.5307 92.4026 39.1227 92.0506 39.624C91.6986 40.1253 91.24 40.5147 90.6746 40.792C90.1093 41.0587 89.4586 41.192 88.7226 41.192ZM94.1356 41V29.64H96.1836V34.408H95.9276C96.013 33.9173 96.1836 33.5173 96.4396 33.208C96.6956 32.888 97.0103 32.6533 97.3836 32.504C97.757 32.344 98.1676 32.264 98.6156 32.264C99.245 32.264 99.773 32.4027 100.2 32.68C100.637 32.9467 100.962 33.3253 101.176 33.816C101.4 34.3067 101.512 34.872 101.512 35.512V41H99.4636V36.008C99.4636 35.3147 99.3463 34.7973 99.1116 34.456C98.877 34.104 98.509 33.928 98.0076 33.928C97.453 33.928 97.0103 34.1093 96.6796 34.472C96.349 34.8347 96.1836 35.3627 96.1836 36.056V41H94.1356ZM103.495 41V32.456H105.415L105.495 34.824L105.319 34.792C105.447 33.9707 105.687 33.3787 106.039 33.016C106.402 32.6427 106.892 32.456 107.511 32.456H108.295V34.216H107.495C107.058 34.216 106.695 34.28 106.407 34.408C106.119 34.536 105.9 34.7387 105.751 35.016C105.612 35.2827 105.543 35.6347 105.543 36.072V41H103.495ZM109.62 41V32.456H111.668V41H109.62ZM109.588 31.32V29.496H111.716V31.32H109.588ZM116.81 41C115.956 41 115.327 40.8027 114.922 40.408C114.527 40.0133 114.33 39.3947 114.33 38.552V30.456H116.378V38.36C116.378 38.7547 116.463 39.032 116.634 39.192C116.804 39.3413 117.071 39.416 117.434 39.416H118.634V41H116.81ZM112.986 34.04V32.456H118.634V34.04H112.986ZM122.314 41C121.46 41 120.831 40.8027 120.426 40.408C120.031 40.0133 119.834 39.3947 119.834 38.552V30.456H121.882V38.36C121.882 38.7547 121.967 39.032 122.138 39.192C122.308 39.3413 122.575 39.416 122.938 39.416H124.138V41H122.314ZM118.49 34.04V32.456H124.138V34.04H118.49Z" fill="#252629"/>
<mask id="mask0_19312_20171" style="mask-type:alpha" maskUnits="userSpaceOnUse" x="64" y="76" width="88" height="88">
<path d="M64 76H152V164H64V76Z" fill="#D9D9D9"/>
</mask>
<g mask="url(#mask0_19312_20171)">
<path d="M128.421 81.7416C119.362 76.889 108.867 75.3933 98.8057 77.5189C88.7438 79.6446 79.7626 85.2553 73.4629 93.3568C72.1068 95.1007 72.4211 97.614 74.165 98.9701C75.909 100.326 78.4214 100.011 79.7774 98.2669C84.9128 91.6628 92.241 87.0822 100.459 85.346C108.677 83.6098 117.248 84.8321 124.644 88.7933C132.038 92.7543 137.775 99.1956 140.839 106.965C143.902 114.734 144.095 123.332 141.383 131.229C138.671 139.126 133.228 145.814 126.019 150.099C118.809 154.384 110.302 155.986 102.014 154.616C93.7257 153.246 86.1992 148.995 80.7725 142.624C79.3399 140.943 76.8154 140.741 75.1338 142.173C73.4522 143.606 73.2503 146.13 74.6826 147.812C81.3387 155.625 90.5623 160.832 100.709 162.509C110.855 164.186 121.272 162.227 130.105 156.977C138.939 151.727 145.619 143.525 148.949 133.827C152.279 124.13 152.043 113.57 148.281 104.031C144.52 94.4914 137.48 86.5944 128.421 81.7416Z" fill="#EDEDED"/>
<path d="M65.597 110.949C67.7782 100.906 73.4453 91.9473 81.5884 85.6668C89.7316 79.3862 99.8269 76.1882 110.079 76.6467C112.286 76.7454 113.995 78.6145 113.897 80.8214C113.798 83.0281 111.929 84.7362 109.722 84.6376C101.364 84.2639 93.1253 86.8716 86.4743 92.0013C79.823 97.1313 75.195 104.448 73.4145 112.646C71.6341 120.844 72.8167 129.388 76.7443 136.759C80.6717 144.129 87.0914 149.851 94.8613 152.908C102.632 155.965 111.252 156.159 119.189 153.45C127.127 150.741 133.862 145.304 138.195 138.107C142.527 130.909 144.172 122.423 142.842 114.161C142.491 111.98 143.974 109.927 146.155 109.576C148.336 109.225 150.389 110.709 150.74 112.89C152.371 123.023 150.353 133.421 145.049 142.232C139.746 151.044 131.499 157.702 121.774 161.022C112.049 164.341 101.474 164.107 91.9325 160.353C82.391 156.599 74.5065 149.571 69.684 140.521C64.8618 131.472 63.4158 120.992 65.597 110.949Z" fill="#2CB1AF"/>
<path d="M115.068 121.144C114.321 121.144 113.702 120.909 113.212 120.44C112.721 119.971 112.476 119.267 112.476 118.328C112.476 117.389 112.721 116.685 113.212 116.216C113.702 115.747 114.321 115.512 115.068 115.512C115.825 115.512 116.444 115.747 116.924 116.216C117.414 116.685 117.66 117.389 117.66 118.328C117.66 119.267 117.414 119.971 116.924 120.44C116.444 120.909 115.825 121.144 115.068 121.144ZM115.068 119.992C115.441 119.992 115.718 119.853 115.9 119.576C116.092 119.288 116.188 118.872 116.188 118.328C116.188 117.784 116.092 117.373 115.9 117.096C115.718 116.808 115.441 116.664 115.068 116.664C114.705 116.664 114.428 116.808 114.236 117.096C114.044 117.373 113.948 117.784 113.948 118.328C113.948 118.872 114.044 119.288 114.236 119.576C114.428 119.853 114.705 119.992 115.068 119.992ZM121.724 127.128C120.977 127.128 120.358 126.893 119.868 126.424C119.377 125.955 119.132 125.251 119.132 124.312C119.132 123.373 119.377 122.669 119.868 122.2C120.358 121.731 120.977 121.496 121.724 121.496C122.481 121.496 123.1 121.731 123.58 122.2C124.06 122.669 124.3 123.373 124.3 124.312C124.3 125.251 124.06 125.955 123.58 126.424C123.1 126.893 122.481 127.128 121.724 127.128ZM121.724 125.976C122.097 125.976 122.374 125.837 122.556 125.56C122.748 125.272 122.844 124.856 122.844 124.312C122.844 123.768 122.748 123.357 122.556 123.08C122.374 122.792 122.097 122.648 121.724 122.648C121.361 122.648 121.084 122.792 120.892 123.08C120.7 123.357 120.604 123.768 120.604 124.312C120.604 124.856 120.7 125.272 120.892 125.56C121.084 125.837 121.361 125.976 121.724 125.976ZM113.868 127L121.516 115.64H122.924L115.276 127H113.868Z" fill="#646568"/>
<path d="M106.568 127.256C105.682 127.256 104.93 127.117 104.312 126.84C103.693 126.563 103.213 126.179 102.872 125.688C102.53 125.187 102.328 124.605 102.264 123.944L104.392 123.832C104.477 124.365 104.712 124.765 105.096 125.032C105.48 125.299 105.97 125.432 106.568 125.432C107.261 125.432 107.8 125.245 108.184 124.872C108.578 124.488 108.776 123.949 108.776 123.256C108.776 122.819 108.685 122.435 108.504 122.104C108.333 121.773 108.082 121.517 107.752 121.336C107.421 121.155 107.021 121.064 106.552 121.064C106.072 121.064 105.65 121.171 105.288 121.384C104.936 121.587 104.68 121.859 104.52 122.2H102.408L103.192 115.64H110.152V117.448H105L104.552 121.064L104.28 120.824C104.45 120.525 104.674 120.275 104.952 120.072C105.229 119.859 105.549 119.699 105.912 119.592C106.285 119.485 106.685 119.432 107.112 119.432C107.88 119.432 108.546 119.597 109.112 119.928C109.688 120.259 110.13 120.712 110.44 121.288C110.76 121.864 110.92 122.52 110.92 123.256C110.92 124.056 110.738 124.76 110.376 125.368C110.024 125.965 109.517 126.429 108.856 126.76C108.205 127.091 107.442 127.256 106.568 127.256Z" fill="#646568"/>
<path d="M96.2067 127.256C95.2894 127.256 94.4841 127.128 93.7907 126.872C93.1081 126.616 92.5747 126.243 92.1907 125.752C91.8174 125.251 91.6307 124.632 91.6307 123.896C91.6307 123.064 91.8867 122.376 92.3987 121.832C92.9214 121.277 93.6147 120.915 94.4787 120.744L94.5107 121.08C93.8067 120.92 93.2414 120.627 92.8147 120.2C92.3881 119.763 92.1747 119.197 92.1747 118.504C92.1747 117.896 92.3347 117.357 92.6547 116.888C92.9747 116.419 93.4334 116.051 94.0307 115.784C94.6387 115.517 95.3641 115.384 96.2067 115.384C97.0494 115.384 97.7694 115.517 98.3667 115.784C98.9747 116.051 99.4387 116.419 99.7587 116.888C100.079 117.357 100.239 117.896 100.239 118.504C100.239 119.197 100.025 119.757 99.5987 120.184C99.1827 120.611 98.6174 120.909 97.9027 121.08L97.9347 120.744C98.7987 120.915 99.4867 121.277 99.9987 121.832C100.521 122.376 100.783 123.064 100.783 123.896C100.783 124.632 100.591 125.251 100.207 125.752C99.8334 126.243 99.3054 126.616 98.6227 126.872C97.9401 127.128 97.1347 127.256 96.2067 127.256ZM96.2067 125.432C96.9427 125.432 97.5294 125.283 97.9667 124.984C98.4147 124.675 98.6387 124.221 98.6387 123.624C98.6387 123.059 98.4307 122.605 98.0147 122.264C97.6094 121.912 97.0067 121.736 96.2067 121.736C95.4174 121.736 94.8147 121.912 94.3987 122.264C93.9827 122.605 93.7747 123.059 93.7747 123.624C93.7747 124.221 93.9934 124.675 94.4307 124.984C94.8787 125.283 95.4707 125.432 96.2067 125.432ZM96.2067 120.184C96.8041 120.184 97.2681 120.061 97.5987 119.816C97.9294 119.56 98.0947 119.181 98.0947 118.68C98.0947 118.221 97.9347 117.859 97.6147 117.592C97.2947 117.325 96.8254 117.192 96.2067 117.192C95.5987 117.192 95.1294 117.325 94.7987 117.592C94.4787 117.859 94.3187 118.221 94.3187 118.68C94.3187 119.181 94.4841 119.56 94.8147 119.816C95.1454 120.061 95.6094 120.184 96.2067 120.184Z" fill="#646568"/>
</g>
<path d="M159 120C159 91.8335 136.167 69 108 69C79.8335 69 57 91.8335 57 120C57 148.167 79.8335 171 108 171V187C70.9969 187 41 157.003 41 120C41 82.9969 70.9969 53 108 53C145.003 53 175 82.9969 175 120C175 157.003 145.003 187 108 187V171C136.167 171 159 148.167 159 120Z" fill="#D0D0D3" fill-opacity="0.1"/>
<path d="M182 120C182 79.1309 148.869 46 108 46C67.1309 46 34 79.1309 34 120C34 160.869 67.1309 194 108 194V210C58.2944 210 18 169.706 18 120C18 70.2944 58.2944 30 108 30C157.706 30 198 70.2944 198 120C198 169.706 157.706 210 108 210V194C148.869 194 182 160.869 182 120Z" fill="#D0D0D3" fill-opacity="0.05"/>
<defs>
<linearGradient id="paint0_linear_19312_20171" x1="108" y1="0" x2="108" y2="216" gradientUnits="userSpaceOnUse">
<stop stop-color="white" stop-opacity="0.4"/>
<stop offset="1" stop-opacity="0.1"/>
</linearGradient>
</defs>
</svg>
