<svg width="432" height="134" viewBox="0 0 432 134" fill="none" xmlns="http://www.w3.org/2000/svg">
<mask id="path-1-inside-1_19312_20326" fill="white">
<path d="M0 20C0 8.9543 8.95431 0 20 0H412C423.046 0 432 8.9543 432 20V114C432 125.046 423.046 134 412 134H20C8.95431 134 0 125.046 0 114V20Z"/>
</mask>
<path d="M0 20C0 8.9543 8.95431 0 20 0H412C423.046 0 432 8.9543 432 20V114C432 125.046 423.046 134 412 134H20C8.95431 134 0 125.046 0 114V20Z" fill="white"/>
<path d="M20 0V1H412V0V-1H20V0ZM432 20H431V114H432H433V20H432ZM412 134V133H20V134V135H412V134ZM0 114H1V20H0H-1V114H0ZM20 134V133C9.50659 133 1 124.493 1 114H0H-1C-1 125.598 8.40202 135 20 135V134ZM432 114H431C431 124.493 422.493 133 412 133V134V135C423.598 135 433 125.598 433 114H432ZM412 0V1C422.493 1 431 9.50659 431 20H432H433C433 8.40202 423.598 -1 412 -1V0ZM20 0V-1C8.40202 -1 -1 8.40202 -1 20H0H1C1 9.50659 9.50659 1 20 1V0Z" fill="#FAFAFA" mask="url(#path-1-inside-1_19312_20326)"/>
<path d="M27.632 41L24.592 29.64H26.784L28.864 38.12L30.96 29.64H32.896L34.992 38.12L37.056 29.64H39.264L36.224 41H33.92L31.936 33.224L29.952 41H27.632ZM42.5844 41.192C41.6884 41.192 40.9684 40.9893 40.4244 40.584C39.8804 40.168 39.6084 39.592 39.6084 38.856C39.6084 38.12 39.8377 37.544 40.2964 37.128C40.755 36.712 41.4537 36.4133 42.3924 36.232L45.2244 35.672C45.2244 35.064 45.0857 34.6107 44.8084 34.312C44.531 34.0027 44.1204 33.848 43.5764 33.848C43.0857 33.848 42.6964 33.9653 42.4084 34.2C42.131 34.424 41.939 34.7493 41.8324 35.176L39.7524 35.08C39.923 34.1733 40.339 33.48 41.0004 33C41.6617 32.5093 42.5204 32.264 43.5764 32.264C44.7924 32.264 45.7097 32.5733 46.3284 33.192C46.9577 33.8 47.2724 34.6747 47.2724 35.816V38.92C47.2724 39.144 47.3097 39.2987 47.3844 39.384C47.4697 39.4693 47.5924 39.512 47.7524 39.512H48.0244V41C47.9604 41.0213 47.8537 41.0373 47.7044 41.048C47.5657 41.0587 47.4217 41.064 47.2724 41.064C46.9204 41.064 46.6057 41.0107 46.3284 40.904C46.051 40.7867 45.8377 40.5893 45.6884 40.312C45.539 40.024 45.4644 39.6347 45.4644 39.144L45.6404 39.272C45.555 39.6453 45.3684 39.9813 45.0804 40.28C44.803 40.568 44.451 40.792 44.0244 40.952C43.5977 41.112 43.1177 41.192 42.5844 41.192ZM43.0004 39.704C43.459 39.704 43.8537 39.6133 44.1844 39.432C44.515 39.2507 44.771 39 44.9524 38.68C45.1337 38.36 45.2244 37.9813 45.2244 37.544V37.064L43.0164 37.512C42.5577 37.608 42.227 37.752 42.0244 37.944C41.8324 38.1253 41.7364 38.3653 41.7364 38.664C41.7364 38.9947 41.843 39.2507 42.0564 39.432C42.2804 39.6133 42.595 39.704 43.0004 39.704ZM52.7326 41.192C51.8686 41.192 51.1486 41.0693 50.5726 40.824C50.0073 40.5787 49.5753 40.2373 49.2766 39.8C48.978 39.3627 48.8073 38.8667 48.7646 38.312L50.8606 38.216C50.9353 38.664 51.1166 39.0107 51.4046 39.256C51.6926 39.5013 52.1406 39.624 52.7486 39.624C53.2286 39.624 53.5913 39.5493 53.8366 39.4C54.0926 39.24 54.2206 38.9947 54.2206 38.664C54.2206 38.472 54.1726 38.312 54.0766 38.184C53.9913 38.056 53.8153 37.944 53.5486 37.848C53.2926 37.752 52.914 37.656 52.4126 37.56C51.5486 37.4107 50.8713 37.2293 50.3806 37.016C49.89 36.792 49.5433 36.5147 49.3406 36.184C49.1486 35.8533 49.0526 35.4427 49.0526 34.952C49.0526 34.152 49.3566 33.5067 49.9646 33.016C50.5833 32.5147 51.4846 32.264 52.6686 32.264C53.49 32.264 54.162 32.3973 54.6846 32.664C55.218 32.92 55.618 33.2667 55.8846 33.704C56.162 34.1307 56.322 34.6107 56.3646 35.144L54.2846 35.24C54.274 34.9733 54.21 34.7333 54.0926 34.52C53.9753 34.3067 53.7993 34.1413 53.5646 34.024C53.33 33.896 53.0206 33.832 52.6366 33.832C52.1566 33.832 51.7886 33.928 51.5326 34.12C51.2873 34.312 51.1646 34.568 51.1646 34.888C51.1646 35.112 51.2126 35.2987 51.3086 35.448C51.4153 35.5973 51.5913 35.72 51.8366 35.816C52.082 35.9013 52.418 35.9813 52.8446 36.056C53.7193 36.184 54.4126 36.36 54.9246 36.584C55.4366 36.808 55.7993 37.0907 56.0126 37.432C56.2366 37.7627 56.3486 38.1627 56.3486 38.632C56.3486 39.4533 56.018 40.088 55.3566 40.536C54.706 40.9733 53.8313 41.192 52.7326 41.192ZM63.6776 41L61.1016 32.456H63.1976L64.8616 38.68L66.5736 32.456H68.3656L70.0936 38.68L71.7576 32.456H73.8536L71.2776 41H69.1656L67.4696 35.272L65.7896 41H63.6776ZM75.1513 41V32.456H77.1993V41H75.1513ZM75.1193 31.32V29.496H77.2473V31.32H75.1193ZM81.3868 41C80.7681 41 80.2721 40.84 79.8988 40.52C79.5254 40.2 79.3388 39.688 79.3388 38.984V29.64H81.3868V38.776C81.3868 38.9893 81.4401 39.1493 81.5468 39.256C81.6641 39.3627 81.8241 39.416 82.0268 39.416H82.6508V41H81.3868ZM85.9805 41C85.3618 41 84.8658 40.84 84.4925 40.52C84.1192 40.2 83.9325 39.688 83.9325 38.984V29.64H85.9805V38.776C85.9805 38.9893 86.0338 39.1493 86.1405 39.256C86.2578 39.3627 86.4178 39.416 86.6205 39.416H87.2445V41H85.9805ZM92.0295 41.192C91.1655 41.192 90.4455 41.0693 89.8695 40.824C89.3042 40.5787 88.8722 40.2373 88.5735 39.8C88.2748 39.3627 88.1042 38.8667 88.0615 38.312L90.1575 38.216C90.2322 38.664 90.4135 39.0107 90.7015 39.256C90.9895 39.5013 91.4375 39.624 92.0455 39.624C92.5255 39.624 92.8882 39.5493 93.1335 39.4C93.3895 39.24 93.5175 38.9947 93.5175 38.664C93.5175 38.472 93.4695 38.312 93.3735 38.184C93.2882 38.056 93.1122 37.944 92.8455 37.848C92.5895 37.752 92.2108 37.656 91.7095 37.56C90.8455 37.4107 90.1682 37.2293 89.6775 37.016C89.1868 36.792 88.8402 36.5147 88.6375 36.184C88.4455 35.8533 88.3495 35.4427 88.3495 34.952C88.3495 34.152 88.6535 33.5067 89.2615 33.016C89.8802 32.5147 90.7815 32.264 91.9655 32.264C92.7868 32.264 93.4588 32.3973 93.9815 32.664C94.5148 32.92 94.9148 33.2667 95.1815 33.704C95.4588 34.1307 95.6188 34.6107 95.6615 35.144L93.5815 35.24C93.5708 34.9733 93.5068 34.7333 93.3895 34.52C93.2722 34.3067 93.0962 34.1413 92.8615 34.024C92.6268 33.896 92.3175 33.832 91.9335 33.832C91.4535 33.832 91.0855 33.928 90.8295 34.12C90.5842 34.312 90.4615 34.568 90.4615 34.888C90.4615 35.112 90.5095 35.2987 90.6055 35.448C90.7122 35.5973 90.8882 35.72 91.1335 35.816C91.3788 35.9013 91.7148 35.9813 92.1415 36.056C93.0162 36.184 93.7095 36.36 94.2215 36.584C94.7335 36.808 95.0962 37.0907 95.3095 37.432C95.5335 37.7627 95.6455 38.1627 95.6455 38.632C95.6455 39.4533 95.3148 40.088 94.6535 40.536C94.0028 40.9733 93.1282 41.192 92.0295 41.192ZM100.372 41C99.5188 41 98.8895 40.8027 98.4841 40.408C98.0895 40.0133 97.8921 39.3947 97.8921 38.552V30.456H99.9401V38.36C99.9401 38.7547 100.025 39.032 100.196 39.192C100.367 39.3413 100.633 39.416 100.996 39.416H102.196V41H100.372ZM96.5481 34.04V32.456H102.196V34.04H96.5481ZM110.598 41.192C109.872 41.192 109.243 41.0107 108.71 40.648C108.187 40.2853 107.782 39.768 107.493 39.096C107.206 38.424 107.062 37.6347 107.062 36.728C107.062 35.8213 107.206 35.032 107.493 34.36C107.782 33.688 108.192 33.1707 108.726 32.808C109.259 32.4453 109.883 32.264 110.598 32.264C111.195 32.264 111.718 32.3867 112.166 32.632C112.624 32.8773 112.971 33.224 113.206 33.672V29.64H115.253V41H113.302L113.254 39.736C113.019 40.1947 112.667 40.552 112.198 40.808C111.728 41.064 111.195 41.192 110.598 41.192ZM111.222 39.528C111.648 39.528 112.006 39.4213 112.294 39.208C112.592 38.9947 112.816 38.68 112.966 38.264C113.126 37.8373 113.206 37.3253 113.206 36.728C113.206 36.12 113.126 35.608 112.966 35.192C112.816 34.776 112.592 34.4613 112.294 34.248C112.006 34.0347 111.648 33.928 111.222 33.928C110.603 33.928 110.107 34.1787 109.734 34.68C109.371 35.1707 109.19 35.8533 109.19 36.728C109.19 37.5813 109.371 38.264 109.734 38.776C110.107 39.2773 110.603 39.528 111.222 39.528ZM120.03 41.192C119.166 41.192 118.478 40.9093 117.966 40.344C117.464 39.768 117.214 38.9733 117.214 37.96V32.456H119.262V37.448C119.262 38.1627 119.379 38.6907 119.614 39.032C119.859 39.3627 120.227 39.528 120.718 39.528C121.272 39.528 121.699 39.3467 121.998 38.984C122.307 38.6107 122.462 38.072 122.462 37.368V32.456H124.51V41H122.638L122.59 38.648L122.846 38.728C122.718 39.5387 122.414 40.152 121.934 40.568C121.454 40.984 120.819 41.192 120.03 41.192ZM134.238 41.192C133.385 41.192 132.643 41.0107 132.014 40.648C131.385 40.2747 130.899 39.752 130.558 39.08C130.217 38.408 130.046 37.624 130.046 36.728C130.046 35.832 130.217 35.0533 130.558 34.392C130.899 33.72 131.379 33.1973 131.998 32.824C132.627 32.4507 133.358 32.264 134.19 32.264C135.001 32.264 135.71 32.4453 136.318 32.808C136.937 33.1707 137.411 33.6933 137.742 34.376C138.073 35.0587 138.238 35.88 138.238 36.84V37.304H132.174C132.217 38.0507 132.419 38.616 132.782 39C133.155 39.3733 133.646 39.56 134.254 39.56C134.713 39.56 135.091 39.4587 135.39 39.256C135.699 39.0427 135.913 38.7493 136.03 38.376L138.126 38.504C137.891 39.336 137.427 39.992 136.734 40.472C136.051 40.952 135.219 41.192 134.238 41.192ZM132.174 35.928H136.126C136.083 35.2347 135.886 34.7227 135.534 34.392C135.182 34.0507 134.734 33.88 134.19 33.88C133.646 33.88 133.193 34.056 132.83 34.408C132.478 34.76 132.259 35.2667 132.174 35.928ZM139.839 41V32.456H141.759L141.839 34.824L141.663 34.792C141.791 33.9707 142.031 33.3787 142.383 33.016C142.745 32.6427 143.236 32.456 143.855 32.456H144.639V34.216H143.839C143.401 34.216 143.039 34.28 142.751 34.408C142.463 34.536 142.244 34.7387 142.095 35.016C141.956 35.2827 141.887 35.6347 141.887 36.072V41H139.839ZM145.87 41V32.456H147.79L147.87 34.824L147.694 34.792C147.822 33.9707 148.062 33.3787 148.414 33.016C148.777 32.6427 149.267 32.456 149.886 32.456H150.67V34.216H149.87C149.433 34.216 149.07 34.28 148.782 34.408C148.494 34.536 148.275 34.7387 148.126 35.016C147.987 35.2827 147.918 35.6347 147.918 36.072V41H145.87ZM155.472 41.192C154.619 41.192 153.878 41.0107 153.248 40.648C152.619 40.2747 152.134 39.752 151.792 39.08C151.451 38.408 151.28 37.624 151.28 36.728C151.28 35.832 151.451 35.0533 151.792 34.392C152.134 33.72 152.614 33.1973 153.232 32.824C153.862 32.4507 154.592 32.264 155.424 32.264C156.235 32.264 156.944 32.4453 157.552 32.808C158.171 33.1707 158.646 33.6933 158.976 34.376C159.307 35.0587 159.472 35.88 159.472 36.84V37.304H153.408C153.451 38.0507 153.654 38.616 154.016 39C154.39 39.3733 154.88 39.56 155.488 39.56C155.947 39.56 156.326 39.4587 156.624 39.256C156.934 39.0427 157.147 38.7493 157.264 38.376L159.36 38.504C159.126 39.336 158.662 39.992 157.968 40.472C157.286 40.952 156.454 41.192 155.472 41.192ZM153.408 35.928H157.36C157.318 35.2347 157.12 34.7227 156.768 34.392C156.416 34.0507 155.968 33.88 155.424 33.88C154.88 33.88 154.427 34.056 154.064 34.408C153.712 34.76 153.494 35.2667 153.408 35.928ZM161.073 41V32.456H163.121V41H161.073ZM161.041 31.32V29.496H163.169V31.32H161.041ZM168.926 41.192C168.072 41.192 167.331 41.0107 166.702 40.648C166.072 40.2747 165.582 39.752 165.23 39.08C164.888 38.408 164.718 37.624 164.718 36.728C164.718 35.832 164.888 35.0533 165.23 34.392C165.582 33.72 166.072 33.1973 166.702 32.824C167.331 32.4507 168.072 32.264 168.926 32.264C169.651 32.264 170.296 32.392 170.862 32.648C171.427 32.904 171.886 33.272 172.238 33.752C172.6 34.2213 172.824 34.7973 172.91 35.48L170.798 35.592C170.712 35.048 170.499 34.6373 170.158 34.36C169.827 34.072 169.416 33.928 168.926 33.928C168.264 33.928 167.752 34.1787 167.39 34.68C167.027 35.1707 166.846 35.8533 166.846 36.728C166.846 37.6133 167.027 38.3013 167.39 38.792C167.752 39.2827 168.264 39.528 168.926 39.528C169.427 39.528 169.843 39.384 170.174 39.096C170.515 38.808 170.723 38.36 170.798 37.752L172.91 37.848C172.824 38.5307 172.606 39.1227 172.254 39.624C171.902 40.1253 171.443 40.5147 170.878 40.792C170.312 41.0587 169.662 41.192 168.926 41.192ZM174.339 41V29.64H176.387V34.408H176.131C176.216 33.9173 176.387 33.5173 176.643 33.208C176.899 32.888 177.213 32.6533 177.587 32.504C177.96 32.344 178.371 32.264 178.819 32.264C179.448 32.264 179.976 32.4027 180.403 32.68C180.84 32.9467 181.165 33.3253 181.379 33.816C181.603 34.3067 181.715 34.872 181.715 35.512V41H179.667V36.008C179.667 35.3147 179.549 34.7973 179.315 34.456C179.08 34.104 178.712 33.928 178.211 33.928C177.656 33.928 177.213 34.1093 176.883 34.472C176.552 34.8347 176.387 35.3627 176.387 36.056V41H174.339ZM187.441 41.192C186.588 41.192 185.846 41.0107 185.217 40.648C184.588 40.2747 184.102 39.752 183.761 39.08C183.42 38.408 183.249 37.624 183.249 36.728C183.249 35.832 183.42 35.0533 183.761 34.392C184.102 33.72 184.582 33.1973 185.201 32.824C185.83 32.4507 186.561 32.264 187.393 32.264C188.204 32.264 188.913 32.4453 189.521 32.808C190.14 33.1707 190.614 33.6933 190.945 34.376C191.276 35.0587 191.441 35.88 191.441 36.84V37.304H185.377C185.42 38.0507 185.622 38.616 185.985 39C186.358 39.3733 186.849 39.56 187.457 39.56C187.916 39.56 188.294 39.4587 188.593 39.256C188.902 39.0427 189.116 38.7493 189.233 38.376L191.329 38.504C191.094 39.336 190.63 39.992 189.937 40.472C189.254 40.952 188.422 41.192 187.441 41.192ZM185.377 35.928H189.329C189.286 35.2347 189.089 34.7227 188.737 34.392C188.385 34.0507 187.937 33.88 187.393 33.88C186.849 33.88 186.396 34.056 186.033 34.408C185.681 34.76 185.462 35.2667 185.377 35.928ZM193.042 41V32.456H194.898L194.978 34.856L194.738 34.76C194.823 34.1627 194.999 33.6827 195.266 33.32C195.533 32.9573 195.858 32.6907 196.242 32.52C196.626 32.3493 197.047 32.264 197.506 32.264C198.135 32.264 198.663 32.4027 199.09 32.68C199.527 32.9573 199.858 33.3413 200.082 33.832C200.306 34.312 200.418 34.872 200.418 35.512V41H198.37V36.168C198.37 35.688 198.322 35.2827 198.226 34.952C198.13 34.6213 197.97 34.3707 197.746 34.2C197.533 34.0187 197.245 33.928 196.882 33.928C196.338 33.928 195.901 34.12 195.57 34.504C195.25 34.888 195.09 35.4427 195.09 36.168V41H193.042ZM204.787 37.528C204.787 36.7067 204.904 36.072 205.139 35.624C205.373 35.1653 205.779 34.7813 206.355 34.472C206.749 34.2587 207.048 34.072 207.251 33.912C207.453 33.7413 207.587 33.5653 207.651 33.384C207.725 33.192 207.763 32.9573 207.763 32.68C207.763 32.232 207.613 31.864 207.315 31.576C207.027 31.288 206.611 31.144 206.067 31.144C205.437 31.144 204.952 31.3093 204.611 31.64C204.269 31.9707 204.061 32.456 203.987 33.096L201.843 33C201.907 32.296 202.109 31.672 202.451 31.128C202.803 30.584 203.283 30.1573 203.891 29.848C204.499 29.5387 205.224 29.384 206.067 29.384C206.867 29.384 207.549 29.528 208.115 29.816C208.691 30.104 209.128 30.4987 209.427 31C209.725 31.4907 209.875 32.0507 209.875 32.68C209.875 33.1493 209.805 33.544 209.667 33.864C209.539 34.184 209.325 34.4773 209.027 34.744C208.739 35 208.36 35.272 207.891 35.56C207.485 35.7947 207.203 36.0507 207.043 36.328C206.893 36.6053 206.819 37.0053 206.819 37.528H204.787ZM204.611 41V38.76H206.947V41H204.611Z" fill="#252629"/>
<path d="M221.333 33.3333C221.333 32.597 221.93 32 222.667 32H223.39C224.095 32 224.667 32.5717 224.667 33.277C224.667 33.7255 224.431 34.1412 224.047 34.372L223.647 34.6116C223.246 34.8526 223 35.2866 223 35.7549V36.6667M223 38V38.0067M229.333 35C229.333 38.4978 226.498 41.3333 223 41.3333C219.502 41.3333 216.667 38.4978 216.667 35C216.667 31.5022 219.502 28.6667 223 28.6667C226.498 28.6667 229.333 31.5022 229.333 35Z" stroke="#2CB1AF" stroke-linecap="round" stroke-linejoin="round"/>
<mask id="path-5-inside-2_19312_20326" fill="white">
<path d="M24 74C24 67.3726 29.3726 62 36 62H396C402.627 62 408 67.3726 408 74V98C408 104.627 402.627 110 396 110H36C29.3726 110 24 104.627 24 98V74Z"/>
</mask>
<path d="M24 74C24 67.3726 29.3726 62 36 62H396C402.627 62 408 67.3726 408 74V98C408 104.627 402.627 110 396 110H36C29.3726 110 24 104.627 24 98V74Z" fill="#FAFAFA"/>
<path d="M36 62V63H396V62V61H36V62ZM408 74H407V98H408H409V74H408ZM396 110V109H36V110V111H396V110ZM24 98H25V74H24H23V98H24ZM36 110V109C29.9249 109 25 104.075 25 98H24H23C23 105.18 28.8203 111 36 111V110ZM408 98H407C407 104.075 402.075 109 396 109V110V111C403.18 111 409 105.18 409 98H408ZM396 62V63C402.075 63 407 67.9249 407 74H408H409C409 66.8203 403.18 61 396 61V62ZM36 62V61C28.8203 61 23 66.8203 23 74H24H25C25 67.9249 29.9249 63 36 63V62Z" fill="#EDEDED" mask="url(#path-5-inside-2_19312_20326)"/>
<path d="M61.25 86C61.25 91.1086 57.1086 95.25 52 95.25C46.8914 95.25 42.75 91.1086 42.75 86C42.75 80.8914 46.8914 76.75 52 76.75C57.1086 76.75 61.25 80.8914 61.25 86Z" stroke="#2CB1AF" stroke-width="1.5" stroke-linejoin="round"/>
<path d="M57 86C57 88.7614 54.7614 91 52 91C49.2386 91 47 88.7614 47 86C47 83.2386 49.2386 81 52 81C54.7614 81 57 83.2386 57 86Z" stroke="#2CB1AF" stroke-width="1.5" stroke-linejoin="round"/>
<path d="M52.75 86C52.75 86.4142 52.4142 86.75 52 86.75C51.5858 86.75 51.25 86.4142 51.25 86C51.25 85.5858 51.5858 85.25 52 85.25C52.4142 85.25 52.75 85.5858 52.75 86Z" stroke="#2CB1AF" stroke-width="1.5" stroke-linejoin="round"/>
<path d="M73.28 92V80.64H75.36V92H73.28ZM81.3164 92.192C80.463 92.192 79.7217 92.0107 79.0924 91.648C78.463 91.2747 77.9724 90.752 77.6204 90.08C77.279 89.408 77.1084 88.624 77.1084 87.728C77.1084 86.832 77.279 86.0533 77.6204 85.392C77.9724 84.72 78.463 84.1973 79.0924 83.824C79.7217 83.4507 80.463 83.264 81.3164 83.264C82.0417 83.264 82.687 83.392 83.2524 83.648C83.8177 83.904 84.2764 84.272 84.6284 84.752C84.991 85.2213 85.215 85.7973 85.3004 86.48L83.1884 86.592C83.103 86.048 82.8897 85.6373 82.5484 85.36C82.2177 85.072 81.807 84.928 81.3164 84.928C80.655 84.928 80.143 85.1787 79.7804 85.68C79.4177 86.1707 79.2364 86.8533 79.2364 87.728C79.2364 88.6133 79.4177 89.3013 79.7804 89.792C80.143 90.2827 80.655 90.528 81.3164 90.528C81.8177 90.528 82.2337 90.384 82.5644 90.096C82.9057 89.808 83.1137 89.36 83.1884 88.752L85.3004 88.848C85.215 89.5307 84.9964 90.1227 84.6444 90.624C84.2924 91.1253 83.8337 91.5147 83.2684 91.792C82.703 92.0587 82.0524 92.192 81.3164 92.192ZM86.7294 92V80.64H88.7774V85.408H88.5214C88.6067 84.9173 88.7774 84.5173 89.0334 84.208C89.2894 83.888 89.604 83.6533 89.9774 83.504C90.3507 83.344 90.7614 83.264 91.2094 83.264C91.8387 83.264 92.3667 83.4027 92.7934 83.68C93.2307 83.9467 93.556 84.3253 93.7694 84.816C93.9934 85.3067 94.1054 85.872 94.1054 86.512V92H92.0574V87.008C92.0574 86.3147 91.94 85.7973 91.7054 85.456C91.4707 85.104 91.1027 84.928 90.6014 84.928C90.0467 84.928 89.604 85.1093 89.2734 85.472C88.9427 85.8347 88.7774 86.3627 88.7774 87.056V92H86.7294ZM101.912 92L99.336 83.456H101.432L103.096 89.68L104.808 83.456H106.6L108.328 89.68L109.992 83.456H112.088L109.512 92H107.4L105.704 86.272L104.024 92H101.912ZM116.785 92.192C115.931 92.192 115.19 92.0107 114.561 91.648C113.931 91.2747 113.446 90.752 113.105 90.08C112.763 89.408 112.593 88.624 112.593 87.728C112.593 86.832 112.763 86.0533 113.105 85.392C113.446 84.72 113.926 84.1973 114.545 83.824C115.174 83.4507 115.905 83.264 116.737 83.264C117.547 83.264 118.257 83.4453 118.865 83.808C119.483 84.1707 119.958 84.6933 120.289 85.376C120.619 86.0587 120.785 86.88 120.785 87.84V88.304H114.721C114.763 89.0507 114.966 89.616 115.329 90C115.702 90.3733 116.193 90.56 116.801 90.56C117.259 90.56 117.638 90.4587 117.937 90.256C118.246 90.0427 118.459 89.7493 118.577 89.376L120.673 89.504C120.438 90.336 119.974 90.992 119.281 91.472C118.598 91.952 117.766 92.192 116.785 92.192ZM114.721 86.928H118.673C118.63 86.2347 118.433 85.7227 118.081 85.392C117.729 85.0507 117.281 84.88 116.737 84.88C116.193 84.88 115.739 85.056 115.377 85.408C115.025 85.76 114.806 86.2667 114.721 86.928ZM122.386 92V83.456H124.306L124.386 85.824L124.21 85.792C124.338 84.9707 124.578 84.3787 124.93 84.016C125.292 83.6427 125.783 83.456 126.402 83.456H127.186V85.216H126.386C125.948 85.216 125.586 85.28 125.298 85.408C125.01 85.536 124.791 85.7387 124.642 86.016C124.503 86.2827 124.434 86.6347 124.434 87.072V92H122.386ZM131.332 92.192C130.607 92.192 129.977 92.0107 129.444 91.648C128.921 91.2853 128.516 90.768 128.228 90.096C127.94 89.424 127.796 88.6347 127.796 87.728C127.796 86.8213 127.94 86.032 128.228 85.36C128.516 84.688 128.927 84.1707 129.46 83.808C129.993 83.4453 130.617 83.264 131.332 83.264C131.929 83.264 132.452 83.3867 132.9 83.632C133.359 83.8773 133.705 84.224 133.94 84.672V80.64H135.988V92H134.036L133.988 90.736C133.753 91.1947 133.401 91.552 132.932 91.808C132.463 92.064 131.929 92.192 131.332 92.192ZM131.956 90.528C132.383 90.528 132.74 90.4213 133.028 90.208C133.327 89.9947 133.551 89.68 133.7 89.264C133.86 88.8373 133.94 88.3253 133.94 87.728C133.94 87.12 133.86 86.608 133.7 86.192C133.551 85.776 133.327 85.4613 133.028 85.248C132.74 85.0347 132.383 84.928 131.956 84.928C131.337 84.928 130.841 85.1787 130.468 85.68C130.105 86.1707 129.924 86.8533 129.924 87.728C129.924 88.5813 130.105 89.264 130.468 89.776C130.841 90.2773 131.337 90.528 131.956 90.528ZM141.769 92.192C140.916 92.192 140.174 92.0107 139.545 91.648C138.916 91.2747 138.43 90.752 138.089 90.08C137.748 89.408 137.577 88.624 137.577 87.728C137.577 86.832 137.748 86.0533 138.089 85.392C138.43 84.72 138.91 84.1973 139.529 83.824C140.158 83.4507 140.889 83.264 141.721 83.264C142.532 83.264 143.241 83.4453 143.849 83.808C144.468 84.1707 144.942 84.6933 145.273 85.376C145.604 86.0587 145.769 86.88 145.769 87.84V88.304H139.705C139.748 89.0507 139.95 89.616 140.313 90C140.686 90.3733 141.177 90.56 141.785 90.56C142.244 90.56 142.622 90.4587 142.921 90.256C143.23 90.0427 143.444 89.7493 143.561 89.376L145.657 89.504C145.422 90.336 144.958 90.992 144.265 91.472C143.582 91.952 142.75 92.192 141.769 92.192ZM139.705 86.928H143.657C143.614 86.2347 143.417 85.7227 143.065 85.392C142.713 85.0507 142.265 84.88 141.721 84.88C141.177 84.88 140.724 85.056 140.361 85.408C140.009 85.76 139.79 86.2667 139.705 86.928Z" fill="#252629"/>
<path d="M154.998 92.192C154.198 92.192 153.505 92.0107 152.918 91.648C152.342 91.2853 151.894 90.7733 151.574 90.112C151.265 89.44 151.11 88.656 151.11 87.76C151.11 86.864 151.265 86.0853 151.574 85.424C151.894 84.7627 152.337 84.2507 152.902 83.888C153.478 83.5147 154.156 83.328 154.934 83.328C155.67 83.328 156.321 83.504 156.886 83.856C157.452 84.1973 157.889 84.6987 158.198 85.36C158.518 86.0213 158.678 86.8267 158.678 87.776V88.176H152.518C152.572 89.0827 152.812 89.7653 153.238 90.224C153.676 90.6827 154.262 90.912 154.998 90.912C155.553 90.912 156.006 90.784 156.358 90.528C156.721 90.2613 156.972 89.9147 157.11 89.488L158.55 89.6C158.326 90.3573 157.9 90.9813 157.27 91.472C156.652 91.952 155.894 92.192 154.998 92.192ZM152.518 86.992H157.206C157.142 86.1707 156.902 85.568 156.486 85.184C156.081 84.8 155.564 84.608 154.934 84.608C154.284 84.608 153.745 84.8107 153.318 85.216C152.902 85.6107 152.636 86.2027 152.518 86.992ZM160.499 92V83.52H161.843V92H160.499ZM160.467 82.192V80.624H161.875V82.192H160.467ZM164.499 92V83.52H165.731L165.779 85.68L165.619 85.536C165.725 85.0347 165.912 84.624 166.179 84.304C166.445 83.9733 166.765 83.728 167.139 83.568C167.523 83.408 167.933 83.328 168.371 83.328C169.021 83.328 169.555 83.472 169.971 83.76C170.397 84.048 170.712 84.4373 170.915 84.928C171.128 85.408 171.235 85.9467 171.235 86.544V92H169.891V86.928C169.891 86.4053 169.827 85.968 169.699 85.616C169.581 85.2533 169.389 84.9813 169.123 84.8C168.856 84.608 168.509 84.512 168.083 84.512C167.432 84.512 166.893 84.72 166.467 85.136C166.051 85.5413 165.843 86.1387 165.843 86.928V92H164.499ZM176.92 92.192C176.12 92.192 175.427 92.0107 174.84 91.648C174.264 91.2853 173.816 90.7733 173.496 90.112C173.187 89.44 173.032 88.656 173.032 87.76C173.032 86.864 173.187 86.0853 173.496 85.424C173.816 84.7627 174.259 84.2507 174.824 83.888C175.4 83.5147 176.077 83.328 176.856 83.328C177.592 83.328 178.243 83.504 178.808 83.856C179.373 84.1973 179.811 84.6987 180.12 85.36C180.44 86.0213 180.6 86.8267 180.6 87.776V88.176H174.44C174.493 89.0827 174.733 89.7653 175.16 90.224C175.597 90.6827 176.184 90.912 176.92 90.912C177.475 90.912 177.928 90.784 178.28 90.528C178.643 90.2613 178.893 89.9147 179.032 89.488L180.472 89.6C180.248 90.3573 179.821 90.9813 179.192 91.472C178.573 91.952 177.816 92.192 176.92 92.192ZM174.44 86.992H179.128C179.064 86.1707 178.824 85.568 178.408 85.184C178.003 84.8 177.485 84.608 176.856 84.608C176.205 84.608 175.667 84.8107 175.24 85.216C174.824 85.6107 174.557 86.2027 174.44 86.992ZM182.421 92V83.52H183.653L183.701 85.68L183.541 85.536C183.647 85.0347 183.834 84.624 184.101 84.304C184.367 83.9733 184.687 83.728 185.061 83.568C185.445 83.408 185.855 83.328 186.293 83.328C186.943 83.328 187.477 83.472 187.893 83.76C188.319 84.048 188.634 84.4373 188.837 84.928C189.05 85.408 189.157 85.9467 189.157 86.544V92H187.813V86.928C187.813 86.4053 187.749 85.968 187.621 85.616C187.503 85.2533 187.311 84.9813 187.045 84.8C186.778 84.608 186.431 84.512 186.005 84.512C185.354 84.512 184.815 84.72 184.389 85.136C183.973 85.5413 183.765 86.1387 183.765 86.928V92H182.421ZM195.91 92V80.64H200.214C201.014 80.64 201.702 80.7787 202.278 81.056C202.854 81.3333 203.296 81.7333 203.606 82.256C203.926 82.768 204.086 83.376 204.086 84.08C204.086 84.592 203.963 85.0507 203.718 85.456C203.483 85.8507 203.179 86.1653 202.806 86.4C202.432 86.6347 202.043 86.7627 201.638 86.784L201.542 86.64C202.235 86.64 202.779 86.8 203.174 87.12C203.579 87.44 203.814 87.952 203.878 88.656L204.198 92H202.806L202.517 88.8C202.475 88.3307 202.304 87.984 202.006 87.76C201.718 87.536 201.243 87.424 200.582 87.424H197.286V92H195.91ZM197.286 86.08H200.39C201.083 86.08 201.632 85.904 202.038 85.552C202.443 85.2 202.646 84.6987 202.646 84.048C202.646 83.3867 202.438 82.88 202.022 82.528C201.606 82.1653 201.003 81.984 200.214 81.984H197.286V86.08ZM209.592 92.192C208.813 92.192 208.131 92.0107 207.544 91.648C206.957 91.2853 206.504 90.7733 206.184 90.112C205.864 89.44 205.704 88.656 205.704 87.76C205.704 86.8533 205.864 86.0693 206.184 85.408C206.504 84.7467 206.957 84.2347 207.544 83.872C208.131 83.5093 208.813 83.328 209.592 83.328C210.371 83.328 211.048 83.5093 211.624 83.872C212.211 84.2347 212.664 84.7467 212.984 85.408C213.304 86.0693 213.464 86.8533 213.464 87.76C213.464 88.656 213.304 89.44 212.984 90.112C212.664 90.7733 212.211 91.2853 211.624 91.648C211.048 92.0107 210.371 92.192 209.592 92.192ZM209.592 90.912C210.371 90.912 210.973 90.6347 211.4 90.08C211.837 89.5147 212.056 88.7413 212.056 87.76C212.056 86.7787 211.837 86.0107 211.4 85.456C210.973 84.8907 210.371 84.608 209.592 84.608C208.813 84.608 208.205 84.8907 207.768 85.456C207.331 86.0107 207.112 86.7787 207.112 87.76C207.112 88.7413 207.331 89.5147 207.768 90.08C208.205 90.6347 208.813 90.912 209.592 90.912ZM215.296 92V83.52H216.528L216.576 85.664L216.384 85.6C216.48 85.1307 216.645 84.7307 216.88 84.4C217.125 84.0587 217.424 83.7973 217.776 83.616C218.128 83.424 218.517 83.328 218.944 83.328C219.68 83.328 220.277 83.5307 220.736 83.936C221.205 84.3413 221.498 84.9067 221.616 85.632L221.36 85.616C221.445 85.1253 221.6 84.7147 221.824 84.384C222.058 84.0427 222.357 83.7813 222.72 83.6C223.082 83.4187 223.498 83.328 223.968 83.328C224.576 83.328 225.088 83.456 225.504 83.712C225.92 83.9573 226.234 84.32 226.448 84.8C226.661 85.28 226.768 85.8613 226.768 86.544V92H225.424V86.832C225.424 86.064 225.274 85.488 224.976 85.104C224.677 84.7093 224.234 84.512 223.648 84.512C223.253 84.512 222.906 84.608 222.608 84.8C222.32 84.992 222.096 85.2693 221.936 85.632C221.776 85.984 221.696 86.416 221.696 86.928V92H220.352V86.928C220.352 86.1707 220.218 85.5787 219.952 85.152C219.685 84.7253 219.237 84.512 218.608 84.512C218.213 84.512 217.866 84.608 217.568 84.8C217.28 84.992 217.05 85.2693 216.88 85.632C216.72 85.9947 216.64 86.4267 216.64 86.928V92H215.296ZM231.459 92.192C230.584 92.192 229.885 91.9893 229.363 91.584C228.851 91.1787 228.595 90.6133 228.595 89.888C228.595 89.1627 228.808 88.592 229.235 88.176C229.661 87.76 230.339 87.4667 231.267 87.296L234.275 86.736C234.275 86.0213 234.104 85.488 233.763 85.136C233.432 84.784 232.931 84.608 232.259 84.608C231.672 84.608 231.208 84.7413 230.867 85.008C230.525 85.264 230.291 85.6373 230.163 86.128L228.739 86.016C228.899 85.216 229.283 84.5707 229.891 84.08C230.509 83.5787 231.299 83.328 232.259 83.328C233.347 83.328 234.179 83.6373 234.755 84.256C235.331 84.864 235.619 85.7067 235.619 86.784V90.288C235.619 90.48 235.651 90.6187 235.715 90.704C235.789 90.7787 235.907 90.816 236.067 90.816H236.403V92C236.36 92.0107 236.291 92.016 236.195 92.016C236.099 92.0267 235.997 92.032 235.891 92.032C235.507 92.032 235.192 91.9733 234.947 91.856C234.712 91.728 234.541 91.536 234.435 91.28C234.328 91.0133 234.275 90.6667 234.275 90.24L234.435 90.272C234.36 90.6347 234.179 90.9653 233.891 91.264C233.603 91.552 233.245 91.7813 232.819 91.952C232.392 92.112 231.939 92.192 231.459 92.192ZM231.587 91.008C232.152 91.008 232.632 90.9013 233.027 90.688C233.432 90.464 233.741 90.1653 233.955 89.792C234.168 89.408 234.275 88.9813 234.275 88.512V87.904L231.523 88.416C230.947 88.5227 230.547 88.688 230.323 88.912C230.109 89.1253 230.003 89.408 230.003 89.76C230.003 90.1547 230.141 90.464 230.419 90.688C230.707 90.9013 231.096 91.008 231.587 91.008ZM237.921 92V83.52H239.153L239.201 85.68L239.041 85.536C239.147 85.0347 239.334 84.624 239.601 84.304C239.867 83.9733 240.187 83.728 240.561 83.568C240.945 83.408 241.355 83.328 241.793 83.328C242.443 83.328 242.977 83.472 243.393 83.76C243.819 84.048 244.134 84.4373 244.337 84.928C244.55 85.408 244.657 85.9467 244.657 86.544V92H243.313V86.928C243.313 86.4053 243.249 85.968 243.121 85.616C243.003 85.2533 242.811 84.9813 242.545 84.8C242.278 84.608 241.931 84.512 241.505 84.512C240.854 84.512 240.315 84.72 239.889 85.136C239.473 85.5413 239.265 86.1387 239.265 86.928V92H237.921ZM254.306 92.192C253.527 92.192 252.871 92.0693 252.338 91.824C251.815 91.5787 251.41 91.2427 251.122 90.816C250.844 90.3787 250.684 89.8827 250.642 89.328L252.049 89.232C252.135 89.744 252.343 90.1547 252.674 90.464C253.015 90.7627 253.559 90.912 254.306 90.912C254.882 90.912 255.324 90.8213 255.634 90.64C255.954 90.448 256.114 90.144 256.114 89.728C256.114 89.504 256.06 89.3173 255.954 89.168C255.858 89.0187 255.66 88.8907 255.362 88.784C255.063 88.6667 254.626 88.5547 254.049 88.448C253.26 88.2987 252.642 88.112 252.194 87.888C251.746 87.664 251.431 87.392 251.25 87.072C251.068 86.752 250.978 86.368 250.978 85.92C250.978 85.1627 251.255 84.544 251.81 84.064C252.375 83.5733 253.17 83.328 254.194 83.328C254.94 83.328 255.548 83.4613 256.018 83.728C256.498 83.984 256.86 84.32 257.106 84.736C257.351 85.152 257.5 85.5893 257.554 86.048L256.146 86.144C256.124 85.8773 256.044 85.6267 255.906 85.392C255.767 85.1573 255.559 84.9707 255.282 84.832C255.004 84.6827 254.631 84.608 254.161 84.608C253.554 84.608 253.106 84.7253 252.818 84.96C252.53 85.1947 252.386 85.4933 252.386 85.856C252.386 86.1333 252.439 86.3627 252.546 86.544C252.663 86.7147 252.86 86.8587 253.138 86.976C253.426 87.0827 253.815 87.1787 254.306 87.264C255.138 87.4027 255.788 87.5787 256.258 87.792C256.727 88.0053 257.052 88.272 257.234 88.592C257.426 88.9013 257.522 89.28 257.522 89.728C257.522 90.5067 257.218 91.1147 256.61 91.552C256.012 91.9787 255.244 92.192 254.306 92.192ZM262.686 92.192C261.896 92.192 261.208 92.0107 260.622 91.648C260.046 91.2853 259.598 90.7733 259.278 90.112C258.958 89.44 258.798 88.656 258.798 87.76C258.798 86.864 258.958 86.0853 259.278 85.424C259.598 84.7627 260.046 84.2507 260.622 83.888C261.208 83.5147 261.896 83.328 262.686 83.328C263.336 83.328 263.912 83.4453 264.414 83.68C264.926 83.904 265.342 84.2347 265.662 84.672C265.982 85.1093 266.19 85.6427 266.286 86.272L264.878 86.368C264.782 85.8027 264.536 85.3707 264.142 85.072C263.747 84.7627 263.262 84.608 262.686 84.608C261.907 84.608 261.299 84.8907 260.862 85.456C260.424 86.0107 260.206 86.7787 260.206 87.76C260.206 88.7413 260.424 89.5147 260.862 90.08C261.299 90.6347 261.907 90.912 262.686 90.912C263.262 90.912 263.747 90.752 264.142 90.432C264.536 90.112 264.782 89.632 264.878 88.992L266.286 89.088C266.19 89.7173 265.982 90.2667 265.662 90.736C265.342 91.1947 264.926 91.552 264.414 91.808C263.912 92.064 263.336 92.192 262.686 92.192ZM267.952 92V80.64H269.296V85.392L269.136 85.36C269.243 84.8907 269.424 84.5067 269.68 84.208C269.936 83.9093 270.251 83.6907 270.624 83.552C270.997 83.4027 271.408 83.328 271.856 83.328C272.464 83.328 272.976 83.4667 273.392 83.744C273.819 84.0107 274.139 84.3893 274.352 84.88C274.576 85.36 274.688 85.9147 274.688 86.544V92H273.344V86.928C273.344 86.1067 273.195 85.4987 272.896 85.104C272.608 84.7093 272.165 84.512 271.568 84.512C270.885 84.512 270.336 84.72 269.92 85.136C269.504 85.552 269.296 86.1547 269.296 86.944V92H267.952ZM276.936 92V83.52H278.12L278.184 85.664L278.056 85.616C278.163 84.8907 278.392 84.3627 278.744 84.032C279.107 83.6907 279.587 83.52 280.184 83.52H281.016V84.8H280.2C279.774 84.8 279.416 84.88 279.128 85.04C278.851 85.1893 278.638 85.4187 278.488 85.728C278.35 86.0267 278.28 86.4107 278.28 86.88V92H276.936ZM285.67 92.192C284.87 92.192 284.177 92.0107 283.59 91.648C283.014 91.2853 282.566 90.7733 282.246 90.112C281.937 89.44 281.782 88.656 281.782 87.76C281.782 86.864 281.937 86.0853 282.246 85.424C282.566 84.7627 283.009 84.2507 283.574 83.888C284.15 83.5147 284.827 83.328 285.606 83.328C286.342 83.328 286.993 83.504 287.558 83.856C288.123 84.1973 288.561 84.6987 288.87 85.36C289.19 86.0213 289.35 86.8267 289.35 87.776V88.176H283.19C283.243 89.0827 283.483 89.7653 283.91 90.224C284.347 90.6827 284.934 90.912 285.67 90.912C286.225 90.912 286.678 90.784 287.03 90.528C287.393 90.2613 287.643 89.9147 287.782 89.488L289.222 89.6C288.998 90.3573 288.571 90.9813 287.942 91.472C287.323 91.952 286.566 92.192 285.67 92.192ZM283.19 86.992H287.878C287.814 86.1707 287.574 85.568 287.158 85.184C286.753 84.8 286.235 84.608 285.606 84.608C284.955 84.608 284.417 84.8107 283.99 85.216C283.574 85.6107 283.307 86.2027 283.19 86.992ZM291.171 92V83.52H292.515V92H291.171ZM291.139 82.192V80.624H292.547V82.192H291.139ZM298.652 92.192C298.066 92.192 297.543 92.064 297.084 91.808C296.626 91.5413 296.274 91.1787 296.028 90.72L295.98 92H294.764V80.64H296.108V84.704C296.322 84.352 296.652 84.0373 297.1 83.76C297.548 83.472 298.066 83.328 298.652 83.328C299.399 83.328 300.044 83.5093 300.588 83.872C301.132 84.2347 301.554 84.7467 301.852 85.408C302.151 86.0693 302.3 86.8533 302.3 87.76C302.3 88.6667 302.151 89.4507 301.852 90.112C301.554 90.7733 301.132 91.2853 300.588 91.648C300.044 92.0107 299.399 92.192 298.652 92.192ZM298.572 90.912C299.287 90.912 299.852 90.6293 300.268 90.064C300.684 89.4987 300.892 88.7307 300.892 87.76C300.892 86.7787 300.684 86.0107 300.268 85.456C299.852 84.8907 299.298 84.608 298.604 84.608C298.082 84.608 297.634 84.736 297.26 84.992C296.887 85.2373 296.599 85.5947 296.396 86.064C296.204 86.5333 296.108 87.0987 296.108 87.76C296.108 88.4 296.204 88.96 296.396 89.44C296.599 89.9093 296.882 90.272 297.244 90.528C297.618 90.784 298.06 90.912 298.572 90.912ZM307.436 92.192C306.636 92.192 305.942 92.0107 305.356 91.648C304.78 91.2853 304.332 90.7733 304.012 90.112C303.702 89.44 303.548 88.656 303.548 87.76C303.548 86.864 303.702 86.0853 304.012 85.424C304.332 84.7627 304.774 84.2507 305.34 83.888C305.916 83.5147 306.593 83.328 307.372 83.328C308.108 83.328 308.758 83.504 309.324 83.856C309.889 84.1973 310.326 84.6987 310.636 85.36C310.956 86.0213 311.116 86.8267 311.116 87.776V88.176H304.956C305.009 89.0827 305.249 89.7653 305.676 90.224C306.113 90.6827 306.7 90.912 307.436 90.912C307.99 90.912 308.444 90.784 308.796 90.528C309.158 90.2613 309.409 89.9147 309.548 89.488L310.988 89.6C310.764 90.3573 310.337 90.9813 309.708 91.472C309.089 91.952 308.332 92.192 307.436 92.192ZM304.956 86.992H309.644C309.58 86.1707 309.34 85.568 308.924 85.184C308.518 84.8 308.001 84.608 307.372 84.608C306.721 84.608 306.182 84.8107 305.756 85.216C305.34 85.6107 305.073 86.2027 304.956 86.992ZM312.936 92V83.52H314.168L314.216 85.68L314.056 85.536C314.163 85.0347 314.35 84.624 314.616 84.304C314.883 83.9733 315.203 83.728 315.576 83.568C315.96 83.408 316.371 83.328 316.808 83.328C317.459 83.328 317.992 83.472 318.408 83.76C318.835 84.048 319.15 84.4373 319.352 84.928C319.566 85.408 319.672 85.9467 319.672 86.544V92H318.328V86.928C318.328 86.4053 318.264 85.968 318.136 85.616C318.019 85.2533 317.827 84.9813 317.56 84.8C317.294 84.608 316.947 84.512 316.52 84.512C315.87 84.512 315.331 84.72 314.904 85.136C314.488 85.5413 314.28 86.1387 314.28 86.928V92H312.936Z" fill="#646568"/>
<path d="M408 125V126H24V125H408ZM423 110V24C423 15.7157 416.284 9 408 9H24C15.7157 9 9 15.7157 9 24V110C9 118.284 15.7157 125 24 125V126C15.3016 126 8.22398 119.059 8.00488 110.413L8 110V24C8 15.1634 15.1634 8 24 8H408L408.413 8.00488C417.059 8.22399 424 15.3016 424 24V110L423.995 110.413C423.779 118.921 416.921 125.779 408.413 125.995L408 126V125C416.284 125 423 118.284 423 110Z" fill="url(#paint0_linear_19312_20326)" fill-opacity="0.4"/>
<defs>
<linearGradient id="paint0_linear_19312_20326" x1="216" y1="8" x2="216" y2="126" gradientUnits="userSpaceOnUse">
<stop stop-color="white" stop-opacity="0.4"/>
<stop offset="1" stop-opacity="0.1"/>
</linearGradient>
</defs>
</svg>
