<svg width="228" height="294" viewBox="0 0 228 294" fill="none" xmlns="http://www.w3.org/2000/svg">
<path d="M152.149 154.632C151.84 154.632 151.563 154.456 151.317 154.104C151.072 153.752 150.949 153.299 150.949 152.744C150.949 152.136 151.029 151.485 151.189 150.792C151.36 150.099 151.568 149.395 151.813 148.68C152.059 147.955 152.299 147.256 152.533 146.584C152.587 146.445 152.661 146.344 152.757 146.28C152.864 146.205 153.024 146.168 153.237 146.168C153.621 146.168 153.813 146.355 153.813 146.728C153.813 146.813 153.771 147.005 153.685 147.304C153.6 147.603 153.488 147.971 153.349 148.408C153.221 148.845 153.088 149.32 152.949 149.832C152.811 150.333 152.688 150.84 152.581 151.352C152.475 151.864 152.4 152.339 152.357 152.776C152.528 152.595 152.72 152.317 152.933 151.944C153.157 151.571 153.397 151.149 153.653 150.68C153.909 150.2 154.176 149.72 154.453 149.24C154.731 148.749 155.008 148.301 155.285 147.896C155.573 147.48 155.851 147.149 156.117 146.904C156.395 146.648 156.651 146.52 156.885 146.52C157.227 146.52 157.515 146.627 157.749 146.84C157.995 147.043 158.181 147.405 158.309 147.928C158.448 148.44 158.517 149.165 158.517 150.104C158.517 150.605 158.565 151.075 158.661 151.512C158.768 151.949 158.933 152.301 159.157 152.568C159.392 152.824 159.691 152.952 160.053 152.952C160.597 152.952 161.083 152.856 161.509 152.664C161.936 152.461 162.304 152.237 162.613 151.992C162.933 151.736 163.2 151.512 163.413 151.32C163.627 151.117 163.792 151.016 163.909 151.016C164.155 151.016 164.277 151.144 164.277 151.4C164.277 151.507 164.197 151.677 164.037 151.912C163.888 152.136 163.675 152.392 163.397 152.68C163.131 152.957 162.821 153.229 162.469 153.496C162.128 153.752 161.76 153.965 161.365 154.136C160.981 154.307 160.592 154.392 160.197 154.392C159.461 154.392 158.859 154.248 158.389 153.96C157.931 153.672 157.589 153.197 157.365 152.536C157.152 151.875 157.045 150.989 157.045 149.88C157.045 149.272 157.008 148.829 156.933 148.552C156.869 148.264 156.747 148.072 156.565 147.976C156.437 148.2 156.272 148.52 156.069 148.936C155.867 149.341 155.632 149.795 155.365 150.296C155.109 150.797 154.837 151.304 154.549 151.816C154.272 152.317 153.989 152.781 153.701 153.208C153.413 153.635 153.136 153.981 152.869 154.248C152.603 154.504 152.363 154.632 152.149 154.632Z" fill="#646568"/>
<path d="M148.53 148.104C148.53 148.445 148.423 148.781 148.21 149.112C147.997 149.432 147.714 149.741 147.362 150.04C147.01 150.328 146.621 150.6 146.194 150.856C145.767 151.112 145.341 151.336 144.914 151.528C144.487 151.72 144.098 151.875 143.746 151.992C143.661 152.408 143.618 152.776 143.618 153.096C143.618 153.299 143.666 153.443 143.762 153.528C143.858 153.613 144.007 153.656 144.21 153.656C144.658 153.656 145.133 153.576 145.634 153.416C146.135 153.256 146.647 153.048 147.17 152.792C147.693 152.536 148.194 152.264 148.674 151.976C149.154 151.688 149.591 151.416 149.986 151.16C150.391 150.904 150.727 150.696 150.994 150.536C151.261 150.376 151.437 150.296 151.522 150.296C151.65 150.296 151.746 150.339 151.81 150.424C151.885 150.499 151.922 150.589 151.922 150.696C151.922 150.781 151.789 150.947 151.522 151.192C151.266 151.437 150.919 151.725 150.482 152.056C150.045 152.376 149.554 152.707 149.01 153.048C148.466 153.389 147.901 153.709 147.314 154.008C146.738 154.307 146.178 154.547 145.634 154.728C145.101 154.909 144.621 155 144.194 155C143.639 155 143.207 154.792 142.898 154.376C142.589 153.96 142.434 153.315 142.434 152.44C142.434 151.853 142.509 151.261 142.658 150.664C142.818 150.067 143.031 149.496 143.298 148.952C143.575 148.397 143.879 147.907 144.21 147.48C144.551 147.043 144.909 146.701 145.282 146.456C145.655 146.2 146.018 146.072 146.37 146.072C147.042 146.072 147.57 146.259 147.954 146.632C148.338 147.005 148.53 147.496 148.53 148.104ZM144.082 150.76C144.413 150.557 144.754 150.344 145.106 150.12C145.458 149.896 145.783 149.667 146.082 149.432C146.381 149.197 146.621 148.952 146.802 148.696C146.994 148.429 147.09 148.157 147.09 147.88C147.09 147.485 146.877 147.288 146.45 147.288C146.183 147.288 145.901 147.459 145.602 147.8C145.314 148.131 145.037 148.563 144.77 149.096C144.503 149.629 144.274 150.184 144.082 150.76Z" fill="#646568"/>
<path d="M129.301 155.72C129.067 155.72 128.885 155.651 128.757 155.512C128.629 155.384 128.565 155.059 128.565 154.536C128.565 154.056 128.651 153.432 128.821 152.664C128.992 151.885 129.221 151.021 129.509 150.072C129.797 149.123 130.123 148.141 130.485 147.128C130.848 146.104 131.227 145.101 131.621 144.12C132.027 143.128 132.416 142.221 132.789 141.4C132.928 141.101 133.072 140.893 133.221 140.776C133.371 140.659 133.547 140.6 133.749 140.6C133.888 140.6 134.005 140.643 134.101 140.728C134.208 140.803 134.261 140.931 134.261 141.112C134.261 141.176 134.192 141.384 134.053 141.736C133.925 142.088 133.744 142.552 133.509 143.128C133.285 143.704 133.035 144.349 132.757 145.064C132.48 145.779 132.197 146.531 131.909 147.32C131.621 148.109 131.349 148.904 131.093 149.704C130.837 150.493 130.619 151.251 130.437 151.976C130.256 152.701 130.133 153.352 130.069 153.928C130.325 153.619 130.619 153.224 130.949 152.744C131.28 152.264 131.632 151.747 132.005 151.192C132.379 150.637 132.757 150.088 133.141 149.544C133.525 149 133.904 148.504 134.277 148.056C134.651 147.608 134.997 147.251 135.317 146.984C135.648 146.707 135.936 146.568 136.181 146.568C136.587 146.568 136.912 146.696 137.157 146.952C137.413 147.197 137.541 147.603 137.541 148.168C137.541 148.488 137.477 148.872 137.349 149.32C137.232 149.768 137.093 150.237 136.933 150.728C136.773 151.219 136.629 151.688 136.501 152.136C136.384 152.584 136.325 152.968 136.325 153.288C136.325 153.725 136.491 153.944 136.821 153.944C137.333 153.944 137.845 153.832 138.357 153.608C138.88 153.384 139.376 153.107 139.845 152.776C140.315 152.435 140.747 152.093 141.141 151.752C141.536 151.4 141.872 151.101 142.149 150.856C142.448 150.589 142.699 150.456 142.901 150.456C143.157 150.456 143.285 150.589 143.285 150.856C143.285 150.931 143.269 151.016 143.237 151.112C143.205 151.208 143.12 151.331 142.981 151.48C142.811 151.672 142.565 151.923 142.245 152.232C141.936 152.541 141.573 152.872 141.157 153.224C140.752 153.576 140.309 153.907 139.829 154.216C139.36 154.525 138.875 154.781 138.373 154.984C137.883 155.176 137.403 155.272 136.933 155.272C136.293 155.272 135.797 155.091 135.445 154.728C135.104 154.355 134.933 153.843 134.933 153.192C134.933 152.787 134.997 152.296 135.125 151.72C135.253 151.144 135.413 150.536 135.605 149.896C135.808 149.245 136.011 148.611 136.213 147.992C135.872 148.227 135.499 148.579 135.093 149.048C134.699 149.507 134.283 150.029 133.845 150.616C133.408 151.192 132.971 151.779 132.533 152.376C132.107 152.973 131.691 153.528 131.285 154.04C130.891 154.541 130.523 154.947 130.181 155.256C129.84 155.565 129.547 155.72 129.301 155.72Z" fill="#646568"/>
<path d="M126.296 148.104C126.296 148.445 126.189 148.781 125.976 149.112C125.762 149.432 125.48 149.741 125.128 150.04C124.776 150.328 124.386 150.6 123.96 150.856C123.533 151.112 123.106 151.336 122.68 151.528C122.253 151.72 121.864 151.875 121.512 151.992C121.426 152.408 121.384 152.776 121.384 153.096C121.384 153.299 121.432 153.443 121.528 153.528C121.624 153.613 121.773 153.656 121.976 153.656C122.424 153.656 122.898 153.576 123.4 153.416C123.901 153.256 124.413 153.048 124.936 152.792C125.458 152.536 125.96 152.264 126.44 151.976C126.92 151.688 127.357 151.416 127.752 151.16C128.157 150.904 128.493 150.696 128.76 150.536C129.026 150.376 129.202 150.296 129.288 150.296C129.416 150.296 129.512 150.339 129.576 150.424C129.65 150.499 129.688 150.589 129.688 150.696C129.688 150.781 129.554 150.947 129.288 151.192C129.032 151.437 128.685 151.725 128.248 152.056C127.81 152.376 127.32 152.707 126.776 153.048C126.232 153.389 125.666 153.709 125.08 154.008C124.504 154.307 123.944 154.547 123.4 154.728C122.866 154.909 122.386 155 121.96 155C121.405 155 120.973 154.792 120.664 154.376C120.354 153.96 120.2 153.315 120.2 152.44C120.2 151.853 120.274 151.261 120.424 150.664C120.584 150.067 120.797 149.496 121.064 148.952C121.341 148.397 121.645 147.907 121.976 147.48C122.317 147.043 122.674 146.701 123.048 146.456C123.421 146.2 123.784 146.072 124.136 146.072C124.808 146.072 125.336 146.259 125.72 146.632C126.104 147.005 126.296 147.496 126.296 148.104ZM121.848 150.76C122.178 150.557 122.52 150.344 122.872 150.12C123.224 149.896 123.549 149.667 123.848 149.432C124.146 149.197 124.386 148.952 124.568 148.696C124.76 148.429 124.856 148.157 124.856 147.88C124.856 147.485 124.642 147.288 124.216 147.288C123.949 147.288 123.666 147.459 123.368 147.8C123.08 148.131 122.802 148.563 122.536 149.096C122.269 149.629 122.04 150.184 121.848 150.76Z" fill="#646568"/>
<path d="M116.115 155.08C115.912 155.08 115.731 155.005 115.571 154.856C115.411 154.696 115.331 154.451 115.331 154.12C115.331 153.885 115.363 153.56 115.427 153.144C115.491 152.717 115.576 152.253 115.683 151.752C115.79 151.251 115.902 150.755 116.019 150.264C116.147 149.763 116.275 149.315 116.403 148.92C116.531 148.525 116.643 148.232 116.739 148.04C116.824 147.891 116.904 147.795 116.979 147.752C117.064 147.709 117.144 147.688 117.219 147.688C117.368 147.688 117.496 147.736 117.603 147.832C117.72 147.928 117.779 148.115 117.779 148.392C117.779 148.552 117.747 148.819 117.683 149.192C117.63 149.555 117.555 149.981 117.459 150.472C117.374 150.952 117.278 151.448 117.171 151.96C117.075 152.461 116.979 152.941 116.883 153.4C116.787 153.859 116.712 154.243 116.659 154.552C116.616 154.723 116.542 154.856 116.435 154.952C116.339 155.037 116.232 155.08 116.115 155.08ZM117.683 146.232C117.438 146.232 117.203 146.157 116.979 146.008C116.766 145.859 116.659 145.619 116.659 145.288C116.659 145.011 116.723 144.787 116.851 144.616C116.99 144.445 117.15 144.323 117.331 144.248C117.523 144.163 117.688 144.12 117.827 144.12C117.966 144.12 118.12 144.152 118.291 144.216C118.472 144.269 118.627 144.376 118.755 144.536C118.883 144.685 118.947 144.909 118.947 145.208C118.947 145.411 118.878 145.592 118.739 145.752C118.6 145.901 118.43 146.019 118.227 146.104C118.035 146.189 117.854 146.232 117.683 146.232Z" fill="#646568"/>
<path d="M112.148 155.176C112.052 155.176 111.86 155.171 111.572 155.16C111.295 155.149 110.964 155.133 110.58 155.112C110.196 155.091 109.796 155.069 109.38 155.048C108.975 155.027 108.591 155.011 108.228 155C107.876 154.989 107.583 154.984 107.348 154.984C107.06 154.984 106.82 154.888 106.628 154.696C106.447 154.504 106.356 154.237 106.356 153.896C106.356 153.672 106.458 153.384 106.66 153.032C106.863 152.68 107.135 152.291 107.476 151.864C107.818 151.427 108.196 150.979 108.612 150.52C109.039 150.061 109.471 149.613 109.908 149.176C110.346 148.739 110.767 148.333 111.172 147.96C111.578 147.587 111.93 147.283 112.228 147.048C111.524 147.133 110.836 147.245 110.164 147.384C109.492 147.512 108.906 147.629 108.404 147.736C107.914 147.843 107.583 147.896 107.412 147.896C107.199 147.896 107.028 147.837 106.9 147.72C106.772 147.592 106.708 147.421 106.708 147.208C106.708 147.091 106.836 146.973 107.092 146.856C107.359 146.739 107.711 146.627 108.148 146.52C108.586 146.413 109.066 146.323 109.588 146.248C110.122 146.163 110.66 146.099 111.204 146.056C111.748 146.013 112.255 145.992 112.724 145.992C113.044 145.992 113.3 146.088 113.492 146.28C113.695 146.472 113.796 146.675 113.796 146.888C113.796 146.973 113.674 147.165 113.428 147.464C113.183 147.763 112.863 148.125 112.468 148.552C112.074 148.979 111.642 149.437 111.172 149.928C110.703 150.419 110.244 150.909 109.796 151.4C109.348 151.88 108.948 152.328 108.596 152.744C108.244 153.149 107.988 153.485 107.828 153.752C108.116 153.741 108.458 153.731 108.852 153.72C109.247 153.709 109.658 153.699 110.084 153.688C110.511 153.667 110.916 153.651 111.3 153.64C111.684 153.619 112.01 153.603 112.276 153.592C112.554 153.581 112.735 153.576 112.82 153.576C113.247 153.576 113.46 153.752 113.46 154.104C113.46 154.371 113.338 154.616 113.092 154.84C112.847 155.064 112.532 155.176 112.148 155.176Z" fill="#646568"/>
<path d="M96.1238 148.104C96.1238 148.445 96.0172 148.781 95.8038 149.112C95.5905 149.432 95.3078 149.741 94.9558 150.04C94.6038 150.328 94.2145 150.6 93.7878 150.856C93.3612 151.112 92.9345 151.336 92.5078 151.528C92.0812 151.72 91.6918 151.875 91.3398 151.992C91.2545 152.408 91.2118 152.776 91.2118 153.096C91.2118 153.299 91.2598 153.443 91.3558 153.528C91.4518 153.613 91.6012 153.656 91.8038 153.656C92.2518 153.656 92.7265 153.576 93.2278 153.416C93.7292 153.256 94.2412 153.048 94.7638 152.792C95.2865 152.536 95.7878 152.264 96.2678 151.976C96.7478 151.688 97.1852 151.416 97.5798 151.16C97.9852 150.904 98.3212 150.696 98.5878 150.536C98.8545 150.376 99.0305 150.296 99.1158 150.296C99.2438 150.296 99.3398 150.339 99.4038 150.424C99.4785 150.499 99.5158 150.589 99.5158 150.696C99.5158 150.781 99.3825 150.947 99.1158 151.192C98.8598 151.437 98.5132 151.725 98.0758 152.056C97.6385 152.376 97.1478 152.707 96.6038 153.048C96.0598 153.389 95.4945 153.709 94.9078 154.008C94.3318 154.307 93.7718 154.547 93.2278 154.728C92.6945 154.909 92.2145 155 91.7878 155C91.2332 155 90.8012 154.792 90.4918 154.376C90.1825 153.96 90.0278 153.315 90.0278 152.44C90.0278 151.853 90.1025 151.261 90.2518 150.664C90.4118 150.067 90.6252 149.496 90.8918 148.952C91.1692 148.397 91.4732 147.907 91.8038 147.48C92.1452 147.043 92.5025 146.701 92.8758 146.456C93.2492 146.2 93.6118 146.072 93.9638 146.072C94.6358 146.072 95.1638 146.259 95.5478 146.632C95.9318 147.005 96.1238 147.496 96.1238 148.104ZM91.6758 150.76C92.0065 150.557 92.3478 150.344 92.6998 150.12C93.0518 149.896 93.3772 149.667 93.6758 149.432C93.9745 149.197 94.2145 148.952 94.3958 148.696C94.5878 148.429 94.6838 148.157 94.6838 147.88C94.6838 147.485 94.4705 147.288 94.0438 147.288C93.7772 147.288 93.4945 147.459 93.1958 147.8C92.9078 148.131 92.6305 148.563 92.3638 149.096C92.0972 149.629 91.8678 150.184 91.6758 150.76Z" fill="#646568"/>
<path d="M80.7435 149.88C80.4555 149.859 80.3222 149.672 80.3435 149.32C80.3542 149.235 80.4129 149.133 80.5195 149.016C80.6262 148.888 80.7489 148.819 80.8875 148.808C81.2182 148.776 81.6235 148.728 82.1035 148.664C82.5942 148.589 83.1328 148.504 83.7195 148.408C83.8262 147.885 83.9542 147.336 84.1035 146.76C84.2529 146.184 84.4182 145.624 84.5995 145.08C84.7808 144.525 84.9728 144.024 85.1755 143.576C85.3782 143.128 85.5915 142.776 85.8155 142.52C85.9328 142.403 86.0395 142.323 86.1355 142.28C86.2315 142.227 86.3168 142.2 86.3915 142.2C86.5408 142.2 86.6582 142.264 86.7435 142.392C86.8395 142.52 86.8875 142.664 86.8875 142.824C86.8875 142.909 86.8715 142.995 86.8395 143.08C86.6262 143.677 86.3969 144.413 86.1515 145.288C85.9062 146.163 85.6449 147.117 85.3675 148.152C86.3489 147.992 87.3302 147.821 88.3115 147.64C89.2929 147.459 90.1355 147.293 90.8395 147.144C91.0422 147.059 91.1969 147.075 91.3035 147.192C91.4209 147.309 91.4795 147.427 91.4795 147.544C91.4795 147.693 91.4368 147.805 91.3515 147.88C91.2768 147.955 91.1969 148.019 91.1115 148.072L91.0955 148.088C90.8822 148.173 90.5622 148.275 90.1355 148.392C89.7089 148.499 89.2182 148.616 88.6635 148.744C88.1088 148.861 87.5169 148.979 86.8875 149.096C86.2689 149.213 85.6555 149.32 85.0475 149.416C84.8022 150.355 84.5515 151.32 84.2955 152.312C84.0502 153.293 83.8048 154.259 83.5595 155.208C83.4528 155.592 83.3302 155.832 83.1915 155.928C83.0635 156.035 82.9248 156.088 82.7755 156.088C82.6048 156.088 82.4555 156.024 82.3275 155.896C82.2102 155.768 82.1942 155.507 82.2795 155.112L83.4475 149.656C82.8075 149.752 82.2422 149.821 81.7515 149.864C81.2715 149.907 80.9355 149.912 80.7435 149.88Z" fill="#646568"/>
<path d="M78.5614 147.976C78.7534 148.541 78.94 149.139 79.1214 149.768C79.3134 150.397 79.468 151.016 79.5854 151.624C79.7134 152.221 79.7774 152.755 79.7774 153.224C79.7774 153.757 79.644 154.195 79.3774 154.536C79.1214 154.867 78.7907 155.123 78.3854 155.304C77.98 155.496 77.5534 155.624 77.1054 155.688C76.668 155.763 76.2627 155.8 75.8894 155.8C75.5907 155.8 75.3827 155.736 75.2654 155.608C75.1587 155.491 75.1054 155.363 75.1054 155.224C75.1054 155.128 75.1427 155.032 75.2174 154.936C75.292 154.829 75.484 154.755 75.7934 154.712C76.028 154.68 76.2947 154.627 76.5934 154.552C76.9027 154.477 77.2014 154.376 77.4894 154.248C77.788 154.12 78.0334 153.965 78.2254 153.784C78.4174 153.592 78.5134 153.363 78.5134 153.096C78.5134 152.509 78.428 151.907 78.2574 151.288C78.0974 150.669 77.932 150.035 77.7614 149.384C77.388 149.96 76.9614 150.531 76.4814 151.096C76.0014 151.661 75.4894 152.2 74.9454 152.712C74.4014 153.224 73.852 153.677 73.2974 154.072C72.7427 154.467 72.204 154.776 71.6814 155C71.1587 155.224 70.6734 155.336 70.2254 155.336C69.4894 155.336 68.892 155.08 68.4334 154.568C67.9747 154.045 67.7454 153.261 67.7454 152.216C67.7454 151.629 67.804 151.027 67.9214 150.408C68.0494 149.789 68.2094 149.219 68.4014 148.696C68.604 148.163 68.812 147.736 69.0254 147.416C69.2387 147.085 69.436 146.92 69.6174 146.92C69.756 146.92 69.8734 146.963 69.9694 147.048C70.076 147.133 70.1294 147.283 70.1294 147.496C70.1294 147.613 70.0814 147.848 69.9854 148.2C69.8894 148.541 69.7827 148.947 69.6654 149.416C69.548 149.875 69.4414 150.36 69.3454 150.872C69.2494 151.373 69.2014 151.843 69.2014 152.28C69.2014 152.856 69.2974 153.277 69.4894 153.544C69.692 153.811 69.964 153.944 70.3054 153.944C70.7214 153.944 71.196 153.811 71.7294 153.544C72.2627 153.277 72.812 152.925 73.3774 152.488C73.9427 152.04 74.4867 151.549 75.0094 151.016C75.5427 150.472 76.0174 149.917 76.4334 149.352C76.8494 148.787 77.1747 148.248 77.4094 147.736C77.3774 147.533 77.3507 147.325 77.3294 147.112C77.3187 146.899 77.3134 146.685 77.3134 146.472C77.3134 146.109 77.372 145.805 77.4894 145.56C77.6067 145.304 77.74 145.107 77.8894 144.968C78.0494 144.829 78.1827 144.76 78.2894 144.76C78.524 144.76 78.7107 144.877 78.8494 145.112C78.988 145.347 79.0574 145.688 79.0574 146.136C79.0574 146.403 79.0147 146.691 78.9294 147C78.844 147.309 78.7214 147.635 78.5614 147.976ZM70.1454 144.952C69.8467 144.952 69.612 144.872 69.4414 144.712C69.2814 144.541 69.2014 144.317 69.2014 144.04C69.2014 143.72 69.308 143.464 69.5214 143.272C69.7454 143.069 69.996 142.968 70.2734 142.968C70.5827 142.968 70.828 143.059 71.0094 143.24C71.2014 143.411 71.2974 143.656 71.2974 143.976C71.2974 144.211 71.18 144.435 70.9454 144.648C70.7214 144.851 70.4547 144.952 70.1454 144.952Z" fill="#646568"/>
<path d="M65.9363 148.104C65.9363 148.445 65.8297 148.781 65.6163 149.112C65.403 149.432 65.1203 149.741 64.7683 150.04C64.4163 150.328 64.027 150.6 63.6003 150.856C63.1737 151.112 62.747 151.336 62.3203 151.528C61.8937 151.72 61.5043 151.875 61.1523 151.992C61.067 152.408 61.0243 152.776 61.0243 153.096C61.0243 153.299 61.0723 153.443 61.1683 153.528C61.2643 153.613 61.4137 153.656 61.6163 153.656C62.0643 153.656 62.539 153.576 63.0403 153.416C63.5417 153.256 64.0537 153.048 64.5763 152.792C65.099 152.536 65.6003 152.264 66.0803 151.976C66.5603 151.688 66.9977 151.416 67.3923 151.16C67.7977 150.904 68.1337 150.696 68.4003 150.536C68.667 150.376 68.843 150.296 68.9283 150.296C69.0563 150.296 69.1523 150.339 69.2163 150.424C69.291 150.499 69.3283 150.589 69.3283 150.696C69.3283 150.781 69.195 150.947 68.9283 151.192C68.6723 151.437 68.3257 151.725 67.8883 152.056C67.451 152.376 66.9603 152.707 66.4163 153.048C65.8723 153.389 65.307 153.709 64.7203 154.008C64.1443 154.307 63.5843 154.547 63.0403 154.728C62.507 154.909 62.027 155 61.6003 155C61.0457 155 60.6137 154.792 60.3043 154.376C59.995 153.96 59.8403 153.315 59.8403 152.44C59.8403 151.853 59.915 151.261 60.0643 150.664C60.2243 150.067 60.4377 149.496 60.7043 148.952C60.9817 148.397 61.2857 147.907 61.6163 147.48C61.9577 147.043 62.315 146.701 62.6883 146.456C63.0617 146.2 63.4243 146.072 63.7763 146.072C64.4483 146.072 64.9763 146.259 65.3603 146.632C65.7443 147.005 65.9363 147.496 65.9363 148.104ZM61.4883 150.76C61.819 150.557 62.1603 150.344 62.5123 150.12C62.8643 149.896 63.1897 149.667 63.4883 149.432C63.787 149.197 64.027 148.952 64.2083 148.696C64.4003 148.429 64.4963 148.157 64.4963 147.88C64.4963 147.485 64.283 147.288 63.8563 147.288C63.5897 147.288 63.307 147.459 63.0083 147.8C62.7203 148.131 62.443 148.563 62.1763 149.096C61.9097 149.629 61.6803 150.184 61.4883 150.76Z" fill="#646568"/>
<path d="M52.0045 155.768C51.6631 155.768 51.3058 155.683 50.9325 155.512C50.5698 155.352 50.2605 155.085 50.0045 154.712C49.7591 154.328 49.6365 153.821 49.6365 153.192C49.6365 152.456 49.7005 151.677 49.8285 150.856C49.9565 150.035 50.1218 149.213 50.3245 148.392C50.5378 147.56 50.7725 146.771 51.0285 146.024C51.2845 145.277 51.5405 144.611 51.7965 144.024C52.0631 143.437 52.3085 142.979 52.5325 142.648C52.7565 142.307 52.9431 142.136 53.0925 142.136C53.2951 142.136 53.4658 142.216 53.6045 142.376C53.7538 142.536 53.8285 142.76 53.8285 143.048C53.8285 143.165 53.7591 143.443 53.6205 143.88C53.4818 144.307 53.3058 144.845 53.0925 145.496C52.8791 146.147 52.6498 146.851 52.4045 147.608C52.1698 148.365 51.9458 149.128 51.7325 149.896C51.5191 150.664 51.3431 151.389 51.2045 152.072C51.0658 152.755 50.9965 153.336 50.9965 153.816C50.9965 153.955 51.0338 154.088 51.1085 154.216C51.1831 154.333 51.3058 154.392 51.4765 154.392C51.7111 154.392 52.0471 154.339 52.4845 154.232C52.9325 154.125 53.4178 153.997 53.9405 153.848C54.4631 153.688 54.9645 153.533 55.4445 153.384C55.9245 153.235 56.3298 153.107 56.6605 153C56.9911 152.893 57.1778 152.84 57.2205 152.84C57.3485 152.84 57.4551 152.877 57.5405 152.952C57.6258 153.016 57.6685 153.117 57.6685 153.256C57.6685 153.427 57.5405 153.624 57.2845 153.848C57.0391 154.072 56.7085 154.296 56.2925 154.52C55.8871 154.744 55.4338 154.947 54.9325 155.128C54.4311 155.32 53.9245 155.475 53.4125 155.592C52.9111 155.709 52.4418 155.768 52.0045 155.768Z" fill="#646568"/>
<path d="M153.937 133.848C153.243 133.848 152.603 133.683 152.017 133.352C151.441 133.021 150.918 132.595 150.449 132.072C149.99 131.549 149.579 130.989 149.217 130.392C148.865 129.784 148.561 129.213 148.305 128.68C148.123 129.544 147.979 130.243 147.873 130.776C147.777 131.309 147.697 131.715 147.633 131.992C147.579 132.269 147.526 132.456 147.473 132.552C147.419 132.648 147.35 132.696 147.265 132.696C147.03 132.696 146.806 132.568 146.593 132.312C146.379 132.056 146.273 131.725 146.273 131.32C146.273 130.893 146.347 130.328 146.497 129.624C146.646 128.909 146.843 128.12 147.089 127.256C147.345 126.381 147.638 125.48 147.969 124.552C148.299 123.613 148.641 122.701 148.993 121.816C149.355 120.92 149.718 120.104 150.081 119.368C150.262 119.005 150.417 118.771 150.545 118.664C150.683 118.557 150.849 118.504 151.041 118.504C151.35 118.504 151.505 118.648 151.505 118.936C151.505 119.043 151.473 119.16 151.409 119.288C151.355 119.416 151.297 119.56 151.233 119.72C151.041 120.189 150.827 120.717 150.593 121.304C150.369 121.891 150.139 122.504 149.905 123.144C149.681 123.784 149.467 124.419 149.265 125.048C149.062 125.677 148.886 126.259 148.737 126.792C149.195 126.472 149.734 126.152 150.353 125.832C150.971 125.512 151.611 125.224 152.273 124.968C152.934 124.701 153.558 124.488 154.145 124.328C154.731 124.168 155.217 124.088 155.601 124.088C155.803 124.088 155.958 124.152 156.065 124.28C156.182 124.397 156.241 124.531 156.241 124.68C156.241 124.797 156.203 124.915 156.129 125.032C156.065 125.139 155.926 125.235 155.713 125.32C155.009 125.565 154.31 125.816 153.617 126.072C152.923 126.317 152.198 126.584 151.441 126.872C150.694 127.149 149.878 127.48 148.993 127.864C149.27 128.333 149.595 128.84 149.969 129.384C150.342 129.917 150.742 130.424 151.169 130.904C151.595 131.373 152.033 131.763 152.481 132.072C152.929 132.371 153.377 132.52 153.825 132.52C154.411 132.52 154.977 132.397 155.521 132.152C156.065 131.907 156.566 131.608 157.025 131.256C157.494 130.904 157.905 130.563 158.257 130.232C158.609 129.891 158.886 129.624 159.089 129.432C159.195 129.336 159.291 129.272 159.377 129.24C159.473 129.197 159.558 129.176 159.633 129.176C159.782 129.176 159.883 129.256 159.937 129.416C160.001 129.565 159.947 129.731 159.777 129.912C159.649 130.061 159.451 130.291 159.185 130.6C158.918 130.909 158.593 131.251 158.209 131.624C157.835 131.987 157.419 132.339 156.961 132.68C156.513 133.021 156.027 133.299 155.505 133.512C154.993 133.736 154.47 133.848 153.937 133.848Z" fill="#646568"/>
<path d="M140.029 133.224C139.507 133.224 139.053 133.107 138.669 132.872C138.296 132.627 138.008 132.312 137.805 131.928C137.603 131.544 137.501 131.149 137.501 130.744C137.501 129.891 137.651 129.112 137.949 128.408C138.248 127.693 138.621 127.064 139.069 126.52C139.528 125.965 139.997 125.496 140.477 125.112C140.968 124.728 141.411 124.44 141.805 124.248C142.211 124.045 142.499 123.944 142.669 123.944C143.011 123.944 143.181 124.115 143.181 124.456C143.181 124.616 143.075 124.803 142.861 125.016C142.648 125.219 142.376 125.459 142.045 125.736C141.715 126.013 141.363 126.328 140.989 126.68C140.616 127.021 140.264 127.411 139.933 127.848C139.603 128.275 139.331 128.755 139.117 129.288C138.904 129.811 138.797 130.387 138.797 131.016C138.797 131.656 139.059 131.976 139.581 131.976C140.061 131.976 140.552 131.885 141.053 131.704C141.565 131.523 142.067 131.288 142.557 131C143.059 130.701 143.539 130.392 143.997 130.072C144.456 129.752 144.872 129.448 145.245 129.16C145.619 128.861 145.933 128.621 146.189 128.44C146.445 128.259 146.627 128.168 146.733 128.168C146.947 128.168 147.053 128.285 147.053 128.52C147.053 128.701 146.931 128.941 146.685 129.24C146.44 129.539 146.109 129.864 145.693 130.216C145.277 130.568 144.813 130.925 144.301 131.288C143.789 131.64 143.272 131.965 142.749 132.264C142.227 132.552 141.725 132.787 141.245 132.968C140.776 133.139 140.371 133.224 140.029 133.224Z" fill="#646568"/>
<path d="M131.255 133.16C130.626 133.16 130.13 132.92 129.767 132.44C129.404 131.96 129.223 131.336 129.223 130.568C129.223 130.291 129.26 129.997 129.335 129.688C129.42 129.368 129.527 129.08 129.655 128.824C129.58 128.749 129.522 128.648 129.479 128.52C129.436 128.381 129.415 128.211 129.415 128.008C129.415 127.379 129.522 126.803 129.735 126.28C129.948 125.757 130.231 125.304 130.583 124.92C130.935 124.525 131.324 124.221 131.751 124.008C132.188 123.795 132.631 123.688 133.079 123.688C133.815 123.688 134.412 123.955 134.871 124.488C135.33 125.011 135.559 125.811 135.559 126.888C135.559 127.453 135.474 128.029 135.303 128.616C135.143 129.203 134.919 129.768 134.631 130.312C134.354 130.856 134.028 131.341 133.655 131.768C133.292 132.195 132.903 132.536 132.487 132.792C132.082 133.037 131.671 133.16 131.255 133.16ZM130.711 128.28C130.775 128.365 130.807 128.477 130.807 128.616C130.807 128.776 130.775 128.936 130.711 129.096C130.658 129.256 130.599 129.475 130.535 129.752C130.471 130.029 130.439 130.424 130.439 130.936C130.439 131.448 130.642 131.704 131.047 131.704C131.495 131.704 131.911 131.528 132.295 131.176C132.679 130.813 133.02 130.349 133.319 129.784C133.618 129.219 133.847 128.616 134.007 127.976C134.178 127.325 134.263 126.712 134.263 126.136C134.263 125.763 134.194 125.501 134.055 125.352C133.916 125.192 133.666 125.112 133.303 125.112C132.93 125.112 132.54 125.24 132.135 125.496C131.74 125.741 131.41 126.077 131.143 126.504C130.876 126.931 130.743 127.411 130.743 127.944C130.743 128.061 130.732 128.173 130.711 128.28Z" fill="#646568"/>
<path d="M124.51 133.64C123.689 133.64 123.044 133.373 122.574 132.84C122.116 132.296 121.886 131.539 121.886 130.568C121.886 129.971 121.966 129.272 122.126 128.472C122.297 127.661 122.51 126.808 122.766 125.912C123.033 125.005 123.321 124.109 123.63 123.224C123.94 122.339 124.238 121.517 124.526 120.76C124.825 119.992 125.086 119.352 125.31 118.84C125.438 118.552 125.62 118.408 125.854 118.408C126.174 118.408 126.334 118.605 126.334 119C126.334 119.128 126.276 119.389 126.158 119.784C126.041 120.179 125.886 120.669 125.694 121.256C125.502 121.832 125.294 122.472 125.07 123.176C124.846 123.88 124.617 124.605 124.382 125.352C124.158 126.088 123.95 126.819 123.758 127.544C123.566 128.259 123.412 128.931 123.294 129.56C123.177 130.189 123.118 130.728 123.118 131.176C123.118 131.464 123.193 131.693 123.342 131.864C123.502 132.024 123.716 132.104 123.982 132.104C124.473 132.104 124.964 132.008 125.454 131.816C125.956 131.613 126.436 131.368 126.894 131.08C127.353 130.781 127.769 130.488 128.142 130.2C128.526 129.901 128.852 129.656 129.118 129.464C129.385 129.261 129.572 129.16 129.678 129.16C129.913 129.16 130.03 129.288 130.03 129.544C130.03 129.629 129.945 129.789 129.774 130.024C129.604 130.248 129.374 130.515 129.086 130.824C128.798 131.133 128.462 131.453 128.078 131.784C127.705 132.104 127.31 132.408 126.894 132.696C126.489 132.973 126.078 133.197 125.662 133.368C125.257 133.549 124.873 133.64 124.51 133.64Z" fill="#646568"/>
<path d="M111.027 133.48C110.675 133.48 110.387 133.427 110.163 133.32C109.939 133.213 109.773 133.091 109.667 132.952C109.571 132.813 109.523 132.701 109.523 132.616C109.523 132.36 109.587 132.184 109.715 132.088C109.843 131.992 110.109 131.944 110.515 131.944C110.749 131.944 111.075 131.901 111.491 131.816C111.917 131.72 112.387 131.587 112.899 131.416C113.411 131.235 113.933 131.016 114.467 130.76C115 130.504 115.496 130.211 115.955 129.88C116.413 129.549 116.797 129.187 117.107 128.792C117.427 128.387 117.629 127.955 117.715 127.496C117.405 127.432 117.091 127.389 116.771 127.368C116.461 127.336 116.152 127.32 115.843 127.32C114.904 127.32 113.949 127.421 112.979 127.624C112.008 127.816 111.027 128.035 110.035 128.28C110.003 128.579 109.976 128.851 109.955 129.096C109.933 129.341 109.917 129.603 109.907 129.88C109.875 130.563 109.795 131.016 109.667 131.24C109.549 131.453 109.416 131.56 109.267 131.56C109.032 131.56 108.851 131.421 108.723 131.144C108.595 130.867 108.531 130.424 108.531 129.816C108.531 127.875 108.723 126.2 109.107 124.792C109.491 123.384 110.061 122.301 110.819 121.544C111.576 120.787 112.504 120.408 113.603 120.408C114.381 120.408 114.984 120.616 115.411 121.032C115.848 121.448 116.067 122.051 116.067 122.84C116.067 123.384 115.971 123.949 115.779 124.536C115.587 125.112 115.304 125.64 114.931 126.12C115.219 126.067 115.501 126.029 115.779 126.008C116.056 125.976 116.312 125.96 116.547 125.96C117.357 125.96 117.987 126.093 118.435 126.36C118.883 126.627 119.107 127.021 119.107 127.544C119.107 128.152 118.936 128.723 118.595 129.256C118.264 129.789 117.821 130.275 117.267 130.712C116.723 131.149 116.131 131.544 115.491 131.896C114.851 132.237 114.227 132.525 113.619 132.76C113.011 132.995 112.472 133.171 112.003 133.288C111.544 133.416 111.219 133.48 111.027 133.48ZM110.179 126.904C111.363 126.691 112.28 126.408 112.931 126.056C113.581 125.704 114.035 125.293 114.291 124.824C114.547 124.344 114.675 123.805 114.675 123.208C114.675 123.016 114.643 122.819 114.579 122.616C114.515 122.403 114.392 122.221 114.211 122.072C114.029 121.923 113.768 121.848 113.427 121.848C112.552 121.848 111.848 122.248 111.315 123.048C110.792 123.848 110.413 125.133 110.179 126.904Z" fill="#646568"/>
<path d="M97.8504 126.104C97.8504 126.445 97.7437 126.781 97.5304 127.112C97.3171 127.432 97.0344 127.741 96.6824 128.04C96.3304 128.328 95.9411 128.6 95.5144 128.856C95.0877 129.112 94.6611 129.336 94.2344 129.528C93.8077 129.72 93.4184 129.875 93.0664 129.992C92.9811 130.408 92.9384 130.776 92.9384 131.096C92.9384 131.299 92.9864 131.443 93.0824 131.528C93.1784 131.613 93.3277 131.656 93.5304 131.656C93.9784 131.656 94.4531 131.576 94.9544 131.416C95.4557 131.256 95.9677 131.048 96.4904 130.792C97.0131 130.536 97.5144 130.264 97.9944 129.976C98.4744 129.688 98.9117 129.416 99.3064 129.16C99.7117 128.904 100.048 128.696 100.314 128.536C100.581 128.376 100.757 128.296 100.842 128.296C100.97 128.296 101.066 128.339 101.13 128.424C101.205 128.499 101.242 128.589 101.242 128.696C101.242 128.781 101.109 128.947 100.842 129.192C100.586 129.437 100.24 129.725 99.8024 130.056C99.3651 130.376 98.8744 130.707 98.3304 131.048C97.7864 131.389 97.2211 131.709 96.6344 132.008C96.0584 132.307 95.4984 132.547 94.9544 132.728C94.4211 132.909 93.9411 133 93.5144 133C92.9597 133 92.5277 132.792 92.2184 132.376C91.9091 131.96 91.7544 131.315 91.7544 130.44C91.7544 129.853 91.8291 129.261 91.9784 128.664C92.1384 128.067 92.3517 127.496 92.6184 126.952C92.8957 126.397 93.1997 125.907 93.5304 125.48C93.8717 125.043 94.2291 124.701 94.6024 124.456C94.9757 124.2 95.3384 124.072 95.6904 124.072C96.3624 124.072 96.8904 124.259 97.2744 124.632C97.6584 125.005 97.8504 125.496 97.8504 126.104ZM93.4024 128.76C93.7331 128.557 94.0744 128.344 94.4264 128.12C94.7784 127.896 95.1037 127.667 95.4024 127.432C95.7011 127.197 95.9411 126.952 96.1224 126.696C96.3144 126.429 96.4104 126.157 96.4104 125.88C96.4104 125.485 96.1971 125.288 95.7704 125.288C95.5037 125.288 95.2211 125.459 94.9224 125.8C94.6344 126.131 94.3571 126.563 94.0904 127.096C93.8237 127.629 93.5944 128.184 93.4024 128.76Z" fill="#646568"/>
<path d="M87.6697 133.08C87.4671 133.08 87.2857 133.005 87.1257 132.856C86.9657 132.696 86.8857 132.451 86.8857 132.12C86.8857 131.885 86.9177 131.56 86.9817 131.144C87.0457 130.717 87.1311 130.253 87.2377 129.752C87.3444 129.251 87.4564 128.755 87.5737 128.264C87.7017 127.763 87.8297 127.315 87.9577 126.92C88.0857 126.525 88.1977 126.232 88.2937 126.04C88.3791 125.891 88.4591 125.795 88.5337 125.752C88.6191 125.709 88.6991 125.688 88.7737 125.688C88.9231 125.688 89.0511 125.736 89.1577 125.832C89.2751 125.928 89.3337 126.115 89.3337 126.392C89.3337 126.552 89.3017 126.819 89.2377 127.192C89.1844 127.555 89.1097 127.981 89.0137 128.472C88.9284 128.952 88.8324 129.448 88.7257 129.96C88.6297 130.461 88.5337 130.941 88.4377 131.4C88.3417 131.859 88.2671 132.243 88.2137 132.552C88.1711 132.723 88.0964 132.856 87.9897 132.952C87.8937 133.037 87.7871 133.08 87.6697 133.08ZM89.2377 124.232C88.9924 124.232 88.7577 124.157 88.5337 124.008C88.3204 123.859 88.2137 123.619 88.2137 123.288C88.2137 123.011 88.2777 122.787 88.4057 122.616C88.5444 122.445 88.7044 122.323 88.8857 122.248C89.0777 122.163 89.2431 122.12 89.3817 122.12C89.5204 122.12 89.6751 122.152 89.8457 122.216C90.0271 122.269 90.1817 122.376 90.3097 122.536C90.4377 122.685 90.5017 122.909 90.5017 123.208C90.5017 123.411 90.4324 123.592 90.2937 123.752C90.1551 123.901 89.9844 124.019 89.7817 124.104C89.5897 124.189 89.4084 124.232 89.2377 124.232Z" fill="#646568"/>
<path d="M83.2453 124.952C83.5333 124.259 83.8053 123.544 84.0613 122.808C84.328 122.072 84.568 121.32 84.7813 120.552C84.8453 120.339 84.9413 120.168 85.0693 120.04C85.208 119.901 85.368 119.832 85.5493 119.832C85.6773 119.832 85.784 119.88 85.8693 119.976C85.9653 120.072 86.0133 120.2 86.0133 120.36C86.0133 120.563 85.9333 120.915 85.7733 121.416C85.624 121.917 85.432 122.552 85.1973 123.32C84.9733 124.088 84.744 124.973 84.5093 125.976C84.2853 126.968 84.0933 128.067 83.9333 129.272C83.784 130.477 83.7093 131.763 83.7093 133.128C83.7093 133.427 83.6453 133.672 83.5173 133.864C83.3893 134.067 83.2346 134.168 83.0533 134.168C82.9466 134.168 82.8453 134.141 82.7493 134.088C82.6533 134.035 82.568 133.907 82.4933 133.704C82.4293 133.512 82.376 133.208 82.3333 132.792C82.2906 132.365 82.2693 131.789 82.2693 131.064C82.2693 130.509 82.3013 129.907 82.3653 129.256C81.8746 130.141 81.3413 130.915 80.7653 131.576C80.2 132.227 79.6506 132.728 79.1173 133.08C78.5946 133.432 78.1466 133.608 77.7733 133.608C77.3146 133.608 76.9413 133.453 76.6533 133.144C76.376 132.845 76.2373 132.397 76.2373 131.8C76.2373 131.277 76.36 130.739 76.6053 130.184C76.8506 129.629 77.176 129.085 77.5813 128.552C77.9866 128.008 78.4346 127.496 78.9253 127.016C79.416 126.536 79.9066 126.115 80.3973 125.752C80.8986 125.379 81.3626 125.091 81.7893 124.888C82.216 124.675 82.5626 124.568 82.8293 124.568C82.936 124.568 83.032 124.605 83.1173 124.68C83.2026 124.755 83.2453 124.845 83.2453 124.952ZM83.0373 125.448C82.9626 125.523 82.872 125.597 82.7653 125.672C82.6586 125.747 82.5413 125.827 82.4133 125.912C81.944 126.243 81.4266 126.627 80.8613 127.064C80.3066 127.491 79.7733 127.96 79.2613 128.472C78.76 128.973 78.3493 129.501 78.0293 130.056C77.7093 130.611 77.5493 131.181 77.5493 131.768C77.5493 132.024 77.6773 132.152 77.9333 132.152C78.2853 132.152 78.6693 131.987 79.0853 131.656C79.512 131.315 79.9493 130.845 80.3973 130.248C80.8453 129.64 81.2933 128.931 81.7413 128.12C82.1893 127.299 82.6213 126.408 83.0373 125.448Z" fill="#646568"/>
<path d="M58.376 132.632C58.0667 132.632 57.7894 132.456 57.544 132.104C57.2987 131.752 57.176 131.299 57.176 130.744C57.176 130.136 57.256 129.485 57.416 128.792C57.5867 128.099 57.7947 127.395 58.04 126.68C58.2854 125.955 58.5254 125.256 58.76 124.584C58.8134 124.445 58.888 124.344 58.984 124.28C59.0907 124.205 59.2507 124.168 59.464 124.168C59.848 124.168 60.04 124.355 60.04 124.728C60.04 124.813 59.9974 125.005 59.912 125.304C59.8267 125.603 59.7147 125.971 59.576 126.408C59.448 126.845 59.3147 127.32 59.176 127.832C59.0374 128.333 58.9147 128.84 58.808 129.352C58.7014 129.864 58.6267 130.339 58.584 130.776C58.7547 130.595 58.9467 130.317 59.16 129.944C59.384 129.571 59.624 129.149 59.88 128.68C60.136 128.2 60.4027 127.72 60.68 127.24C60.9574 126.749 61.2347 126.301 61.512 125.896C61.8 125.48 62.0774 125.149 62.344 124.904C62.6214 124.648 62.8774 124.52 63.112 124.52C63.4534 124.52 63.7414 124.627 63.976 124.84C64.2214 125.043 64.408 125.405 64.536 125.928C64.6747 126.44 64.744 127.165 64.744 128.104C64.744 128.605 64.792 129.075 64.888 129.512C64.9947 129.949 65.16 130.301 65.384 130.568C65.6187 130.824 65.9174 130.952 66.28 130.952C66.824 130.952 67.3094 130.856 67.736 130.664C68.1627 130.461 68.5307 130.237 68.84 129.992C69.16 129.736 69.4267 129.512 69.64 129.32C69.8534 129.117 70.0187 129.016 70.136 129.016C70.3814 129.016 70.504 129.144 70.504 129.4C70.504 129.507 70.424 129.677 70.264 129.912C70.1147 130.136 69.9014 130.392 69.624 130.68C69.3574 130.957 69.048 131.229 68.696 131.496C68.3547 131.752 67.9867 131.965 67.592 132.136C67.208 132.307 66.8187 132.392 66.424 132.392C65.688 132.392 65.0854 132.248 64.616 131.96C64.1574 131.672 63.816 131.197 63.592 130.536C63.3787 129.875 63.272 128.989 63.272 127.88C63.272 127.272 63.2347 126.829 63.16 126.552C63.096 126.264 62.9734 126.072 62.792 125.976C62.664 126.2 62.4987 126.52 62.296 126.936C62.0934 127.341 61.8587 127.795 61.592 128.296C61.336 128.797 61.064 129.304 60.776 129.816C60.4987 130.317 60.216 130.781 59.928 131.208C59.64 131.635 59.3627 131.981 59.096 132.248C58.8294 132.504 58.5894 132.632 58.376 132.632Z" fill="#646568"/>
<path d="M53.201 133.08C52.9983 133.08 52.817 133.005 52.657 132.856C52.497 132.696 52.417 132.451 52.417 132.12C52.417 131.885 52.449 131.56 52.513 131.144C52.577 130.717 52.6623 130.253 52.769 129.752C52.8757 129.251 52.9877 128.755 53.105 128.264C53.233 127.763 53.361 127.315 53.489 126.92C53.617 126.525 53.729 126.232 53.825 126.04C53.9103 125.891 53.9903 125.795 54.065 125.752C54.1503 125.709 54.2303 125.688 54.305 125.688C54.4543 125.688 54.5823 125.736 54.689 125.832C54.8063 125.928 54.865 126.115 54.865 126.392C54.865 126.552 54.833 126.819 54.769 127.192C54.7157 127.555 54.641 127.981 54.545 128.472C54.4597 128.952 54.3637 129.448 54.257 129.96C54.161 130.461 54.065 130.941 53.969 131.4C53.873 131.859 53.7983 132.243 53.745 132.552C53.7023 132.723 53.6277 132.856 53.521 132.952C53.425 133.037 53.3183 133.08 53.201 133.08ZM54.769 124.232C54.5237 124.232 54.289 124.157 54.065 124.008C53.8517 123.859 53.745 123.619 53.745 123.288C53.745 123.011 53.809 122.787 53.937 122.616C54.0757 122.445 54.2357 122.323 54.417 122.248C54.609 122.163 54.7743 122.12 54.913 122.12C55.0517 122.12 55.2063 122.152 55.377 122.216C55.5583 122.269 55.713 122.376 55.841 122.536C55.969 122.685 56.033 122.909 56.033 123.208C56.033 123.411 55.9637 123.592 55.825 123.752C55.6863 123.901 55.5157 124.019 55.313 124.104C55.121 124.189 54.9397 124.232 54.769 124.232Z" fill="#646568"/>
<path d="M167.536 111.72C167.301 111.72 167.12 111.651 166.992 111.512C166.864 111.384 166.8 111.059 166.8 110.536C166.8 110.056 166.885 109.432 167.056 108.664C167.226 107.885 167.456 107.021 167.744 106.072C168.032 105.123 168.357 104.141 168.72 103.128C169.082 102.104 169.461 101.101 169.856 100.12C170.261 99.128 170.65 98.2213 171.024 97.4C171.162 97.1013 171.306 96.8933 171.456 96.776C171.605 96.6586 171.781 96.6 171.984 96.6C172.122 96.6 172.24 96.6426 172.336 96.728C172.442 96.8026 172.496 96.9306 172.496 97.112C172.496 97.176 172.426 97.384 172.288 97.736C172.16 98.088 171.978 98.552 171.744 99.128C171.52 99.704 171.269 100.349 170.992 101.064C170.714 101.779 170.432 102.531 170.144 103.32C169.856 104.109 169.584 104.904 169.328 105.704C169.072 106.493 168.853 107.251 168.672 107.976C168.49 108.701 168.368 109.352 168.304 109.928C168.56 109.619 168.853 109.224 169.184 108.744C169.514 108.264 169.866 107.747 170.24 107.192C170.613 106.637 170.992 106.088 171.376 105.544C171.76 105 172.138 104.504 172.512 104.056C172.885 103.608 173.232 103.251 173.552 102.984C173.882 102.707 174.17 102.568 174.416 102.568C174.821 102.568 175.146 102.696 175.392 102.952C175.648 103.197 175.776 103.603 175.776 104.168C175.776 104.488 175.712 104.872 175.584 105.32C175.466 105.768 175.328 106.237 175.168 106.728C175.008 107.219 174.864 107.688 174.736 108.136C174.618 108.584 174.56 108.968 174.56 109.288C174.56 109.725 174.725 109.944 175.056 109.944C175.568 109.944 176.08 109.832 176.592 109.608C177.114 109.384 177.61 109.107 178.08 108.776C178.549 108.435 178.981 108.093 179.376 107.752C179.77 107.4 180.106 107.101 180.384 106.856C180.682 106.589 180.933 106.456 181.136 106.456C181.392 106.456 181.52 106.589 181.52 106.856C181.52 106.931 181.504 107.016 181.472 107.112C181.44 107.208 181.354 107.331 181.216 107.48C181.045 107.672 180.8 107.923 180.48 108.232C180.17 108.541 179.808 108.872 179.392 109.224C178.986 109.576 178.544 109.907 178.064 110.216C177.594 110.525 177.109 110.781 176.608 110.984C176.117 111.176 175.637 111.272 175.168 111.272C174.528 111.272 174.032 111.091 173.68 110.728C173.338 110.355 173.168 109.843 173.168 109.192C173.168 108.787 173.232 108.296 173.36 107.72C173.488 107.144 173.648 106.536 173.84 105.896C174.042 105.245 174.245 104.611 174.448 103.992C174.106 104.227 173.733 104.579 173.328 105.048C172.933 105.507 172.517 106.029 172.08 106.616C171.642 107.192 171.205 107.779 170.768 108.376C170.341 108.973 169.925 109.528 169.52 110.04C169.125 110.541 168.757 110.947 168.416 111.256C168.074 111.565 167.781 111.72 167.536 111.72Z" fill="#646568"/>
<path d="M160.584 111.224C160.061 111.224 159.608 111.107 159.224 110.872C158.851 110.627 158.563 110.312 158.36 109.928C158.157 109.544 158.056 109.149 158.056 108.744C158.056 107.891 158.205 107.112 158.504 106.408C158.803 105.693 159.176 105.064 159.624 104.52C160.083 103.965 160.552 103.496 161.032 103.112C161.523 102.728 161.965 102.44 162.36 102.248C162.765 102.045 163.053 101.944 163.224 101.944C163.565 101.944 163.736 102.115 163.736 102.456C163.736 102.616 163.629 102.803 163.416 103.016C163.203 103.219 162.931 103.459 162.6 103.736C162.269 104.013 161.917 104.328 161.544 104.68C161.171 105.021 160.819 105.411 160.488 105.848C160.157 106.275 159.885 106.755 159.672 107.288C159.459 107.811 159.352 108.387 159.352 109.016C159.352 109.656 159.613 109.976 160.136 109.976C160.616 109.976 161.107 109.885 161.608 109.704C162.12 109.523 162.621 109.288 163.112 109C163.613 108.701 164.093 108.392 164.552 108.072C165.011 107.752 165.427 107.448 165.8 107.16C166.173 106.861 166.488 106.621 166.744 106.44C167 106.259 167.181 106.168 167.288 106.168C167.501 106.168 167.608 106.285 167.608 106.52C167.608 106.701 167.485 106.941 167.24 107.24C166.995 107.539 166.664 107.864 166.248 108.216C165.832 108.568 165.368 108.925 164.856 109.288C164.344 109.64 163.827 109.965 163.304 110.264C162.781 110.552 162.28 110.787 161.8 110.968C161.331 111.139 160.925 111.224 160.584 111.224Z" fill="#646568"/>
<path d="M147.334 111.416C146.928 111.416 146.592 111.229 146.326 110.856C146.07 110.472 145.942 109.976 145.942 109.368C145.942 108.803 146.08 108.243 146.358 107.688C146.646 107.133 147.024 106.6 147.494 106.088C147.963 105.576 148.475 105.107 149.03 104.68C149.584 104.243 150.139 103.864 150.694 103.544C151.259 103.224 151.776 102.973 152.246 102.792C152.715 102.611 153.088 102.52 153.366 102.52C153.515 102.52 153.638 102.552 153.734 102.616C153.83 102.669 153.878 102.771 153.878 102.92C153.878 103.016 153.84 103.107 153.766 103.192C153.776 103.192 153.787 103.192 153.798 103.192C154.032 103.192 154.15 103.331 154.15 103.608C154.15 103.704 154.112 103.901 154.038 104.2C153.963 104.488 153.878 104.851 153.782 105.288C153.686 105.725 153.6 106.211 153.526 106.744C153.451 107.267 153.414 107.8 153.414 108.344C153.414 108.803 153.59 109.032 153.942 109.032C154.336 109.032 154.736 108.941 155.142 108.76C155.547 108.579 155.942 108.36 156.326 108.104C156.71 107.837 157.062 107.576 157.382 107.32C157.702 107.053 157.974 106.829 158.198 106.648C158.422 106.467 158.582 106.376 158.678 106.376C158.763 106.376 158.838 106.403 158.902 106.456C158.966 106.509 158.998 106.595 158.998 106.712C158.998 106.819 158.891 107.011 158.678 107.288C158.464 107.565 158.182 107.88 157.83 108.232C157.478 108.584 157.083 108.925 156.646 109.256C156.208 109.587 155.76 109.859 155.302 110.072C154.843 110.285 154.406 110.392 153.99 110.392C153.67 110.392 153.376 110.296 153.11 110.104C152.854 109.901 152.646 109.56 152.486 109.08C152.336 108.6 152.262 107.939 152.262 107.096V106.696C151.739 107.56 151.19 108.349 150.614 109.064C150.048 109.779 149.483 110.349 148.918 110.776C148.363 111.203 147.835 111.416 147.334 111.416ZM153.062 103.672C153.008 103.693 152.934 103.725 152.838 103.768C152.347 103.992 151.835 104.269 151.302 104.6C150.779 104.931 150.267 105.299 149.766 105.704C149.275 106.109 148.832 106.531 148.438 106.968C148.043 107.405 147.728 107.848 147.494 108.296C147.259 108.744 147.142 109.181 147.142 109.608C147.142 109.747 147.168 109.853 147.222 109.928C147.286 110.003 147.392 110.04 147.542 110.04C147.755 110.04 148.032 109.907 148.374 109.64C148.715 109.363 149.088 109 149.494 108.552C149.91 108.104 150.326 107.608 150.742 107.064C151.158 106.52 151.552 105.971 151.926 105.416C152.31 104.861 152.64 104.349 152.918 103.88C152.96 103.805 153.008 103.736 153.062 103.672Z" fill="#646568"/>
<path d="M140.532 112.424C140.351 112.424 140.207 112.36 140.1 112.232C139.994 112.104 139.94 111.891 139.94 111.592C139.94 111.059 139.967 110.509 140.02 109.944C140.084 109.368 140.116 108.835 140.116 108.344C140.116 107.224 140.015 106.301 139.812 105.576C139.62 104.84 139.199 104.344 138.548 104.088C138.399 104.035 138.292 103.976 138.228 103.912C138.154 103.848 138.116 103.747 138.116 103.608C138.116 103.459 138.175 103.336 138.292 103.24C138.399 103.144 138.602 103.096 138.9 103.096C139.146 103.096 139.471 103.107 139.876 103.128C140.282 103.149 140.719 103.171 141.188 103.192C141.519 102.008 141.892 101.027 142.308 100.248C142.724 99.4694 143.178 98.856 143.668 98.408C144.17 97.96 144.698 97.64 145.252 97.448C145.818 97.256 146.404 97.16 147.012 97.16C147.279 97.16 147.45 97.1974 147.524 97.272C147.599 97.336 147.636 97.4374 147.636 97.576C147.636 97.7467 147.583 97.928 147.476 98.12C147.37 98.3014 147.151 98.4187 146.82 98.472C146.095 98.6 145.45 98.8347 144.884 99.176C144.319 99.5174 143.828 100.013 143.412 100.664C142.996 101.304 142.65 102.147 142.372 103.192C143.396 103.171 144.276 103.117 145.012 103.032C145.748 102.936 146.362 102.835 146.852 102.728C147.354 102.611 147.754 102.515 148.052 102.44C148.351 102.355 148.58 102.312 148.74 102.312C148.922 102.312 149.034 102.36 149.076 102.456C149.119 102.552 149.14 102.653 149.14 102.76C149.14 102.963 148.948 103.16 148.564 103.352C148.18 103.533 147.674 103.699 147.044 103.848C146.426 103.987 145.743 104.099 144.996 104.184C144.25 104.269 143.514 104.312 142.788 104.312C142.671 104.312 142.554 104.312 142.436 104.312C142.33 104.312 142.218 104.312 142.1 104.312C142.079 104.387 142.063 104.467 142.052 104.552C141.946 105.171 141.839 105.827 141.732 106.52C141.636 107.203 141.546 107.875 141.46 108.536C141.386 109.187 141.327 109.779 141.284 110.312C141.242 110.845 141.22 111.272 141.22 111.592C141.22 111.859 141.156 112.061 141.028 112.2C140.9 112.349 140.735 112.424 140.532 112.424ZM140.916 104.248C140.607 104.216 140.319 104.173 140.052 104.12C140.191 104.28 140.308 104.467 140.404 104.68C140.511 104.893 140.602 105.123 140.676 105.368C140.751 104.973 140.831 104.6 140.916 104.248Z" fill="#646568"/>
<path d="M128.462 110.632C128.153 110.632 127.875 110.456 127.63 110.104C127.385 109.752 127.262 109.299 127.262 108.744C127.262 108.136 127.342 107.485 127.502 106.792C127.673 106.099 127.881 105.395 128.126 104.68C128.371 103.955 128.611 103.256 128.846 102.584C128.899 102.445 128.974 102.344 129.07 102.28C129.177 102.205 129.337 102.168 129.55 102.168C129.934 102.168 130.126 102.355 130.126 102.728C130.126 102.813 130.083 103.005 129.998 103.304C129.913 103.603 129.801 103.971 129.662 104.408C129.534 104.845 129.401 105.32 129.262 105.832C129.123 106.333 129.001 106.84 128.894 107.352C128.787 107.864 128.713 108.339 128.67 108.776C128.841 108.595 129.033 108.317 129.246 107.944C129.47 107.571 129.71 107.149 129.966 106.68C130.222 106.2 130.489 105.72 130.766 105.24C131.043 104.749 131.321 104.301 131.598 103.896C131.886 103.48 132.163 103.149 132.43 102.904C132.707 102.648 132.963 102.52 133.198 102.52C133.539 102.52 133.827 102.627 134.062 102.84C134.307 103.043 134.494 103.405 134.622 103.928C134.761 104.44 134.83 105.165 134.83 106.104C134.83 106.605 134.878 107.075 134.974 107.512C135.081 107.949 135.246 108.301 135.47 108.568C135.705 108.824 136.003 108.952 136.366 108.952C136.91 108.952 137.395 108.856 137.822 108.664C138.249 108.461 138.617 108.237 138.926 107.992C139.246 107.736 139.513 107.512 139.726 107.32C139.939 107.117 140.105 107.016 140.222 107.016C140.467 107.016 140.59 107.144 140.59 107.4C140.59 107.507 140.51 107.677 140.35 107.912C140.201 108.136 139.987 108.392 139.71 108.68C139.443 108.957 139.134 109.229 138.782 109.496C138.441 109.752 138.073 109.965 137.678 110.136C137.294 110.307 136.905 110.392 136.51 110.392C135.774 110.392 135.171 110.248 134.702 109.96C134.243 109.672 133.902 109.197 133.678 108.536C133.465 107.875 133.358 106.989 133.358 105.88C133.358 105.272 133.321 104.829 133.246 104.552C133.182 104.264 133.059 104.072 132.878 103.976C132.75 104.2 132.585 104.52 132.382 104.936C132.179 105.341 131.945 105.795 131.678 106.296C131.422 106.797 131.15 107.304 130.862 107.816C130.585 108.317 130.302 108.781 130.014 109.208C129.726 109.635 129.449 109.981 129.182 110.248C128.915 110.504 128.675 110.632 128.462 110.632Z" fill="#646568"/>
<path d="M123.287 111.08C123.084 111.08 122.903 111.005 122.743 110.856C122.583 110.696 122.503 110.451 122.503 110.12C122.503 109.885 122.535 109.56 122.599 109.144C122.663 108.717 122.748 108.253 122.855 107.752C122.962 107.251 123.074 106.755 123.191 106.264C123.319 105.763 123.447 105.315 123.575 104.92C123.703 104.525 123.815 104.232 123.911 104.04C123.996 103.891 124.076 103.795 124.151 103.752C124.236 103.709 124.316 103.688 124.391 103.688C124.54 103.688 124.668 103.736 124.775 103.832C124.892 103.928 124.951 104.115 124.951 104.392C124.951 104.552 124.919 104.819 124.855 105.192C124.802 105.555 124.727 105.981 124.631 106.472C124.546 106.952 124.45 107.448 124.343 107.96C124.247 108.461 124.151 108.941 124.055 109.4C123.959 109.859 123.884 110.243 123.831 110.552C123.788 110.723 123.714 110.856 123.607 110.952C123.511 111.037 123.404 111.08 123.287 111.08ZM124.855 102.232C124.61 102.232 124.375 102.157 124.151 102.008C123.938 101.859 123.831 101.619 123.831 101.288C123.831 101.011 123.895 100.787 124.023 100.616C124.162 100.445 124.322 100.323 124.503 100.248C124.695 100.163 124.86 100.12 124.999 100.12C125.138 100.12 125.292 100.152 125.463 100.216C125.644 100.269 125.799 100.376 125.927 100.536C126.055 100.685 126.119 100.909 126.119 101.208C126.119 101.411 126.05 101.592 125.911 101.752C125.772 101.901 125.602 102.019 125.399 102.104C125.207 102.189 125.026 102.232 124.855 102.232Z" fill="#646568"/>
<path d="M120.155 104.104C120.155 104.445 120.048 104.781 119.835 105.112C119.622 105.432 119.339 105.741 118.987 106.04C118.635 106.328 118.246 106.6 117.819 106.856C117.392 107.112 116.966 107.336 116.539 107.528C116.112 107.72 115.723 107.875 115.371 107.992C115.286 108.408 115.243 108.776 115.243 109.096C115.243 109.299 115.291 109.443 115.387 109.528C115.483 109.613 115.632 109.656 115.835 109.656C116.283 109.656 116.758 109.576 117.259 109.416C117.76 109.256 118.272 109.048 118.795 108.792C119.318 108.536 119.819 108.264 120.299 107.976C120.779 107.688 121.216 107.416 121.611 107.16C122.016 106.904 122.352 106.696 122.619 106.536C122.886 106.376 123.062 106.296 123.147 106.296C123.275 106.296 123.371 106.339 123.435 106.424C123.51 106.499 123.547 106.589 123.547 106.696C123.547 106.781 123.414 106.947 123.147 107.192C122.891 107.437 122.544 107.725 122.107 108.056C121.67 108.376 121.179 108.707 120.635 109.048C120.091 109.389 119.526 109.709 118.939 110.008C118.363 110.307 117.803 110.547 117.259 110.728C116.726 110.909 116.246 111 115.819 111C115.264 111 114.832 110.792 114.523 110.376C114.214 109.96 114.059 109.315 114.059 108.44C114.059 107.853 114.134 107.261 114.283 106.664C114.443 106.067 114.656 105.496 114.923 104.952C115.2 104.397 115.504 103.907 115.835 103.48C116.176 103.043 116.534 102.701 116.907 102.456C117.28 102.2 117.643 102.072 117.995 102.072C118.667 102.072 119.195 102.259 119.579 102.632C119.963 103.005 120.155 103.496 120.155 104.104ZM115.707 106.76C116.038 106.557 116.379 106.344 116.731 106.12C117.083 105.896 117.408 105.667 117.707 105.432C118.006 105.197 118.246 104.952 118.427 104.696C118.619 104.429 118.715 104.157 118.715 103.88C118.715 103.485 118.502 103.288 118.075 103.288C117.808 103.288 117.526 103.459 117.227 103.8C116.939 104.131 116.662 104.563 116.395 105.096C116.128 105.629 115.899 106.184 115.707 106.76Z" fill="#646568"/>
<path d="M103.843 104.104C103.843 104.445 103.736 104.781 103.523 105.112C103.309 105.432 103.027 105.741 102.675 106.04C102.323 106.328 101.933 106.6 101.507 106.856C101.08 107.112 100.653 107.336 100.227 107.528C99.7999 107.72 99.4106 107.875 99.0586 107.992C98.9732 108.408 98.9306 108.776 98.9306 109.096C98.9306 109.299 98.9786 109.443 99.0746 109.528C99.1706 109.613 99.3199 109.656 99.5226 109.656C99.9706 109.656 100.445 109.576 100.947 109.416C101.448 109.256 101.96 109.048 102.483 108.792C103.005 108.536 103.507 108.264 103.987 107.976C104.467 107.688 104.904 107.416 105.299 107.16C105.704 106.904 106.04 106.696 106.307 106.536C106.573 106.376 106.749 106.296 106.835 106.296C106.963 106.296 107.059 106.339 107.123 106.424C107.197 106.499 107.235 106.589 107.235 106.696C107.235 106.781 107.101 106.947 106.835 107.192C106.579 107.437 106.232 107.725 105.795 108.056C105.357 108.376 104.867 108.707 104.323 109.048C103.779 109.389 103.213 109.709 102.627 110.008C102.051 110.307 101.491 110.547 100.947 110.728C100.413 110.909 99.9332 111 99.5066 111C98.9519 111 98.5199 110.792 98.2106 110.376C97.9012 109.96 97.7466 109.315 97.7466 108.44C97.7466 107.853 97.8212 107.261 97.9706 106.664C98.1306 106.067 98.3439 105.496 98.6106 104.952C98.8879 104.397 99.1919 103.907 99.5226 103.48C99.8639 103.043 100.221 102.701 100.595 102.456C100.968 102.2 101.331 102.072 101.683 102.072C102.355 102.072 102.883 102.259 103.267 102.632C103.651 103.005 103.843 103.496 103.843 104.104ZM99.3946 106.76C99.7252 106.557 100.067 106.344 100.419 106.12C100.771 105.896 101.096 105.667 101.395 105.432C101.693 105.197 101.933 104.952 102.115 104.696C102.307 104.429 102.403 104.157 102.403 103.88C102.403 103.485 102.189 103.288 101.763 103.288C101.496 103.288 101.213 103.459 100.915 103.8C100.627 104.131 100.349 104.563 100.083 105.096C99.8159 105.629 99.5866 106.184 99.3946 106.76Z" fill="#646568"/>
<path d="M88.4623 105.88C88.1743 105.859 88.0409 105.672 88.0623 105.32C88.0729 105.235 88.1316 105.133 88.2383 105.016C88.3449 104.888 88.4676 104.819 88.6063 104.808C88.9369 104.776 89.3423 104.728 89.8223 104.664C90.3129 104.589 90.8516 104.504 91.4383 104.408C91.5449 103.885 91.6729 103.336 91.8223 102.76C91.9716 102.184 92.1369 101.624 92.3183 101.08C92.4996 100.525 92.6916 100.024 92.8943 99.576C93.0969 99.128 93.3103 98.776 93.5343 98.52C93.6516 98.4026 93.7583 98.3226 93.8543 98.28C93.9503 98.2266 94.0356 98.2 94.1103 98.2C94.2596 98.2 94.3769 98.264 94.4623 98.392C94.5583 98.52 94.6063 98.664 94.6063 98.824C94.6063 98.9093 94.5903 98.9946 94.5583 99.08C94.3449 99.6773 94.1156 100.413 93.8703 101.288C93.6249 102.163 93.3636 103.117 93.0863 104.152C94.0676 103.992 95.0489 103.821 96.0303 103.64C97.0116 103.459 97.8543 103.293 98.5583 103.144C98.7609 103.059 98.9156 103.075 99.0223 103.192C99.1396 103.309 99.1983 103.427 99.1983 103.544C99.1983 103.693 99.1556 103.805 99.0703 103.88C98.9956 103.955 98.9156 104.019 98.8303 104.072L98.8143 104.088C98.6009 104.173 98.2809 104.275 97.8543 104.392C97.4276 104.499 96.9369 104.616 96.3823 104.744C95.8276 104.861 95.2356 104.979 94.6063 105.096C93.9876 105.213 93.3743 105.32 92.7663 105.416C92.5209 106.355 92.2703 107.32 92.0143 108.312C91.7689 109.293 91.5236 110.259 91.2783 111.208C91.1716 111.592 91.0489 111.832 90.9103 111.928C90.7823 112.035 90.6436 112.088 90.4943 112.088C90.3236 112.088 90.1743 112.024 90.0463 111.896C89.9289 111.768 89.9129 111.507 89.9983 111.112L91.1663 105.656C90.5263 105.752 89.9609 105.821 89.4703 105.864C88.9903 105.907 88.6543 105.912 88.4623 105.88Z" fill="#646568"/>
<path d="M78.462 110.632C78.1526 110.632 77.8753 110.456 77.63 110.104C77.3846 109.752 77.262 109.299 77.262 108.744C77.262 108.136 77.342 107.485 77.502 106.792C77.6726 106.099 77.8806 105.395 78.126 104.68C78.3713 103.955 78.6113 103.256 78.846 102.584C78.8993 102.445 78.974 102.344 79.07 102.28C79.1766 102.205 79.3366 102.168 79.55 102.168C79.934 102.168 80.126 102.355 80.126 102.728C80.126 102.813 80.0833 103.005 79.998 103.304C79.9126 103.603 79.8006 103.971 79.662 104.408C79.534 104.845 79.4006 105.32 79.262 105.832C79.1233 106.333 79.0006 106.84 78.894 107.352C78.7873 107.864 78.7126 108.339 78.67 108.776C78.8406 108.595 79.0326 108.317 79.246 107.944C79.47 107.571 79.71 107.149 79.966 106.68C80.222 106.2 80.4886 105.72 80.766 105.24C81.0433 104.749 81.3206 104.301 81.598 103.896C81.886 103.48 82.1633 103.149 82.43 102.904C82.7073 102.648 82.9633 102.52 83.198 102.52C83.5393 102.52 83.8273 102.627 84.062 102.84C84.3073 103.043 84.494 103.405 84.622 103.928C84.7606 104.44 84.83 105.165 84.83 106.104C84.83 106.605 84.878 107.075 84.974 107.512C85.0806 107.949 85.246 108.301 85.47 108.568C85.7046 108.824 86.0033 108.952 86.366 108.952C86.91 108.952 87.3953 108.856 87.822 108.664C88.2486 108.461 88.6166 108.237 88.926 107.992C89.246 107.736 89.5126 107.512 89.726 107.32C89.9393 107.117 90.1046 107.016 90.222 107.016C90.4673 107.016 90.59 107.144 90.59 107.4C90.59 107.507 90.51 107.677 90.35 107.912C90.2006 108.136 89.9873 108.392 89.71 108.68C89.4433 108.957 89.134 109.229 88.782 109.496C88.4406 109.752 88.0726 109.965 87.678 110.136C87.294 110.307 86.9046 110.392 86.51 110.392C85.774 110.392 85.1713 110.248 84.702 109.96C84.2433 109.672 83.902 109.197 83.678 108.536C83.4646 107.875 83.358 106.989 83.358 105.88C83.358 105.272 83.3206 104.829 83.246 104.552C83.182 104.264 83.0593 104.072 82.878 103.976C82.75 104.2 82.5846 104.52 82.382 104.936C82.1793 105.341 81.9446 105.795 81.678 106.296C81.422 106.797 81.15 107.304 80.862 107.816C80.5846 108.317 80.302 108.781 80.014 109.208C79.726 109.635 79.4486 109.981 79.182 110.248C78.9153 110.504 78.6753 110.632 78.462 110.632Z" fill="#646568"/>
<path d="M74.8426 104.104C74.8426 104.445 74.7359 104.781 74.5226 105.112C74.3092 105.432 74.0266 105.741 73.6746 106.04C73.3226 106.328 72.9333 106.6 72.5066 106.856C72.0799 107.112 71.6532 107.336 71.2266 107.528C70.7999 107.72 70.4106 107.875 70.0586 107.992C69.9732 108.408 69.9306 108.776 69.9306 109.096C69.9306 109.299 69.9786 109.443 70.0746 109.528C70.1706 109.613 70.3199 109.656 70.5226 109.656C70.9706 109.656 71.4452 109.576 71.9466 109.416C72.4479 109.256 72.9599 109.048 73.4826 108.792C74.0052 108.536 74.5066 108.264 74.9866 107.976C75.4666 107.688 75.9039 107.416 76.2986 107.16C76.7039 106.904 77.0399 106.696 77.3066 106.536C77.5733 106.376 77.7493 106.296 77.8346 106.296C77.9626 106.296 78.0586 106.339 78.1226 106.424C78.1973 106.499 78.2346 106.589 78.2346 106.696C78.2346 106.781 78.1013 106.947 77.8346 107.192C77.5786 107.437 77.2319 107.725 76.7946 108.056C76.3572 108.376 75.8666 108.707 75.3226 109.048C74.7786 109.389 74.2132 109.709 73.6266 110.008C73.0506 110.307 72.4906 110.547 71.9466 110.728C71.4132 110.909 70.9333 111 70.5066 111C69.9519 111 69.5199 110.792 69.2106 110.376C68.9012 109.96 68.7466 109.315 68.7466 108.44C68.7466 107.853 68.8213 107.261 68.9706 106.664C69.1306 106.067 69.3439 105.496 69.6106 104.952C69.8879 104.397 70.1919 103.907 70.5226 103.48C70.8639 103.043 71.2212 102.701 71.5946 102.456C71.9679 102.2 72.3306 102.072 72.6826 102.072C73.3546 102.072 73.8826 102.259 74.2666 102.632C74.6506 103.005 74.8426 103.496 74.8426 104.104ZM70.3946 106.76C70.7253 106.557 71.0666 106.344 71.4186 106.12C71.7706 105.896 72.0959 105.667 72.3946 105.432C72.6933 105.197 72.9332 104.952 73.1146 104.696C73.3066 104.429 73.4026 104.157 73.4026 103.88C73.4026 103.485 73.1893 103.288 72.7626 103.288C72.4959 103.288 72.2133 103.459 71.9146 103.8C71.6266 104.131 71.3493 104.563 71.0826 105.096C70.8159 105.629 70.5866 106.184 70.3946 106.76Z" fill="#646568"/>
<path d="M65.2317 110.52C65.221 110.691 65.1517 110.829 65.0237 110.936C64.8957 111.043 64.7464 111.096 64.5757 111.096C64.3837 111.096 64.2237 111.032 64.0957 110.904C63.9677 110.776 63.9037 110.579 63.9037 110.312C63.9037 109.619 63.9357 108.867 63.9997 108.056C64.0637 107.235 64.1437 106.424 64.2397 105.624C64.3357 104.813 64.4317 104.067 64.5277 103.384C64.1757 103.885 63.7917 104.44 63.3757 105.048C62.9704 105.656 62.5544 106.259 62.1277 106.856C61.701 107.453 61.285 108.003 60.8797 108.504C60.4743 108.995 60.1063 109.395 59.7757 109.704C59.445 110.003 59.173 110.152 58.9597 110.152C58.565 110.152 58.2237 109.997 57.9357 109.688C57.6477 109.368 57.5037 108.968 57.5037 108.488C57.5037 108.296 57.525 108.035 57.5677 107.704C57.6104 107.363 57.6583 107.005 57.7117 106.632C57.765 106.259 57.813 105.912 57.8557 105.592C57.8984 105.261 57.9197 105.016 57.9197 104.856C57.9197 104.707 57.9037 104.579 57.8717 104.472C57.8503 104.355 57.797 104.296 57.7117 104.296C57.5837 104.296 57.4077 104.44 57.1837 104.728C56.9597 105.005 56.709 105.363 56.4317 105.8C56.165 106.237 55.8877 106.701 55.5997 107.192C55.3224 107.683 55.061 108.147 54.8157 108.584C54.5704 109.011 54.3623 109.347 54.1917 109.592C54.053 109.827 53.925 109.997 53.8077 110.104C53.6904 110.211 53.5463 110.264 53.3757 110.264C53.173 110.264 52.9863 110.157 52.8157 109.944C52.6557 109.731 52.5757 109.469 52.5757 109.16C52.5757 108.979 52.6077 108.696 52.6717 108.312C52.7357 107.917 52.8157 107.485 52.9117 107.016C53.0184 106.547 53.1197 106.088 53.2157 105.64C53.3223 105.181 53.413 104.792 53.4877 104.472C53.573 104.109 53.6797 103.864 53.8077 103.736C53.9357 103.608 54.0744 103.544 54.2237 103.544C54.4264 103.544 54.5864 103.619 54.7037 103.768C54.8317 103.907 54.8957 104.125 54.8957 104.424C54.8957 104.477 54.8637 104.621 54.7997 104.856C54.7357 105.08 54.6557 105.357 54.5597 105.688C54.4743 106.008 54.3783 106.344 54.2717 106.696C54.1757 107.048 54.0957 107.373 54.0317 107.672C54.2663 107.277 54.5117 106.851 54.7677 106.392C55.0343 105.933 55.301 105.48 55.5677 105.032C55.8343 104.573 56.101 104.157 56.3677 103.784C56.6344 103.4 56.8957 103.096 57.1517 102.872C57.4077 102.648 57.653 102.536 57.8877 102.536C58.165 102.536 58.421 102.621 58.6557 102.792C58.901 102.963 59.0983 103.192 59.2477 103.48C59.397 103.768 59.4717 104.088 59.4717 104.44C59.4717 104.685 59.429 105.032 59.3437 105.48C59.2584 105.917 59.1677 106.392 59.0717 106.904C58.9864 107.416 58.933 107.901 58.9117 108.36C58.9117 108.467 58.9437 108.52 59.0077 108.52C59.061 108.52 59.125 108.483 59.1997 108.408C59.509 108.067 59.8504 107.656 60.2237 107.176C60.597 106.685 60.9757 106.168 61.3597 105.624C61.7543 105.08 62.1437 104.547 62.5277 104.024C62.9117 103.491 63.269 103.011 63.5997 102.584C63.941 102.147 64.2397 101.8 64.4957 101.544C64.7624 101.288 64.9704 101.16 65.1197 101.16C65.4397 101.16 65.685 101.251 65.8557 101.432C66.0264 101.613 66.1117 101.917 66.1117 102.344C66.1117 102.685 66.085 103.128 66.0317 103.672C65.989 104.216 65.9304 104.808 65.8557 105.448C65.7917 106.088 65.717 106.733 65.6317 107.384C65.557 108.024 65.4824 108.621 65.4077 109.176C65.333 109.72 65.2744 110.168 65.2317 110.52Z" fill="#646568"/>
<path d="M50.3582 104.104C50.3582 104.445 50.2515 104.781 50.0382 105.112C49.8249 105.432 49.5422 105.741 49.1902 106.04C48.8382 106.328 48.4489 106.6 48.0222 106.856C47.5955 107.112 47.1689 107.336 46.7422 107.528C46.3155 107.72 45.9262 107.875 45.5742 107.992C45.4889 108.408 45.4462 108.776 45.4462 109.096C45.4462 109.299 45.4942 109.443 45.5902 109.528C45.6862 109.613 45.8355 109.656 46.0382 109.656C46.4862 109.656 46.9609 109.576 47.4622 109.416C47.9635 109.256 48.4755 109.048 48.9982 108.792C49.5209 108.536 50.0222 108.264 50.5022 107.976C50.9822 107.688 51.4195 107.416 51.8142 107.16C52.2195 106.904 52.5555 106.696 52.8222 106.536C53.0889 106.376 53.2649 106.296 53.3502 106.296C53.4782 106.296 53.5742 106.339 53.6382 106.424C53.7129 106.499 53.7502 106.589 53.7502 106.696C53.7502 106.781 53.6169 106.947 53.3502 107.192C53.0942 107.437 52.7475 107.725 52.3102 108.056C51.8729 108.376 51.3822 108.707 50.8382 109.048C50.2942 109.389 49.7289 109.709 49.1422 110.008C48.5662 110.307 48.0062 110.547 47.4622 110.728C46.9289 110.909 46.4489 111 46.0222 111C45.4675 111 45.0355 110.792 44.7262 110.376C44.4169 109.96 44.2622 109.315 44.2622 108.44C44.2622 107.853 44.3369 107.261 44.4862 106.664C44.6462 106.067 44.8595 105.496 45.1262 104.952C45.4035 104.397 45.7075 103.907 46.0382 103.48C46.3795 103.043 46.7369 102.701 47.1102 102.456C47.4835 102.2 47.8462 102.072 48.1982 102.072C48.8702 102.072 49.3982 102.259 49.7822 102.632C50.1662 103.005 50.3582 103.496 50.3582 104.104ZM45.9102 106.76C46.2409 106.557 46.5822 106.344 46.9342 106.12C47.2862 105.896 47.6115 105.667 47.9102 105.432C48.2089 105.197 48.4489 104.952 48.6302 104.696C48.8222 104.429 48.9182 104.157 48.9182 103.88C48.9182 103.485 48.7049 103.288 48.2782 103.288C48.0115 103.288 47.7289 103.459 47.4302 103.8C47.1422 104.131 46.8649 104.563 46.5982 105.096C46.3315 105.629 46.1022 106.184 45.9102 106.76Z" fill="#646568"/>
<path d="M39.1899 111.64C38.3686 111.64 37.7233 111.373 37.2539 110.84C36.7953 110.296 36.5659 109.539 36.5659 108.568C36.5659 107.971 36.6459 107.272 36.8059 106.472C36.9766 105.661 37.1899 104.808 37.4459 103.912C37.7126 103.005 38.0006 102.109 38.3099 101.224C38.6193 100.339 38.9179 99.5173 39.2059 98.76C39.5046 97.992 39.7659 97.352 39.9899 96.84C40.1179 96.552 40.2993 96.408 40.5339 96.408C40.8539 96.408 41.0139 96.6053 41.0139 97C41.0139 97.128 40.9553 97.3893 40.8379 97.784C40.7206 98.1786 40.5659 98.6693 40.3739 99.256C40.1819 99.832 39.9739 100.472 39.7499 101.176C39.5259 101.88 39.2966 102.605 39.0619 103.352C38.8379 104.088 38.6299 104.819 38.4379 105.544C38.2459 106.259 38.0913 106.931 37.9739 107.56C37.8566 108.189 37.7979 108.728 37.7979 109.176C37.7979 109.464 37.8726 109.693 38.0219 109.864C38.1819 110.024 38.3953 110.104 38.6619 110.104C39.1526 110.104 39.6433 110.008 40.1339 109.816C40.6353 109.613 41.1153 109.368 41.5739 109.08C42.0326 108.781 42.4486 108.488 42.8219 108.2C43.2059 107.901 43.5313 107.656 43.7979 107.464C44.0646 107.261 44.2513 107.16 44.3579 107.16C44.5926 107.16 44.7099 107.288 44.7099 107.544C44.7099 107.629 44.6246 107.789 44.4539 108.024C44.2833 108.248 44.0539 108.515 43.7659 108.824C43.4779 109.133 43.1419 109.453 42.7579 109.784C42.3846 110.104 41.9899 110.408 41.5739 110.696C41.1686 110.973 40.7579 111.197 40.3419 111.368C39.9366 111.549 39.5526 111.64 39.1899 111.64Z" fill="#646568"/>
<path d="M27.0759 111.032C26.8092 111.032 26.5265 110.952 26.2279 110.792C25.9292 110.632 25.6519 110.371 25.3959 110.008C25.1505 109.645 24.9479 109.165 24.7879 108.568C24.6279 107.971 24.5479 107.235 24.5479 106.36C24.5479 105.667 24.6332 104.963 24.8039 104.248C24.9852 103.523 25.2625 102.84 25.6359 102.2C26.0199 101.549 26.5105 100.989 27.1079 100.52C27.7159 100.04 28.4519 99.7093 29.3159 99.528C29.6892 99.4426 30.1105 99.3626 30.5799 99.288C31.0599 99.2026 31.5452 99.128 32.0359 99.064C32.5372 98.9893 33.0065 98.9306 33.4439 98.888C33.8919 98.8453 34.2705 98.824 34.5799 98.824C35.0812 98.824 35.4385 98.9146 35.6519 99.096C35.8759 99.2666 35.9879 99.432 35.9879 99.592C35.9879 99.6986 35.9452 99.8 35.8599 99.896C35.7745 99.9813 35.6092 100.035 35.3639 100.056C35.2679 100.067 35.0652 100.093 34.7559 100.136C34.4465 100.168 34.0732 100.216 33.6359 100.28C33.1985 100.344 32.7399 100.413 32.2599 100.488C31.7905 100.552 31.3319 100.621 30.8839 100.696C30.4465 100.76 30.0679 100.819 29.7479 100.872C28.8625 101.043 28.1639 101.336 27.6519 101.752C27.1399 102.168 26.7665 102.659 26.5319 103.224C26.2972 103.789 26.1479 104.371 26.0839 104.968C26.5105 104.872 26.9745 104.771 27.4759 104.664C27.9879 104.557 28.4785 104.461 28.9479 104.376C29.4172 104.28 29.8225 104.205 30.1639 104.152C30.5159 104.099 30.7505 104.072 30.8679 104.072C31.0919 104.072 31.2305 104.12 31.2839 104.216C31.3479 104.312 31.3799 104.435 31.3799 104.584C31.3799 104.872 30.9105 105.192 29.9719 105.544C29.0439 105.896 27.7265 106.195 26.0199 106.44C26.0199 106.803 26.0252 107.176 26.0359 107.56C26.0572 107.933 26.0892 108.28 26.1319 108.6C26.1745 108.92 26.2279 109.176 26.2919 109.368C26.3559 109.56 26.4412 109.656 26.5479 109.656C26.7932 109.656 27.1132 109.581 27.5079 109.432C27.9132 109.283 28.3345 109.101 28.7719 108.888C29.2092 108.675 29.6092 108.467 29.9719 108.264C30.3452 108.061 30.6172 107.901 30.7879 107.784C30.9905 107.656 31.2092 107.517 31.4439 107.368C31.6785 107.219 31.8545 107.144 31.9719 107.144C32.1212 107.144 32.1959 107.229 32.1959 107.4C32.1959 107.496 32.1105 107.683 31.9399 107.96C31.7799 108.237 31.5452 108.552 31.2359 108.904C30.9265 109.245 30.5585 109.581 30.1319 109.912C29.7159 110.232 29.2465 110.499 28.7239 110.712C28.2119 110.925 27.6625 111.032 27.0759 111.032Z" fill="#646568"/>
<path d="M219.854 9.20136C220.283 8.85337 220.913 8.91877 221.261 9.34762L226.931 16.3365C227.279 16.7654 227.214 17.3945 226.785 17.7424L219.796 23.4142C219.367 23.7619 218.738 23.6954 218.39 23.2666C218.042 22.8377 218.108 22.2086 218.537 21.8607L224.211 17.2555L224.241 16.8133L224.278 16.2412L219.708 10.6081C219.36 10.1794 219.425 9.5494 219.854 9.20136ZM101.226 72.5354L102.036 73.1207L102.846 73.7073C102.451 74.2542 102.156 74.6781 101.961 74.9636C101.864 75.1063 101.791 75.2152 101.744 75.2867C101.72 75.3223 101.702 75.3487 101.691 75.3659C101.685 75.3746 101.681 75.3808 101.678 75.3848C101.677 75.3867 101.676 75.3883 101.676 75.3891L99.9968 74.3037L99.9973 74.3024L99.9987 74.3007C99.9997 74.299 100.001 74.2961 100.003 74.2934C100.006 74.2878 100.011 74.2801 100.018 74.2702C100.032 74.2495 100.051 74.2187 100.077 74.1794C100.129 74.101 100.207 73.9863 100.309 73.8366C100.514 73.5369 100.82 73.0977 101.226 72.5354ZM216.542 15.5489C217.977 15.5584 219.278 15.5872 220.426 15.6255L220.36 17.6247C219.228 17.5869 217.945 17.5586 216.529 17.5492L216.542 15.5489ZM106.481 65.8916L108.004 67.1893C107.002 68.3651 106.12 69.4429 105.357 70.4036L103.791 69.1609C104.567 68.1825 105.463 67.0861 106.481 65.8916ZM208.765 15.6881C210.124 15.6314 211.424 15.5939 212.657 15.5718L212.692 17.5715C211.475 17.5933 210.191 17.6297 208.848 17.6857L208.765 15.6881ZM112.174 59.6147L113.615 61.0013C112.599 62.0571 111.648 63.0764 110.763 64.0515L110.023 63.3801L109.283 62.7074C110.181 61.7185 111.144 60.6849 112.174 59.6147ZM201.013 16.1938C202.342 16.0757 203.637 15.9766 204.891 15.8949L205.021 17.8905C203.782 17.9712 202.504 18.069 201.191 18.1856L201.013 16.1938ZM118.211 53.6833L119.573 55.1473C118.519 56.1279 117.511 57.0932 116.551 58.0362L115.149 56.6086C116.122 55.6531 117.143 54.6766 118.211 53.6833ZM193.294 17.0658C194.604 16.8853 195.892 16.7245 197.155 16.582L197.379 18.5696C196.132 18.7103 194.861 18.8693 193.568 19.0475L193.294 17.0658ZM124.56 48.0905L125.842 49.6263C124.748 50.5392 123.692 51.446 122.673 52.3429L122.012 51.5919L121.351 50.8421C122.382 49.9337 123.452 49.015 124.56 48.0905ZM185.628 18.3204C186.917 18.0753 188.192 17.8502 189.451 17.6445L189.773 19.619C188.531 19.822 187.273 20.0433 186.002 20.2851L185.628 18.3204ZM131.202 42.8415L132.4 44.4429C131.263 45.2931 130.159 46.1434 129.086 46.9907L127.847 45.4217C128.932 44.5636 130.051 43.7026 131.202 42.8415ZM178.031 19.9792C179.302 19.6642 180.566 19.3708 181.82 19.0973L182.246 21.0518C181.01 21.3214 179.765 21.6107 178.512 21.921L178.031 19.9792ZM138.108 37.9555L139.219 39.6184C138.043 40.4047 136.895 41.1955 135.775 41.9879L134.62 40.355C135.754 39.5526 136.916 38.7519 138.108 37.9555ZM170.534 22.0723C171.782 21.6829 173.027 21.3156 174.267 20.9698L174.804 22.8967C173.583 23.2373 172.357 23.5978 171.129 23.981L170.534 22.0723ZM145.265 33.4421L146.287 35.1612C145.075 35.8806 143.889 36.6074 142.728 37.3392L141.661 35.6484C142.837 34.9072 144.038 34.1707 145.265 33.4421ZM163.183 24.6261C164.401 24.1574 165.621 23.7121 166.839 23.2892L167.495 25.1788C166.297 25.5946 165.099 26.0322 163.902 26.4928L163.183 24.6261ZM153.435 31.1732C152.869 31.465 152.306 31.7635 151.743 32.0676C151.125 32.4022 150.512 32.7393 149.905 33.0781L148.929 31.332C149.544 30.9888 150.165 30.6472 150.792 30.3083C151.366 29.9979 151.941 29.6934 152.519 29.3957L153.435 31.1732ZM156.016 27.6759C157.198 27.122 158.384 26.5925 159.573 26.0869L160.357 27.9271C159.189 28.4234 158.025 28.9434 156.866 29.4867L156.016 27.6759Z" fill="#D0D0D3"/>
<path d="M9.59553 285.719C9.31329 286.194 8.69954 286.35 8.22482 286.068L0.488766 281.468C0.014254 281.186 -0.141448 280.573 0.140736 280.098L4.73969 272.361C5.02203 271.887 5.63581 271.732 6.1104 272.014C6.58492 272.296 6.74063 272.909 6.45843 273.384L2.72471 279.666L2.84901 280.091L3.01198 280.641L9.24681 284.348C9.72143 284.63 9.87754 285.244 9.59553 285.719ZM99.0411 185.304L98.0785 185.034L97.1159 184.764C97.298 184.114 97.4279 183.614 97.5122 183.279C97.5544 183.111 97.5849 182.984 97.6048 182.901C97.6147 182.859 97.6222 182.828 97.6269 182.808C97.6292 182.798 97.6314 182.79 97.6324 182.786C97.6329 182.784 97.6329 182.782 97.6331 182.781L99.5838 183.22V183.221L99.5832 183.223C99.5827 183.225 99.5825 183.228 99.5818 183.231C99.5803 183.238 99.5782 183.247 99.5756 183.258C99.57 183.282 99.5623 183.318 99.5514 183.364C99.5296 183.456 99.4961 183.59 99.4519 183.766C99.3634 184.118 99.2284 184.636 99.0411 185.304ZM10.5105 278.618C9.16095 279.105 7.93037 279.527 6.83892 279.888L6.21053 277.989C7.28594 277.633 8.49967 277.217 9.83169 276.737L10.5105 278.618ZM96.4046 193.354L94.5278 192.662C95.0618 191.212 95.517 189.896 95.9005 188.731L97.8002 189.356C97.4096 190.543 96.9471 191.881 96.4046 193.354ZM17.7611 275.801C16.5047 276.324 15.2977 276.808 14.1489 277.254L13.4252 275.39C14.5597 274.949 15.7515 274.472 16.9925 273.955L17.7611 275.801ZM93.2309 201.211L91.3989 200.408C91.9877 199.066 92.5281 197.781 93.0217 196.56L93.9484 196.934L94.8751 197.31C94.3745 198.548 93.8277 199.851 93.2309 201.211ZM24.8605 272.649C23.6541 273.218 22.4739 273.759 21.3249 274.269L20.5136 272.441C21.6485 271.937 22.8141 271.404 24.0056 270.841L24.8605 272.649ZM89.6146 208.863L87.8303 207.959C88.4812 206.675 89.0933 205.421 89.6685 204.204L91.477 205.06C90.8943 206.292 90.2739 207.561 89.6146 208.863ZM31.8038 269.163C30.6368 269.785 29.4831 270.381 28.3477 270.951L27.4507 269.163C28.5718 268.601 29.71 268.012 30.8619 267.398L31.8038 269.163ZM85.5881 216.304L83.8549 215.306C84.5662 214.071 85.244 212.856 85.8899 211.662L86.7696 212.138L87.6493 212.614C86.9952 213.822 86.3085 215.054 85.5881 216.304ZM38.5641 265.338C37.4392 266.013 36.3203 266.665 35.2102 267.293L34.2255 265.551C35.3209 264.932 36.425 264.289 37.5345 263.623L38.5641 265.338ZM81.1687 223.525L79.4914 222.436C80.2643 221.245 81.0069 220.066 81.7204 218.9L83.426 219.944C82.7035 221.125 81.9514 222.319 81.1687 223.525ZM45.1207 261.157C44.0363 261.892 42.9515 262.604 41.8697 263.293L40.7945 261.606C41.8609 260.926 42.9296 260.225 43.9979 259.501L45.1207 261.157ZM76.3757 230.496L74.7585 229.319C75.5908 228.175 76.3947 227.036 77.1719 225.906L78.8202 227.039C78.0331 228.184 77.2186 229.337 76.3757 230.496ZM51.4329 256.603C50.3961 257.399 49.3545 258.174 48.3103 258.927L47.1405 257.304C48.1687 256.563 49.1945 255.801 50.2148 255.017L51.4329 256.603ZM71.2188 237.203L69.6658 235.943C70.5539 234.85 71.4161 233.758 72.2525 232.67L73.838 233.888C72.9909 234.99 72.1183 236.096 71.2188 237.203ZM57.4488 251.667C56.4676 252.527 55.4766 253.367 54.4795 254.184L53.2117 252.638C54.1921 251.834 55.1652 251.009 56.1292 250.163L57.4488 251.667ZM64.3348 242.155C64.765 241.686 65.1911 241.211 65.6137 240.731C66.0787 240.204 66.5375 239.676 66.9899 239.148L68.5084 240.45C68.0501 240.984 67.5852 241.519 67.1142 242.054C66.6829 242.543 66.248 243.028 65.8091 243.507L64.3348 242.155ZM63.1209 246.329C62.2033 247.257 61.273 248.164 60.3318 249.049L58.9611 247.593C59.8852 246.723 60.7983 245.833 61.6984 244.923L63.1209 246.329Z" fill="#D0D0D3"/>
</svg>
